<svg width="32" height="32" viewBox="0 0 32 32" fill="none" xmlns="http://www.w3.org/2000/svg">
<path d="M28 17C28.5523 17 29 16.5523 29 16C29 15.4477 28.5523 15 28 15V17ZM4 15C3.44772 15 3 15.4477 3 16C3 16.5523 3.44772 17 4 17L4 15ZM28 15L4 15L4 17L28 17V15Z" fill="#00FF85"/>
<path d="M9.95956 23.3738C10.3501 23.7643 10.9832 23.7643 11.3738 23.3738C11.7643 22.9833 11.7643 22.3501 11.3738 21.9596L9.95956 23.3738ZM4 16L3.29289 15.2929C2.90237 15.6834 2.90237 16.3166 3.29289 16.7071L4 16ZM11.3738 10.0405C11.7643 9.64993 11.7643 9.01676 11.3738 8.62624C10.9832 8.23571 10.3501 8.23571 9.95956 8.62624L11.3738 10.0405ZM11.3738 21.9596L4.70711 15.2929L3.29289 16.7071L9.95956 23.3738L11.3738 21.9596ZM4.70711 16.7071L11.3738 10.0405L9.95956 8.62624L3.29289 15.2929L4.70711 16.7071Z" fill="#00FF85"/>
</svg>
