<svg width="70" height="70" viewBox="0 0 70 70" fill="none" xmlns="http://www.w3.org/2000/svg">
<path opacity="0.7" d="M9.5102 23.3926C9.5102 23.3926 5.607 33.4726 11.0922 43.6226C16.5774 53.7726 27.8754 59.1346 36.918 63.7196C45.9606 68.3046 55.3504 66.0716 59.8122 58.562C64.274 51.0524 58.1546 45.6918 58.1462 34.9832C58.1378 24.2746 59.7492 21.4396 53.9462 12.3928C48.1432 3.346 33.9178 1.3426 23.1602 8.0528C12.4026 14.763 9.5102 23.3926 9.5102 23.3926Z" fill="white"/>
<path d="M62.3 39.977C62.9543 36.9518 62.6695 33.799 61.4838 30.94C59.8668 26.9416 56.3934 24.101 52.5 22.4434C46.8426 20.0354 41.2902 19.9892 36.6912 15.2698C35.273 13.8138 34.083 12.1464 32.6312 10.7198C28.3598 6.5198 22.1046 7.0252 17.4356 10.36C7.7 17.3222 4.1916 31.0996 4.7334 42.49C4.977 47.6 7.42 52.36 11.2798 55.72C20.0158 63.3052 34.8502 62.0298 44.8798 58.0706C52.36 55.111 60.5374 48.223 62.3 39.977Z" fill="#92E3A9"/>
<path opacity="0.7" d="M62.3 39.977C62.9543 36.9518 62.6695 33.799 61.4838 30.94C59.8668 26.9416 56.3934 24.101 52.5 22.4434C46.8426 20.0354 41.2902 19.9892 36.6912 15.2698C35.273 13.8138 34.083 12.1464 32.6312 10.7198C28.3598 6.5198 22.1046 7.0252 17.4356 10.36C7.7 17.3222 4.1916 31.0996 4.7334 42.49C4.977 47.6 7.42 52.36 11.2798 55.72C20.0158 63.3052 34.8502 62.0298 44.8798 58.0706C52.36 55.111 60.5374 48.223 62.3 39.977Z" fill="white"/>
<path d="M11.347 18.9294H8.87601C8.87601 18.9294 9.12241 18.3176 11.0446 18.522C11.0446 18.522 12.0022 17.4244 13.398 17.4244C13.4249 17.1652 13.5378 16.9225 13.7187 16.735C13.8996 16.5475 14.1382 16.4259 14.3962 16.3898C15.3496 16.205 15.5344 17.0548 15.5344 17.0548C15.7948 16.9426 16.0754 16.8848 16.359 16.8848C16.6426 16.8848 16.9232 16.9426 17.1836 17.0548C18.1286 17.4286 17.9368 18.5192 17.9368 18.5192C17.9368 18.5192 20.664 18.4296 21.133 18.9294H19.74" stroke="#263238" stroke-width="0.5" stroke-linecap="round" stroke-linejoin="round"/>
<path d="M53.8552 32.8622H43.0752C43.0752 32.8622 43.5218 31.7604 46.9826 32.1286C46.9826 32.1286 48.706 30.1518 51.2204 30.1518C51.2204 30.1518 51.3044 28.6118 53.0208 28.2856C54.7372 27.9594 55.0704 29.4868 55.0704 29.4868C55.0704 29.4868 56.3388 28.8148 58.0412 29.4868C59.7436 30.1588 59.3992 32.123 59.3992 32.123C59.3992 32.123 64.3118 31.962 65.1532 32.8622H62.6626" stroke="#263238" stroke-width="0.5" stroke-linecap="round" stroke-linejoin="round"/>
<path d="M46.9098 46.2H55.5072C55.5072 46.2 55.153 45.3222 52.3922 45.6148C52.3922 45.6148 51.016 44.0384 49.0112 44.0384C49.0112 44.0384 48.944 42.8134 47.5762 42.5502C46.2084 42.287 45.941 43.5078 45.941 43.5078C45.941 43.5078 44.9288 42.9716 43.5722 43.5078C42.2156 44.044 42.4886 45.6078 42.4886 45.6078C42.4886 45.6078 38.5686 45.479 37.898 46.1972H40.5006" stroke="#263238" stroke-width="0.5" stroke-linecap="round" stroke-linejoin="round"/>
<path d="M15.8844 42.1806H6.8726C7.546 41.4624 11.4632 41.5912 11.4632 41.5912C11.4632 41.5912 11.1832 40.0246 12.5468 39.4912C13.9104 38.9578 14.9156 39.4912 14.9156 39.4912C14.9156 39.4912 15.1816 38.2704 16.5508 38.5336C17.92 38.7968 17.9858 40.0218 17.9858 40.0218C19.992 40.0218 21.3668 41.5982 21.3668 41.5982C24.1276 41.3056 24.4832 42.1834 24.4832 42.1834H23.4766" stroke="#263238" stroke-width="0.5" stroke-linecap="round" stroke-linejoin="round"/>
<path d="M27.482 28.7224H23.8672C23.8672 28.7224 24.0786 28.2002 25.718 28.3752C25.718 28.3752 26.5342 27.4386 27.7256 27.4386C27.749 27.2174 27.8456 27.0104 28 26.8503C28.1545 26.6903 28.358 26.5864 28.5782 26.5552C29.3916 26.3984 29.5498 27.1236 29.5498 27.1236C29.7719 27.0275 30.0113 26.9779 30.2533 26.9779C30.4953 26.9779 30.7347 27.0275 30.9568 27.1236C31.7632 27.4414 31.5994 28.3724 31.5994 28.3724C31.5994 28.3724 33.9276 28.2954 34.3266 28.7224H33.46" stroke="#263238" stroke-width="0.5" stroke-linecap="round" stroke-linejoin="round"/>
<path d="M11.7782 18.9294H12.1898" stroke="#263238" stroke-width="0.5" stroke-linecap="round" stroke-linejoin="round"/>
<path d="M14.4662 18.9238H18.242" stroke="#263238" stroke-width="0.5" stroke-linecap="round" stroke-linejoin="round"/>
<path d="M28.3346 28.6958H28.8512" stroke="#263238" stroke-width="0.5" stroke-linecap="round" stroke-linejoin="round"/>
<path d="M27.2258 11.2364H23.611C23.611 11.2364 23.8224 10.7142 25.4618 10.8892C25.4618 10.8892 26.278 9.9526 27.4694 9.9526C27.4928 9.73141 27.5894 9.52436 27.7438 9.36432C27.8983 9.20428 28.1018 9.10041 28.322 9.0692C29.1354 8.9124 29.2936 9.6376 29.2936 9.6376C29.5147 9.54245 29.7529 9.49339 29.9936 9.49339C30.2343 9.49339 30.4725 9.54245 30.6936 9.6376C31.5 9.9554 31.3362 10.8864 31.3362 10.8864C31.3362 10.8864 33.6644 10.8108 34.0634 11.2364H33.1884" stroke="#263238" stroke-width="0.5" stroke-linecap="round" stroke-linejoin="round"/>
<path d="M28.077 11.2112H28.595" stroke="#263238" stroke-width="0.5" stroke-linecap="round" stroke-linejoin="round"/>
<path d="M22.722 42.1806H22.3398" stroke="#263238" stroke-width="0.5" stroke-linecap="round" stroke-linejoin="round"/>
<path d="M17.444 42.1806H18.76" stroke="#263238" stroke-width="0.5" stroke-linecap="round" stroke-linejoin="round"/>
<path d="M41.2006 46.2056H42.469" stroke="#263238" stroke-width="0.5" stroke-linecap="round" stroke-linejoin="round"/>
<path d="M54.8856 32.8622H55.888" stroke="#263238" stroke-width="0.5" stroke-linecap="round" stroke-linejoin="round"/>
<path d="M18.2658 29.5078C18.2658 29.5078 15.4 31.234 14.6132 31.3124C13.8264 31.3908 11.9602 31.3124 11.9602 31.3124C11.9602 31.3124 11.5836 31.4272 11.3316 31.5266C11.0516 31.6386 10.4916 31.7828 10.6148 31.4678C10.738 31.1528 11.3148 30.6404 11.648 30.6446C11.7306 30.6446 11.928 30.8098 11.928 30.8098L13.9468 30.6446L15.1018 30.1028C15.1018 30.1028 14.8414 30.0524 14.476 29.9852H14.4676C13.7102 29.8452 12.5076 29.6254 12.243 29.6142C11.8412 29.5974 10.3586 27.9874 10.2032 27.7942C10.0478 27.601 9.2568 27.8292 9.0608 27.7508C8.8648 27.6724 8.9936 27.4876 8.9936 27.4876C9.33734 27.259 9.72263 27.1001 10.1276 27.02C10.6582 26.9178 10.6148 27.3322 10.6148 27.3322C10.6148 27.3322 12.1548 28.4634 12.4684 28.4634C12.782 28.4634 15.6436 28.3724 16.0328 28.2156C16.3618 28.0756 17.731 29.0976 18.1454 29.414C18.2224 29.4728 18.2658 29.5078 18.2658 29.5078Z" fill="#757575" stroke="#263238" stroke-width="0.2" stroke-linecap="round" stroke-linejoin="round"/>
<path d="M10.206 27.7956C10.0492 27.6066 9.25959 27.8306 9.06359 27.7522C8.86759 27.6738 8.99639 27.489 8.99639 27.489C9.33918 27.2602 9.72349 27.1009 10.1276 27.02C10.6582 26.9178 10.6148 27.3322 10.6148 27.3322C10.6148 27.3322 10.1752 27.4204 10.206 27.7956Z" fill="#263238"/>
<path d="M18.2658 29.5078C18.2658 29.5078 15.4 31.234 14.6132 31.3124C13.8264 31.3908 11.9602 31.3124 11.9602 31.3124C11.9602 31.3124 11.5836 31.4272 11.3316 31.5266C11.0516 31.6386 10.4916 31.7828 10.6148 31.4678C10.738 31.1528 11.3148 30.6404 11.648 30.6446C11.7306 30.6446 11.928 30.8098 11.928 30.8098L13.9468 30.6446L15.1018 30.1028C15.1018 30.1028 14.8414 30.0524 14.476 29.9852H14.4886L15.7346 30.0496C15.7346 30.0496 15.1144 29.8606 15.1746 29.75C15.2348 29.6394 16.0146 30.0454 17.0674 29.6478C17.4075 29.5079 17.7695 29.4288 18.137 29.414C18.2224 29.4728 18.2658 29.5078 18.2658 29.5078Z" fill="#263238"/>
<path d="M18.935 26.8072L20.2384 28.5488L22.3104 30.079C22.3104 30.079 23.0034 30.2624 23.0902 30.4402C23.107 30.4724 23.2302 30.8742 23.1644 30.8602C22.862 30.8028 22.7234 30.6642 22.6408 30.7076C22.3748 30.8476 22.7346 31.1038 22.6408 31.1276C22.3804 31.1738 22.057 30.4136 22.057 30.4136C22.057 30.4136 20.2874 29.3104 19.9052 29.0878C19.523 28.8652 18.1762 27.8278 18.1762 27.8278C18.1762 27.8278 18.5458 27.0032 18.935 26.8072Z" fill="#BFBFBF" stroke="#263238" stroke-width="0.2" stroke-miterlimit="10"/>
<path d="M20.7956 28.168L21.0448 28.6846C21.0448 28.6846 21.1918 28.5446 21.1918 28.6846C21.1918 28.8246 20.2496 29.7262 19.9178 29.645C19.586 29.5638 19.5314 29.3762 19.5314 29.3762C19.5314 29.3762 20.0018 28.3794 20.195 28.2688C20.3882 28.1582 20.7956 28.168 20.7956 28.168Z" fill="#92E3A9" stroke="#263238" stroke-width="0.2" stroke-linecap="round" stroke-linejoin="round"/>
<path d="M15.7374 27.2818C15.7374 27.2818 18.8622 28.9058 18.7628 29.4504C18.6634 29.995 18.5794 30.051 18.5794 30.051C18.5794 30.051 19.7148 29.6702 19.873 28.9422C20.0312 28.2142 18.06 26.2934 15.7374 27.2818Z" fill="#263238"/>
<path d="M16.8966 25.557C17.7554 25.6328 18.5754 25.9491 19.2626 26.4698C20.1768 27.1698 20.7452 27.9384 20.6752 28.2688C20.5646 28.7952 18.7502 29.4742 17.5882 29.778C16.4262 30.0818 15.169 29.218 15.183 28.6678C15.197 28.1176 15.8424 28.1722 15.8424 28.1722C15.8424 28.1722 16.4262 25.9994 16.8966 25.557Z" fill="#263238"/>
<path d="M18.592 26.3872C18.4266 26.3334 18.2483 26.3335 18.083 26.3876C17.9177 26.4417 17.7738 26.547 17.6722 26.6882C17.3262 27.1906 16.8091 27.5499 16.2176 27.699C14.9436 28.0056 13.0466 27.5996 13.0466 27.5996C13.1805 27.1448 13.347 26.7003 13.545 26.2696C13.8908 25.4996 14.721 24.9872 15.6072 24.8696C15.9838 24.8178 17.7548 25.494 17.7548 25.494C20.4652 24.7296 20.937 27.706 20.937 27.706H20.6808C20.7667 27.8675 20.805 28.05 20.7914 28.2324L20.0088 28.9324C19.4236 30.2442 18.0824 30.3324 17.9326 30.1084C17.9326 30.1084 19.6658 30.0902 20.1138 27.3462C20.181 26.929 19.2108 26.5846 18.592 26.3872Z" fill="#92E3A9" stroke="#263238" stroke-width="0.2" stroke-linecap="round" stroke-linejoin="round"/>
<path d="M16.8966 25.557L14.7588 25.158L12.4698 23.9764C12.4698 23.9764 11.998 23.4374 11.8006 23.4374C11.7642 23.4374 11.3512 23.5074 11.389 23.5564C11.5752 23.8 11.76 23.8658 11.76 23.9582C11.76 24.2578 11.3624 24.0506 11.3876 24.1388C11.4604 24.3922 12.2864 24.346 12.2864 24.346C12.2864 24.346 14.0588 25.445 14.427 25.69C14.7952 25.935 16.3184 26.684 16.3184 26.684C16.3184 26.684 16.8938 25.9924 16.8966 25.557Z" fill="#BFBFBF" stroke="#263238" stroke-width="0.2" stroke-miterlimit="10"/>
<path d="M17.1584 26.4418C16.8448 26.9486 16.0132 27.0018 16.0132 27.0018L15.3314 26.3536L15.0164 26.2668C15.1466 26.0316 15.183 25.0572 15.183 25.0572C15.183 25.0572 16.751 25.4142 16.9918 25.3582C17.2326 25.3022 17.3068 25.949 17.3068 25.949" fill="#92E3A9"/>
<path d="M17.1584 26.4418C16.8448 26.9486 16.0132 27.0018 16.0132 27.0018L15.3314 26.3536L15.0164 26.2668C15.1466 26.0316 15.183 25.0572 15.183 25.0572C15.183 25.0572 16.751 25.4142 16.9918 25.3582C17.2326 25.3022 17.3068 25.949 17.3068 25.949" stroke="#263238" stroke-width="0.2" stroke-linecap="round" stroke-linejoin="round"/>
<path d="M17.5882 26.4418C17.5882 26.4418 17.906 25.9 17.5882 25.557C17.5882 25.557 18.3974 25.1076 19.4208 25.6382C20.4442 26.1688 20.8026 26.88 20.937 27.699C20.937 27.699 20.3518 27.4848 20.097 28.2044" stroke="#263238" stroke-width="0.2" stroke-linecap="round" stroke-linejoin="round"/>
<path d="M20.8964 25.445C21.1274 25.5108 21.4228 25.865 21.1834 25.9714C20.944 26.0778 21.0658 26.229 21.0826 26.285C21.0994 26.341 21.1092 26.4698 20.8964 26.488C20.6836 26.5062 20.6668 26.4138 20.5828 26.5426C20.4988 26.6714 20.636 26.5944 20.4302 26.6826C20.2244 26.7708 20.2608 26.7792 20.1026 26.7848C19.9444 26.7904 19.7624 26.8828 19.6658 26.6252C19.5692 26.3676 20.482 25.3246 20.8964 25.445Z" fill="#263238"/>
<path d="M19.1366 24.724C18.1048 24.6666 17.8626 26.3718 18.676 27.4106C19.4894 28.4494 21.9058 24.8822 19.1366 24.724Z" fill="#BFBFBF" stroke="#263238" stroke-width="0.2" stroke-miterlimit="10"/>
<path d="M18.8286 25.76C18.942 25.5864 19.3466 26.11 19.3886 25.9812C19.4306 25.8524 19.628 26.1324 19.712 26.1632C19.8445 26.1829 19.9799 26.1614 20.0998 26.1016C20.2104 26.0456 20.6164 26.2934 20.7452 26.1744C20.7815 26.1476 20.8083 26.11 20.8216 26.0669C20.8349 26.0238 20.8342 25.9776 20.8194 25.935C20.8194 25.935 21.1246 25.8888 21.1792 25.76C21.2338 25.6312 20.9944 25.8188 21.1148 25.5584C21.2352 25.298 21.5348 25.1384 21.3164 25.0306C21.098 24.9228 20.9398 24.7996 21.0224 24.5966C21.105 24.3936 21.0504 24.0884 20.8656 24.0884C20.6808 24.0884 20.2104 24.2186 20.2286 23.9876C20.2468 23.7566 19.4908 23.6824 19.3788 23.8308C19.2668 23.9792 18.9588 23.751 18.7978 23.7538C18.6368 23.7566 18.1706 24.0884 18.2378 24.3012C18.305 24.514 18.1468 24.5196 18.081 24.7212C18.0537 24.7963 18.0437 24.8766 18.0517 24.9561C18.0597 25.0356 18.0855 25.1122 18.1272 25.1804C18.1832 25.2308 17.8472 25.13 17.9704 25.4156C18.0936 25.7012 18.0992 25.8286 18.1454 25.8468C18.1916 25.865 18.2112 25.5262 18.4044 25.452C18.5976 25.3778 18.5332 25.9322 18.5332 25.9322C18.5332 25.9322 18.6914 25.9714 18.8286 25.76Z" fill="#263238"/>
<path d="M18.76 26.1548C18.8352 26.129 18.9151 26.1195 18.9943 26.127C19.0734 26.1345 19.1501 26.1588 19.2192 26.1982" stroke="#263238" stroke-width="0.2" stroke-linecap="round" stroke-linejoin="round"/>
<path d="M19.789 26.3032C19.8247 26.285 19.8637 26.2741 19.9037 26.2713C19.9437 26.2685 19.9839 26.2738 20.0218 26.2869C20.0597 26.3 20.0945 26.3205 20.1243 26.3474C20.1541 26.3743 20.1781 26.4068 20.195 26.4432" stroke="#263238" stroke-width="0.2" stroke-linecap="round" stroke-linejoin="round"/>
<path d="M19.5314 26.635C19.5034 26.9304 19.6238 27.1432 19.3102 27.0788" stroke="#263238" stroke-width="0.2" stroke-linecap="round" stroke-linejoin="round"/>
<path d="M19.04 26.5524C19.0274 26.6056 18.9896 26.6406 18.9546 26.6336C18.9196 26.6266 18.9 26.5762 18.9112 26.5244C18.9224 26.4726 18.9616 26.4362 18.9966 26.4446C19.0316 26.453 19.04 26.5006 19.04 26.5524Z" fill="#263238"/>
<path d="M19.936 26.6994C19.9248 26.7512 19.887 26.7862 19.8506 26.7792C19.8142 26.7722 19.796 26.7218 19.8086 26.67C19.8212 26.6182 19.859 26.5818 19.894 26.5902C19.929 26.5986 19.9486 26.6462 19.936 26.6994Z" fill="#263238"/>
<path d="M55.8432 26.019C55.7589 26.0491 55.6681 26.0563 55.58 26.04C55.2356 25.9966 54.7512 25.7404 54.6574 25.3736C54.6512 25.3484 54.6432 25.3236 54.6336 25.2994C54.6047 25.1884 54.547 25.087 54.4664 25.0054C54.3858 24.9238 54.285 24.8649 54.1744 24.8346C54.1744 24.8346 53.9476 24.6498 53.9476 24.528C53.9476 24.4062 54.0974 24.1276 54.061 23.912C54.0246 23.6964 54.1324 23.3128 54.3018 23.2204C54.4333 23.157 54.5805 23.1334 54.7253 23.1526C54.8701 23.1717 55.0061 23.2328 55.1166 23.3282C55.3966 23.5732 55.6556 24.4482 55.9174 24.8962C56.1792 25.3442 56.1204 25.9 55.8432 26.019Z" fill="#92E3A9"/>
<path opacity="0.3" d="M55.58 26.04C55.2356 25.9966 54.7512 25.7404 54.6574 25.3736C54.6512 25.3484 54.6432 25.3236 54.6336 25.2994C54.8618 25.2812 55.2622 25.1594 55.3252 24.5994C55.328 24.5966 56.0098 25.438 55.58 26.04Z" fill="black" fill-opacity="0.7"/>
<path d="M55.8432 26.019C55.7589 26.0491 55.6681 26.0563 55.58 26.04C55.2356 25.9966 54.7512 25.7404 54.6574 25.3736C54.6512 25.3484 54.6432 25.3236 54.6336 25.2994C54.6047 25.1884 54.547 25.087 54.4664 25.0054C54.3858 24.9238 54.285 24.8649 54.1744 24.8346C54.1744 24.8346 53.9476 24.6498 53.9476 24.528C53.9476 24.4062 54.0974 24.1276 54.061 23.912C54.0246 23.6964 54.1324 23.3128 54.3018 23.2204C54.4333 23.157 54.5805 23.1334 54.7253 23.1526C54.8701 23.1717 55.0061 23.2328 55.1166 23.3282C55.3966 23.5732 55.6556 24.4482 55.9174 24.8962C56.1792 25.3442 56.1204 25.9 55.8432 26.019Z" stroke="#263238" stroke-width="0.5" stroke-linecap="round" stroke-linejoin="round"/>
<path d="M55.328 24.4426C55.328 24.4426 55.2944 25.1594 55.006 25.193" stroke="#263238" stroke-width="0.5" stroke-linecap="round" stroke-linejoin="round"/>
<path d="M55.132 32.4562L53.76 28.7882C53.7474 28.7518 53.7348 28.7154 53.725 28.6776C53.5122 27.9174 53.795 26.894 53.9756 26.257C54.0319 26.0473 54.0735 25.834 54.1002 25.6186C54.1456 25.2651 54.1732 24.9095 54.1828 24.5532C54.6546 24.2046 55.0228 24.787 55.0228 24.787C55.0228 24.787 54.8996 25.2504 55.2384 27.3196C55.5772 29.3888 56.0434 31.9886 55.132 32.4562Z" fill="white"/>
<path opacity="0.4" d="M54.7736 29.288L53.7306 28.6776C53.5178 27.9174 53.8006 26.894 53.9812 26.257C54.0375 26.0473 54.0791 25.834 54.1058 25.6186C54.9528 26.6966 54.7736 29.288 54.7736 29.288Z" fill="#92E3A9"/>
<path d="M55.132 32.4562L53.76 28.7882C53.7474 28.7518 53.7348 28.7154 53.725 28.6776C53.5122 27.9174 53.795 26.894 53.9756 26.257C54.0319 26.0473 54.0735 25.834 54.1002 25.6186C54.1456 25.2651 54.1732 24.9095 54.1828 24.5532C54.6546 24.2046 55.0228 24.787 55.0228 24.787C55.0228 24.787 54.8996 25.2504 55.2384 27.3196C55.5772 29.3888 56.0434 31.9886 55.132 32.4562Z" stroke="#263238" stroke-width="0.5" stroke-linecap="round" stroke-linejoin="round"/>
<path d="M52.3824 30.604C50.3202 31.465 44.0748 27.3728 43.9208 27.3406C43.9208 27.3406 48.9048 26.46 49.6454 26.2864C49.6768 26.2811 49.7074 26.2717 49.7364 26.2584C49.7588 26.2808 49.9884 26.4572 50.316 26.7274C51.5018 27.7088 53.9644 29.9418 52.3824 30.604Z" fill="white"/>
<path opacity="0.4" d="M52.3824 30.604C50.3202 31.465 44.0748 27.3728 43.9208 27.3406C43.9208 27.3406 48.9048 26.46 49.6454 26.2864C49.8675 26.4255 50.0911 26.5725 50.316 26.7274C51.5018 27.7088 53.9644 29.9418 52.3824 30.604Z" fill="#92E3A9"/>
<path d="M52.3824 30.604C50.3202 31.465 44.0748 27.3728 43.9208 27.3406C43.9208 27.3406 48.9048 26.46 49.6454 26.2864C49.6768 26.2811 49.7074 26.2717 49.7364 26.2584C49.7588 26.2808 49.9884 26.4572 50.316 26.7274C51.5018 27.7088 53.9644 29.9418 52.3824 30.604Z" stroke="#263238" stroke-width="0.5" stroke-linecap="round" stroke-linejoin="round"/>
<path d="M55.5716 30.884C55.7228 32.0824 55.258 32.7544 54.3046 32.5724L54.1968 32.55C52.5266 32.193 52.3124 31.213 50.1732 29.47C49.4326 28.8638 48.7074 28.3794 48.0886 27.9468C47.1086 27.2566 46.3848 26.6952 46.2896 25.9868C46.1356 24.8262 44.7062 23.1434 47.3746 22.1382C49.3794 21.385 52.8052 25.2532 54.3046 27.7186C54.5706 28.1531 54.8091 28.6038 55.0186 29.0682" fill="white"/>
<path opacity="0.4" d="M54.1968 32.55C52.5266 32.193 52.3124 31.213 50.1732 29.47C49.4326 28.8638 48.7074 28.3794 48.0886 27.9468L48.958 27.6948L49.49 27.8894C50.4362 28.77 51.3168 29.7184 52.1248 30.7272C52.6829 31.4707 53.3882 32.0912 54.1968 32.55Z" fill="#92E3A9"/>
<path d="M55.5716 30.884C55.7228 32.0824 55.258 32.7544 54.3046 32.5724L54.1968 32.55C52.5266 32.193 52.3124 31.213 50.1732 29.47C49.4326 28.8638 48.7074 28.3794 48.0886 27.9468C47.1086 27.2566 46.3848 26.6952 46.2896 25.9868C46.1356 24.8262 44.7062 23.1434 47.3746 22.1382C49.3794 21.385 52.8052 25.2532 54.3046 27.7186C54.5706 28.1531 54.8091 28.6038 55.0186 29.0682" stroke="#263238" stroke-width="0.5" stroke-linecap="round" stroke-linejoin="round"/>
<path d="M49.49 22.2152C50.4434 22.3888 52.57 24.3502 52.6582 24.5532C52.7464 24.7562 52.997 25.1888 52.997 25.1888H53.2434C53.2434 25.1888 52.8122 26.9738 52.1052 27.65C51.3982 28.3262 48.4862 28.4186 48.2034 28.3276C47.9869 28.2389 47.7871 28.1139 47.6126 27.958L45.4902 27.3406L49.49 22.2152Z" fill="#263238"/>
<path d="M37.0636 25.949C36.841 26.4068 35.7406 26.7694 35.6636 26.9892C35.582 27.1597 35.4558 27.3048 35.2982 27.4092C35.2496 27.356 35.2226 27.2866 35.2226 27.2146C35.2226 27.1426 35.2496 27.0732 35.2982 27.02C35.476 26.8198 35.4956 26.3914 35.4956 26.3914C35.3442 26.3217 35.1885 26.2619 35.0294 26.2122C34.9762 26.1996 34.8628 26.1786 34.7298 26.1562C34.4638 26.11 34.1194 26.0554 34.0298 26.0316C33.9239 25.9936 33.8281 25.9318 33.7498 25.851C33.5706 25.865 33.2962 25.4912 33.46 25.5164C33.8986 25.5679 34.3416 25.5679 34.7802 25.5164C33.6406 25.2364 33.7484 24.9564 33.7484 24.9564C34.1054 25.1426 35.1176 25.2014 35.1176 25.2014C35.1176 25.2014 34.5072 24.9382 34.4008 24.7996C34.3781 24.766 34.3644 24.7271 34.361 24.6866C34.3575 24.6462 34.3645 24.6056 34.3812 24.5686C34.6652 24.7258 34.9669 24.8485 35.28 24.934C35.827 25.0456 36.3904 25.0499 36.939 24.9466L37.0636 25.949Z" fill="white"/>
<path opacity="0.4" d="M37.0636 25.949C36.841 26.4068 35.7406 26.7694 35.6636 26.9892C35.582 27.1597 35.4558 27.3048 35.2982 27.4092C35.2496 27.356 35.2226 27.2866 35.2226 27.2146C35.2226 27.1426 35.2496 27.0732 35.2982 27.02C35.476 26.8198 35.4956 26.3914 35.4956 26.3914C35.3442 26.3217 35.1885 26.2619 35.0294 26.2122C34.9762 26.1996 34.8628 26.1786 34.7298 26.1562C35.273 26.1464 35.9548 26.11 36.148 25.984C36.148 25.984 35.875 25.4478 35.9268 25.0208C35.9323 24.9448 35.9538 24.8708 35.99 24.8037C36.0262 24.7366 36.0763 24.6779 36.1368 24.6316C36.3048 24.5084 36.6016 24.6764 36.9194 24.9508H36.9264L37.0636 25.949Z" fill="#92E3A9"/>
<path d="M37.0636 25.949C36.841 26.4068 35.7406 26.7694 35.6636 26.9892C35.582 27.1597 35.4558 27.3048 35.2982 27.4092C35.2496 27.356 35.2226 27.2866 35.2226 27.2146C35.2226 27.1426 35.2496 27.0732 35.2982 27.02C35.476 26.8198 35.4956 26.3914 35.4956 26.3914C35.3442 26.3217 35.1885 26.2619 35.0294 26.2122C34.9762 26.1996 34.8628 26.1786 34.7298 26.1562C34.4638 26.11 34.1194 26.0554 34.0298 26.0316C33.9239 25.9936 33.8281 25.9318 33.7498 25.851C33.5706 25.865 33.2962 25.4912 33.46 25.5164C33.8986 25.5679 34.3416 25.5679 34.7802 25.5164C33.6406 25.2364 33.7484 24.9564 33.7484 24.9564C34.1054 25.1426 35.1176 25.2014 35.1176 25.2014C35.1176 25.2014 34.5072 24.9382 34.4008 24.7996C34.3781 24.766 34.3644 24.7271 34.361 24.6866C34.3575 24.6462 34.3645 24.6056 34.3812 24.5686C34.6652 24.7258 34.9669 24.8485 35.28 24.934C35.827 25.0456 36.3904 25.0499 36.939 24.9466V24.9466L37.0636 25.949Z" stroke="#263238" stroke-width="0.5" stroke-linecap="round" stroke-linejoin="round"/>
<path d="M33.7638 25.8468C33.7638 25.8468 33.6434 25.8258 34.1838 25.8076C34.4206 25.8038 34.6571 25.7874 34.8922 25.7586" stroke="#263238" stroke-width="0.5" stroke-linecap="round" stroke-linejoin="round"/>
<path d="M58.3268 19.4754C58.5886 19.4138 59.388 18.8594 59.6806 18.5052C59.8785 18.2533 60.0458 17.9789 60.179 17.6876C60.214 17.7083 60.2431 17.7375 60.2637 17.7725C60.2843 17.8075 60.2956 17.8472 60.2966 17.8878C60.2896 18.0628 59.9424 18.6284 59.9424 18.6284C59.9424 18.6284 60.7348 17.997 60.9224 17.64C60.9224 17.64 61.1758 17.8122 60.4072 18.6984C60.7954 18.4885 61.1576 18.2338 61.4866 17.9396C61.607 17.8248 61.5972 18.2882 61.4432 18.3806C61.4262 18.4909 61.384 18.5958 61.32 18.6872C61.229 18.795 60.7138 19.2906 60.606 19.4138C60.5035 19.5475 60.41 19.6878 60.326 19.8338C60.326 19.8338 60.5864 20.1726 60.8482 20.2342C60.9189 20.2481 60.9819 20.2881 61.0246 20.3461C61.0674 20.4042 61.0869 20.4761 61.0792 20.5478C60.8912 20.5543 60.705 20.5098 60.5402 20.419C60.3568 20.279 59.2494 20.6192 58.8028 20.3728" fill="white"/>
<path d="M58.3268 19.4754C58.5886 19.4138 59.388 18.8594 59.6806 18.5052C59.8785 18.2533 60.0458 17.9789 60.179 17.6876C60.214 17.7083 60.2431 17.7375 60.2637 17.7725C60.2843 17.8075 60.2956 17.8472 60.2966 17.8878C60.2896 18.0628 59.9424 18.6284 59.9424 18.6284C59.9424 18.6284 60.7348 17.997 60.9224 17.64C60.9224 17.64 61.1758 17.8122 60.4072 18.6984C60.7954 18.4885 61.1576 18.2338 61.4866 17.9396C61.607 17.8248 61.5972 18.2882 61.4432 18.3806C61.4262 18.4909 61.384 18.5958 61.32 18.6872C61.229 18.795 60.7138 19.2906 60.606 19.4138C60.5035 19.5475 60.41 19.6878 60.326 19.8338C60.326 19.8338 60.5864 20.1726 60.8482 20.2342C60.9189 20.2481 60.9819 20.2881 61.0246 20.3461C61.0674 20.4042 61.0869 20.4761 61.0792 20.5478C60.8912 20.5543 60.705 20.5098 60.5402 20.419C60.3568 20.279 59.2494 20.6192 58.8028 20.3728" stroke="#263238" stroke-width="0.5" stroke-linecap="round" stroke-linejoin="round"/>
<path d="M59.1192 20.3518C59.1192 20.3518 55.58 22.2152 54.8128 22.2152C53.7824 22.2152 50.7206 24.0198 50.7206 24.0198L49.49 21.0532C49.49 21.0532 52.1682 20.6234 52.9046 20.6444C53.7348 20.6668 54.3508 19.901 55.7046 19.7722C57.5498 19.5958 58.6278 19.4292 58.6278 19.4292" fill="white"/>
<path opacity="0.4" d="M59.1192 20.3518C59.1192 20.3518 55.58 22.2152 54.8128 22.2152C53.7824 22.2152 50.7206 24.0198 50.7206 24.0198L49.49 21.0532C49.49 21.0532 50.4252 20.9034 51.3422 20.7844C51.8917 21.1951 52.3029 21.7636 52.521 22.414C52.521 22.414 53.921 21.8778 54.1464 21.7252C54.3718 21.5726 54.1464 21.0098 54.1464 21.0098C54.3598 20.9714 54.5784 20.9714 54.7918 21.0098C55.1614 21.0728 54.9024 21.6566 54.9024 21.6566C56.3505 21.3741 57.7635 20.9347 59.1164 20.3462L59.1192 20.3518Z" fill="#92E3A9"/>
<path d="M59.1192 20.3518C59.1192 20.3518 55.58 22.2152 54.8128 22.2152C53.7824 22.2152 50.7206 24.0198 50.7206 24.0198L49.49 21.0532C49.49 21.0532 52.1682 20.6234 52.9046 20.6444C53.7348 20.6668 54.3508 19.901 55.7046 19.7722C57.5498 19.5958 58.6278 19.4292 58.6278 19.4292" stroke="#263238" stroke-width="0.5" stroke-linecap="round" stroke-linejoin="round"/>
<path d="M51.5508 24.0198L51.1308 24.1822L49.3332 24.8822C49.3332 24.8822 48.6248 26.39 47.9794 27.0984C47.334 27.8068 44.94 28.14 43.7052 27.8964C42.4704 27.6528 40.5986 28.665 39.7306 27.8964C38.8626 27.1278 36.7528 26.173 35.9226 24.8808C35.6692 24.486 35.7546 24.0716 35.9968 23.6866C36.5498 22.8088 37.912 22.0822 37.912 22.0822C39.6818 21.2991 41.5669 20.8079 43.4938 20.6276C44.9793 20.5016 46.4753 20.5959 47.9332 20.9076C48.4064 21.0028 48.6864 21.0658 48.7508 21.0098C49 20.7928 49.4732 20.8586 49.5656 20.8698H49.5824C49.5824 20.8698 49.5264 20.517 49.7686 20.4498C49.9296 20.4022 50.2222 20.4806 50.7486 20.8698C52.08 21.8568 51.5508 24.0198 51.5508 24.0198Z" fill="#92E3A9"/>
<path opacity="0.3" d="M51.1336 24.1822L49.336 24.8822C49.336 24.8822 48.6276 26.39 47.9822 27.0984C47.3368 27.8068 44.94 28.14 43.7052 27.8964C42.4704 27.6528 40.5986 28.665 39.7306 27.8964C38.8626 27.1278 36.7528 26.173 35.9226 24.8808C35.6692 24.486 35.7546 24.0716 35.9968 23.6866C35.9968 23.6866 35.9226 25.27 37.2162 25.8006C38.5098 26.3312 38.6162 26.3088 38.6162 26.3088C38.6162 26.3088 39.8342 27.6248 40.222 27.8096C40.6098 27.9944 43.2306 27.2132 43.4714 27.3182C43.7122 27.4232 44.5788 28.105 45.9998 27.643C47.4208 27.181 48.7886 25.8888 48.769 25.0404C48.7568 24.5465 48.7755 24.0522 48.825 23.5606C48.825 23.5606 49.385 24.1206 49.693 24.1724C49.693 24.1724 50.2446 23.3842 50.3202 23.0636C50.3202 23.0636 50.6198 23.2176 50.4056 24.0184C50.1914 24.8192 51.0958 23.2862 51.0958 22.659C51.1 22.2096 51.38 23.1 51.1336 24.1822Z" fill="black" fill-opacity="0.7"/>
<path opacity="0.3" d="M47.9332 20.9076C47.7148 21.2534 47.1002 21.7616 45.3684 21.8106C42.7182 21.8848 42.5684 21.1988 42.5684 21.1988L43.491 20.6276C44.9774 20.5013 46.4744 20.5956 47.9332 20.9076Z" fill="black" fill-opacity="0.7"/>
<path opacity="0.3" d="M49.56 20.874H49.5768C49.5768 20.874 49.5208 20.5212 49.763 20.454C50.1074 20.6598 50.5456 20.9902 50.5442 21.336C50.2322 21.1499 49.9025 20.9952 49.56 20.874Z" fill="black" fill-opacity="0.7"/>
<path d="M51.5508 24.0198L51.1308 24.1822L49.3332 24.8822C49.3332 24.8822 48.6248 26.39 47.9794 27.0984C47.334 27.8068 44.94 28.14 43.7052 27.8964C42.4704 27.6528 40.5986 28.665 39.7306 27.8964C38.8626 27.1278 36.7528 26.173 35.9226 24.8808C35.6692 24.486 35.7546 24.0716 35.9968 23.6866C36.5498 22.8088 37.912 22.0822 37.912 22.0822C39.6818 21.2991 41.5669 20.8079 43.4938 20.6276C44.9793 20.5016 46.4753 20.5959 47.9332 20.9076C48.4064 21.0028 48.6864 21.0658 48.7508 21.0098C49 20.7928 49.4732 20.8586 49.5656 20.8698H49.5824C49.5824 20.8698 49.5264 20.517 49.7686 20.4498C49.9296 20.4022 50.2222 20.4806 50.7486 20.8698C52.08 21.8568 51.5508 24.0198 51.5508 24.0198Z" stroke="#263238" stroke-width="0.5" stroke-linecap="round" stroke-linejoin="round"/>
<path d="M45.2284 25.3708C45.1099 25.4651 44.986 25.5525 44.8574 25.6326C44.6349 25.7757 44.3979 25.8949 44.1504 25.9882C42.9058 26.4516 40.6952 26.2976 39.2924 25.6606C39.1519 25.5982 39.0153 25.5271 38.8836 25.4478C38.7027 25.3415 38.5358 25.2131 38.3866 25.0656C37.303 23.9582 37.7706 23.0482 38.3866 22.6254C38.5548 22.5126 38.7318 22.4133 38.9158 22.3286C39.0558 22.2586 39.221 22.1886 39.3876 22.1312C40.9374 21.5586 43.2698 21.2912 44.8644 21.4788C45.0422 21.4984 45.2102 21.5236 45.3684 21.5572C45.99 21.6818 46.438 21.8974 46.5794 22.2152C47.0246 23.205 46.2938 24.5336 45.2284 25.3708Z" fill="white" stroke="#263238" stroke-width="0.5" stroke-linecap="round" stroke-linejoin="round"/>
<path d="M45.2284 25.3708C45.1099 25.4651 44.986 25.5525 44.8574 25.6326C44.3566 24.2933 44.3566 22.8181 44.8574 21.4788C45.0352 21.4984 45.2032 21.5236 45.3614 21.5572C44.66 22.9782 45.017 24.64 45.2284 25.3708Z" fill="#263238"/>
<path d="M39.2924 25.6606C39.1519 25.5982 39.0153 25.5271 38.8836 25.4478C38.8015 24.4092 38.8122 23.3653 38.9158 22.3286C39.0558 22.2586 39.221 22.1886 39.3876 22.1312C39.0488 23.4962 39.1902 24.9592 39.2924 25.6606Z" fill="#263238"/>
<path d="M61.4404 18.3806C61.4404 18.3806 61.5272 18.2938 61.0806 18.5864C60.8849 18.72 60.682 18.843 60.473 18.9546" stroke="#263238" stroke-width="0.5" stroke-linecap="round" stroke-linejoin="round"/>
<path d="M49.5824 20.8768C49.9073 20.942 50.2087 21.0934 50.455 21.3151C50.7013 21.5367 50.8834 21.8206 50.9824 22.1368C51.3324 23.2386 51.1672 23.5676 51.1672 23.5676" stroke="#263238" stroke-width="0.5" stroke-linecap="round" stroke-linejoin="round"/>
<path d="M48.7508 21.0098C48.7508 21.0098 48.3756 21.8848 48.4092 22.5302C48.4428 23.1756 48.958 23.9778 48.958 23.9778" stroke="#263238" stroke-width="0.5" stroke-linecap="round" stroke-linejoin="round"/>
<path d="M46.8538 23.8378C46.8538 23.8378 45.248 27.0578 42.441 26.74" stroke="#263238" stroke-width="0.5" stroke-linecap="round" stroke-linejoin="round"/>
<path d="M37.527 23.9778C37.527 23.9778 37.401 25.5178 39.8748 26.4082" stroke="#263238" stroke-width="0.5" stroke-linecap="round" stroke-linejoin="round"/>
<path d="M49.336 24.8808C49.336 24.8808 50.54 23.177 50.4 22.4938" stroke="#263238" stroke-width="0.5" stroke-linecap="round" stroke-linejoin="round"/>
<g opacity="0.2">
<path d="M52.8962 25.2994C52.8962 25.2994 52.0226 27.3252 51.1 27.3196" stroke="white" stroke-width="0.5" stroke-linecap="round" stroke-linejoin="round"/>
<path d="M50.8606 24.6708C50.8606 24.6708 51.156 26.6672 50.1956 27.405" stroke="white" stroke-width="0.5" stroke-linecap="round" stroke-linejoin="round"/>
</g>
<path d="M41.4904 24.8808C41.2202 24.3096 40.5832 24.0702 39.9784 23.9778C39.5284 23.9139 39.0721 23.9073 38.6204 23.9582L38.6736 23.849L39.7306 21.6566C39.7306 21.6566 42.4914 20.9118 43.029 22.2166" fill="white"/>
<path d="M41.4904 24.8808C41.2202 24.3096 40.5832 24.0702 39.9784 23.9778C39.5284 23.9139 39.0721 23.9073 38.6204 23.9582L38.6736 23.849L39.7306 21.6566C39.7306 21.6566 42.4914 20.9118 43.029 22.2166" stroke="#263238" stroke-width="0.5" stroke-linecap="round" stroke-linejoin="round"/>
<path d="M39.9784 23.9778C39.5284 23.9139 39.0721 23.9073 38.6204 23.9582L38.6736 23.849C38.9172 23.5872 39.3498 23.3282 40.0414 23.149C40.087 23.2843 40.105 23.4274 40.0942 23.5698C40.0833 23.7122 40.044 23.851 39.9784 23.9778Z" fill="#263238"/>
<path d="M36.1508 20.3798C36.1508 20.3798 35.8512 21.1582 34.7802 20.4414C33.7092 19.7246 34.4288 19.208 34.4288 19.208C34.4288 19.208 34.0788 19.6476 35.0014 20.0186C35.0014 20.0186 34.3014 19.7386 34.5814 18.802C34.8614 17.8654 36.1508 20.3798 36.1508 20.3798Z" fill="#263238"/>
<path d="M40.2262 23.0202C40.1086 23.7076 38.8066 24.7674 37.8616 24.6638C37.422 24.6148 35.693 23.4304 35.7462 21.7966C35.784 20.6178 34.8306 19.4796 35.5418 17.6512C36.4056 15.4308 39.4968 14.4466 41.3308 16.4556C42.378 17.6022 42.0238 20.1544 41.02 22.1116" fill="white"/>
<path d="M40.2262 23.0202C40.1086 23.7076 38.8066 24.7674 37.8616 24.6638C37.422 24.6148 35.693 23.4304 35.7462 21.7966C35.784 20.6178 34.8306 19.4796 35.5418 17.6512C36.4056 15.4308 39.4968 14.4466 41.3308 16.4556C42.378 17.6022 42.0238 20.1544 41.02 22.1116" stroke="#263238" stroke-width="0.5" stroke-linecap="round" stroke-linejoin="round"/>
<path d="M37.527 19.6812C37.527 19.6812 38.3348 19.3676 38.829 19.9472" stroke="#263238" stroke-width="0.5" stroke-linecap="round" stroke-linejoin="round"/>
<path d="M38.08 21.0112C38.08 21.1638 38.0058 21.2912 37.9162 21.2912C37.8266 21.2912 37.7552 21.1652 37.7566 21.0112C37.758 20.8572 37.8322 20.7312 37.9204 20.7312C38.0086 20.7312 38.08 20.86 38.08 21.0112Z" fill="#263238"/>
<path d="M36.3118 20.8782C36.3118 21.0322 36.2376 21.1582 36.148 21.1582C36.0584 21.1582 35.9884 21.0336 35.9884 20.8782C35.9884 20.7228 36.064 20.5982 36.1536 20.5982C36.2432 20.5982 36.3132 20.72 36.3118 20.8782Z" fill="#263238"/>
<path d="M36.162 19.7666C36.162 19.7666 35.5838 19.3466 35.3584 19.8058" stroke="#263238" stroke-width="0.5" stroke-linecap="round" stroke-linejoin="round"/>
<path d="M36.708 21.0532C36.6856 21.259 36.1214 21.7532 36.3202 21.9618C36.4286 22.0812 36.5675 22.1688 36.722 22.2152" stroke="#263238" stroke-width="0.5" stroke-linecap="round" stroke-linejoin="round"/>
<path d="M36.54 22.743C37.1102 22.8375 37.6947 22.7972 38.2466 22.6254" stroke="#263238" stroke-width="0.5" stroke-linecap="round" stroke-linejoin="round"/>
<path d="M38.2438 22.6254C38.2438 22.6254 38.01 23.3898 37.4304 23.3842C36.8508 23.3786 36.7766 22.7752 36.7766 22.7752" stroke="#263238" stroke-width="0.5" stroke-linecap="round" stroke-linejoin="round"/>
<path d="M39.445 18.9126C39.445 18.9126 39.7754 20.1894 40.3256 20.5436C40.649 20.7458 40.9007 21.0446 41.0452 21.3976L41.2132 22.281C41.2132 22.281 42.5362 23.1742 43.2754 22.561C44.0146 21.9478 44.429 22.0234 44.429 22.0234C44.429 22.0234 44.3674 21.6846 43.729 21.7924C43.729 21.7924 45.129 21.9324 44.9134 20.6724C44.6978 19.4124 40.1674 17.0058 39.445 18.9126Z" fill="#263238"/>
<path d="M37.912 17.8822C37.912 17.8822 37.1532 17.7282 36.2782 18.7586C35.7056 19.4334 34.8684 19.3592 34.384 18.8748C33.8996 18.3904 33.9458 16.8672 33.2766 16.821C33.2766 16.821 33.9682 16.4514 34.4526 16.982C34.4526 16.982 34.776 16.6586 34.4302 16.2442C34.0844 15.8298 34.5982 14.7042 35.7602 14.9058C35.7602 14.9058 35.189 15.0458 35.5936 15.365C35.5936 15.365 36.3454 14.4676 37.2918 14.56C38.2382 14.6524 40.6098 13.5548 41.2118 15.4588C41.2118 15.4588 42.112 15.0878 42.6426 15.365C43.1732 15.6422 43.5666 17.1668 44.1434 17.5364C44.7202 17.906 45.4118 17.2354 45.8962 17.3516C46.3806 17.4678 46.7502 17.9508 46.7502 17.9508C46.7502 17.9508 46.2882 17.766 45.9662 17.997C45.9662 17.997 46.9112 18.69 47.3732 18.277C47.3732 18.277 47.166 20.3308 45.3656 20.5618C45.3656 20.5618 46.1048 20.8838 47.166 20.5618C46.3637 21.129 45.438 21.4975 44.4654 21.637C42.9254 21.8302 43.2432 20.7774 40.7666 20.3308C39.9938 20.1908 39.9812 19.0708 39.9812 19.0708C39.9121 19.3589 39.8913 19.6565 39.9196 19.9514C39.9658 20.447 40.3816 20.8768 40.7274 20.881C40.7274 20.881 39.7292 21.0574 39.2966 20.4708C38.556 19.4656 38.9508 18.1174 38.9508 18.1174C38.9508 18.1174 38.1766 17.7324 37.2442 18.7404C36.4868 19.558 35.9058 19.2934 35.9058 19.2934C36.2182 19.2531 36.5065 19.1045 36.7206 18.8734C37.037 18.5052 37.3912 17.8822 37.912 17.8822Z" fill="#263238"/>
<path d="M40.4292 21.0532C40.4292 21.0532 40.9962 20.0732 41.4274 20.4778C41.8586 20.8824 41.9062 21.1428 41.783 21.4046C41.6301 21.7192 41.4387 22.0136 41.2132 22.281C41.1782 22.3223 41.1347 22.3555 41.0856 22.3782C41.0365 22.401 40.9831 22.4128 40.929 22.4128C40.8749 22.4128 40.8215 22.401 40.7724 22.3782C40.7233 22.3555 40.6798 22.3223 40.6448 22.281" fill="white"/>
<path d="M40.4292 21.0532C40.4292 21.0532 40.9962 20.0732 41.4274 20.4778C41.8586 20.8824 41.9062 21.1428 41.783 21.4046C41.6301 21.7192 41.4387 22.0136 41.2132 22.281C41.1782 22.3223 41.1347 22.3555 41.0856 22.3782C41.0365 22.401 40.9831 22.4128 40.929 22.4128C40.8749 22.4128 40.8215 22.401 40.7724 22.3782C40.7233 22.3555 40.6798 22.3223 40.6448 22.281" stroke="#263238" stroke-width="0.5" stroke-linecap="round" stroke-linejoin="round"/>
<g opacity="0.2">
<path d="M39.284 17.3978C39.284 17.3978 39.3834 16.4388 38.3796 16.5312C37.1798 16.6418 36.435 18.5766 35.3584 18.5906C34.3784 18.6032 34.7802 17.3306 34.7802 17.3306" stroke="white" stroke-width="0.5" stroke-linecap="round" stroke-linejoin="round"/>
<path d="M39.8748 17.4174C39.8748 17.4174 39.291 17.7562 39.445 18.6018C39.599 19.4474 40.355 20.3112 41.5926 20.0186C42.8302 19.726 43.2908 19.6322 43.9376 20.2986C44.5844 20.965 46.207 20.377 45.8752 19.5902" stroke="white" stroke-width="0.5" stroke-linecap="round" stroke-linejoin="round"/>
<path d="M40.1338 16.863C40.1338 16.863 40.6686 18.9126 42.3864 18.6914C44.1042 18.4702 45.262 17.3068 45.92 17.6932" stroke="white" stroke-width="0.5" stroke-linecap="round" stroke-linejoin="round"/>
<path d="M40.5776 16.2624C40.5776 16.2624 40.7064 15.645 41.5744 16.3464C42.4424 17.0478 42.8666 17.5462 43.4574 17.2144" stroke="white" stroke-width="0.5" stroke-linecap="round" stroke-linejoin="round"/>
<path d="M40.04 16.52C40.04 16.52 40.502 16.0832 39.9294 15.5302C39.3568 14.9772 37.6586 16.1756 36.3846 16.121C35.1106 16.0664 36.1606 15.197 36.1606 15.197" stroke="white" stroke-width="0.5" stroke-linecap="round" stroke-linejoin="round"/>
<path d="M40.5776 15.5708C40.5776 15.5708 40.8352 14.7028 39.7096 14.4816" stroke="white" stroke-width="0.5" stroke-linecap="round" stroke-linejoin="round"/>
</g>
<path d="M33.4026 37.5466C33.5521 37.4246 33.7262 37.3364 33.913 37.2881C34.0998 37.2397 34.2949 37.2324 34.4848 37.2666C34.5683 37.2729 34.6494 37.2979 34.722 37.3396C34.7946 37.3814 34.8569 37.4389 34.9043 37.508C34.9517 37.577 34.9831 37.6558 34.996 37.7386C35.0089 37.8214 35.0031 37.906 34.979 37.9862C34.979 37.9862 36.1536 38.983 37.0636 40.9262C37.9736 42.8694 38.5826 46.34 38.5826 46.34L24.2942 45.64C24.2942 45.64 26.5174 42.091 26.9836 41.426C27.4498 40.761 28.3836 39.9364 28.3836 39.9364C28.4323 39.8061 28.5142 39.6909 28.6214 39.6022C28.7285 39.5136 28.8569 39.4545 28.994 39.431C29.4924 39.3204 29.8844 39.375 29.9936 39.5416C30.0234 39.6032 30.0388 39.6706 30.0388 39.739C30.0388 39.8074 30.0234 39.8749 29.9936 39.9364C29.9936 39.9364 30.0314 42.6678 30.289 42.7112C30.5466 42.7546 33.3956 42.4774 33.3956 42.4774C33.3956 42.4774 33.7204 40.992 33.7946 40.7106L33.6 38.4328C33.6 38.4328 32.97 37.779 33.4026 37.5466Z" fill="#263238"/>
<path d="M33.32 37.7594C33.32 37.7594 32.9266 37.1532 33.019 37.0076C33.1114 36.862 33.9794 36.603 34.2104 36.6604C34.4414 36.7178 34.6836 37.6726 34.447 37.7594C34.2104 37.8462 33.32 37.7594 33.32 37.7594Z" stroke="#263238" stroke-width="0.5" stroke-linecap="round" stroke-linejoin="round"/>
<path d="M29.8466 39.676C29.8466 39.676 30.1672 39.179 30.0916 39.0614C30.016 38.9438 29.3062 38.7296 29.1116 38.7814C28.917 38.8332 28.7238 39.6088 28.9184 39.6802C29.113 39.7516 29.8466 39.676 29.8466 39.676Z" stroke="#263238" stroke-width="0.5" stroke-linecap="round" stroke-linejoin="round"/>
<path opacity="0.4" d="M34.2076 40.4446C34.2076 40.4446 34.5394 39.2518 35.112 39.2392" stroke="white" stroke-width="0.5" stroke-linecap="round" stroke-linejoin="round"/>
<path opacity="0.4" d="M35.112 40.075C35.112 40.075 36.3902 40.3732 36.792 41.4246" stroke="white" stroke-width="0.5" stroke-linecap="round" stroke-linejoin="round"/>
<path opacity="0.4" d="M27.1726 41.797C27.1726 41.797 28.189 40.74 29.26 40.9248" stroke="white" stroke-width="0.5" stroke-linecap="round" stroke-linejoin="round"/>
<path opacity="0.4" d="M28.924 39.676C28.924 39.676 29.5428 39.4478 29.7822 40.075" stroke="white" stroke-width="0.5" stroke-linecap="round" stroke-linejoin="round"/>
<path opacity="0.4" d="M33.7708 37.9708C33.7708 37.9708 34.1572 37.4346 34.6598 37.7986" stroke="white" stroke-width="0.5" stroke-linecap="round" stroke-linejoin="round"/>
<path d="M55.0298 57.3776L53.9098 59.0646C53.9422 59.1548 53.9796 59.2432 54.0218 59.3292C54.1716 59.6428 54.4768 60.1482 54.9668 60.3778C55.6486 60.6984 55.8194 61.0862 56.2156 60.963C56.2488 60.9539 56.2812 60.9417 56.3122 60.9266C56.7798 60.7054 56.4256 60.3358 56.5782 60.0404C56.7308 59.745 57.407 59.6596 57.6534 59.4244C57.8998 59.1892 57.7542 58.8644 57.883 58.562C58.0118 58.2596 57.6814 57.9796 57.5064 57.9082C57.3314 57.8368 57.3524 57.2726 56.9786 57.3482C56.6048 57.4238 56.5432 57.0878 56.4634 57.0066C56.3836 56.9254 55.2188 57.2782 55.0298 57.3776Z" fill="white"/>
<path opacity="0.4" d="M54.0204 59.3292C54.1702 59.6428 54.4754 60.1482 54.9654 60.3778C55.6472 60.6984 55.818 61.0862 56.2142 60.963C55.8796 60.7502 55.6052 60.4492 55.5226 60.2252C55.4064 59.92 54.6532 59.5154 54.0204 59.3292Z" fill="#92E3A9"/>
<path d="M55.0298 57.3776L53.9098 59.0646C53.9422 59.1548 53.9796 59.2432 54.0218 59.3292C54.1716 59.6428 54.4768 60.1482 54.9668 60.3778C55.6486 60.6984 55.8194 61.0862 56.2156 60.963C56.2488 60.9539 56.2812 60.9417 56.3122 60.9266C56.7798 60.7054 56.4256 60.3358 56.5782 60.0404C56.7308 59.745 57.407 59.6596 57.6534 59.4244C57.8998 59.1892 57.7542 58.8644 57.883 58.562C58.0118 58.2596 57.6814 57.9796 57.5064 57.9082C57.3314 57.8368 57.3524 57.2726 56.9786 57.3482C56.6048 57.4238 56.5432 57.0878 56.4634 57.0066C56.3836 56.9254 55.2188 57.2782 55.0298 57.3776Z" stroke="#263238" stroke-width="0.5" stroke-linecap="round" stroke-linejoin="round"/>
<path d="M55.44 57.5792L52.4272 56.1092C51.674 55.741 50.0906 55.0214 49.2968 54.6266C49.0669 54.5037 48.8145 54.4284 48.5548 54.4054C48.2468 54.3858 48.0424 54.4698 47.8156 54.4418C47.4474 54.3956 44.7132 54.3088 44.7132 54.3088L44.24 56.042L43.281 59.563L44.289 59.2256L48.16 57.9278C48.16 57.9278 49.651 58.5858 51.1252 58.569C52.2942 58.555 53.7432 59.1864 54.2948 59.4496C54.4348 59.5182 54.5216 59.5616 54.5216 59.5616" fill="white"/>
<path opacity="0.4" d="M44.7146 54.3088L44.24 56.042L44.289 59.2256L48.16 57.9278C48.16 57.9278 49.651 58.5858 51.1252 58.569C52.2942 58.555 53.7432 59.1864 54.2948 59.4496C53.3876 58.7594 51.7832 58.1714 51.1364 58.1518C50.1242 58.1224 48.9566 57.127 48.9566 57.127C48.4666 57.666 47.5874 57.6366 47.5874 57.6366C48.8082 56.245 48.7564 55.0746 48.5548 54.4054C48.2468 54.3858 48.0424 54.4698 47.8156 54.4418C47.4488 54.3956 44.7146 54.3088 44.7146 54.3088Z" fill="#92E3A9"/>
<path d="M55.44 57.5792L52.4272 56.1092C51.674 55.741 50.0906 55.0214 49.2968 54.6266C49.0669 54.5037 48.8145 54.4284 48.5548 54.4054C48.2468 54.3858 48.0424 54.4698 47.8156 54.4418C47.4474 54.3956 44.7132 54.3088 44.7132 54.3088L44.24 56.042L43.281 59.563L44.289 59.2256L48.16 57.9278C48.16 57.9278 49.651 58.5858 51.1252 58.569C52.2942 58.555 53.7432 59.1864 54.2948 59.4496C54.4348 59.5182 54.5216 59.5616 54.5216 59.5616" stroke="#263238" stroke-width="0.5" stroke-linecap="round" stroke-linejoin="round"/>
<path d="M9.8 43.8102V45.836C9.72339 45.8934 9.64345 45.9462 9.5606 45.9942C9.2624 46.172 8.7206 46.424 8.1928 46.3442C7.448 46.2336 7.091 46.4618 6.8292 46.1412C6.80704 46.1148 6.78692 46.0867 6.769 46.0572C6.5016 45.6134 7.0014 45.4972 7.0378 45.171C7.0742 44.8448 6.5576 44.3954 6.4778 44.0636C6.398 43.7318 6.7004 43.5456 6.7578 43.2236C6.8152 42.9016 7.2478 42.8498 7.4326 42.8876C7.6174 42.9254 7.9128 42.4438 8.1816 42.7154C8.4504 42.987 8.6884 42.7392 8.799 42.7154C8.9096 42.6916 9.6922 43.6226 9.8 43.8102Z" fill="white"/>
<path opacity="0.4" d="M9.55499 45.9942C9.25679 46.172 8.71499 46.424 8.18719 46.3442C7.44239 46.2336 7.08539 46.4618 6.82359 46.1412C7.21979 46.1482 7.61459 46.0502 7.80359 45.9088C8.07659 45.7142 8.92499 45.7982 9.55499 45.9942Z" fill="#92E3A9"/>
<path d="M9.8 43.8102V45.836C9.72339 45.8934 9.64345 45.9462 9.5606 45.9942C9.2624 46.172 8.7206 46.424 8.1928 46.3442C7.448 46.2336 7.091 46.4618 6.8292 46.1412C6.80704 46.1148 6.78692 46.0867 6.769 46.0572C6.5016 45.6134 7.0014 45.4972 7.0378 45.171C7.0742 44.8448 6.5576 44.3954 6.4778 44.0636C6.398 43.7318 6.7004 43.5456 6.7578 43.2236C6.8152 42.9016 7.2478 42.8498 7.4326 42.8876C7.6174 42.9254 7.9128 42.4438 8.1816 42.7154C8.4504 42.987 8.6884 42.7392 8.799 42.7154C8.9096 42.6916 9.6922 43.6226 9.8 43.8102Z" stroke="#263238" stroke-width="0.5" stroke-linecap="round" stroke-linejoin="round"/>
<path d="M9.3394 43.75L12.663 44.1924C13.4932 44.303 15.211 44.5802 16.0902 44.6908C16.3498 44.7152 16.6017 44.7918 16.8308 44.9162C17.0982 45.0702 17.2228 45.2536 17.4258 45.3558C17.759 45.521 20.0858 46.9616 20.0858 46.9616L19.5188 48.6668L18.3694 52.1304L17.717 51.2904L15.2124 48.0704C15.2124 48.0704 13.6066 47.7904 12.3872 46.963C11.4212 46.305 9.8672 46.0292 9.2596 45.9424C9.1014 45.92 9.009 45.9102 9.009 45.9102" fill="white"/>
<path opacity="0.4" d="M20.0844 46.9616L19.5174 48.6668L17.7156 51.2918L15.211 48.0718C15.211 48.0718 13.6052 47.7918 12.3858 46.9644C11.4198 46.3064 9.86579 46.0306 9.25819 45.9438C10.3964 45.871 12.0582 46.27 12.607 46.6116C13.4666 47.1464 14.987 46.9644 14.987 46.9644C15.0976 47.684 15.8452 48.146 15.8452 48.146C15.5988 46.3106 16.2904 45.3656 16.8252 44.919C17.0926 45.073 17.2172 45.2564 17.4202 45.3586C17.759 45.521 20.0844 46.9616 20.0844 46.9616Z" fill="#92E3A9"/>
<path d="M9.3394 43.75L12.663 44.1924C13.4932 44.303 15.211 44.5802 16.0902 44.6908C16.3498 44.7152 16.6017 44.7918 16.8308 44.9162C17.0982 45.0702 17.2228 45.2536 17.4258 45.3558C17.759 45.521 20.0858 46.9616 20.0858 46.9616L19.5188 48.6668L18.3694 52.1304L17.717 51.2904L15.2124 48.0704C15.2124 48.0704 13.6066 47.7904 12.3872 46.963C11.4212 46.305 9.8672 46.0292 9.2596 45.9424C9.1014 45.92 9.009 45.9102 9.009 45.9102" stroke="#263238" stroke-width="0.5" stroke-linecap="round" stroke-linejoin="round"/>
<path d="M22.3902 47.2654L21.2884 55.6654L21.2352 56.0756C21.2352 56.0756 18.48 53.8818 16.7552 51.0468C16.6614 50.8914 16.5774 50.7402 16.5046 50.5904C15.2446 48.0102 17.1234 46.305 18.7992 45.7884C20.5702 45.2424 19.8464 46.3414 19.8464 46.3414C21.1162 46.1692 22.3902 47.2654 22.3902 47.2654Z" fill="#757575"/>
<path opacity="0.3" d="M21.2884 55.6682L21.2352 56.0784C21.2352 56.0784 18.48 53.8846 16.7552 51.0496C16.6614 50.8942 16.5774 50.743 16.5046 50.5932C16.373 49.9072 16.303 49.2842 16.4136 49.0532C16.709 48.4246 17.6316 48.1474 17.6316 48.1474C17.6316 48.1474 17.9858 52.1528 18.8496 53.3428C19.4492 54.1365 20.1358 54.8606 20.8964 55.5016L21.2884 55.6682Z" fill="black" fill-opacity="0.7"/>
<path d="M22.3902 47.2654L21.2884 55.6654L21.2352 56.0756C21.2352 56.0756 18.48 53.8818 16.7552 51.0468C16.6614 50.8914 16.5774 50.7402 16.5046 50.5904C15.2446 48.0102 17.1234 46.305 18.7992 45.7884C20.5702 45.2424 19.8464 46.3414 19.8464 46.3414C21.1162 46.1692 22.3902 47.2654 22.3902 47.2654Z" stroke="#263238" stroke-width="0.5" stroke-linecap="round" stroke-linejoin="round"/>
<path d="M47.1618 58.1756C46.6544 58.6051 46.068 58.9313 45.4356 59.136C43.2124 59.885 37.7566 60.48 37.7566 60.48L38.0688 59.8808L41.7578 52.7912C41.7578 52.7912 46.1874 53.1818 47.0638 54.033C47.0638 54.033 46.9532 52.7254 47.9472 54.6224C48.6402 55.9454 48.2272 57.2516 47.1618 58.1756Z" fill="#757575"/>
<path opacity="0.3" d="M47.1618 58.1756C46.6544 58.6051 46.068 58.9313 45.4356 59.136C43.2124 59.885 37.7566 60.48 37.7566 60.48L38.0688 59.8808C39.9798 59.5714 42.7588 58.968 43.4448 58.3744C44.4248 57.5344 44.1448 58.4626 44.1448 58.4626C44.1448 58.4626 45.8794 57.0976 46.2854 56.063C46.6914 55.0284 47.033 54.8856 47.1576 55.5674C47.2405 56.0231 47.2228 56.4913 47.1058 56.9395C46.9887 57.3876 46.7752 57.8047 46.48 58.1616C46.13 58.5816 46.5808 58.5018 47.1618 58.1756Z" fill="black" fill-opacity="0.7"/>
<path d="M47.1618 58.1756C46.6544 58.6051 46.068 58.9313 45.4356 59.136C43.2124 59.885 37.7566 60.48 37.7566 60.48L38.0688 59.8808L41.7578 52.7912C41.7578 52.7912 46.1874 53.1818 47.0638 54.033C47.0638 54.033 46.9532 52.7254 47.9472 54.6224C48.6402 55.9454 48.2272 57.2516 47.1618 58.1756Z" stroke="#263238" stroke-width="0.5" stroke-linecap="round" stroke-linejoin="round"/>
<path d="M19.0596 52.7912C17.7996 50.0206 21.679 46.7852 21.679 46.7852L23.24 46.5276C23.3996 43.9152 28.8218 41.6178 30.6362 41.4386C33.523 41.1586 39.277 45.0366 40.6742 47.0498C42.0714 49.063 41.5226 51.5298 41.5226 51.5298C41.5226 51.5298 44.9302 54.2696 45.1374 56.0756C45.3446 57.8816 39.3974 61.9738 32.8174 60.0642C26.2374 58.1546 21.9688 59.1556 19.0596 52.7912Z" fill="#757575"/>
<path opacity="0.3" d="M32.508 44.5704C28.889 43.8606 25.2084 46.452 25.2084 46.452C24.633 46.4394 23.5774 46.5192 22.9824 46.5696L23.2344 46.5276C23.2904 45.6078 23.9988 44.7272 24.9718 43.9656C26.908 43.19 29.4154 42.4844 29.6142 42.623C29.8942 42.8148 27.8348 43.862 27.2832 44.1378C29.9432 42.8582 31.8556 43.6268 32.508 44.0258C33.1604 44.4248 32.508 44.5704 32.508 44.5704Z" fill="black" fill-opacity="0.7"/>
<path opacity="0.3" d="M41.5184 51.5284C41.1348 51.2176 40.5888 50.813 40.1296 50.6268C40.1296 50.6268 39.6536 48.6052 35.665 46.452C35.665 46.452 35.21 45.906 35.2814 45.6498C35.4508 45.038 38.7072 46.7446 38.794 46.7894C38.7436 46.739 37.6614 45.6484 38.4398 45.6008C38.9998 45.5672 40.3998 46.9644 41.279 48.2482C41.6337 49.304 41.7161 50.4323 41.5184 51.5284Z" fill="black" fill-opacity="0.7"/>
<path opacity="0.3" d="M30.1 46.9616C30.1 46.9616 33.9654 47.5412 37.051 49.084C37.051 49.084 34.7284 46.809 32.9392 46.3596C31.15 45.9102 29.5792 45.9564 29.4812 46.3386C29.3832 46.7208 30.1 46.9616 30.1 46.9616Z" fill="black" fill-opacity="0.7"/>
<path opacity="0.3" d="M36.3328 60.088C37.1868 60.088 41.9076 59.3124 43.2474 58.5116C41.0074 60.0432 37.0426 61.2948 32.8174 60.067C27.1138 58.4108 23.1406 58.947 20.2888 54.9556C20.643 55.2916 20.8936 55.4974 20.8936 55.4974L24.2942 56.9604C24.2942 56.9604 22.3132 53.3092 26.0442 53.7082C29.7752 54.1072 33.1436 59.0072 33.1436 59.0072C33.1436 59.0072 34.7984 58.8826 34.5436 59.227C34.2888 59.5714 33.6042 59.689 33.6042 59.689C33.6042 59.689 35.4298 60.088 36.3328 60.088Z" fill="black" fill-opacity="0.7"/>
<path opacity="0.3" d="M43.771 58.1252C43.6702 58.2064 43.5652 58.2862 43.4546 58.366C43.5535 58.2774 43.6593 58.1969 43.771 58.1252Z" fill="black" fill-opacity="0.7"/>
<path d="M19.0596 52.7912C17.7996 50.0206 21.679 46.7852 21.679 46.7852L23.24 46.5276C23.3996 43.9152 28.8218 41.6178 30.6362 41.4386C33.523 41.1586 39.277 45.0366 40.6742 47.0498C42.0714 49.063 41.5226 51.5298 41.5226 51.5298C41.5226 51.5298 44.9302 54.2696 45.1374 56.0756C45.3446 57.8816 39.3974 61.9738 32.8174 60.0642C26.2374 58.1546 21.9688 59.1556 19.0596 52.7912Z" stroke="#263238" stroke-width="0.5" stroke-linecap="round" stroke-linejoin="round"/>
<path d="M31.0226 59.5966C31.0226 59.5966 33.7036 60.032 34.8418 59.0072" stroke="#263238" stroke-width="0.5" stroke-linecap="round" stroke-linejoin="round"/>
<path d="M41.517 51.5326C41.517 51.5326 40.411 50.4504 38.4174 50.0626" stroke="#263238" stroke-width="0.5" stroke-linecap="round" stroke-linejoin="round"/>
<path d="M35.5054 44.2036C36.5852 44.8375 37.6148 45.5532 38.5854 46.3442" stroke="#263238" stroke-width="0.5" stroke-linecap="round" stroke-linejoin="round"/>
<path d="M26.5384 44.5564C29.12 42.98 32.48 42 35.0154 43.925" stroke="#263238" stroke-width="0.5" stroke-linecap="round" stroke-linejoin="round"/>
<path d="M25.34 45.2718C25.5724 45.1318 25.8048 44.9918 26.04 44.8518" stroke="#263238" stroke-width="0.5" stroke-linecap="round" stroke-linejoin="round"/>
<path d="M36.7948 47.1044C38.3446 48.0676 39.9952 49.3024 40.796 50.9936" stroke="#263238" stroke-width="0.5" stroke-linecap="round" stroke-linejoin="round"/>
<path d="M35.112 46.172C35.532 46.3708 35.9338 46.592 36.3328 46.8258" stroke="#263238" stroke-width="0.5" stroke-linecap="round" stroke-linejoin="round"/>
<path d="M40.5594 47.7652C40.5594 47.7652 41.5156 49.5418 41.517 51.5326" stroke="#263238" stroke-width="0.5" stroke-linecap="round" stroke-linejoin="round"/>
<path d="M26.9248 46.6494C27.3051 46.7267 27.6794 46.831 28.0448 46.9616" stroke="#263238" stroke-width="0.5" stroke-linecap="round" stroke-linejoin="round"/>
<path d="M21.679 46.7852C23.1852 46.4234 24.7449 46.3408 26.2808 46.5416" stroke="#263238" stroke-width="0.5" stroke-linecap="round" stroke-linejoin="round"/>
<path d="M29.1368 44.66C27.7236 45.0008 26.3897 45.6117 25.2084 46.459" stroke="#263238" stroke-width="0.5" stroke-linecap="round" stroke-linejoin="round"/>
<path d="M33.019 44.7188C31.9788 44.3464 30.7664 44.3702 29.694 44.5452" stroke="#263238" stroke-width="0.5" stroke-linecap="round" stroke-linejoin="round"/>
<path d="M46.697 56.4914C45.7338 58.1154 44.149 59.2522 42.3682 59.8332" stroke="#263238" stroke-width="0.5" stroke-linecap="round" stroke-linejoin="round"/>
<path d="M47.32 55.0704C47.2273 55.4142 47.0977 55.747 46.9336 56.063" stroke="#263238" stroke-width="0.5" stroke-linecap="round" stroke-linejoin="round"/>
<path d="M43.0626 52.941C43.0626 52.941 45.0996 53.2938 45.7646 54.481" stroke="#263238" stroke-width="0.5" stroke-linecap="round" stroke-linejoin="round"/>
<path d="M19.8436 46.34C19.8436 46.34 18.368 46.2098 17.8514 47.2388" stroke="#263238" stroke-width="0.5" stroke-linecap="round" stroke-linejoin="round"/>
<path d="M17.962 49.7266C17.8612 51.9498 18.8748 53.9868 20.6024 55.3686" stroke="#263238" stroke-width="0.5" stroke-linecap="round" stroke-linejoin="round"/>
<path d="M18.2196 48.16C18.1104 48.515 18.0363 48.8798 17.9984 49.2492" stroke="#263238" stroke-width="0.5" stroke-linecap="round" stroke-linejoin="round"/>
<path d="M35.28 54.5104C33.88 52.64 31.36 52.08 29.12 52.1304" stroke="#263238" stroke-width="0.5" stroke-linecap="round" stroke-linejoin="round"/>
<path d="M36.2012 56.0784C36.0462 55.6664 35.8392 55.2759 35.5852 54.9164" stroke="#263238" stroke-width="0.5" stroke-linecap="round" stroke-linejoin="round"/>
<path d="M31.22 59.3348C30.3323 59.2933 29.4508 59.1653 28.588 58.9526C28.3463 58.8957 28.1162 58.8355 27.8978 58.772C22.652 57.26 23.9022 54.243 25.508 53.34C28.182 51.8378 32.0082 53.2672 34.0256 55.1712C36.1466 57.1718 35.14 59.4734 31.22 59.3348Z" fill="white" stroke="#263238" stroke-width="0.5" stroke-linecap="round" stroke-linejoin="round"/>
<path d="M31.22 59.3348C30.3323 59.2933 29.4508 59.1653 28.588 58.9526C28.3463 58.8957 28.1162 58.8355 27.8978 58.772C28.2962 58.1282 28.7521 57.5219 29.26 56.9604C29.3622 57.0416 31.4328 57.925 31.22 59.3348Z" fill="#263238"/>
<path d="M31.031 58.0048C31.031 59.1094 29.351 61.383 26.5762 61.3648C25.0362 61.3564 23.5214 58.8882 23.3884 55.503C23.2834 52.843 22.0192 49.7938 25.2938 47.5678C28.5908 45.3278 33.019 47.0806 33.019 51.9778C33.019 53.5668 32.8594 55.0172 32.4758 56.2828" fill="white"/>
<path d="M31.031 58.0048C31.031 59.1094 29.351 61.383 26.5762 61.3648C25.0362 61.3564 23.5214 58.8882 23.3884 55.503C23.2834 52.843 22.0192 49.7938 25.2938 47.5678C28.5908 45.3278 33.019 47.0806 33.019 51.9778C33.019 53.5668 32.8594 55.0172 32.4758 56.2828" stroke="#263238" stroke-width="0.5" stroke-linecap="round" stroke-linejoin="round"/>
<path d="M26.4306 53.55C26.4306 53.55 27.8852 53.109 28.84 53.9896" stroke="#263238" stroke-width="0.5" stroke-linecap="round" stroke-linejoin="round"/>
<path d="M24.521 53.4394C24.521 53.4394 23.9064 52.8794 23.1462 53.1468" stroke="#263238" stroke-width="0.5" stroke-linecap="round" stroke-linejoin="round"/>
<path d="M27.636 55.3714C27.636 55.6318 27.5086 55.8418 27.356 55.8404C27.2034 55.839 27.076 55.6276 27.0844 55.3672C27.0928 55.1068 27.2118 54.8968 27.3644 54.8982C27.517 54.8996 27.6374 55.111 27.636 55.3714Z" fill="#263238"/>
<path d="M24.3838 55.0732C24.3838 55.3322 24.2564 55.5422 24.1038 55.5408C23.9512 55.5394 23.8308 55.328 23.8336 55.0676C23.8364 54.8072 23.961 54.5972 24.1136 54.5986C24.2662 54.6 24.3852 54.8128 24.3838 55.0732Z" fill="#263238"/>
<path d="M24.794 53.9896C24.8256 54.5095 24.8256 55.0307 24.794 55.5506C24.6974 56.455 24.2718 57.0906 24.4314 57.2894C24.64 57.5568 25.6522 57.6478 25.6522 57.6478" stroke="#263238" stroke-width="0.5" stroke-linecap="round" stroke-linejoin="round"/>
<path d="M25.0236 58.3296C25.0236 58.3296 26.8632 58.688 28.2786 58.142C28.2786 58.142 28.602 58.5858 27.7186 59.0464C26.8352 59.507 25.4674 59.5238 25.382 58.4864" stroke="#263238" stroke-width="0.5" stroke-linecap="round" stroke-linejoin="round"/>
<path d="M28.84 51.9596C28.84 51.9596 29.477 53.7586 30.2498 54.4138L30.5298 55.3686C30.5298 55.3686 31.1206 54.369 31.8024 54.8688C32.4842 55.3686 32.2546 56.9604 32.2546 56.9604C32.2546 56.9604 34.3546 55.9608 34.3938 54.824C34.4118 54.1654 34.5642 53.5175 34.8418 52.92C34.8418 52.92 34.3868 53.1034 34.2048 53.4408C34.2048 53.4408 35.2058 51.2792 34.5688 50.7332C33.9318 50.1872 28.84 51.9596 28.84 51.9596Z" fill="#92E3A9"/>
<path opacity="0.3" d="M28.84 51.9596C28.84 51.9596 29.477 53.7586 30.2498 54.4138L30.5298 55.3686C30.5298 55.3686 31.1206 54.369 31.8024 54.8688C32.4842 55.3686 32.2546 56.9604 32.2546 56.9604C32.2546 56.9604 34.3546 55.9608 34.3938 54.824C34.4118 54.1654 34.5642 53.5175 34.8418 52.92C34.8418 52.92 34.3868 53.1034 34.2048 53.4408C34.2048 53.4408 35.2058 51.2792 34.5688 50.7332C33.9318 50.1872 28.84 51.9596 28.84 51.9596Z" fill="black" fill-opacity="0.7"/>
<path d="M28.84 51.9596C28.84 51.9596 29.477 53.7586 30.2498 54.4138L30.5298 55.3686C30.5298 55.3686 31.1206 54.369 31.8024 54.8688C32.4842 55.3686 32.2546 56.9604 32.2546 56.9604C32.2546 56.9604 34.3546 55.9608 34.3938 54.824C34.4118 54.1654 34.5642 53.5175 34.8418 52.92C34.8418 52.92 34.3868 53.1034 34.2048 53.4408C34.2048 53.4408 35.2058 51.2792 34.5688 50.7332C33.9318 50.1872 28.84 51.9596 28.84 51.9596Z" stroke="#263238" stroke-width="0.5" stroke-linecap="round" stroke-linejoin="round"/>
<path d="M34.342 52.0044L32.06 52.7926C30.8323 53.0627 29.5585 53.0421 28.3402 52.7324C26.3802 52.1948 25.2952 51.2176 25.0712 51.002L25.0278 50.9586C25.1678 51.5046 25.6564 52.1864 25.6564 52.1864C24.241 52.0464 23.5256 50.6464 23.5256 50.6464C23.0258 51.2834 23.1056 52.6932 23.1056 52.6932C22.2782 50.6618 23.065 49.6006 23.065 49.6006C22.7416 47.9206 23.345 47.2822 23.345 47.2822L23.8392 47.6C24.7422 45.5994 27.3658 45.6554 27.3658 45.6554L26.9822 46.0992C29.1648 45.0996 33.7106 46.0992 33.7106 46.0992L33.9388 48.0088L34.6654 47.782C34.6864 47.8352 34.706 47.8912 34.7228 47.9472C34.9256 48.6407 35.0436 49.3561 35.0742 50.078C35.0742 50.092 35.0742 50.1004 35.0742 50.1004L35.3374 49.9198L35.8008 49.6006C35.8008 49.6006 35.84 50.96 34.342 52.0044Z" fill="#92E3A9"/>
<path opacity="0.3" d="M29.6142 50.6268C33.5342 51.0874 34.685 48.0312 34.7172 47.9416C34.92 48.6351 35.038 49.3505 35.0686 50.0724C32.389 51.5844 29.6142 50.6268 29.6142 50.6268Z" fill="black" fill-opacity="0.7"/>
<path opacity="0.3" d="M34.342 52.0044L32.06 52.7926C30.8323 53.0627 29.5585 53.0421 28.3402 52.7324C26.3802 52.1948 25.2952 51.2176 25.0712 51.002C24.9883 50.8853 24.9157 50.7617 24.8542 50.6324C24.9116 50.7346 25.795 52.2046 29.6142 52.7128C33.5748 53.2392 35.7966 49.595 35.7966 49.595C35.7966 49.595 35.84 50.96 34.342 52.0044Z" fill="black" fill-opacity="0.7"/>
<path opacity="0.3" d="M25.6522 47.7652C25.6522 47.7652 26.0904 46.6956 27.8922 46.172C27.8922 46.172 26.2654 46.242 25.4898 47.3858C25.4898 47.3858 25.4562 46.8748 25.648 46.6088C25.648 46.6088 24.5056 46.55 24.29 48.1642C24.29 48.1642 23.653 48.2846 23.401 47.9402C23.401 47.9402 23.121 48.8278 24.101 49.084C24.101 49.084 23.4696 49.8834 24.3894 51.0048C24.3894 51.0048 24.269 49.9898 24.6694 49.3164C24.6694 49.3164 24.752 50.4546 26.6672 50.8774C26.6672 50.8774 25.0054 50.0206 25.333 48.5884C25.333 48.5884 25.8622 49.9492 28.2044 49.8666C28.2044 49.8666 26.0652 49.2394 25.7796 48.1432C26.3089 47.9045 26.8986 47.8337 27.4694 47.9402C27.4694 47.9402 26.439 47.5524 25.6522 47.7652Z" fill="black" fill-opacity="0.7"/>
<path d="M34.342 52.0044L32.06 52.7926C30.8323 53.0627 29.5585 53.0421 28.3402 52.7324C26.3802 52.1948 25.2952 51.2176 25.0712 51.002L25.0278 50.9586C25.1678 51.5046 25.6564 52.1864 25.6564 52.1864C24.241 52.0464 23.5256 50.6464 23.5256 50.6464C23.0258 51.2834 23.1056 52.6932 23.1056 52.6932C22.2782 50.6618 23.065 49.6006 23.065 49.6006C22.7416 47.9206 23.345 47.2822 23.345 47.2822L23.8392 47.6C24.7422 45.5994 27.3658 45.6554 27.3658 45.6554L26.9822 46.0992C29.1648 45.0996 33.7106 46.0992 33.7106 46.0992L33.9388 48.0088L34.6654 47.782C34.6864 47.8352 34.706 47.8912 34.7228 47.9472C34.9256 48.6407 35.0436 49.3561 35.0742 50.078C35.0742 50.092 35.0742 50.1004 35.0742 50.1004L35.3374 49.9198L35.8008 49.6006C35.8008 49.6006 35.84 50.96 34.342 52.0044Z" stroke="#263238" stroke-width="0.5" stroke-linecap="round" stroke-linejoin="round"/>
<path d="M31.0226 55.0704C31.0226 55.0704 31.7506 53.5178 32.5234 53.9896C33.2962 54.4614 33.1968 55.3588 33.019 55.818C32.8412 56.2772 32.0236 58.415 31.2956 57.1872" fill="white"/>
<path d="M31.0226 55.0704C31.0226 55.0704 31.7506 53.5178 32.5234 53.9896C33.2962 54.4614 33.1968 55.3588 33.019 55.818C32.8412 56.2772 32.0236 58.415 31.2956 57.1872" stroke="#263238" stroke-width="0.5" stroke-linecap="round" stroke-linejoin="round"/>
<path d="M24.3964 49.084C24.0016 49.3122 23.8364 50.5176 24.6764 51.3548" stroke="#263238" stroke-width="0.5" stroke-linecap="round" stroke-linejoin="round"/>
<path d="M25.0236 48.9006C25.0236 50.4938 27.811 51.863 31.0226 51.5858C34.2342 51.3086 34.5394 50.5176 34.5394 50.5176" stroke="#263238" stroke-width="0.5" stroke-linecap="round" stroke-linejoin="round"/>
<path d="M26.0106 48.6234C27.0074 50.2194 32.515 50.617 33.4026 47.7652" stroke="#263238" stroke-width="0.5" stroke-linecap="round" stroke-linejoin="round"/>
<path d="M25.0236 48.1432C24.633 48.02 24.8836 46.8692 25.844 46.3442" stroke="#263238" stroke-width="0.5" stroke-linecap="round" stroke-linejoin="round"/>
<path d="M23.4262 47.5706C23.2862 47.9486 23.5858 48.9272 24.3418 48.734" stroke="#263238" stroke-width="0.5" stroke-linecap="round" stroke-linejoin="round"/>
<path opacity="0.3" d="M35.3332 49.9142L35.7966 49.595C35.6426 49.7112 35.4886 49.8176 35.3332 49.9142Z" fill="black" fill-opacity="0.7"/>
</svg>
