<svg width="380" height="380" viewBox="0 0 380 380" fill="none" xmlns="http://www.w3.org/2000/svg">
<path opacity="0.7" d="M51.6268 126.988C51.6268 126.988 30.438 181.708 60.2148 236.808C89.9916 291.908 151.324 321.016 200.412 345.906C249.5 370.796 300.474 358.674 324.695 317.908C348.916 277.142 315.696 248.041 315.651 189.909C315.605 131.776 324.353 116.386 292.851 67.2752C261.349 18.164 184.125 7.28841 125.727 43.7152C67.3284 80.142 51.6268 126.988 51.6268 126.988Z" fill="white"/>
<path d="M15.0328 212.96C11.1051 194.792 12.8043 175.859 19.9044 158.68C29.64 134.649 50.5096 117.58 73.9024 107.616C107.905 93.176 141.284 92.8644 168.902 64.4936C177.422 55.7384 184.581 45.714 193.283 37.1336C218.971 11.856 256.561 14.9188 284.628 34.9676C343.148 76.7676 364.245 159.608 360.985 228.053C359.526 258.78 344.858 287.379 321.64 307.534C269.131 353.134 179.976 345.458 119.662 321.655C74.7156 303.924 25.5968 262.527 15.0328 212.96Z" fill="#92E3A9"/>
<path opacity="0.7" d="M15.0328 212.96C11.1051 194.792 12.8043 175.859 19.9044 158.68C29.64 134.649 50.5096 117.58 73.9024 107.616C107.905 93.176 141.284 92.8644 168.902 64.4936C177.422 55.7384 184.581 45.714 193.283 37.1336C218.971 11.856 256.561 14.9188 284.628 34.9676C343.148 76.7676 364.245 159.608 360.985 228.053C359.526 258.78 344.858 287.379 321.64 307.534C269.131 353.134 179.976 345.458 119.662 321.655C74.7156 303.924 25.5968 262.527 15.0328 212.96Z" fill="white"/>
<path d="M190.714 81.2972V86.3436" stroke="#263238" stroke-width="1.10721" stroke-linecap="round" stroke-linejoin="round"/>
<path d="M190.714 91.7928V99.9628" stroke="#263238" stroke-width="1.10721" stroke-linecap="round" stroke-linejoin="round" stroke-dasharray="7.17 7.17"/>
<path d="M190.714 102.684V107.73" stroke="#263238" stroke-width="1.10721" stroke-linecap="round" stroke-linejoin="round"/>
<path d="M271.252 166.729H266.205" stroke="#263238" stroke-width="1.10721" stroke-linecap="round" stroke-linejoin="round"/>
<path d="M260.756 166.729H252.586" stroke="#263238" stroke-width="1.10721" stroke-linecap="round" stroke-linejoin="round" stroke-dasharray="7.17 7.17"/>
<path d="M249.865 166.729H244.819" stroke="#263238" stroke-width="1.10721" stroke-linecap="round" stroke-linejoin="round"/>
<path d="M136.618 166.729H131.564" stroke="#263238" stroke-width="1.10721" stroke-linecap="round" stroke-linejoin="round"/>
<path d="M126.122 166.729H117.952" stroke="#263238" stroke-width="1.10721" stroke-linecap="round" stroke-linejoin="round" stroke-dasharray="7.17 7.17"/>
<path d="M115.231 166.729H110.177" stroke="#263238" stroke-width="1.10721" stroke-linecap="round" stroke-linejoin="round"/>
<path d="M329.84 183.844C329.84 183.491 329.98 183.153 330.23 182.904C330.479 182.654 330.817 182.514 331.17 182.514C331.523 182.514 331.861 182.654 332.11 182.904C332.36 183.153 332.5 183.491 332.5 183.844V186.747C332.5 187.1 332.36 187.438 332.11 187.688C331.861 187.937 331.523 188.077 331.17 188.077C330.817 188.077 330.479 187.937 330.23 187.688C329.98 187.438 329.84 187.1 329.84 186.747V183.844ZM330.714 186.8C330.714 187.196 330.889 187.348 331.17 187.348C331.451 187.348 331.618 187.196 331.618 186.8V183.76C331.618 183.365 331.444 183.213 331.17 183.213C330.896 183.213 330.714 183.365 330.714 183.76V186.8Z" fill="#263238"/>
<path d="M330.463 191.17C330.682 191.197 330.902 191.14 331.08 191.01C331.258 190.88 331.38 190.688 331.421 190.471H332.014V196.08H331.14V191.832H330.463V191.17Z" fill="#263238"/>
<path d="M329.84 199.766C329.84 199.413 329.98 199.075 330.23 198.826C330.479 198.576 330.817 198.436 331.17 198.436C331.523 198.436 331.861 198.576 332.11 198.826C332.36 199.075 332.5 199.413 332.5 199.766V202.662C332.5 203.014 332.36 203.353 332.11 203.602C331.861 203.851 331.523 203.992 331.17 203.992C330.817 203.992 330.479 203.851 330.23 203.602C329.98 203.353 329.84 203.014 329.84 202.662V199.766ZM330.714 202.722C330.714 203.118 330.889 203.27 331.17 203.27C331.451 203.27 331.618 203.118 331.618 202.722V199.682C331.618 199.28 331.444 199.135 331.17 199.135C330.896 199.135 330.714 199.28 330.714 199.682V202.722Z" fill="#263238"/>
<path d="M330.463 207.092C330.682 207.119 330.902 207.062 331.08 206.932C331.258 206.802 331.38 206.61 331.421 206.393H332.014V211.956H331.14V207.708H330.463V207.092Z" fill="#263238"/>
<path d="M329.84 215.688C329.84 215.335 329.98 214.997 330.23 214.748C330.479 214.498 330.817 214.358 331.17 214.358C331.523 214.358 331.861 214.498 332.11 214.748C332.36 214.997 332.5 215.335 332.5 215.688V218.584C332.5 218.936 332.36 219.275 332.11 219.524C331.861 219.773 331.523 219.914 331.17 219.914C330.817 219.914 330.479 219.773 330.23 219.524C329.98 219.275 329.84 218.936 329.84 218.584V215.688ZM330.714 218.637C330.714 219.04 330.889 219.184 331.17 219.184C331.451 219.184 331.618 219.04 331.618 218.637V215.597C331.618 215.202 331.444 215.05 331.17 215.05C330.896 215.05 330.714 215.202 330.714 215.597V218.637Z" fill="#263238"/>
<path d="M330.463 223.007C330.682 223.034 330.902 222.977 331.08 222.847C331.258 222.717 331.38 222.524 331.421 222.308H332.014V227.878H331.14V223.63H330.463V223.007Z" fill="#263238"/>
<path d="M329.84 231.602C329.84 231.25 329.98 230.911 330.23 230.662C330.479 230.413 330.817 230.272 331.17 230.272C331.523 230.272 331.861 230.413 332.11 230.662C332.36 230.911 332.5 231.25 332.5 231.602V234.506C332.5 234.858 332.36 235.197 332.11 235.446C331.861 235.695 331.523 235.836 331.17 235.836C330.817 235.836 330.479 235.695 330.23 235.446C329.98 235.197 329.84 234.858 329.84 234.506V231.602ZM330.714 234.559C330.714 234.954 330.889 235.106 331.17 235.106C331.451 235.106 331.618 234.954 331.618 234.559V231.519C331.618 231.124 331.444 230.972 331.17 230.972C330.896 230.972 330.714 231.124 330.714 231.519V234.559Z" fill="#263238"/>
<path d="M329.84 239.567C329.84 239.214 329.98 238.876 330.23 238.627C330.479 238.377 330.817 238.237 331.17 238.237C331.523 238.237 331.861 238.377 332.11 238.627C332.36 238.876 332.5 239.214 332.5 239.567V242.44C332.5 242.793 332.36 243.131 332.11 243.38C331.861 243.63 331.523 243.77 331.17 243.77C330.817 243.77 330.479 243.63 330.23 243.38C329.98 243.131 329.84 242.793 329.84 242.44V239.567ZM330.714 242.516C330.714 242.919 330.889 243.063 331.17 243.063C331.451 243.063 331.618 242.919 331.618 242.516V239.476C331.618 239.073 331.444 238.921 331.17 238.921C330.896 238.921 330.714 239.073 330.714 239.476V242.516Z" fill="#263238"/>
<path d="M329.84 247.524C329.84 247.172 329.98 246.833 330.23 246.584C330.479 246.335 330.817 246.194 331.17 246.194C331.523 246.194 331.861 246.335 332.11 246.584C332.36 246.833 332.5 247.172 332.5 247.524V250.42C332.5 250.773 332.36 251.111 332.11 251.36C331.861 251.61 331.523 251.75 331.17 251.75C330.817 251.75 330.479 251.61 330.23 251.36C329.98 251.111 329.84 250.773 329.84 250.42V247.524ZM330.714 250.481C330.714 250.876 330.889 251.028 331.17 251.028C331.451 251.028 331.618 250.876 331.618 250.481V247.441C331.618 247.046 331.444 246.894 331.17 246.894C330.896 246.894 330.714 247.046 330.714 247.441V250.481Z" fill="#263238"/>
<path d="M330.463 262.808C330.682 262.835 330.902 262.778 331.08 262.648C331.258 262.518 331.38 262.325 331.421 262.109H332.014V267.68H331.14V263.431H330.463V262.808Z" fill="#263238"/>
<path d="M330.463 270.773C330.683 270.802 330.906 270.744 331.084 270.612C331.263 270.48 331.383 270.285 331.421 270.066H332.014V275.637H331.14V271.388H330.463V270.773Z" fill="#263238"/>
<path d="M330.463 278.73C330.682 278.757 330.902 278.7 331.08 278.57C331.258 278.44 331.38 278.247 331.421 278.031H332.014V283.594H331.14V279.353H330.463V278.73Z" fill="#263238"/>
<path d="M329.84 287.326C329.84 286.973 329.98 286.635 330.23 286.385C330.479 286.136 330.817 285.996 331.17 285.996C331.523 285.996 331.861 286.136 332.11 286.385C332.36 286.635 332.5 286.973 332.5 287.326V290.221C332.5 290.574 332.36 290.912 332.11 291.162C331.861 291.411 331.523 291.551 331.17 291.551C330.817 291.551 330.479 291.411 330.23 291.162C329.98 290.912 329.84 290.574 329.84 290.221V287.326ZM330.714 290.274C330.714 290.677 330.889 290.822 331.17 290.822C331.451 290.822 331.618 290.677 331.618 290.274V287.28C331.618 286.877 331.444 286.725 331.17 286.725C330.896 286.725 330.714 286.877 330.714 287.28V290.274Z" fill="#263238"/>
<path d="M329.84 295.283C329.84 294.93 329.98 294.592 330.23 294.342C330.479 294.093 330.817 293.953 331.17 293.953C331.523 293.953 331.861 294.093 332.11 294.342C332.36 294.592 332.5 294.93 332.5 295.283V298.178C332.5 298.531 332.36 298.869 332.11 299.119C331.861 299.368 331.523 299.508 331.17 299.508C330.817 299.508 330.479 299.368 330.23 299.119C329.98 298.869 329.84 298.531 329.84 298.178V295.283ZM330.714 298.239C330.714 298.634 330.889 298.786 331.17 298.786C331.451 298.786 331.618 298.634 331.618 298.239V295.199C331.618 294.804 331.444 294.652 331.17 294.652C330.896 294.652 330.714 294.804 330.714 295.199V298.239Z" fill="#263238"/>
<path d="M330.463 302.609C330.682 302.636 330.902 302.579 331.08 302.449C331.258 302.319 331.38 302.126 331.421 301.91H332.014V307.473H331.14V303.24H330.463V302.609Z" fill="#263238"/>
<path d="M335.16 175.248C335.379 175.276 335.601 175.219 335.78 175.089C335.959 174.959 336.083 174.766 336.125 174.549H336.71V180.12H335.836V175.872H335.16V175.248Z" fill="#263238"/>
<path d="M335.16 183.213C335.379 183.24 335.601 183.183 335.78 183.054C335.959 182.924 336.083 182.731 336.125 182.514H336.71V188.077H335.836V183.829H335.16V183.213Z" fill="#263238"/>
<path d="M334.582 199.766C334.569 199.583 334.593 199.4 334.653 199.227C334.713 199.054 334.809 198.896 334.933 198.761C335.058 198.627 335.209 198.52 335.377 198.447C335.544 198.373 335.725 198.336 335.909 198.336C336.092 198.336 336.273 198.373 336.441 198.447C336.609 198.52 336.759 198.627 336.884 198.761C337.008 198.896 337.104 199.054 337.164 199.227C337.225 199.4 337.249 199.583 337.235 199.766V202.662C337.249 202.844 337.225 203.028 337.164 203.201C337.104 203.373 337.008 203.532 336.884 203.666C336.759 203.801 336.609 203.908 336.441 203.981C336.273 204.054 336.092 204.092 335.909 204.092C335.725 204.092 335.544 204.054 335.377 203.981C335.209 203.908 335.058 203.801 334.933 203.666C334.809 203.532 334.713 203.373 334.653 203.201C334.593 203.028 334.569 202.844 334.582 202.662V199.766ZM335.456 202.722C335.456 203.118 335.631 203.27 335.905 203.27C336.178 203.27 336.361 203.118 336.361 202.722V199.682C336.361 199.28 336.186 199.135 335.905 199.135C335.624 199.135 335.456 199.28 335.456 199.682V202.722Z" fill="#263238"/>
<path d="M335.16 223.007C335.379 223.034 335.601 222.977 335.78 222.847C335.959 222.718 336.083 222.525 336.125 222.308H336.71V227.878H335.836V223.63H335.16V223.007Z" fill="#263238"/>
<path d="M334.582 231.602C334.569 231.42 334.593 231.236 334.653 231.063C334.713 230.891 334.809 230.732 334.933 230.598C335.058 230.463 335.209 230.356 335.377 230.283C335.544 230.21 335.725 230.172 335.909 230.172C336.092 230.172 336.273 230.21 336.441 230.283C336.609 230.356 336.759 230.463 336.884 230.598C337.008 230.732 337.104 230.891 337.164 231.063C337.225 231.236 337.249 231.42 337.235 231.602V234.506C337.249 234.688 337.225 234.872 337.164 235.045C337.104 235.217 337.008 235.376 336.884 235.51C336.759 235.645 336.609 235.752 336.441 235.825C336.273 235.898 336.092 235.936 335.909 235.936C335.725 235.936 335.544 235.898 335.377 235.825C335.209 235.752 335.058 235.645 334.933 235.51C334.809 235.376 334.713 235.217 334.653 235.045C334.593 234.872 334.569 234.688 334.582 234.506V231.602ZM335.456 234.559C335.456 234.954 335.631 235.106 335.905 235.106C336.178 235.106 336.361 234.954 336.361 234.559V231.519C336.361 231.124 336.186 230.972 335.905 230.972C335.624 230.972 335.456 231.124 335.456 231.519V234.559Z" fill="#263238"/>
<path d="M335.16 238.929C335.379 238.956 335.601 238.899 335.78 238.769C335.959 238.639 336.083 238.447 336.125 238.23H336.71V243.8H335.836V239.552H335.16V238.929Z" fill="#263238"/>
<path d="M335.16 246.886C335.38 246.915 335.602 246.859 335.782 246.729C335.961 246.599 336.084 246.405 336.125 246.187H336.71V251.758H335.836V247.509H335.16V246.886Z" fill="#263238"/>
<path d="M335.16 254.851C335.379 254.878 335.601 254.821 335.78 254.691C335.959 254.561 336.083 254.369 336.125 254.152H336.71V259.715H335.836V255.466H335.16V254.851Z" fill="#263238"/>
<path d="M334.582 263.446C334.569 263.264 334.593 263.08 334.653 262.907C334.713 262.735 334.809 262.576 334.933 262.442C335.058 262.307 335.209 262.2 335.377 262.127C335.544 262.054 335.725 262.016 335.909 262.016C336.092 262.016 336.273 262.054 336.441 262.127C336.609 262.2 336.759 262.307 336.884 262.442C337.008 262.576 337.104 262.735 337.164 262.907C337.225 263.08 337.249 263.264 337.235 263.446V266.342C337.249 266.525 337.225 266.708 337.164 266.881C337.104 267.054 337.008 267.212 336.884 267.347C336.759 267.481 336.609 267.588 336.441 267.661C336.273 267.735 336.092 267.772 335.909 267.772C335.725 267.772 335.544 267.735 335.377 267.661C335.209 267.588 335.058 267.481 334.933 267.347C334.809 267.212 334.713 267.054 334.653 266.881C334.593 266.708 334.569 266.525 334.582 266.342V263.446ZM335.456 266.395C335.456 266.798 335.631 266.942 335.905 266.942C336.178 266.942 336.361 266.798 336.361 266.395V263.393C336.361 262.99 336.186 262.838 335.905 262.838C335.624 262.838 335.456 262.99 335.456 263.393V266.395Z" fill="#263238"/>
<path d="M334.582 271.404C334.569 271.221 334.593 271.038 334.653 270.865C334.713 270.692 334.809 270.533 334.933 270.399C335.058 270.265 335.209 270.157 335.377 270.084C335.544 270.011 335.725 269.973 335.909 269.973C336.092 269.973 336.273 270.011 336.441 270.084C336.609 270.157 336.759 270.265 336.884 270.399C337.008 270.533 337.104 270.692 337.164 270.865C337.225 271.038 337.249 271.221 337.235 271.404V274.299C337.249 274.482 337.225 274.665 337.164 274.838C337.104 275.011 337.008 275.17 336.884 275.304C336.759 275.438 336.609 275.545 336.441 275.619C336.273 275.692 336.092 275.73 335.909 275.73C335.725 275.73 335.544 275.692 335.377 275.619C335.209 275.545 335.058 275.438 334.933 275.304C334.809 275.17 334.713 275.011 334.653 274.838C334.593 274.665 334.569 274.482 334.582 274.299V271.404ZM335.456 274.36C335.456 274.755 335.631 274.907 335.905 274.907C336.178 274.907 336.361 274.755 336.361 274.36V271.32C336.361 270.925 336.186 270.773 335.905 270.773C335.624 270.773 335.456 270.925 335.456 271.32V274.36Z" fill="#263238"/>
<path d="M325.728 223.007C325.948 223.034 326.17 222.977 326.349 222.847C326.528 222.718 326.651 222.525 326.694 222.308H327.279V227.878H326.405V223.63H325.728V223.007Z" fill="#263238"/>
<path d="M325.113 231.602C325.113 231.25 325.253 230.911 325.502 230.662C325.752 230.413 326.09 230.272 326.443 230.272C326.796 230.272 327.134 230.413 327.383 230.662C327.633 230.911 327.773 231.25 327.773 231.602V234.506C327.773 234.858 327.633 235.197 327.383 235.446C327.134 235.695 326.796 235.836 326.443 235.836C326.09 235.836 325.752 235.695 325.502 235.446C325.253 235.197 325.113 234.858 325.113 234.506V231.602ZM325.987 234.559C325.987 234.954 326.162 235.106 326.443 235.106C326.724 235.106 326.899 234.954 326.899 234.559V231.519C326.899 231.124 326.724 230.972 326.443 230.972C326.162 230.972 325.987 231.124 325.987 231.519V234.559Z" fill="#263238"/>
<path d="M325.113 239.567C325.113 239.214 325.253 238.876 325.502 238.627C325.752 238.377 326.09 238.237 326.443 238.237C326.796 238.237 327.134 238.377 327.383 238.627C327.633 238.876 327.773 239.214 327.773 239.567V242.44C327.773 242.793 327.633 243.131 327.383 243.38C327.134 243.63 326.796 243.77 326.443 243.77C326.09 243.77 325.752 243.63 325.502 243.38C325.253 243.131 325.113 242.793 325.113 242.44V239.567ZM325.987 242.516C325.987 242.919 326.162 243.063 326.443 243.063C326.724 243.063 326.899 242.919 326.899 242.516V239.476C326.899 239.073 326.724 238.921 326.443 238.921C326.162 238.921 325.987 239.073 325.987 239.476V242.516Z" fill="#263238"/>
<path d="M325.728 246.886C325.948 246.915 326.171 246.859 326.35 246.729C326.53 246.599 326.653 246.405 326.694 246.187H327.279V251.758H326.405V247.509H325.728V246.886Z" fill="#263238"/>
<path d="M325.728 262.808C325.948 262.835 326.17 262.778 326.349 262.648C326.528 262.519 326.651 262.326 326.694 262.109H327.279V267.68H326.405V263.431H325.728V262.808Z" fill="#263238"/>
<path d="M325.728 270.773C325.949 270.8 326.172 270.742 326.351 270.61C326.53 270.479 326.653 270.284 326.694 270.066H327.279V275.637H326.405V271.388H325.728V270.773Z" fill="#263238"/>
<path d="M325.728 278.73C325.948 278.757 326.17 278.7 326.349 278.57C326.528 278.441 326.651 278.248 326.694 278.031H327.279V283.594H326.405V279.353H325.728V278.73Z" fill="#263238"/>
<path d="M320.386 199.766C320.372 199.583 320.396 199.4 320.456 199.227C320.517 199.054 320.612 198.896 320.736 198.761C320.861 198.627 321.012 198.52 321.18 198.447C321.347 198.373 321.529 198.336 321.712 198.336C321.895 198.336 322.076 198.373 322.244 198.447C322.412 198.52 322.563 198.627 322.687 198.761C322.812 198.896 322.907 199.054 322.967 199.227C323.028 199.4 323.052 199.583 323.038 199.766V202.662C323.052 202.844 323.028 203.028 322.967 203.201C322.907 203.373 322.812 203.532 322.687 203.666C322.563 203.801 322.412 203.908 322.244 203.981C322.076 204.054 321.895 204.092 321.712 204.092C321.529 204.092 321.347 204.054 321.18 203.981C321.012 203.908 320.861 203.801 320.736 203.666C320.612 203.532 320.517 203.373 320.456 203.201C320.396 203.028 320.372 202.844 320.386 202.662V199.766ZM321.26 202.722C321.26 203.118 321.434 203.27 321.708 203.27C321.982 203.27 322.164 203.118 322.164 202.722V199.682C322.164 199.28 321.989 199.135 321.708 199.135C321.427 199.135 321.26 199.28 321.26 199.682V202.722Z" fill="#263238"/>
<path d="M320.386 215.688C320.372 215.505 320.396 215.322 320.456 215.149C320.517 214.976 320.612 214.818 320.736 214.683C320.861 214.549 321.012 214.442 321.18 214.369C321.347 214.295 321.529 214.258 321.712 214.258C321.895 214.258 322.076 214.295 322.244 214.369C322.412 214.442 322.563 214.549 322.687 214.683C322.812 214.818 322.907 214.976 322.967 215.149C323.028 215.322 323.052 215.505 323.038 215.688V218.584C323.052 218.766 323.028 218.95 322.967 219.123C322.907 219.295 322.812 219.454 322.687 219.588C322.563 219.723 322.412 219.83 322.244 219.903C322.076 219.976 321.895 220.014 321.712 220.014C321.529 220.014 321.347 219.976 321.18 219.903C321.012 219.83 320.861 219.723 320.736 219.588C320.612 219.454 320.517 219.295 320.456 219.123C320.396 218.95 320.372 218.766 320.386 218.584V215.688ZM321.26 218.637C321.26 219.04 321.434 219.184 321.708 219.184C321.982 219.184 322.164 219.04 322.164 218.637V215.597C322.164 215.202 321.989 215.05 321.708 215.05C321.427 215.05 321.26 215.202 321.26 215.597V218.637Z" fill="#263238"/>
<path d="M320.994 238.929C321.213 238.956 321.435 238.899 321.614 238.769C321.793 238.639 321.916 238.447 321.959 238.23H322.544V243.8H321.67V239.552H320.994V238.929Z" fill="#263238"/>
<path d="M320.994 246.886C321.213 246.915 321.436 246.859 321.615 246.729C321.795 246.599 321.918 246.405 321.959 246.187H322.544V251.758H321.67V247.509H320.994V246.886Z" fill="#263238"/>
<path d="M320.994 270.773C321.214 270.8 321.437 270.742 321.616 270.61C321.795 270.479 321.918 270.284 321.959 270.066H322.544V275.637H321.67V271.388H320.994V270.773Z" fill="#263238"/>
<path d="M320.386 279.368C320.372 279.186 320.396 279.002 320.456 278.829C320.517 278.657 320.612 278.498 320.736 278.364C320.861 278.229 321.012 278.122 321.18 278.049C321.347 277.976 321.529 277.938 321.712 277.938C321.895 277.938 322.076 277.976 322.244 278.049C322.412 278.122 322.563 278.229 322.687 278.364C322.812 278.498 322.907 278.657 322.967 278.829C323.028 279.002 323.052 279.186 323.038 279.368V282.264C323.052 282.447 323.028 282.63 322.967 282.803C322.907 282.976 322.812 283.134 322.687 283.269C322.563 283.403 322.412 283.51 322.244 283.583C322.076 283.657 321.895 283.694 321.712 283.694C321.529 283.694 321.347 283.657 321.18 283.583C321.012 283.51 320.861 283.403 320.736 283.269C320.612 283.134 320.517 282.976 320.456 282.803C320.396 282.63 320.372 282.447 320.386 282.264V279.368ZM321.26 282.317C321.26 282.712 321.434 282.864 321.708 282.864C321.982 282.864 322.164 282.712 322.164 282.317V279.277C322.164 278.882 321.989 278.73 321.708 278.73C321.427 278.73 321.26 278.882 321.26 279.277V282.317Z" fill="#263238"/>
<path d="M320.994 286.687C321.213 286.714 321.435 286.657 321.614 286.528C321.793 286.398 321.916 286.205 321.959 285.988H322.544V291.559H321.67V287.28H320.994V286.687Z" fill="#263238"/>
<path d="M124.435 208.24C124.435 207.887 124.575 207.549 124.824 207.3C125.074 207.05 125.412 206.91 125.765 206.91C126.118 206.91 126.456 207.05 126.705 207.3C126.955 207.549 127.095 207.887 127.095 208.24V211.136C127.095 211.488 126.955 211.827 126.705 212.076C126.456 212.325 126.118 212.466 125.765 212.466C125.412 212.466 125.074 212.325 124.824 212.076C124.575 211.827 124.435 211.488 124.435 211.136V208.24ZM125.309 211.189C125.309 211.592 125.484 211.744 125.765 211.744C126.046 211.744 126.213 211.592 126.213 211.189V208.149C126.213 207.746 126.038 207.594 125.765 207.594C125.491 207.594 125.309 207.746 125.309 208.149V211.189Z" fill="#263238"/>
<path d="M124.435 216.22C124.435 215.867 124.575 215.529 124.824 215.28C125.074 215.03 125.412 214.89 125.765 214.89C126.118 214.89 126.456 215.03 126.705 215.28C126.955 215.529 127.095 215.867 127.095 216.22V219.116C127.095 219.468 126.955 219.807 126.705 220.056C126.456 220.305 126.118 220.446 125.765 220.446C125.412 220.446 125.074 220.305 124.824 220.056C124.575 219.807 124.435 219.468 124.435 219.116V216.22ZM125.309 219.176C125.309 219.572 125.484 219.724 125.765 219.724C126.046 219.724 126.213 219.572 126.213 219.176V216.136C126.213 215.741 126.038 215.589 125.765 215.589C125.491 215.589 125.309 215.741 125.309 216.136V219.176Z" fill="#263238"/>
<path d="M125.05 223.546C125.269 223.573 125.49 223.516 125.668 223.386C125.845 223.256 125.967 223.064 126.008 222.847H126.601V228.418H125.727V224.2H125.05V223.546Z" fill="#263238"/>
<path d="M124.435 232.142C124.435 231.789 124.575 231.451 124.824 231.202C125.074 230.952 125.412 230.812 125.765 230.812C126.118 230.812 126.456 230.952 126.705 231.202C126.955 231.451 127.095 231.789 127.095 232.142V235.038C127.095 235.39 126.955 235.729 126.705 235.978C126.456 236.227 126.118 236.368 125.765 236.368C125.412 236.368 125.074 236.227 124.824 235.978C124.575 235.729 124.435 235.39 124.435 235.038V232.142ZM125.309 235.091C125.309 235.494 125.484 235.646 125.765 235.646C126.046 235.646 126.213 235.494 126.213 235.091V232.089C126.213 231.686 126.038 231.534 125.765 231.534C125.491 231.534 125.309 231.686 125.309 232.089V235.091Z" fill="#263238"/>
<path d="M125.05 239.468C125.269 239.495 125.49 239.438 125.668 239.308C125.845 239.178 125.967 238.986 126.008 238.769H126.601V244.332H125.727V240.084H125.05V239.468Z" fill="#263238"/>
<path d="M124.435 248.064C124.435 247.711 124.575 247.373 124.824 247.124C125.074 246.874 125.412 246.734 125.765 246.734C126.118 246.734 126.456 246.874 126.705 247.124C126.955 247.373 127.095 247.711 127.095 248.064V250.96C127.095 251.312 126.955 251.651 126.705 251.9C126.456 252.149 126.118 252.29 125.765 252.29C125.412 252.29 125.074 252.149 124.824 251.9C124.575 251.651 124.435 251.312 124.435 250.96V248.064ZM125.309 251.013C125.309 251.408 125.484 251.56 125.765 251.56C126.046 251.56 126.213 251.408 126.213 251.013V247.973C126.213 247.578 126.038 247.426 125.765 247.426C125.491 247.426 125.309 247.578 125.309 247.973V251.013Z" fill="#263238"/>
<path d="M125.05 255.36C125.269 255.387 125.49 255.33 125.668 255.2C125.845 255.07 125.967 254.877 126.008 254.661H126.601V260.232H125.727V255.983H125.05V255.36Z" fill="#263238"/>
<path d="M124.435 263.978C124.435 263.626 124.575 263.287 124.824 263.038C125.074 262.789 125.412 262.648 125.765 262.648C126.118 262.648 126.456 262.789 126.705 263.038C126.955 263.287 127.095 263.626 127.095 263.978V266.874C127.095 267.227 126.955 267.565 126.705 267.814C126.456 268.064 126.118 268.204 125.765 268.204C125.412 268.204 125.074 268.064 124.824 267.814C124.575 267.565 124.435 267.227 124.435 266.874V263.978ZM125.309 266.935C125.309 267.33 125.484 267.482 125.765 267.482C126.046 267.482 126.213 267.33 126.213 266.935V263.895C126.213 263.5 126.038 263.348 125.765 263.348C125.491 263.348 125.309 263.5 125.309 263.895V266.935Z" fill="#263238"/>
<path d="M124.435 271.943C124.435 271.59 124.575 271.252 124.824 271.003C125.074 270.753 125.412 270.613 125.765 270.613C126.118 270.613 126.456 270.753 126.705 271.003C126.955 271.252 127.095 271.59 127.095 271.943V274.839C127.095 275.192 126.955 275.53 126.705 275.779C126.456 276.029 126.118 276.169 125.765 276.169C125.412 276.169 125.074 276.029 124.824 275.779C124.575 275.53 124.435 275.192 124.435 274.839V271.943ZM125.309 274.892C125.309 275.287 125.484 275.439 125.765 275.439C126.046 275.439 126.213 275.287 126.213 274.892V271.852C126.213 271.457 126.038 271.305 125.765 271.305C125.491 271.305 125.309 271.457 125.309 271.852V274.892Z" fill="#263238"/>
<path d="M124.435 279.9C124.435 279.548 124.575 279.209 124.824 278.96C125.074 278.711 125.412 278.57 125.765 278.57C126.118 278.57 126.456 278.711 126.705 278.96C126.955 279.209 127.095 279.548 127.095 279.9V282.796C127.095 283.149 126.955 283.487 126.705 283.736C126.456 283.986 126.118 284.126 125.765 284.126C125.412 284.126 125.074 283.986 124.824 283.736C124.575 283.487 124.435 283.149 124.435 282.796V279.9ZM125.309 282.849C125.309 283.252 125.484 283.404 125.765 283.404C126.046 283.404 126.213 283.252 126.213 282.849V279.847C126.213 279.444 126.038 279.3 125.765 279.3C125.491 279.3 125.309 279.444 125.309 279.847V282.849Z" fill="#263238"/>
<path d="M125.05 287.227C125.269 287.254 125.49 287.197 125.668 287.067C125.845 286.937 125.967 286.744 126.008 286.528H126.601V292.091H125.727V287.842H125.05V287.227Z" fill="#263238"/>
<path d="M125.05 295.184C125.269 295.211 125.49 295.154 125.668 295.024C125.845 294.894 125.967 294.701 126.008 294.485H126.601V300.056H125.727V295.807H125.05V295.184Z" fill="#263238"/>
<path d="M125.05 303.141C125.269 303.168 125.49 303.111 125.668 302.981C125.845 302.851 125.967 302.658 126.008 302.442H126.601V308.013H125.727V303.764H125.05V303.141Z" fill="#263238"/>
<path d="M125.05 311.106C125.269 311.133 125.49 311.076 125.668 310.946C125.845 310.816 125.967 310.623 126.008 310.407H126.601V315.97H125.727V311.722H125.05V311.106Z" fill="#263238"/>
<path d="M125.309 322.65C125.309 323.053 125.484 323.198 125.765 323.198C126.046 323.198 126.213 323.053 126.213 322.65V319.61C126.213 319.215 126.038 319.063 125.765 319.063C125.491 319.063 125.309 319.215 125.309 319.61V322.65Z" fill="#263238"/>
<path d="M129.778 239.468C129.997 239.496 130.219 239.439 130.398 239.309C130.577 239.179 130.7 238.986 130.743 238.769H131.328V244.332H130.454V240.084H129.778V239.468Z" fill="#263238"/>
<path d="M129.778 247.426C129.997 247.453 130.219 247.396 130.398 247.266C130.577 247.136 130.7 246.943 130.743 246.726H131.328V252.32H130.454V248.072H129.778V247.426Z" fill="#263238"/>
<path d="M129.2 263.978C129.186 263.796 129.21 263.612 129.271 263.439C129.331 263.267 129.426 263.108 129.551 262.974C129.675 262.839 129.826 262.732 129.994 262.659C130.162 262.586 130.343 262.548 130.526 262.548C130.709 262.548 130.89 262.586 131.058 262.659C131.226 262.732 131.377 262.839 131.501 262.974C131.626 263.108 131.721 263.267 131.782 263.439C131.842 263.612 131.866 263.796 131.852 263.978V266.874C131.866 267.057 131.842 267.24 131.782 267.413C131.721 267.586 131.626 267.744 131.501 267.879C131.377 268.013 131.226 268.12 131.058 268.193C130.89 268.267 130.709 268.304 130.526 268.304C130.343 268.304 130.162 268.267 129.994 268.193C129.826 268.12 129.675 268.013 129.551 267.879C129.426 267.744 129.331 267.586 129.271 267.413C129.21 267.24 129.186 267.057 129.2 266.874V263.978ZM130.074 266.935C130.074 267.33 130.249 267.482 130.522 267.482C130.796 267.482 130.978 267.33 130.978 266.935V263.895C130.978 263.5 130.804 263.348 130.522 263.348C130.241 263.348 130.074 263.5 130.074 263.895V266.935Z" fill="#263238"/>
<path d="M129.778 271.32C129.997 271.347 130.219 271.29 130.398 271.16C130.577 271.031 130.7 270.838 130.743 270.621H131.328V276.192H130.454V271.928H129.778V271.32Z" fill="#263238"/>
<path d="M129.2 279.9C129.186 279.718 129.21 279.534 129.271 279.361C129.331 279.189 129.426 279.03 129.551 278.896C129.675 278.761 129.826 278.654 129.994 278.581C130.162 278.508 130.343 278.47 130.526 278.47C130.709 278.47 130.89 278.508 131.058 278.581C131.226 278.654 131.377 278.761 131.501 278.896C131.626 279.03 131.721 279.189 131.782 279.361C131.842 279.534 131.866 279.718 131.852 279.9V282.796C131.866 282.979 131.842 283.162 131.782 283.335C131.721 283.508 131.626 283.666 131.501 283.801C131.377 283.935 131.226 284.042 131.058 284.115C130.89 284.189 130.709 284.226 130.526 284.226C130.343 284.226 130.162 284.189 129.994 284.115C129.826 284.042 129.675 283.935 129.551 283.801C129.426 283.666 129.331 283.508 129.271 283.335C129.21 283.162 129.186 282.979 129.2 282.796V279.9ZM130.074 282.849C130.074 283.252 130.249 283.404 130.522 283.404C130.796 283.404 130.978 283.252 130.978 282.849V279.847C130.978 279.444 130.804 279.3 130.522 279.3C130.241 279.3 130.074 279.444 130.074 279.847V282.849Z" fill="#263238"/>
<path d="M130.044 298.771C130.044 299.166 130.218 299.318 130.492 299.318C130.766 299.318 130.948 299.166 130.948 298.771V295.731C130.948 295.336 130.773 295.184 130.492 295.184C130.211 295.184 130.044 295.336 130.044 295.731V298.771Z" fill="#263238"/>
<path d="M129.778 303.141C129.988 303.164 130.2 303.109 130.373 302.988C130.546 302.866 130.67 302.686 130.72 302.48H131.305V308.051H130.431V303.802H129.755L129.778 303.141Z" fill="#263238"/>
<path d="M129.778 311.106C129.997 311.133 130.219 311.076 130.398 310.946C130.577 310.817 130.7 310.624 130.743 310.407H131.328V315.97H130.454V311.722H129.778V311.106Z" fill="#263238"/>
<path d="M129.2 335.616C129.186 335.433 129.21 335.25 129.271 335.077C129.331 334.904 129.426 334.746 129.551 334.611C129.675 334.477 129.826 334.37 129.994 334.297C130.162 334.223 130.343 334.186 130.526 334.186C130.709 334.186 130.89 334.223 131.058 334.297C131.226 334.37 131.377 334.477 131.501 334.611C131.626 334.746 131.721 334.904 131.782 335.077C131.842 335.25 131.866 335.433 131.852 335.616V338.519C131.866 338.702 131.842 338.885 131.782 339.058C131.721 339.231 131.626 339.39 131.501 339.524C131.377 339.658 131.226 339.765 131.058 339.839C130.89 339.912 130.709 339.95 130.526 339.95C130.343 339.95 130.162 339.912 129.994 339.839C129.826 339.765 129.675 339.658 129.551 339.524C129.426 339.39 129.331 339.231 129.271 339.058C129.21 338.885 129.186 338.702 129.2 338.519V335.616ZM130.074 338.572C130.074 338.968 130.249 339.12 130.522 339.12C130.796 339.12 130.978 338.968 130.978 338.572V335.532C130.978 335.137 130.804 334.985 130.522 334.985C130.241 334.985 130.074 335.137 130.074 335.532V338.572Z" fill="#263238"/>
<path d="M119.7 232.142C119.7 231.789 119.84 231.451 120.09 231.202C120.339 230.952 120.677 230.812 121.03 230.812C121.383 230.812 121.721 230.952 121.97 231.202C122.22 231.451 122.36 231.789 122.36 232.142V235.038C122.36 235.39 122.22 235.729 121.97 235.978C121.721 236.227 121.383 236.368 121.03 236.368C120.677 236.368 120.339 236.227 120.09 235.978C119.84 235.729 119.7 235.39 119.7 235.038V232.142ZM120.574 235.091C120.574 235.494 120.749 235.646 121.03 235.646C121.311 235.646 121.486 235.494 121.486 235.091V232.089C121.486 231.686 121.311 231.534 121.03 231.534C120.749 231.534 120.574 231.686 120.574 232.089V235.091Z" fill="#263238"/>
<path d="M120.316 239.468C120.535 239.496 120.757 239.439 120.936 239.309C121.115 239.179 121.238 238.986 121.281 238.769H121.866V244.332H120.992V240.084H120.316V239.468Z" fill="#263238"/>
<path d="M120.316 247.426C120.535 247.453 120.757 247.396 120.936 247.266C121.115 247.136 121.238 246.943 121.281 246.726H121.866V252.32H120.992V248.072H120.316V247.426Z" fill="#263238"/>
<path d="M119.7 256.021C119.7 255.668 119.84 255.33 120.09 255.081C120.339 254.831 120.677 254.691 121.03 254.691C121.383 254.691 121.721 254.831 121.97 255.081C122.22 255.33 122.36 255.668 122.36 256.021V258.917C122.36 259.27 122.22 259.608 121.97 259.857C121.721 260.107 121.383 260.247 121.03 260.247C120.677 260.247 120.339 260.107 120.09 259.857C119.84 259.608 119.7 259.27 119.7 258.917V256.021ZM120.574 258.97C120.574 259.373 120.749 259.525 121.03 259.525C121.311 259.525 121.486 259.373 121.486 258.97V255.968C121.486 255.565 121.311 255.413 121.03 255.413C120.749 255.413 120.574 255.565 120.574 255.968V258.97Z" fill="#263238"/>
<path d="M119.7 271.943C119.7 271.59 119.84 271.252 120.09 271.003C120.339 270.753 120.677 270.613 121.03 270.613C121.383 270.613 121.721 270.753 121.97 271.003C122.22 271.252 122.36 271.59 122.36 271.943V274.839C122.36 275.192 122.22 275.53 121.97 275.779C121.721 276.029 121.383 276.169 121.03 276.169C120.677 276.169 120.339 276.029 120.09 275.779C119.84 275.53 119.7 275.192 119.7 274.839V271.943ZM120.574 274.892C120.574 275.287 120.749 275.439 121.03 275.439C121.311 275.439 121.486 275.287 121.486 274.892V271.852C121.486 271.457 121.311 271.305 121.03 271.305C120.749 271.305 120.574 271.457 120.574 271.852V274.892Z" fill="#263238"/>
<path d="M119.7 279.9C119.7 279.548 119.84 279.209 120.09 278.96C120.339 278.711 120.677 278.57 121.03 278.57C121.383 278.57 121.721 278.711 121.97 278.96C122.22 279.209 122.36 279.548 122.36 279.9V282.796C122.36 283.149 122.22 283.487 121.97 283.736C121.721 283.986 121.383 284.126 121.03 284.126C120.677 284.126 120.339 283.986 120.09 283.736C119.84 283.487 119.7 283.149 119.7 282.796V279.9ZM120.574 282.849C120.574 283.252 120.749 283.404 121.03 283.404C121.311 283.404 121.486 283.252 121.486 282.849V279.847C121.486 279.444 121.311 279.3 121.03 279.3C120.749 279.3 120.574 279.444 120.574 279.847V282.849Z" fill="#263238"/>
<path d="M120.316 287.227C120.535 287.254 120.757 287.197 120.936 287.067C121.115 286.938 121.238 286.745 121.281 286.528H121.866V292.091H120.992V287.842H120.316V287.227Z" fill="#263238"/>
<path d="M119.7 295.822C119.7 295.47 119.84 295.131 120.09 294.882C120.339 294.633 120.677 294.492 121.03 294.492C121.383 294.492 121.721 294.633 121.97 294.882C122.22 295.131 122.36 295.47 122.36 295.822V298.718C122.36 299.071 122.22 299.409 121.97 299.658C121.721 299.908 121.383 300.048 121.03 300.048C120.677 300.048 120.339 299.908 120.09 299.658C119.84 299.409 119.7 299.071 119.7 298.718V295.822ZM120.574 298.771C120.574 299.166 120.749 299.318 121.03 299.318C121.311 299.318 121.486 299.166 121.486 298.771V295.731C121.486 295.336 121.311 295.184 121.03 295.184C120.749 295.184 120.574 295.336 120.574 295.731V298.771Z" fill="#263238"/>
<path d="M120.316 303.141C120.535 303.168 120.757 303.111 120.936 302.982C121.115 302.852 121.238 302.659 121.281 302.442H121.866V308.013H120.992V303.764H120.316V303.141Z" fill="#263238"/>
<path d="M114.973 216.22C114.959 216.037 114.983 215.854 115.043 215.681C115.104 215.508 115.199 215.35 115.324 215.215C115.448 215.081 115.599 214.974 115.767 214.901C115.935 214.827 116.116 214.79 116.299 214.79C116.482 214.79 116.663 214.827 116.831 214.901C116.999 214.974 117.15 215.081 117.274 215.215C117.399 215.35 117.494 215.508 117.555 215.681C117.615 215.854 117.639 216.037 117.625 216.22V219.116C117.639 219.298 117.615 219.482 117.555 219.655C117.494 219.827 117.399 219.986 117.274 220.12C117.15 220.255 116.999 220.362 116.831 220.435C116.663 220.508 116.482 220.546 116.299 220.546C116.116 220.546 115.935 220.508 115.767 220.435C115.599 220.362 115.448 220.255 115.324 220.12C115.199 219.986 115.104 219.827 115.043 219.655C114.983 219.482 114.959 219.298 114.973 219.116V216.22ZM115.847 219.176C115.847 219.572 116.022 219.724 116.295 219.724C116.569 219.724 116.751 219.572 116.751 219.176V216.136C116.751 215.741 116.576 215.589 116.295 215.589C116.014 215.589 115.847 215.741 115.847 216.136V219.176Z" fill="#263238"/>
<path d="M115.581 231.504C115.8 231.531 116.022 231.474 116.201 231.344C116.38 231.214 116.503 231.021 116.546 230.804H117.131V236.36H116.28V232.112H115.604L115.581 231.504Z" fill="#263238"/>
<path d="M115.581 247.426C115.8 247.453 116.022 247.396 116.201 247.266C116.38 247.136 116.503 246.943 116.546 246.726H117.131V252.32H116.28V248.072H115.604L115.581 247.426Z" fill="#263238"/>
<path d="M114.973 256.021C114.959 255.839 114.983 255.655 115.043 255.482C115.104 255.309 115.199 255.151 115.324 255.017C115.448 254.882 115.599 254.775 115.767 254.702C115.935 254.629 116.116 254.591 116.299 254.591C116.482 254.591 116.663 254.629 116.831 254.702C116.999 254.775 117.15 254.882 117.274 255.017C117.399 255.151 117.494 255.309 117.555 255.482C117.615 255.655 117.639 255.839 117.625 256.021V258.917C117.639 259.099 117.615 259.283 117.555 259.456C117.494 259.629 117.399 259.787 117.274 259.922C117.15 260.056 116.999 260.163 116.831 260.236C116.663 260.309 116.482 260.347 116.299 260.347C116.116 260.347 115.935 260.309 115.767 260.236C115.599 260.163 115.448 260.056 115.324 259.922C115.199 259.787 115.104 259.629 115.043 259.456C114.983 259.283 114.959 259.099 114.973 258.917V256.021ZM115.847 258.978C115.847 259.373 116.022 259.525 116.295 259.525C116.569 259.525 116.751 259.373 116.751 258.978V255.938C116.751 255.535 116.576 255.39 116.295 255.39C116.014 255.39 115.847 255.535 115.847 255.938V258.978Z" fill="#263238"/>
<path d="M115.581 279.262C115.8 279.289 116.022 279.232 116.201 279.102C116.38 278.973 116.503 278.78 116.546 278.563H117.131V284.134H116.28V279.885H115.604L115.581 279.262Z" fill="#263238"/>
<path d="M115.581 287.227C115.8 287.254 116.022 287.197 116.201 287.067C116.38 286.938 116.503 286.745 116.546 286.528H117.131V292.091H116.28V287.842H115.604L115.581 287.227Z" fill="#263238"/>
<path d="M115.581 295.184C115.8 295.211 116.022 295.154 116.201 295.024C116.38 294.895 116.503 294.702 116.546 294.485H117.131V300.056H116.28V295.807H115.604L115.581 295.184Z" fill="#263238"/>
<path d="M263.804 24.7836C263.804 24.4309 263.944 24.0926 264.193 23.8432C264.443 23.5937 264.781 23.4536 265.134 23.4536C265.486 23.4536 265.825 23.5937 266.074 23.8432C266.323 24.0926 266.464 24.4309 266.464 24.7836V27.6792C266.464 28.0319 266.323 28.3702 266.074 28.6197C265.825 28.8691 265.486 29.0092 265.134 29.0092C264.781 29.0092 264.443 28.8691 264.193 28.6197C263.944 28.3702 263.804 28.0319 263.804 27.6792V24.7836ZM264.678 27.7324C264.678 28.1276 264.852 28.2796 265.134 28.2796C265.415 28.2796 265.582 28.1276 265.582 27.7324V24.6924C265.582 24.2972 265.407 24.1452 265.134 24.1452C264.86 24.1452 264.678 24.2972 264.678 24.6924V27.7324Z" fill="#263238"/>
<path d="M263.804 32.7408C263.804 32.3881 263.944 32.0498 264.193 31.8004C264.443 31.551 264.781 31.4108 265.134 31.4108C265.486 31.4108 265.825 31.551 266.074 31.8004C266.323 32.0498 266.464 32.3881 266.464 32.7408V35.6364C266.464 35.9892 266.323 36.3275 266.074 36.5769C265.825 36.8263 265.486 36.9664 265.134 36.9664C264.781 36.9664 264.443 36.8263 264.193 36.5769C263.944 36.3275 263.804 35.9892 263.804 35.6364V32.7408ZM264.678 35.72C264.678 36.1228 264.852 36.2748 265.134 36.2748C265.415 36.2748 265.582 36.1228 265.582 35.72V32.68C265.582 32.2772 265.407 32.1252 265.134 32.1252C264.86 32.1252 264.678 32.2772 264.678 32.68V35.72Z" fill="#263238"/>
<path d="M264.419 55.9816C264.638 56.0086 264.858 55.9514 265.036 55.8215C265.214 55.6916 265.336 55.4988 265.377 55.2824H266V60.8532H265.126V56.6048H264.45L264.419 55.9816Z" fill="#263238"/>
<path d="M264.419 63.9464C264.638 63.9734 264.858 63.9162 265.036 63.7863C265.214 63.6564 265.336 63.4637 265.377 63.2472H266V68.8104H265.126V64.6H264.45L264.419 63.9464Z" fill="#263238"/>
<path d="M263.804 88.4564C263.804 88.1037 263.944 87.7654 264.193 87.516C264.443 87.2665 264.781 87.1264 265.134 87.1264C265.486 87.1264 265.825 87.2665 266.074 87.516C266.323 87.7654 266.464 88.1037 266.464 88.4564V91.352C266.464 91.7047 266.323 92.043 266.074 92.2925C265.825 92.5419 265.486 92.682 265.134 92.682C264.781 92.682 264.443 92.5419 264.193 92.2925C263.944 92.043 263.804 91.7047 263.804 91.352V88.4564ZM264.678 91.4128C264.678 91.808 264.852 91.96 265.134 91.96C265.415 91.96 265.582 91.808 265.582 91.4128V88.3728C265.582 87.9776 265.407 87.8256 265.134 87.8256C264.86 87.8256 264.678 87.9776 264.678 88.3728V91.4128Z" fill="#263238"/>
<path d="M263.804 104.378C263.804 104.026 263.944 103.687 264.193 103.438C264.443 103.189 264.781 103.048 265.134 103.048C265.486 103.048 265.825 103.189 266.074 103.438C266.323 103.687 266.464 104.026 266.464 104.378V107.274C266.464 107.627 266.323 107.965 266.074 108.214C265.825 108.464 265.486 108.604 265.134 108.604C264.781 108.604 264.443 108.464 264.193 108.214C263.944 107.965 263.804 107.627 263.804 107.274V104.378ZM264.678 107.327C264.678 107.73 264.852 107.882 265.134 107.882C265.415 107.882 265.582 107.73 265.582 107.327V104.325C265.582 103.922 265.407 103.778 265.134 103.778C264.86 103.778 264.678 103.922 264.678 104.325V107.327Z" fill="#263238"/>
<path d="M249.607 40.698C249.607 40.3453 249.747 40.007 249.996 39.7576C250.246 39.5081 250.584 39.368 250.937 39.368C251.29 39.368 251.628 39.5081 251.877 39.7576C252.127 40.007 252.267 40.3453 252.267 40.698V43.5936C252.267 43.9464 252.127 44.2846 251.877 44.5341C251.628 44.7835 251.29 44.9236 250.937 44.9236C250.584 44.9236 250.246 44.7835 249.996 44.5341C249.747 44.2846 249.607 43.9464 249.607 43.5936V40.698ZM250.481 43.6544C250.481 44.0496 250.656 44.2016 250.937 44.2016C251.218 44.2016 251.385 44.0496 251.385 43.6544V40.6144C251.385 40.2192 251.21 40.0672 250.937 40.0672C250.663 40.0672 250.481 40.2192 250.481 40.6144V43.6544Z" fill="#263238"/>
<path d="M249.607 48.64C249.607 48.2873 249.747 47.949 249.996 47.6995C250.246 47.4501 250.584 47.31 250.937 47.31C251.29 47.31 251.628 47.4501 251.877 47.6995C252.127 47.949 252.267 48.2873 252.267 48.64V51.5356C252.267 51.8883 252.127 52.2266 251.877 52.4761C251.628 52.7255 251.29 52.8656 250.937 52.8656C250.584 52.8656 250.246 52.7255 249.996 52.4761C249.747 52.2266 249.607 51.8883 249.607 51.5356V48.64ZM250.481 51.5888C250.481 51.984 250.656 52.136 250.937 52.136C251.218 52.136 251.385 51.984 251.385 51.5888V48.64C251.385 48.2448 251.21 48.0928 250.937 48.0928C250.663 48.0928 250.481 48.2448 250.481 48.64V51.5888Z" fill="#263238"/>
<path d="M249.607 56.62C249.607 56.2673 249.747 55.929 249.996 55.6796C250.246 55.4301 250.584 55.29 250.937 55.29C251.29 55.29 251.628 55.4301 251.877 55.6796C252.127 55.929 252.267 56.2673 252.267 56.62V59.5156C252.267 59.8683 252.127 60.2066 251.877 60.4561C251.628 60.7055 251.29 60.8456 250.937 60.8456C250.584 60.8456 250.246 60.7055 249.996 60.4561C249.747 60.2066 249.607 59.8683 249.607 59.5156V56.62ZM250.481 59.5688C250.481 59.9716 250.656 60.1236 250.937 60.1236C251.218 60.1236 251.385 59.9716 251.385 59.5688V56.5668C251.385 56.164 251.21 56.012 250.937 56.012C250.663 56.012 250.481 56.164 250.481 56.5668V59.5688Z" fill="#263238"/>
<path d="M250.222 63.9464C250.441 63.9734 250.662 63.9162 250.84 63.7863C251.017 63.6564 251.139 63.4637 251.18 63.2472H251.773V68.8104H250.899V64.6H250.222V63.9464Z" fill="#263238"/>
<path d="M250.222 79.8608C250.441 79.8878 250.662 79.8306 250.84 79.7007C251.017 79.5708 251.139 79.3781 251.18 79.1616H251.773V84.7324H250.899V80.484H250.222V79.8608Z" fill="#263238"/>
<path d="M250.222 87.8256C250.441 87.8526 250.662 87.7954 250.84 87.6655C251.017 87.5356 251.139 87.3428 251.18 87.1264H251.773V92.72H250.899V88.4716H250.222V87.8256Z" fill="#263238"/>
<path d="M249.607 104.378C249.607 104.026 249.747 103.687 249.996 103.438C250.246 103.189 250.584 103.048 250.937 103.048C251.29 103.048 251.628 103.189 251.877 103.438C252.127 103.687 252.267 104.026 252.267 104.378V107.274C252.267 107.627 252.127 107.965 251.877 108.214C251.628 108.464 251.29 108.604 250.937 108.604C250.584 108.604 250.246 108.464 249.996 108.214C249.747 107.965 249.607 107.627 249.607 107.274V104.378ZM250.481 107.327C250.481 107.73 250.656 107.882 250.937 107.882C251.218 107.882 251.385 107.73 251.385 107.327V104.325C251.385 103.922 251.21 103.778 250.937 103.778C250.663 103.778 250.481 103.922 250.481 104.325V107.327Z" fill="#263238"/>
<path d="M250.222 111.72C250.441 111.747 250.662 111.69 250.84 111.56C251.017 111.43 251.139 111.237 251.18 111.021H251.773V116.584H250.899V112.336H250.222V111.72Z" fill="#263238"/>
<path d="M259.069 24.7836C259.069 24.4309 259.209 24.0926 259.458 23.8432C259.708 23.5937 260.046 23.4536 260.399 23.4536C260.752 23.4536 261.09 23.5937 261.339 23.8432C261.589 24.0926 261.729 24.4309 261.729 24.7836V27.6792C261.729 28.0319 261.589 28.3702 261.339 28.6197C261.09 28.8691 260.752 29.0092 260.399 29.0092C260.046 29.0092 259.708 28.8691 259.458 28.6197C259.209 28.3702 259.069 28.0319 259.069 27.6792V24.7836ZM259.92 27.7324C259.92 28.1276 260.095 28.2796 260.368 28.2796C260.642 28.2796 260.824 28.1276 260.824 27.7324V24.6924C260.824 24.2972 260.65 24.1452 260.368 24.1452C260.087 24.1452 259.92 24.2972 259.92 24.6924V27.7324Z" fill="#263238"/>
<path d="M259.684 32.1024C259.904 32.1296 260.126 32.0726 260.305 31.9428C260.484 31.8131 260.607 31.6202 260.65 31.4032H261.235V36.974H260.361V32.7256H259.684V32.1024Z" fill="#263238"/>
<path d="M259.069 40.698C259.069 40.3453 259.209 40.007 259.458 39.7576C259.708 39.5081 260.046 39.368 260.399 39.368C260.752 39.368 261.09 39.5081 261.339 39.7576C261.589 40.007 261.729 40.3453 261.729 40.698V43.5936C261.729 43.9464 261.589 44.2846 261.339 44.5341C261.09 44.7835 260.752 44.9236 260.399 44.9236C260.046 44.9236 259.708 44.7835 259.458 44.5341C259.209 44.2846 259.069 43.9464 259.069 43.5936V40.698ZM259.92 43.6544C259.92 44.0496 260.095 44.2016 260.368 44.2016C260.642 44.2016 260.824 44.0496 260.824 43.6544V40.6144C260.824 40.2192 260.65 40.0672 260.368 40.0672C260.087 40.0672 259.92 40.2192 259.92 40.6144V43.6544Z" fill="#263238"/>
<path d="M259.684 48.0244C259.904 48.0516 260.126 47.9946 260.305 47.8649C260.484 47.7351 260.607 47.5423 260.65 47.3252H261.235V52.896H260.361V48.64H259.684V48.0244Z" fill="#263238"/>
<path d="M259.684 55.9816C259.904 56.0088 260.126 55.9518 260.305 55.822C260.484 55.6923 260.607 55.4995 260.65 55.2824H261.235V60.8532H260.361V56.6048H259.684V55.9816Z" fill="#263238"/>
<path d="M259.684 63.9464C259.904 63.9736 260.126 63.9166 260.305 63.7869C260.484 63.6571 260.607 63.4643 260.65 63.2472H261.235V68.8104H260.361V64.6H259.684V63.9464Z" fill="#263238"/>
<path d="M259.069 72.542C259.069 72.1893 259.209 71.851 259.458 71.6016C259.708 71.3521 260.046 71.212 260.399 71.212C260.752 71.212 261.09 71.3521 261.339 71.6016C261.589 71.851 261.729 72.1893 261.729 72.542V75.4376C261.729 75.7903 261.589 76.1286 261.339 76.3781C261.09 76.6275 260.752 76.7676 260.399 76.7676C260.046 76.7676 259.708 76.6275 259.458 76.3781C259.209 76.1286 259.069 75.7903 259.069 75.4376V72.542ZM259.92 75.4908C259.92 75.886 260.095 76.038 260.368 76.038C260.642 76.038 260.824 75.886 260.824 75.4908V72.4508C260.824 72.0556 260.65 71.9036 260.368 71.9036C260.087 71.9036 259.92 72.0556 259.92 72.4508V75.4908Z" fill="#263238"/>
<path d="M259.069 80.4992C259.069 80.1465 259.209 79.8082 259.458 79.5588C259.708 79.3093 260.046 79.1692 260.399 79.1692C260.752 79.1692 261.09 79.3093 261.339 79.5588C261.589 79.8082 261.729 80.1465 261.729 80.4992V83.3948C261.729 83.7476 261.589 84.0859 261.339 84.3353C261.09 84.5847 260.752 84.7248 260.399 84.7248C260.046 84.7248 259.708 84.5847 259.458 84.3353C259.209 84.0859 259.069 83.7476 259.069 83.3948V80.4992ZM259.92 83.448C259.92 83.8508 260.095 84.0028 260.368 84.0028C260.642 84.0028 260.824 83.8508 260.824 83.448V80.408C260.824 80.0052 260.65 79.8608 260.368 79.8608C260.087 79.8608 259.92 80.0052 259.92 80.408V83.448Z" fill="#263238"/>
<path d="M254.95 32.1024C255.169 32.1296 255.391 32.0726 255.57 31.9428C255.749 31.8131 255.872 31.6202 255.915 31.4032H256.5V36.974H255.626V32.7256H254.95V32.1024Z" fill="#263238"/>
<path d="M254.342 40.698C254.328 40.5154 254.352 40.3319 254.412 40.159C254.473 39.9862 254.568 39.8276 254.692 39.6933C254.817 39.559 254.968 39.4519 255.136 39.3786C255.303 39.3054 255.485 39.2675 255.668 39.2675C255.851 39.2675 256.032 39.3054 256.2 39.3786C256.368 39.4519 256.519 39.559 256.643 39.6933C256.768 39.8276 256.863 39.9862 256.923 40.159C256.984 40.3319 257.008 40.5154 256.994 40.698V43.5936C257.008 43.7762 256.984 43.9597 256.923 44.1326C256.863 44.3055 256.768 44.464 256.643 44.5983C256.519 44.7326 256.368 44.8397 256.2 44.913C256.032 44.9863 255.851 45.0241 255.668 45.0241C255.485 45.0241 255.303 44.9863 255.136 44.913C254.968 44.8397 254.817 44.7326 254.692 44.5983C254.568 44.464 254.473 44.3055 254.412 44.1326C254.352 43.9597 254.328 43.7762 254.342 43.5936V40.698ZM255.216 43.6544C255.216 44.0496 255.39 44.2016 255.664 44.2016C255.938 44.2016 256.12 44.0496 256.12 43.6544V40.6144C256.12 40.2192 255.945 40.0672 255.664 40.0672C255.383 40.0672 255.216 40.2192 255.216 40.6144V43.6544Z" fill="#263238"/>
<path d="M254.342 48.64C254.328 48.4574 254.352 48.2739 254.412 48.101C254.473 47.9281 254.568 47.7696 254.692 47.6353C254.817 47.501 254.968 47.3939 255.136 47.3206C255.303 47.2474 255.485 47.2095 255.668 47.2095C255.851 47.2095 256.032 47.2474 256.2 47.3206C256.368 47.3939 256.519 47.501 256.643 47.6353C256.768 47.7696 256.863 47.9281 256.923 48.101C256.984 48.2739 257.008 48.4574 256.994 48.64V51.5356C257.008 51.7182 256.984 51.9017 256.923 52.0746C256.863 52.2475 256.768 52.406 256.643 52.5403C256.519 52.6746 256.368 52.7817 256.2 52.855C256.032 52.9283 255.851 52.9661 255.668 52.9661C255.485 52.9661 255.303 52.9283 255.136 52.855C254.968 52.7817 254.817 52.6746 254.692 52.5403C254.568 52.406 254.473 52.2475 254.412 52.0746C254.352 51.9017 254.328 51.7182 254.342 51.5356V48.64ZM255.216 51.5888C255.216 51.984 255.39 52.136 255.664 52.136C255.938 52.136 256.12 51.984 256.12 51.5888V48.64C256.12 48.2448 255.945 48.0928 255.664 48.0928C255.383 48.0928 255.216 48.2448 255.216 48.64V51.5888Z" fill="#263238"/>
<path d="M254.95 55.9816C255.169 56.0088 255.391 55.9518 255.57 55.822C255.749 55.6923 255.872 55.4995 255.915 55.2824H256.5V60.8532H255.626V56.6048H254.95V55.9816Z" fill="#263238"/>
<path d="M254.95 71.9036C255.169 71.9308 255.391 71.8738 255.57 71.744C255.749 71.6143 255.872 71.4215 255.915 71.2044H256.5V76.76H255.626V72.5268H254.95V71.9036Z" fill="#263238"/>
<path d="M254.95 79.8608C255.169 79.888 255.391 79.831 255.57 79.7013C255.749 79.5715 255.872 79.3787 255.915 79.1616H256.5V84.7324H255.626V80.484H254.95V79.8608Z" fill="#263238"/>
<path d="M254.95 87.8256C255.169 87.8528 255.391 87.7958 255.57 87.666C255.749 87.5363 255.872 87.3434 255.915 87.1264H256.5V92.72H255.626V88.4716H254.95V87.8256Z" fill="#263238"/>
<path d="M41.04 112.913C41.04 112.56 41.1801 112.222 41.4295 111.973C41.6789 111.723 42.0172 111.583 42.37 111.583C42.7227 111.583 43.061 111.723 43.3104 111.973C43.5599 112.222 43.7 112.56 43.7 112.913V115.816C43.7 116.169 43.5599 116.507 43.3104 116.757C43.061 117.006 42.7227 117.146 42.37 117.146C42.0172 117.146 41.6789 117.006 41.4295 116.757C41.1801 116.507 41.04 116.169 41.04 115.816V112.913ZM41.914 115.87C41.914 116.265 42.0888 116.417 42.37 116.417C42.6512 116.417 42.8184 116.265 42.8184 115.87V112.83C42.8184 112.434 42.6436 112.282 42.37 112.282C42.0964 112.282 41.914 112.434 41.914 112.83V115.87Z" fill="#263238"/>
<path d="M41.04 120.878C41.04 120.525 41.1801 120.187 41.4295 119.938C41.6789 119.688 42.0172 119.548 42.37 119.548C42.7227 119.548 43.061 119.688 43.3104 119.938C43.5599 120.187 43.7 120.525 43.7 120.878V123.774C43.7 124.126 43.5599 124.465 43.3104 124.714C43.061 124.963 42.7227 125.104 42.37 125.104C42.0172 125.104 41.6789 124.963 41.4295 124.714C41.1801 124.465 41.04 124.126 41.04 123.774V120.878ZM41.914 123.827C41.914 124.23 42.0888 124.374 42.37 124.374C42.6512 124.374 42.8184 124.23 42.8184 123.827V120.787C42.8184 120.392 42.6436 120.24 42.37 120.24C42.0964 120.24 41.914 120.392 41.914 120.787V123.827Z" fill="#263238"/>
<path d="M41.648 128.197C41.8666 128.224 42.0872 128.167 42.2651 128.037C42.443 127.907 42.5647 127.714 42.6056 127.498H43.1984V133.068H42.3244V128.82H41.648V128.197Z" fill="#263238"/>
<path d="M41.04 136.8C41.04 136.447 41.1801 136.109 41.4295 135.86C41.6789 135.61 42.0172 135.47 42.37 135.47C42.7227 135.47 43.061 135.61 43.3104 135.86C43.5599 136.109 43.7 136.447 43.7 136.8V139.703C43.7 140.056 43.5599 140.394 43.3104 140.644C43.061 140.893 42.7227 141.033 42.37 141.033C42.0172 141.033 41.6789 140.893 41.4295 140.644C41.1801 140.394 41.04 140.056 41.04 139.703V136.8ZM41.914 139.756C41.914 140.152 42.0888 140.304 42.37 140.304C42.6512 140.304 42.8184 140.152 42.8184 139.756V136.716C42.8184 136.321 42.6436 136.169 42.37 136.169C42.0964 136.169 41.914 136.321 41.914 136.716V139.756Z" fill="#263238"/>
<path d="M41.648 144.119C41.8666 144.146 42.0872 144.089 42.2651 143.959C42.443 143.829 42.5647 143.636 42.6056 143.42H43.1984V148.96H42.3244V144.712H41.648V144.119Z" fill="#263238"/>
<path d="M41.04 152.714C41.04 152.362 41.1801 152.023 41.4295 151.774C41.6789 151.525 42.0172 151.384 42.37 151.384C42.7227 151.384 43.061 151.525 43.3104 151.774C43.5599 152.023 43.7 152.362 43.7 152.714V155.61C43.7 155.963 43.5599 156.301 43.3104 156.55C43.061 156.8 42.7227 156.94 42.37 156.94C42.0172 156.94 41.6789 156.8 41.4295 156.55C41.1801 156.301 41.04 155.963 41.04 155.61V152.714ZM41.914 155.671C41.914 156.066 42.0888 156.218 42.37 156.218C42.6512 156.218 42.8184 156.066 42.8184 155.671V152.631C42.8184 152.228 42.6436 152.084 42.37 152.084C42.0964 152.084 41.914 152.228 41.914 152.631V155.671Z" fill="#263238"/>
<path d="M41.648 160.041C41.8666 160.068 42.0872 160.011 42.2651 159.881C42.443 159.751 42.5647 159.558 42.6056 159.342H43.1984V164.92H42.3244V160.672H41.648V160.041Z" fill="#263238"/>
<path d="M41.04 168.636C41.04 168.284 41.1801 167.945 41.4295 167.696C41.6789 167.447 42.0172 167.306 42.37 167.306C42.7227 167.306 43.061 167.447 43.3104 167.696C43.5599 167.945 43.7 168.284 43.7 168.636V171.532C43.7 171.885 43.5599 172.223 43.3104 172.472C43.061 172.722 42.7227 172.862 42.37 172.862C42.0172 172.862 41.6789 172.722 41.4295 172.472C41.1801 172.223 41.04 171.885 41.04 171.532V168.636ZM41.914 171.585C41.914 171.988 42.0888 172.132 42.37 172.132C42.6512 172.132 42.8184 171.988 42.8184 171.585V168.545C42.8184 168.15 42.6436 167.998 42.37 167.998C42.0964 167.998 41.914 168.15 41.914 168.545V171.585Z" fill="#263238"/>
<path d="M41.04 176.594C41.04 176.241 41.1801 175.903 41.4295 175.653C41.6789 175.404 42.0172 175.264 42.37 175.264C42.7227 175.264 43.061 175.404 43.3104 175.653C43.5599 175.903 43.7 176.241 43.7 176.594V179.489C43.7 179.842 43.5599 180.18 43.3104 180.43C43.061 180.679 42.7227 180.819 42.37 180.819C42.0172 180.819 41.6789 180.679 41.4295 180.43C41.1801 180.18 41.04 179.842 41.04 179.489V176.594ZM41.914 179.55C41.914 179.945 42.0888 180.097 42.37 180.097C42.6512 180.097 42.8184 179.945 42.8184 179.55V176.51C42.8184 176.115 42.6436 175.963 42.37 175.963C42.0964 175.963 41.914 176.115 41.914 176.51V179.55Z" fill="#263238"/>
<path d="M41.04 184.558C41.04 184.206 41.1801 183.867 41.4295 183.618C41.6789 183.369 42.0172 183.228 42.37 183.228C42.7227 183.228 43.061 183.369 43.3104 183.618C43.5599 183.867 43.7 184.206 43.7 184.558V187.454C43.7 187.807 43.5599 188.145 43.3104 188.394C43.061 188.644 42.7227 188.784 42.37 188.784C42.0172 188.784 41.6789 188.644 41.4295 188.394C41.1801 188.145 41.04 187.807 41.04 187.454V184.558ZM41.914 187.507C41.914 187.902 42.0888 188.054 42.37 188.054C42.6512 188.054 42.8184 187.902 42.8184 187.507V184.467C42.8184 184.072 42.6436 183.92 42.37 183.92C42.0964 183.92 41.914 184.072 41.914 184.467V187.507Z" fill="#263238"/>
<path d="M41.648 199.834C41.8669 199.863 42.0885 199.807 42.2668 199.677C42.4451 199.546 42.5664 199.353 42.6056 199.135H43.1984V204.706H42.3244V200.458H41.648V199.834Z" fill="#263238"/>
<path d="M46.36 144.119C46.5795 144.146 46.8011 144.089 46.9803 143.959C47.1594 143.829 47.2826 143.637 47.3252 143.42H47.9104V148.96H47.0516V144.712H46.36V144.119Z" fill="#263238"/>
<path d="M46.36 152.076C46.5795 152.103 46.8011 152.046 46.9803 151.916C47.1594 151.787 47.2826 151.594 47.3252 151.377H47.9104V156.948H47.0516V152.699H46.36V152.076Z" fill="#263238"/>
<path d="M45.7672 160.672C45.7534 160.489 45.7774 160.306 45.8378 160.133C45.8981 159.96 45.9936 159.801 46.1181 159.667C46.2426 159.533 46.3935 159.425 46.5613 159.352C46.7291 159.279 46.9103 159.241 47.0934 159.241C47.2765 159.241 47.4577 159.279 47.6255 159.352C47.7933 159.425 47.9442 159.533 48.0687 159.667C48.1932 159.801 48.2887 159.96 48.349 160.133C48.4094 160.306 48.4334 160.489 48.4196 160.672V163.575C48.4334 163.757 48.4094 163.941 48.349 164.114C48.2887 164.287 48.1932 164.445 48.0687 164.58C47.9442 164.714 47.7933 164.821 47.6255 164.894C47.4577 164.967 47.2765 165.005 47.0934 165.005C46.9103 165.005 46.7291 164.967 46.5613 164.894C46.3935 164.821 46.2426 164.714 46.1181 164.58C45.9936 164.445 45.8981 164.287 45.8378 164.114C45.7774 163.941 45.7534 163.757 45.7672 163.575V160.672ZM46.6412 163.628C46.6412 164.023 46.816 164.175 47.0896 164.175C47.3632 164.175 47.5456 164.023 47.5456 163.628V160.588C47.5456 160.193 47.3708 160.041 47.0896 160.041C46.8084 160.041 46.6412 160.193 46.6412 160.588V163.628Z" fill="#263238"/>
<path d="M45.7672 168.636C45.7534 168.454 45.7774 168.27 45.8378 168.097C45.8981 167.925 45.9936 167.766 46.1181 167.632C46.2426 167.497 46.3935 167.39 46.5613 167.317C46.7291 167.244 46.9103 167.206 47.0934 167.206C47.2765 167.206 47.4577 167.244 47.6255 167.317C47.7933 167.39 47.9442 167.497 48.0687 167.632C48.1932 167.766 48.2887 167.925 48.349 168.097C48.4094 168.27 48.4334 168.454 48.4196 168.636V171.532C48.4334 171.715 48.4094 171.898 48.349 172.071C48.2887 172.244 48.1932 172.402 48.0687 172.537C47.9442 172.671 47.7933 172.778 47.6255 172.851C47.4577 172.925 47.2765 172.962 47.0934 172.962C46.9103 172.962 46.7291 172.925 46.5613 172.851C46.3935 172.778 46.2426 172.671 46.1181 172.537C45.9936 172.402 45.8981 172.244 45.8378 172.071C45.7774 171.898 45.7534 171.715 45.7672 171.532V168.636ZM46.6412 171.585C46.6412 171.988 46.816 172.132 47.0896 172.132C47.3632 172.132 47.5456 171.988 47.5456 171.585V168.545C47.5456 168.15 47.3708 167.998 47.0896 167.998C46.8084 167.998 46.6412 168.15 46.6412 168.545V171.585Z" fill="#263238"/>
<path d="M46.36 175.955C46.5798 175.984 46.8024 175.928 46.9819 175.798C47.1615 175.668 47.2843 175.474 47.3252 175.256H47.9104V180.827H47.0516V176.578H46.36V175.955Z" fill="#263238"/>
<path d="M46.36 191.877C46.5795 191.904 46.8011 191.847 46.9803 191.718C47.1594 191.588 47.2826 191.395 47.3252 191.178H47.9104V196.749H47.0516V192.5H46.36V191.877Z" fill="#263238"/>
<path d="M36.2976 136.8C36.2976 136.447 36.4377 136.109 36.6871 135.86C36.9366 135.61 37.2748 135.47 37.6276 135.47C37.9803 135.47 38.3186 135.61 38.568 135.86C38.8175 136.109 38.9576 136.447 38.9576 136.8V139.703C38.9576 140.056 38.8175 140.394 38.568 140.644C38.3186 140.893 37.9803 141.033 37.6276 141.033C37.2748 141.033 36.9366 140.893 36.6871 140.644C36.4377 140.394 36.2976 140.056 36.2976 139.703V136.8ZM37.1792 139.756C37.1792 140.152 37.354 140.304 37.6276 140.304C37.9012 140.304 38.0836 140.152 38.0836 139.756V136.716C38.0836 136.321 37.9088 136.169 37.6276 136.169C37.3464 136.169 37.1792 136.321 37.1792 136.716V139.756Z" fill="#263238"/>
<path d="M36.9132 144.119C37.1327 144.146 37.3543 144.089 37.5334 143.959C37.7126 143.829 37.8358 143.637 37.8784 143.42H38.4636V148.96H37.5896V144.712H36.9132V144.119Z" fill="#263238"/>
<path d="M36.9132 152.076C37.1327 152.103 37.3543 152.046 37.5334 151.916C37.7126 151.787 37.8358 151.594 37.8784 151.377H38.4636V156.948H37.5896V152.699H36.9132V152.076Z" fill="#263238"/>
<path d="M36.2976 160.672C36.2976 160.319 36.4377 159.981 36.6871 159.731C36.9366 159.482 37.2748 159.342 37.6276 159.342C37.9803 159.342 38.3186 159.482 38.568 159.731C38.8175 159.981 38.9576 160.319 38.9576 160.672V163.575C38.9576 163.928 38.8175 164.266 38.568 164.515C38.3186 164.765 37.9803 164.905 37.6276 164.905C37.2748 164.905 36.9366 164.765 36.6871 164.515C36.4377 164.266 36.2976 163.928 36.2976 163.575V160.672ZM37.1792 163.628C37.1792 164.023 37.354 164.175 37.6276 164.175C37.9012 164.175 38.0836 164.023 38.0836 163.628V160.588C38.0836 160.193 37.9088 160.041 37.6276 160.041C37.3464 160.041 37.1792 160.193 37.1792 160.588V163.628Z" fill="#263238"/>
<path d="M36.9132 167.998C37.1327 168.025 37.3543 167.968 37.5334 167.838C37.7126 167.709 37.8358 167.516 37.8784 167.299H38.4636V172.87H37.5896V168.621H36.9132V167.998Z" fill="#263238"/>
<path d="M36.2976 176.594C36.2976 176.241 36.4377 175.903 36.6871 175.653C36.9366 175.404 37.2748 175.264 37.6276 175.264C37.9803 175.264 38.3186 175.404 38.568 175.653C38.8175 175.903 38.9576 176.241 38.9576 176.594V179.489C38.9576 179.842 38.8175 180.18 38.568 180.43C38.3186 180.679 37.9803 180.819 37.6276 180.819C37.2748 180.819 36.9366 180.679 36.6871 180.43C36.4377 180.18 36.2976 179.842 36.2976 179.489V176.594ZM37.1792 179.55C37.1792 179.945 37.354 180.097 37.6276 180.097C37.9012 180.097 38.0836 179.945 38.0836 179.55V176.51C38.0836 176.115 37.9088 175.963 37.6276 175.963C37.3464 175.963 37.1792 176.115 37.1792 176.51V179.55Z" fill="#263238"/>
<path d="M31.5704 120.878C31.5566 120.695 31.5806 120.512 31.641 120.339C31.7013 120.166 31.7968 120.008 31.9213 119.873C32.0458 119.739 32.1967 119.632 32.3645 119.559C32.5323 119.485 32.7135 119.448 32.8966 119.448C33.0797 119.448 33.2609 119.485 33.4287 119.559C33.5965 119.632 33.7474 119.739 33.8719 119.873C33.9964 120.008 34.0918 120.166 34.1522 120.339C34.2126 120.512 34.2366 120.695 34.2228 120.878V123.774C34.2366 123.956 34.2126 124.14 34.1522 124.313C34.0918 124.485 33.9964 124.644 33.8719 124.778C33.7474 124.913 33.5965 125.02 33.4287 125.093C33.2609 125.166 33.0797 125.204 32.8966 125.204C32.7135 125.204 32.5323 125.166 32.3645 125.093C32.1967 125.02 32.0458 124.913 31.9213 124.778C31.7968 124.644 31.7013 124.485 31.641 124.313C31.5806 124.14 31.5566 123.956 31.5704 123.774V120.878ZM32.4444 123.827C32.4444 124.23 32.6192 124.374 32.8928 124.374C33.1664 124.374 33.3488 124.23 33.3488 123.827V120.787C33.3488 120.384 33.174 120.232 32.8928 120.232C32.6116 120.232 32.4444 120.384 32.4444 120.787V123.827Z" fill="#263238"/>
<path d="M32.1784 136.162C32.3979 136.189 32.6195 136.132 32.7986 136.002C32.9778 135.872 33.101 135.679 33.1436 135.462H33.7288V141.026H32.8548V136.8H32.1784V136.162Z" fill="#263238"/>
<path d="M31.5704 144.757C31.5566 144.575 31.5806 144.391 31.641 144.218C31.7013 144.045 31.7968 143.887 31.9213 143.753C32.0458 143.618 32.1967 143.511 32.3645 143.438C32.5323 143.365 32.7135 143.327 32.8966 143.327C33.0797 143.327 33.2609 143.365 33.4287 143.438C33.5965 143.511 33.7474 143.618 33.8719 143.753C33.9964 143.887 34.0918 144.045 34.1522 144.218C34.2126 144.391 34.2366 144.575 34.2228 144.757V147.653C34.2366 147.835 34.2126 148.019 34.1522 148.192C34.0918 148.365 33.9964 148.523 33.8719 148.658C33.7474 148.792 33.5965 148.899 33.4287 148.972C33.2609 149.045 33.0797 149.083 32.8966 149.083C32.7135 149.083 32.5323 149.045 32.3645 148.972C32.1967 148.899 32.0458 148.792 31.9213 148.658C31.7968 148.523 31.7013 148.365 31.641 148.192C31.5806 148.019 31.5566 147.835 31.5704 147.653V144.757ZM32.4444 147.706C32.4444 148.109 32.6192 148.253 32.8928 148.253C33.1664 148.253 33.3488 148.109 33.3488 147.706V144.704C33.3488 144.301 33.174 144.149 32.8928 144.149C32.6116 144.149 32.4444 144.301 32.4444 144.704V147.706Z" fill="#263238"/>
<path d="M31.5704 160.679C31.5566 160.497 31.5806 160.313 31.641 160.14C31.7013 159.967 31.7968 159.809 31.9213 159.675C32.0458 159.54 32.1967 159.433 32.3645 159.36C32.5323 159.287 32.7135 159.249 32.8966 159.249C33.0797 159.249 33.2609 159.287 33.4287 159.36C33.5965 159.433 33.7474 159.54 33.8719 159.675C33.9964 159.809 34.0918 159.967 34.1522 160.14C34.2126 160.313 34.2366 160.497 34.2228 160.679V163.575C34.2366 163.757 34.2126 163.941 34.1522 164.114C34.0918 164.287 33.9964 164.445 33.8719 164.58C33.7474 164.714 33.5965 164.821 33.4287 164.894C33.2609 164.967 33.0797 165.005 32.8966 165.005C32.7135 165.005 32.5323 164.967 32.3645 164.894C32.1967 164.821 32.0458 164.714 31.9213 164.58C31.7968 164.445 31.7013 164.287 31.641 164.114C31.5806 163.941 31.5566 163.757 31.5704 163.575V160.679ZM32.4444 163.628C32.4444 164.023 32.6192 164.175 32.8928 164.175C33.1664 164.175 33.3488 164.023 33.3488 163.628V160.588C33.3488 160.193 33.174 160.041 32.8928 160.041C32.6116 160.041 32.4444 160.193 32.4444 160.588V163.628Z" fill="#263238"/>
<path d="M31.5704 168.636C31.5566 168.454 31.5806 168.27 31.641 168.097C31.7013 167.925 31.7968 167.766 31.9213 167.632C32.0458 167.497 32.1967 167.39 32.3645 167.317C32.5323 167.244 32.7135 167.206 32.8966 167.206C33.0797 167.206 33.2609 167.244 33.4287 167.317C33.5965 167.39 33.7474 167.497 33.8719 167.632C33.9964 167.766 34.0918 167.925 34.1522 168.097C34.2126 168.27 34.2366 168.454 34.2228 168.636V171.532C34.2366 171.715 34.2126 171.898 34.1522 172.071C34.0918 172.244 33.9964 172.402 33.8719 172.537C33.7474 172.671 33.5965 172.778 33.4287 172.851C33.2609 172.925 33.0797 172.962 32.8966 172.962C32.7135 172.962 32.5323 172.925 32.3645 172.851C32.1967 172.778 32.0458 172.671 31.9213 172.537C31.7968 172.402 31.7013 172.244 31.641 172.071C31.5806 171.898 31.5566 171.715 31.5704 171.532V168.636ZM32.4444 171.585C32.4444 171.988 32.6192 172.14 32.8928 172.14C33.1664 172.14 33.3488 171.988 33.3488 171.585V168.545C33.3488 168.142 33.174 167.99 32.8928 167.99C32.6116 167.99 32.4444 168.142 32.4444 168.545V171.585Z" fill="#263238"/>
<path d="M31.5704 176.594C31.5566 176.411 31.5806 176.228 31.641 176.055C31.7013 175.882 31.7968 175.723 31.9213 175.589C32.0458 175.455 32.1967 175.347 32.3645 175.274C32.5323 175.201 32.7135 175.163 32.8966 175.163C33.0797 175.163 33.2609 175.201 33.4287 175.274C33.5965 175.347 33.7474 175.455 33.8719 175.589C33.9964 175.723 34.0918 175.882 34.1522 176.055C34.2126 176.228 34.2366 176.411 34.2228 176.594V179.489C34.2366 179.672 34.2126 179.855 34.1522 180.028C34.0918 180.201 33.9964 180.36 33.8719 180.494C33.7474 180.628 33.5965 180.735 33.4287 180.809C33.2609 180.882 33.0797 180.92 32.8966 180.92C32.7135 180.92 32.5323 180.882 32.3645 180.809C32.1967 180.735 32.0458 180.628 31.9213 180.494C31.7968 180.36 31.7013 180.201 31.641 180.028C31.5806 179.855 31.5566 179.672 31.5704 179.489V176.594ZM32.4444 179.55C32.4444 179.945 32.6192 180.097 32.8928 180.097C33.1664 180.097 33.3488 179.945 33.3488 179.55V176.51C33.3488 176.115 33.174 175.963 32.8928 175.963C32.6116 175.963 32.4444 176.115 32.4444 176.51V179.55Z" fill="#263238"/>
<path d="M32.1784 199.88C32.399 199.907 32.6216 199.849 32.8009 199.718C32.9802 199.586 33.1027 199.392 33.1436 199.173H33.7288V204.744H32.8548V200.496H32.1784V199.88Z" fill="#263238"/>
<path d="M298.779 195.024C273.942 184.969 272.141 150.389 272.141 150.389H277.461V146.254C290.069 146.254 298.779 138.434 298.779 138.434C298.779 138.434 307.488 146.254 320.097 146.254V150.389H325.417C325.417 150.389 323.608 184.969 298.779 195.024Z" stroke="#263238" stroke-width="1.10721" stroke-linecap="round" stroke-linejoin="round"/>
<path d="M298.779 190.456C282.507 182.856 277.795 162.67 276.496 153.976H281.36V149.629C287.613 148.857 293.588 146.589 298.779 143.017C303.972 146.588 309.95 148.856 316.206 149.629V153.976H321.054C319.74 162.64 314.997 182.856 298.779 190.456Z" stroke="#263238" stroke-width="1.10721" stroke-linecap="round" stroke-linejoin="round"/>
<path d="M307.549 161.857H290.001C289.434 161.857 288.975 162.317 288.975 162.883V173.424C288.975 173.991 289.434 174.45 290.001 174.45H307.549C308.116 174.45 308.575 173.991 308.575 173.424V162.883C308.575 162.317 308.116 161.857 307.549 161.857Z" fill="#263238"/>
<path d="M299.128 151.24C298.175 151.194 297.222 151.341 296.328 151.674C295.433 152.007 294.616 152.518 293.924 153.176C293.233 153.834 292.682 154.625 292.306 155.502C291.929 156.379 291.735 157.323 291.734 158.278V159.038C291.734 159.102 291.746 159.167 291.771 159.227C291.796 159.287 291.832 159.341 291.878 159.387C291.924 159.433 291.979 159.469 292.039 159.494C292.098 159.519 292.163 159.532 292.228 159.532H294.006C294.071 159.532 294.135 159.519 294.195 159.494C294.255 159.469 294.309 159.433 294.355 159.387C294.401 159.341 294.438 159.287 294.462 159.227C294.487 159.167 294.5 159.102 294.5 159.038V158.452C294.486 157.351 294.889 156.285 295.627 155.468C296.365 154.65 297.385 154.142 298.482 154.044C299.066 154.006 299.652 154.088 300.203 154.284C300.754 154.481 301.259 154.789 301.686 155.188C302.113 155.588 302.454 156.071 302.687 156.608C302.921 157.144 303.042 157.723 303.042 158.308V159.068C303.042 159.199 303.094 159.325 303.187 159.417C303.28 159.51 303.405 159.562 303.536 159.562H305.315C305.446 159.562 305.571 159.51 305.664 159.417C305.757 159.325 305.809 159.199 305.809 159.068V158.536C305.842 156.695 305.168 154.912 303.925 153.554C302.682 152.197 300.965 151.368 299.128 151.24Z" fill="#263238"/>
<path d="M300.618 166.744C300.619 166.415 300.531 166.093 300.365 165.809C300.199 165.526 299.96 165.292 299.673 165.133C299.386 164.973 299.061 164.893 298.733 164.901C298.405 164.909 298.084 165.005 297.806 165.179C297.527 165.353 297.3 165.598 297.148 165.89C296.996 166.181 296.925 166.508 296.942 166.836C296.959 167.164 297.064 167.481 297.245 167.755C297.426 168.029 297.678 168.249 297.973 168.393L297.304 171.35H300.246L299.577 168.393C299.887 168.243 300.149 168.009 300.333 167.717C300.517 167.426 300.616 167.089 300.618 166.744Z" fill="white" stroke="#263238" stroke-width="1.10721" stroke-linecap="round" stroke-linejoin="round"/>
<path d="M220.309 36.5712H160.299C158.906 36.5712 157.776 37.7009 157.776 39.0944V72.884C157.776 74.2775 158.906 75.4072 160.299 75.4072H220.309C221.702 75.4072 222.832 74.2775 222.832 72.884V39.0944C222.832 37.7009 221.702 36.5712 220.309 36.5712Z" stroke="#263238" stroke-width="1.10721" stroke-linecap="round" stroke-linejoin="round"/>
<path d="M163.833 69.9808H182.658C183.141 69.9808 183.532 69.5895 183.532 69.1068V42.8792C183.532 42.3965 183.141 42.0052 182.658 42.0052H163.833C163.351 42.0052 162.959 42.3965 162.959 42.8792V69.1068C162.959 69.5895 163.351 69.9808 163.833 69.9808Z" stroke="#263238" stroke-width="1.10721" stroke-linecap="round" stroke-linejoin="round"/>
<path d="M173.28 69.9732H163.886C163.64 69.9732 163.405 69.8755 163.231 69.7016C163.057 69.5278 162.959 69.2919 162.959 69.046V62.586C162.959 62.586 168.211 62.358 169.092 61.2408C169.974 60.1236 169.001 58.3756 169.001 58.3756C168.682 57.9804 168.606 55.176 168.606 55.176L168.287 55.0924C167.975 55.0164 167.527 52.6908 167.527 51.8168C167.526 51.5651 167.597 51.3184 167.732 51.1056C167.866 50.8929 168.059 50.7231 168.287 50.616C168.287 50.616 167.527 44.9464 173.25 44.9464C178.972 44.9464 178.205 50.616 178.205 50.616C178.433 50.7231 178.625 50.8929 178.76 51.1056C178.894 51.3184 178.966 51.5651 178.965 51.8168C178.965 52.6908 178.554 55.0164 178.205 55.0924L177.886 55.176C177.886 55.176 177.81 57.9804 177.49 58.3756C177.49 58.3756 176.51 60.1236 177.399 61.2408C178.288 62.358 183.532 62.586 183.532 62.586V69.046C183.533 69.1681 183.51 69.2891 183.464 69.402C183.418 69.515 183.349 69.6176 183.263 69.7039C183.177 69.7902 183.074 69.8585 182.961 69.9047C182.848 69.9509 182.727 69.9742 182.605 69.9732H173.28Z" fill="#263238"/>
<path d="M216.311 70.11H203.528C203.274 70.1101 203.03 70.0107 202.848 69.8332C202.666 69.6556 202.561 69.414 202.555 69.16C202.555 68.902 202.658 68.6546 202.84 68.4721C203.023 68.2897 203.27 68.1872 203.528 68.1872H216.311C216.569 68.1872 216.817 68.2897 216.999 68.4721C217.181 68.6546 217.284 68.902 217.284 69.16C217.278 69.414 217.173 69.6556 216.991 69.8332C216.809 70.0107 216.565 70.1101 216.311 70.11Z" fill="#263238"/>
<path d="M216.311 43.814H189.81C189.552 43.814 189.305 43.7115 189.122 43.5291C188.94 43.3466 188.837 43.0992 188.837 42.8412C188.837 42.5832 188.94 42.3358 189.122 42.1533C189.305 41.9709 189.552 41.8684 189.81 41.8684H216.311C216.569 41.8684 216.817 41.9709 216.999 42.1533C217.181 42.3358 217.284 42.5832 217.284 42.8412C217.284 43.0992 217.181 43.3466 216.999 43.5291C216.817 43.7115 216.569 43.814 216.311 43.814Z" fill="#263238"/>
<path d="M205.01 50.388H189.81C189.681 50.388 189.553 50.3624 189.434 50.3125C189.315 50.2627 189.207 50.1897 189.117 50.0977C189.026 50.0058 188.955 49.8967 188.907 49.777C188.859 49.6572 188.835 49.529 188.837 49.4C188.837 49.142 188.94 48.8946 189.122 48.7121C189.305 48.5297 189.552 48.4272 189.81 48.4272H205.01C205.264 48.4332 205.506 48.5383 205.683 48.7201C205.861 48.9019 205.96 49.1459 205.96 49.4C205.964 49.6567 205.867 49.9047 205.689 50.0897C205.511 50.2748 205.267 50.382 205.01 50.388Z" fill="#263238"/>
<path d="M200.169 57H189.81C189.552 57 189.305 56.8975 189.122 56.7151C188.94 56.5327 188.837 56.2852 188.837 56.0272C188.837 55.7692 188.94 55.5218 189.122 55.3393C189.305 55.1569 189.552 55.0544 189.81 55.0544H200.169C200.427 55.0544 200.674 55.1569 200.857 55.3393C201.039 55.5218 201.142 55.7692 201.142 56.0272C201.142 56.2852 201.039 56.5327 200.857 56.7151C200.674 56.8975 200.427 57 200.169 57Z" fill="#263238"/>
<path d="M205.01 63.536H189.81C189.552 63.536 189.305 63.4335 189.122 63.2511C188.94 63.0686 188.837 62.8212 188.837 62.5632C188.833 62.4329 188.855 62.3031 188.902 62.1816C188.949 62.06 189.02 61.9492 189.111 61.8556C189.202 61.762 189.311 61.6876 189.431 61.6368C189.551 61.5861 189.68 61.5599 189.81 61.56H205.01C205.138 61.5629 205.265 61.5913 205.382 61.6434C205.5 61.6955 205.606 61.7704 205.694 61.8637C205.782 61.9569 205.851 62.0668 205.897 62.1868C205.943 62.3069 205.964 62.4348 205.96 62.5632C205.96 62.8173 205.861 63.0613 205.683 63.2431C205.506 63.4249 205.264 63.53 205.01 63.536Z" fill="#263238"/>
<path d="M96.6416 139.977V177.369L86.5792 187.431H59.8576V139.977H96.6416Z" stroke="#263238" stroke-width="1.10721" stroke-linecap="round" stroke-linejoin="round"/>
<path d="M96.6416 177.369L86.5792 187.431V177.369H96.6416Z" fill="#263238" stroke="#263238" stroke-width="1.10721" stroke-linecap="round" stroke-linejoin="round"/>
<path d="M68.818 146.026H91.0176" stroke="#263238" stroke-width="1.10721" stroke-linecap="round" stroke-linejoin="round"/>
<path d="M65.474 150.206H91.0176" stroke="#263238" stroke-width="1.10721" stroke-linecap="round" stroke-linejoin="round"/>
<path d="M65.474 154.386H91.0176" stroke="#263238" stroke-width="1.10721" stroke-linecap="round" stroke-linejoin="round"/>
<path d="M65.474 158.566H91.0176" stroke="#263238" stroke-width="1.10721" stroke-linecap="round" stroke-linejoin="round"/>
<path d="M65.474 162.746H91.0176" stroke="#263238" stroke-width="1.10721" stroke-linecap="round" stroke-linejoin="round"/>
<path d="M65.474 166.926H91.0176" stroke="#263238" stroke-width="1.10721" stroke-linecap="round" stroke-linejoin="round"/>
<path d="M65.474 171.099H91.0176" stroke="#263238" stroke-width="1.10721" stroke-linecap="round" stroke-linejoin="round"/>
<path d="M65.474 175.279H87.6812" stroke="#263238" stroke-width="1.10721" stroke-linecap="round" stroke-linejoin="round"/>
<path d="M98.3896 146.026H102.684V183.418L92.6288 193.481H65.9072V189.058" stroke="#263238" stroke-width="1.10721" stroke-linecap="round" stroke-linejoin="round"/>
<path d="M102.684 183.418L92.6288 193.481V183.418H102.684Z" fill="#263238" stroke="#263238" stroke-width="1.10721" stroke-linecap="round" stroke-linejoin="round"/>
<path d="M234.825 113.977H145.783C144.004 113.977 142.561 115.42 142.561 117.2V216.258C142.561 218.038 144.004 219.48 145.783 219.48H234.825C236.604 219.48 238.047 218.038 238.047 216.258V117.2C238.047 115.42 236.604 113.977 234.825 113.977Z" fill="#92E3A9" stroke="#263238" stroke-width="1.10721" stroke-linecap="round" stroke-linejoin="round"/>
<g opacity="0.5">
<path d="M236.124 149.15H144.484" stroke="white" stroke-width="1.10721" stroke-linecap="round" stroke-linejoin="round"/>
<path d="M236.124 160.869H144.484" stroke="white" stroke-width="1.10721" stroke-linecap="round" stroke-linejoin="round"/>
<path d="M236.124 172.588H144.484" stroke="white" stroke-width="1.10721" stroke-linecap="round" stroke-linejoin="round"/>
<path d="M236.124 184.308H144.484" stroke="white" stroke-width="1.10721" stroke-linecap="round" stroke-linejoin="round"/>
<path d="M236.124 196.027H144.484" stroke="white" stroke-width="1.10721" stroke-linecap="round" stroke-linejoin="round"/>
<path d="M236.124 207.754H144.484" stroke="white" stroke-width="1.10721" stroke-linecap="round" stroke-linejoin="round"/>
<path d="M236.124 137.423H144.484" stroke="white" stroke-width="1.10721" stroke-linecap="round" stroke-linejoin="round"/>
<path d="M236.124 125.704H144.484" stroke="white" stroke-width="1.10721" stroke-linecap="round" stroke-linejoin="round"/>
<path d="M214.229 217.596V115.854" stroke="white" stroke-width="1.10721" stroke-linecap="round" stroke-linejoin="round"/>
<path d="M202.266 217.596V115.854" stroke="white" stroke-width="1.10721" stroke-linecap="round" stroke-linejoin="round"/>
<path d="M190.304 217.596V115.854" stroke="white" stroke-width="1.10721" stroke-linecap="round" stroke-linejoin="round"/>
<path d="M178.342 217.596V115.854" stroke="white" stroke-width="1.10721" stroke-linecap="round" stroke-linejoin="round"/>
<path d="M166.379 217.596V115.854" stroke="white" stroke-width="1.10721" stroke-linecap="round" stroke-linejoin="round"/>
<path d="M154.424 217.596V115.854" stroke="white" stroke-width="1.10721" stroke-linecap="round" stroke-linejoin="round"/>
<path d="M226.191 217.596V115.854" stroke="white" stroke-width="1.10721" stroke-linecap="round" stroke-linejoin="round"/>
</g>
<path d="M186.96 198.869C187.983 193.58 189.382 188.371 191.148 183.282C191.505 182.256 191.908 181.222 192.348 180.12C193.39 177.46 195.525 172.026 194.72 170.407C194.639 170.235 194.515 170.087 194.358 169.979C194.202 169.871 194.02 169.806 193.83 169.792C193.79 169.79 193.749 169.796 193.712 169.811C193.674 169.825 193.639 169.847 193.61 169.875C191.239 171.813 189.711 177.186 188.602 181.108L188.229 182.43C186.757 187.703 185.715 193.086 185.113 198.527" stroke="#263238" stroke-width="1.10721" stroke-linecap="round" stroke-linejoin="round"/>
<path d="M190.479 199.12C191.461 194.142 192.789 189.238 194.454 184.444C194.788 183.464 195.214 182.438 195.616 181.359C197.281 177.126 199.348 171.882 197.858 168.88C197.488 168.131 196.92 167.498 196.215 167.051C195.51 166.603 194.696 166.358 193.861 166.341C192.979 166.333 192.123 166.637 191.444 167.2C188.229 169.822 186.603 175.56 185.296 180.166L184.923 181.48C183.452 186.708 182.402 192.045 181.784 197.44" stroke="#263238" stroke-width="1.10721" stroke-linecap="round" stroke-linejoin="round"/>
<path d="M194.081 198.778C195.008 194.301 196.224 189.889 197.722 185.569C199.53 180.409 203.604 172.649 200.959 167.329C198.793 162.974 193.124 161.356 189.255 164.517C184.832 168.12 183.076 175.347 181.587 180.523C180.181 185.506 179.147 190.587 178.494 195.723" stroke="#263238" stroke-width="1.10721" stroke-linecap="round" stroke-linejoin="round"/>
<path d="M197.866 197.729C198.693 194 199.738 190.323 200.997 186.717C201.294 185.858 201.674 184.9 202.076 183.874C204.235 178.38 206.925 171.532 204.06 165.771C203.114 163.87 201.661 162.268 199.861 161.141C198.061 160.014 195.984 159.407 193.861 159.387C191.383 159.379 188.98 160.237 187.066 161.812C182.157 165.817 180.226 172.725 178.623 178.266L178.258 179.55C176.977 184.062 176.005 188.655 175.347 193.298" stroke="#263238" stroke-width="1.10721" stroke-linecap="round" stroke-linejoin="round"/>
<path d="M201.909 195.73C202.616 192.949 203.391 190.372 204.265 187.864C204.554 187.051 204.911 186.132 205.291 185.166C207.571 179.33 210.71 171.365 207.161 164.236C205.929 161.756 204.034 159.667 201.686 158.199C199.338 156.731 196.63 155.943 193.861 155.922C190.584 155.91 187.406 157.045 184.878 159.129C179.117 163.826 176.996 171.289 175.286 177.323L174.922 178.6C173.85 182.367 172.989 186.19 172.345 190.053" stroke="#263238" stroke-width="1.10721" stroke-linecap="round" stroke-linejoin="round"/>
<path d="M206.082 192.348C206.842 186.785 211.326 180.188 211.766 172.474C212.169 165.406 209.844 160.877 208.194 158.604C207.803 158.044 207.553 157.397 207.469 156.719C207.384 156.041 207.466 155.352 207.708 154.713C208.81 151.475 208.773 147.956 207.602 144.742" stroke="#263238" stroke-width="1.10721" stroke-linecap="round" stroke-linejoin="round"/>
<path d="M195.548 134.353C201.4 138.016 205.2 143.784 205.496 151.24C205.595 153.915 203.422 154.835 200.701 154.006C195.008 152.274 181.442 147.835 173.174 171.084C171.589 175.908 170.42 180.858 169.678 185.881" stroke="#263238" stroke-width="1.10721" stroke-linecap="round" stroke-linejoin="round"/>
<path d="M183.92 134.733C187.572 134.683 191.181 135.529 194.431 137.195C199.986 140.182 203.482 147.204 201.696 148.99C199.713 150.974 196.027 146.186 184.756 150.807C179.337 153.026 175.492 157.548 172.877 162.686C171.698 165.032 170.702 167.466 169.898 169.966C168.85 173.182 167.987 176.456 167.314 179.77" stroke="#263238" stroke-width="1.10721" stroke-linecap="round" stroke-linejoin="round"/>
<path d="M177.513 139.019C179.498 138.496 181.541 138.223 183.593 138.206C193.542 137.978 197.273 143.283 196.179 144.628C195.259 145.76 193.215 145.122 190.41 145.464C182.316 146.46 175.917 151.065 171.608 157.875C169.483 161.323 167.788 165.019 166.562 168.88C166.334 169.571 166.113 170.27 165.9 170.97" stroke="#263238" stroke-width="1.10721" stroke-linecap="round" stroke-linejoin="round"/>
<path d="M172.824 144.742C176.14 142.064 180.315 140.681 184.574 140.851C185.835 140.851 188.951 141.261 189.369 142.454C189.924 144.02 184.862 141.892 177.528 146.779C168.127 153.049 166.987 158.992 166.987 158.992" stroke="#263238" stroke-width="1.10721" stroke-linecap="round" stroke-linejoin="round"/>
<path d="M210.072 188.138C210.072 188.138 215.171 177.126 214.632 168.614C214.297 163.134 211.592 159.699 211.166 157.259C210.74 154.82 211.926 154.219 211.607 151.985" stroke="#263238" stroke-width="1.10721" stroke-linecap="round" stroke-linejoin="round"/>
<path d="M148.99 136.298V120.749H164.54" stroke="#263238" stroke-width="1.10721" stroke-linecap="round" stroke-linejoin="round"/>
<path d="M164.54 212.709H148.99V197.159" stroke="#263238" stroke-width="1.10721" stroke-linecap="round" stroke-linejoin="round"/>
<path d="M231.625 136.298V120.749H216.076" stroke="#263238" stroke-width="1.10721" stroke-linecap="round" stroke-linejoin="round"/>
<path d="M216.076 212.709H231.625V197.159" stroke="#263238" stroke-width="1.10721" stroke-linecap="round" stroke-linejoin="round"/>
<path d="M297.677 355.68C293.618 349.6 289.362 343.186 285.866 337.873C281.398 331.102 278.175 326.154 278.175 326.154C276.465 318.151 274.041 315.012 271.601 308.438C269.162 301.864 271.176 296.005 272.186 287.865C273.197 279.726 271.601 272.141 270.75 266.996C269.899 261.85 270.894 256.994 270.75 255.854C270.606 254.714 265.749 248.71 263.91 244.279C263.077 242.303 261.912 240.483 260.467 238.898C258.871 237.071 256.873 235.638 254.63 234.711C253.696 234.343 252.722 234.088 251.727 233.951C249.447 233.624 247.608 233.989 245.769 233.989C243.192 233.989 237.766 229.566 234.194 228.859C233.531 228.727 232.861 228.633 232.188 228.578C229.231 228.296 226.108 228.578 222.65 228.851C219.192 229.125 215.171 225.849 211.934 224.823H211.88C211.164 224.573 210.4 224.49 209.646 224.58C206.218 225.15 199.766 225.72 199.766 225.72C199.766 225.72 199.196 221.297 198.907 215.293C198.854 214.252 198.778 213.248 198.687 212.253C198.352 208.544 197.82 205.23 197.737 202.198C197.737 201.438 197.737 200.625 197.737 199.865C198.018 195.594 197.889 192.265 197.737 185.698C197.737 185.478 197.737 185.242 197.737 185.007C197.737 182.962 197.737 181.009 197.615 179.246C197.38 174.967 196.43 171.806 192.174 171.152C188.457 170.582 185.888 172.436 184.315 178.585C182.742 184.733 181.602 184.3 181.176 193.298C180.751 202.297 178.737 208.027 179.026 212.595C179.314 217.162 178.311 226.024 178.311 226.024C176.601 225.165 175.028 225.88 174.732 226.594C174.435 227.308 173.174 234.316 172.163 239.316C171.281 243.762 167.23 247.874 165.741 250.937V251.005C165.581 251.336 165.449 251.679 165.346 252.031C164.487 255.178 164.92 261.911 164.92 270.469C164.92 279.026 162.777 287.903 164.92 293.611C165.376 294.774 166.015 295.856 166.812 296.818C170.103 300.884 176.145 304.418 181.64 310.901C188.48 319.048 193.359 325.052 197.927 327.773C201.202 329.703 202.639 331.284 203.247 333.366C203.486 334.269 203.611 335.199 203.619 336.133C203.68 337.957 204.668 339.348 206.34 341.658C208.949 345.192 211.238 348.951 213.18 352.891C215.012 356.562 217.816 363.531 220.78 371.252L297.677 355.68Z" fill="white"/>
<path opacity="0.4" d="M197.714 199.827C197.668 200.587 197.661 201.347 197.714 202.16C192.25 201.126 181.701 203.824 181.541 207.047C181.359 210.976 180.88 220.263 182.879 222.429C184.878 224.595 189.164 225.978 189.164 225.978C188.848 226.003 188.533 226.043 188.222 226.1H188.115C186.747 226.388 185.501 227.088 184.543 228.106C180.363 232.393 180.188 241.893 181.556 246.468C187.279 265.468 178.015 280.501 174.716 278.677C171.418 276.853 171.152 260.52 172.148 256.698C172.749 254.468 173.043 252.167 173.022 249.858C171.562 249.371 168.5 250.078 165.688 250.952V250.884C167.208 247.844 171.228 243.709 172.11 239.263C173.12 234.262 174.39 227.255 174.678 226.541C174.967 225.826 176.548 225.112 178.258 225.971C178.258 225.971 179.261 217.117 178.972 212.542C178.684 207.966 180.69 202.251 181.123 193.245C181.556 184.239 182.689 184.68 184.262 178.532C185.835 172.383 188.404 170.529 192.12 171.099C196.376 171.752 197.326 174.899 197.562 179.193C197.084 178.739 196.576 178.318 196.042 177.931C194.696 176.886 193.005 176.386 191.307 176.533C189.339 176.806 187.614 178.813 186.519 180.88C184.946 183.92 184.688 187.18 186.899 186.063C189.407 184.809 194.583 185.227 197.737 185.645C197.866 192.204 197.995 195.556 197.714 199.827Z" fill="#92E3A9"/>
<path opacity="0.4" d="M203.551 336.11C203.542 335.176 203.417 334.247 203.178 333.344C202.578 331.261 201.142 329.68 197.858 327.75C193.298 325.029 188.427 319.025 181.572 310.878C176.077 304.365 170.035 300.861 166.744 296.795C170.886 299.037 176.51 297.882 178.281 301.431C180.857 306.554 192.956 314.351 192.956 314.351C204.767 326.04 203.551 336.11 203.551 336.11Z" fill="#92E3A9"/>
<path opacity="0.4" d="M211.812 224.793C210.421 224.512 206.652 233.806 206.294 237.105C205.344 245.655 209.73 272.012 204.09 271.419C201.757 271.176 199.021 258.864 198.862 253.126C198.352 235.699 199.052 228.456 199.052 228.456C199.052 228.456 197.805 218.804 198.641 212.23C198.732 213.218 198.808 214.221 198.862 215.27C199.15 221.274 199.72 225.697 199.72 225.697C199.72 225.697 206.15 225.127 209.6 224.557C210.346 224.468 211.102 224.549 211.812 224.793Z" fill="#92E3A9"/>
<path opacity="0.4" d="M232.119 228.57C229.079 228.844 226.039 231.815 223.539 232.37C220.499 233.016 214.913 226.168 211.865 224.831C215.103 225.857 219.161 229.079 222.581 228.859C226.001 228.638 229.163 228.289 232.119 228.57Z" fill="#92E3A9"/>
<path opacity="0.4" d="M251.689 233.943C250.183 235.83 248.971 237.933 248.094 240.183C245.647 248.094 247.958 278.031 244.013 273.129C238.876 266.76 244.241 244.667 240.494 236.231C239.309 233.533 235.076 229.216 234.156 228.851C237.728 229.558 243.154 233.981 245.731 233.981C247.57 233.981 249.417 233.616 251.689 233.943Z" fill="#92E3A9"/>
<path opacity="0.4" d="M285.851 337.866C281.846 333.351 277.651 329.05 274.907 327.438C268.227 323.502 266.312 319.428 265.734 312.641C265.156 305.854 266.882 305.999 268.88 299.288C270.879 292.577 267.163 284.278 267.452 286.072C267.74 287.865 264.586 300.284 262.268 300.899C259.95 301.515 259.168 293.14 258.879 286.315C258.59 279.49 262.306 247.707 261.265 241.475C261.124 240.57 260.842 239.693 260.429 238.876C261.874 240.46 263.039 242.28 263.872 244.256C265.734 248.687 270.59 254.691 270.712 255.831C270.834 256.971 269.853 261.835 270.712 266.973C271.571 272.11 273.144 279.688 272.148 287.842C271.153 295.997 269.108 301.842 271.563 308.416C274.018 314.99 276.427 318.128 278.137 326.131C278.16 326.146 281.382 331.094 285.851 337.866Z" fill="#92E3A9"/>
<path opacity="0.4" d="M225.53 245.48C227.05 247.076 228.008 267.991 228.866 273.136C229.725 278.282 227.058 290.616 225.53 286.862C224.002 283.108 219.344 238.974 225.53 245.48Z" fill="#92E3A9"/>
<path d="M219.64 368.296C217.117 361.775 214.784 356.068 213.188 352.868C211.245 348.928 208.956 345.169 206.348 341.635C204.676 339.355 203.688 337.934 203.627 336.11C203.618 335.176 203.493 334.247 203.254 333.344V333.344C202.654 331.261 201.218 329.68 197.934 327.75C193.374 325.029 188.503 319.025 181.648 310.878C176.153 304.365 170.111 300.861 166.82 296.795C166.023 295.833 165.384 294.751 164.928 293.588C162.784 287.88 164.928 279.011 164.928 270.446C164.928 261.881 164.494 255.155 165.353 252.008C165.457 251.656 165.589 251.313 165.748 250.982V250.914C167.268 247.874 171.289 243.74 172.17 239.294C173.181 234.293 174.45 227.286 174.739 226.571C175.028 225.857 176.609 225.142 178.319 226.001C178.319 226.001 179.322 217.147 179.033 212.572C178.744 207.997 180.751 202.282 181.184 193.276C181.617 184.27 182.75 184.71 184.323 178.562C185.896 172.414 188.465 170.559 192.181 171.129C196.437 171.783 197.387 174.929 197.623 179.223C197.722 180.986 197.706 182.94 197.744 184.984C197.744 185.22 197.744 185.455 197.744 185.676C197.881 192.219 198.01 195.556 197.744 199.842C197.699 200.602 197.691 201.362 197.744 202.175C197.828 205.215 198.36 208.521 198.694 212.23C198.786 213.218 198.862 214.221 198.915 215.27C199.204 221.274 199.774 225.697 199.774 225.697C199.774 225.697 206.203 225.127 209.654 224.557C210.407 224.467 211.171 224.55 211.888 224.8H211.941C215.179 225.826 219.237 229.049 222.657 228.828C226.077 228.608 229.239 228.274 232.195 228.555C232.869 228.611 233.539 228.705 234.202 228.836C237.774 229.543 243.2 233.966 245.776 233.966C247.616 233.966 249.462 233.601 251.735 233.928C252.729 234.065 253.704 234.321 254.638 234.688C256.881 235.615 258.878 237.048 260.475 238.876C261.92 240.46 263.084 242.28 263.918 244.256C265.78 248.687 270.636 254.691 270.758 255.831C270.879 256.971 269.899 261.835 270.758 266.973C271.616 272.11 273.19 279.688 272.194 287.842C271.198 295.997 269.154 301.842 271.609 308.416C274.064 314.99 276.473 318.128 278.183 326.131C278.183 326.131 281.405 331.079 285.874 337.85C288.975 342.555 292.668 348.148 296.301 353.582" stroke="#263238" stroke-width="1.10721" stroke-linecap="round" stroke-linejoin="round"/>
<path d="M178.281 225.978C178.281 232.271 177.711 240.076 176.761 243.322C175.811 246.567 176.449 257.42 174.701 261.987" stroke="#263238" stroke-width="1.10721" stroke-linecap="round" stroke-linejoin="round"/>
<path d="M181.526 230.934C181.526 230.934 185.904 225.978 189.126 225.978C192.348 225.978 195.609 228.076 199.006 228.456C202.403 228.836 206.006 226.305 209.296 225.697" stroke="#263238" stroke-width="1.10721" stroke-linecap="round" stroke-linejoin="round"/>
<path d="M183.996 208.004C183.996 208.004 189.909 205.846 192.956 208.004" stroke="#263238" stroke-width="1.10721" stroke-linecap="round" stroke-linejoin="round"/>
<path d="M188.48 205.2C188.48 205.2 190.289 204.706 192.956 205.998" stroke="#263238" stroke-width="1.10721" stroke-linecap="round" stroke-linejoin="round"/>
<path d="M186.899 190C188.901 189.554 190.977 189.554 192.979 190" stroke="#263238" stroke-width="1.10721" stroke-linecap="round" stroke-linejoin="round"/>
<path d="M165.68 250.884C165.68 250.884 169.48 249.037 171 248.847" stroke="#263238" stroke-width="1.10721" stroke-linecap="round" stroke-linejoin="round"/>
<path d="M175.72 256.736C175.72 256.736 173.44 260.277 173.014 261.987" stroke="#263238" stroke-width="1.10721" stroke-linecap="round" stroke-linejoin="round"/>
<path d="M186.899 174.542C186.899 174.542 185.987 181.815 186.899 182.461C187.811 183.107 194.856 183.722 195.434 182.461C196.012 181.199 196.11 175.872 196.11 175.872C196.11 175.872 191.892 168.629 186.899 174.542Z" stroke="#263238" stroke-width="1.10721" stroke-linecap="round" stroke-linejoin="round"/>
<path d="M172.14 239.271C172.14 239.271 177.984 236.322 178.121 232.104C178.258 227.886 176.54 227.932 174.367 227.909" stroke="#263238" stroke-width="1.10721" stroke-linecap="round" stroke-linejoin="round"/>
<path d="M263.256 248.847C263.446 255.512 261.546 274.945 261.349 277.803C261.151 280.66 261.349 287.964 261.349 287.964" stroke="#263238" stroke-width="1.10721" stroke-linecap="round" stroke-linejoin="round"/>
<path d="M221.532 233.586C227.818 242.706 221.532 239.271 225.53 282.948" stroke="#263238" stroke-width="1.10721" stroke-linecap="round" stroke-linejoin="round"/>
<path d="M278.16 326.146C278.16 326.146 272.589 321.814 271.632 319.306" stroke="#263238" stroke-width="1.10721" stroke-linecap="round" stroke-linejoin="round"/>
<path d="M200.382 324.094C202.054 326.868 203.11 332.948 203.171 333.321" stroke="#263238" stroke-width="1.10721" stroke-linecap="round" stroke-linejoin="round"/>
</svg>
