<svg width="52" height="68" viewBox="0 0 52 68" fill="none" xmlns="http://www.w3.org/2000/svg">
<path opacity="0.7" d="M61.1211 55.3316C61.0708 55.4214 61.0218 55.5125 60.9702 55.6036C60.9185 55.6947 60.8573 55.7994 60.7988 55.896C60.7403 55.9926 60.6914 56.0701 60.637 56.1558C60.5826 56.2414 60.501 56.3652 60.4316 56.4686C60.3813 56.5434 60.331 56.6168 60.2779 56.6916C60.2099 56.7882 60.1419 56.8834 60.0712 56.9772C60.0005 57.071 59.9542 57.1322 59.8944 57.2084C59.7666 57.3743 59.6337 57.5375 59.4959 57.698C59.4279 57.7782 59.3599 57.8558 59.2878 57.9346C59.2198 58.0094 59.1518 58.0842 59.0811 58.159L59.0716 58.1713C59.0036 58.2434 58.9356 58.3073 58.8662 58.3848C58.7969 58.4623 58.699 58.5534 58.6133 58.635C58.495 58.752 58.3726 58.8649 58.2502 58.9764L58.2406 58.9846C58.1998 59.0226 58.1604 59.0566 58.121 59.092C57.985 59.2158 57.8394 59.3354 57.6953 59.4538C57.6191 59.5177 57.5416 59.5775 57.4654 59.6401L57.169 59.8672L57.0139 59.9814C56.9867 59.9991 56.9609 60.0182 56.935 60.0372C56.8126 60.1256 56.6875 60.2126 56.561 60.2983L56.289 60.4751L56.1775 60.5472C56.0742 60.6138 55.9667 60.6832 55.8606 60.7444C55.7546 60.8056 55.6485 60.8722 55.5397 60.9334C55.4975 60.9579 55.4554 60.9824 55.4132 61.0042C55.3289 61.0545 55.2432 61.1007 55.1575 61.147C54.8719 61.3034 54.5795 61.4516 54.283 61.593C54.1824 61.642 54.0818 61.6896 53.9798 61.729C53.8302 61.7979 53.6792 61.8646 53.5269 61.929C53.4018 61.9834 53.2753 62.035 53.1474 62.0854L53.0686 62.1166C52.9462 62.167 52.8238 62.2132 52.7 62.2608C52.6021 62.2962 52.5042 62.3329 52.4049 62.3669C52.3056 62.4009 52.224 62.4322 52.1329 62.4634L51.8609 62.5546L51.8242 62.5668C51.6882 62.6103 51.559 62.6525 51.427 62.6933L51.3903 62.7042L50.9823 62.8252L50.9075 62.847L50.5158 62.9544C50.3798 62.9925 50.2343 63.0278 50.0929 63.0632L50.0643 63.07H50.0521C49.9093 63.1067 49.7651 63.1394 49.6223 63.1734H49.6087L49.1912 63.2658L49.1028 63.2849C48.9668 63.3134 48.824 63.342 48.6839 63.3678C48.5438 63.3937 48.3711 63.4277 48.2134 63.4549C48.0352 63.4862 47.8557 63.5147 47.6694 63.5433C47.5334 63.565 47.3974 63.5854 47.2614 63.6045H47.2505C46.9445 63.648 46.6385 63.6874 46.3284 63.7228L46.2359 63.7323L45.8279 63.7745H45.7708L45.3057 63.8153C45.1425 63.8289 44.9793 63.8411 44.8147 63.852H44.8011C44.6474 63.8629 44.4951 63.8724 44.3414 63.8792C43.981 63.901 43.6166 63.9146 43.2534 63.9227C43.1025 63.9227 42.9502 63.9309 42.7978 63.9309C42.6455 63.9309 42.4592 63.9309 42.2892 63.9309H41.7833H41.5222L41.1142 63.92C40.9714 63.92 40.8272 63.9118 40.683 63.905C40.4478 63.8969 40.2098 63.886 39.9718 63.8724L39.7637 63.8602L39.455 63.8411L39.2278 63.8248H39.1938L38.9626 63.8071C38.8661 63.8003 38.7682 63.7922 38.6716 63.7826C38.1018 63.735 37.5292 63.6766 36.958 63.6058C36.7594 63.5827 36.5595 63.5555 36.3596 63.5283C36.1882 63.5052 36.0169 63.4821 35.8442 63.4549C35.6714 63.4277 35.5191 63.4086 35.3559 63.3828C35.1723 63.3542 34.9887 63.3243 34.8119 63.293L34.4379 63.2291L34.0993 63.1693L33.8382 63.1203C33.7022 63.0958 33.5757 63.0714 33.4438 63.0442L33.3363 63.0224L32.8739 62.9299L32.7189 62.8959C32.6087 62.8742 32.4999 62.8497 32.3911 62.8252L32.0906 62.7599L31.3058 62.5777C30.8883 62.477 30.4722 62.3696 30.056 62.2581C29.8221 62.1969 29.5882 62.1316 29.3556 62.0663C29.1747 62.0146 28.9966 61.9643 28.8184 61.9113L28.322 61.763L28.2486 61.7413L27.7848 61.608L27.725 61.5903L27.2721 61.4434L27.1619 61.4067C27.0259 61.3646 26.9022 61.321 26.773 61.2707C26.4248 61.1524 26.0807 61.0314 25.7366 60.9062L25.2022 60.7077C25.0444 60.6478 24.8866 60.588 24.7289 60.5254C23.7701 60.1542 22.833 59.753 21.9205 59.3286L21.6485 59.2049C20.895 58.8477 20.1602 58.4741 19.4439 58.0842L19.2712 57.989C19.1964 57.9482 19.1189 57.9061 19.0441 57.8626C18.0467 57.305 17.0947 56.7156 16.1881 56.0946L15.8195 55.8375C15.6835 55.7423 15.5475 55.6471 15.421 55.5506C15.2946 55.454 15.1586 55.3574 15.0294 55.2595C14.6431 54.9676 14.2687 54.6697 13.906 54.366L13.547 54.06C13.3525 53.89 13.1621 53.7186 12.9758 53.5486C12.8806 53.4589 12.784 53.3705 12.6915 53.2766C12.4639 53.0618 12.2436 52.8433 12.0306 52.6211C11.9843 52.5735 11.9381 52.5273 11.8946 52.4783C11.7413 52.316 11.5913 52.1533 11.4444 51.9901L11.4281 51.9724C11.337 51.8677 11.2458 51.7643 11.1561 51.6596C11.1085 51.6052 11.0609 51.5494 11.0201 51.4937L10.8841 51.3278L10.7671 51.1809C10.6162 50.9932 10.472 50.8055 10.3333 50.6151C10.3006 50.5702 10.268 50.5267 10.2367 50.4791C10.1551 50.3662 10.0749 50.252 9.99599 50.1378C2.22223 38.7505 5.67119 21.6417 12.784 12.7582C16.7702 7.78872 20.4422 7.68808 27.593 7.072C77.7526 2.72 54.2953 22.7229 56.5162 32.0226C58.5725 40.6409 65.2242 47.7673 61.1211 55.3316Z" fill="#92E3A9"/>
<path d="M57.7157 59.432L57.6953 59.4497C57.6178 59.5136 57.5416 59.5734 57.4641 59.636C57.3866 59.6986 57.2682 59.7883 57.1676 59.8631L57.0126 59.9774L56.935 60.0331C56.8117 60.1238 56.6866 60.2108 56.5597 60.2942L56.2945 60.471L56.1829 60.5431C56.0782 60.6098 55.9722 60.6791 55.8647 60.7403C55.7573 60.8015 55.6526 60.8682 55.5451 60.9294C55.503 60.9538 55.4608 60.9783 55.4186 61.0001C55.3343 61.0504 55.2486 61.0966 55.1616 61.1429C54.876 61.2988 54.5845 61.4475 54.2871 61.589C54.1865 61.6379 54.0858 61.6855 53.9838 61.725C53.836 61.7939 53.6851 61.8605 53.531 61.9249C53.4058 61.9793 53.2794 62.031 53.1515 62.0813L53.074 62.1126C52.9516 62.1629 52.8278 62.2091 52.7041 62.2567C52.6062 62.2921 52.5082 62.3288 52.409 62.3628C52.3097 62.3968 52.2281 62.4281 52.137 62.4594L51.865 62.5505L51.8269 62.5627C51.6909 62.6062 51.563 62.6484 51.4298 62.6892L51.3944 62.7001L50.9864 62.8211L50.9102 62.8429L50.5199 62.9503C50.3839 62.9884 50.2384 63.0238 50.097 63.0591L50.0684 63.0659H50.0562C49.9134 63.1026 49.7692 63.1353 49.625 63.1693H49.6128L49.1939 63.2618L49.1069 63.2808C48.9709 63.3094 48.8349 63.3379 48.6866 63.3638C48.5384 63.3896 48.3752 63.4236 48.2174 63.4508C48.0379 63.4821 47.8584 63.5106 47.6734 63.5392L47.2654 63.6004H47.2532C46.9486 63.6439 46.6426 63.6834 46.3325 63.7187L46.2386 63.7282L45.8306 63.7704H45.7735L45.3084 63.8112H45.3016C45.1398 63.8248 44.9752 63.837 44.812 63.8479H44.797C44.6447 63.8588 44.4924 63.8683 44.3387 63.8751C43.977 63.8969 43.6138 63.9105 43.2507 63.9186L42.7938 63.9268C42.6251 63.9268 42.4551 63.9268 42.2851 63.9268H41.7792H41.5181L41.1101 63.9159C40.9659 63.9159 40.8218 63.9078 40.6776 63.901C40.4419 63.8928 40.2052 63.8819 39.9677 63.8683L39.7596 63.8561L39.4495 63.837L39.2238 63.8207H39.1898L38.9572 63.803C38.8606 63.7962 38.7627 63.7881 38.6662 63.7786C38.0959 63.7305 37.5247 63.6716 36.9526 63.6018C36.754 63.5786 36.5554 63.5514 36.3555 63.5242C36.1842 63.5011 36.0114 63.478 35.8387 63.4508C35.666 63.4236 35.5137 63.4046 35.3518 63.3787C35.1682 63.3502 34.9846 63.3202 34.8078 63.289L34.4325 63.225L34.0938 63.1652L33.8341 63.1162C33.6981 63.0918 33.5702 63.0673 33.4397 63.0401L33.3309 63.0183L32.8698 62.9258L32.7148 62.8918C32.6046 62.8701 32.4945 62.8456 32.3857 62.8211L32.0851 62.7558L31.3018 62.5736C30.8842 62.473 30.4667 62.3655 30.0506 62.254C29.8166 62.1928 29.5841 62.1275 29.3502 62.0622C29.1706 62.0106 28.9911 61.9602 28.813 61.9072L28.3166 61.759L28.2431 61.7372C28.0881 61.6882 27.9317 61.6406 27.7766 61.5903L27.7168 61.5726L27.2639 61.4258L27.1538 61.389C27.0178 61.3469 26.8926 61.3034 26.7634 61.253C26.4162 61.1343 26.0712 61.0128 25.7285 60.8886L25.1926 60.69C25.0362 60.6302 24.8785 60.5703 24.7207 60.5078C23.8381 60.1664 22.9718 59.7978 22.1286 59.4102L57.7157 59.432Z" fill="#D3F4DD"/>
<path opacity="0.7" d="M61.1211 55.3316C61.0708 55.4214 61.0218 55.5125 60.9702 55.6036C60.9185 55.6947 60.8573 55.7994 60.7988 55.896C60.7403 55.9926 60.6914 56.0701 60.637 56.1558C60.5826 56.2414 60.501 56.3652 60.4316 56.4686C60.3813 56.5434 60.331 56.6168 60.2779 56.6916C60.2099 56.7882 60.1419 56.8834 60.0712 56.9772C60.0005 57.071 59.9542 57.1322 59.8944 57.2084C59.7666 57.3743 59.6337 57.5375 59.4959 57.698C59.4279 57.7782 59.3599 57.8558 59.2878 57.9346C59.2198 58.0094 59.1518 58.0842 59.0811 58.159L59.0716 58.1713C59.0036 58.2434 58.9356 58.3073 58.8662 58.3848C58.7969 58.4623 58.699 58.5534 58.6133 58.635C58.495 58.752 58.3726 58.8649 58.2502 58.9764L58.2406 58.9846C58.1998 59.0226 58.1604 59.0566 58.121 59.092C57.985 59.2158 57.8394 59.3354 57.6953 59.4538C57.6191 59.5177 57.5416 59.5775 57.4654 59.6401L57.169 59.8672L57.0139 59.9814C56.9867 59.9991 56.9609 60.0182 56.935 60.0372C56.8126 60.1256 56.6875 60.2126 56.561 60.2983L56.289 60.4751L56.1775 60.5472C56.0742 60.6138 55.9667 60.6832 55.8606 60.7444C55.7546 60.8056 55.6485 60.8722 55.5397 60.9334C55.4975 60.9579 55.4554 60.9824 55.4132 61.0042C55.3289 61.0545 55.2432 61.1007 55.1575 61.147C54.8719 61.3034 54.5795 61.4516 54.283 61.593C54.1824 61.642 54.0818 61.6896 53.9798 61.729C53.8302 61.7979 53.6792 61.8646 53.5269 61.929C53.4018 61.9834 53.2753 62.035 53.1474 62.0854L53.0686 62.1166C52.9462 62.167 52.8238 62.2132 52.7 62.2608C52.6021 62.2962 52.5042 62.3329 52.4049 62.3669C52.3056 62.4009 52.224 62.4322 52.1329 62.4634L51.8609 62.5546L51.8242 62.5668C51.6882 62.6103 51.559 62.6525 51.427 62.6933L51.3903 62.7042L50.9823 62.8252L50.9075 62.847L50.5158 62.9544C50.3798 62.9925 50.2343 63.0278 50.0929 63.0632L50.0643 63.07H50.0521C49.9093 63.1067 49.7651 63.1394 49.6223 63.1734H49.6087L49.1912 63.2658L49.1028 63.2849C48.9668 63.3134 48.824 63.342 48.6839 63.3678C48.5438 63.3937 48.3711 63.4277 48.2134 63.4549C48.0352 63.4862 47.8557 63.5147 47.6694 63.5433C47.5334 63.565 47.3974 63.5854 47.2614 63.6045H47.2505C46.9445 63.648 46.6385 63.6874 46.3284 63.7228L46.2359 63.7323L45.8279 63.7745H45.7708L45.3057 63.8153C45.1425 63.8289 44.9793 63.8411 44.8147 63.852H44.8011C44.6474 63.8629 44.4951 63.8724 44.3414 63.8792C43.981 63.901 43.6166 63.9146 43.2534 63.9227C43.1025 63.9227 42.9502 63.9309 42.7978 63.9309C42.6455 63.9309 42.4592 63.9309 42.2892 63.9309H41.7833H41.5222L41.1142 63.92C40.9714 63.92 40.8272 63.9118 40.683 63.905C40.4478 63.8969 40.2098 63.886 39.9718 63.8724L39.7637 63.8602L39.455 63.8411L39.2278 63.8248H39.1938L38.9626 63.8071C38.8661 63.8003 38.7682 63.7922 38.6716 63.7826C38.1018 63.735 37.5292 63.6766 36.958 63.6058C36.7594 63.5827 36.5595 63.5555 36.3596 63.5283C36.1882 63.5052 36.0169 63.4821 35.8442 63.4549C35.6714 63.4277 35.5191 63.4086 35.3559 63.3828C35.1723 63.3542 34.9887 63.3243 34.8119 63.293L34.4379 63.2291L34.0993 63.1693L33.8382 63.1203C33.7022 63.0958 33.5757 63.0714 33.4438 63.0442L33.3363 63.0224L32.8739 62.9299L32.7189 62.8959C32.6087 62.8742 32.4999 62.8497 32.3911 62.8252L32.0906 62.7599L31.3058 62.5777C30.8883 62.477 30.4722 62.3696 30.056 62.2581C29.8221 62.1969 29.5882 62.1316 29.3556 62.0663C29.1747 62.0146 28.9966 61.9643 28.8184 61.9113L28.322 61.763L28.2486 61.7413L27.7848 61.608L27.725 61.5903L27.2721 61.4434L27.1619 61.4067C27.0259 61.3646 26.9022 61.321 26.773 61.2707C26.4248 61.1524 26.0807 61.0314 25.7366 60.9062L25.2022 60.7077C25.0444 60.6478 24.8866 60.588 24.7289 60.5254C23.7701 60.1542 22.833 59.753 21.9205 59.3286L21.6485 59.2049C20.895 58.8477 20.1602 58.4741 19.4439 58.0842L19.2712 57.989C19.1964 57.9482 19.1189 57.9061 19.0441 57.8626C18.0467 57.305 17.0947 56.7156 16.1881 56.0946L15.8195 55.8375C15.6835 55.7423 15.5475 55.6471 15.421 55.5506C15.2946 55.454 15.1586 55.3574 15.0294 55.2595C14.6431 54.9676 14.2687 54.6697 13.906 54.366L13.547 54.06C13.3525 53.89 13.1621 53.7186 12.9758 53.5486C12.8806 53.4589 12.784 53.3705 12.6915 53.2766C12.4639 53.0618 12.2436 52.8433 12.0306 52.6211C11.9843 52.5735 11.9381 52.5273 11.8946 52.4783C11.7413 52.316 11.5913 52.1533 11.4444 51.9901L11.4281 51.9724C11.337 51.8677 11.2458 51.7643 11.1561 51.6596C11.1085 51.6052 11.0609 51.5494 11.0201 51.4937L10.8841 51.3278L10.7671 51.1809C10.6162 50.9932 10.472 50.8055 10.3333 50.6151C10.3006 50.5702 10.268 50.5267 10.2367 50.4791C10.1551 50.3662 10.0749 50.252 9.99599 50.1378C2.22223 38.7505 5.67119 21.6417 12.784 12.7582C16.7702 7.78872 20.4422 7.68808 27.593 7.072C77.7526 2.72 54.2953 22.7229 56.5162 32.0226C58.5725 40.6409 65.2242 47.7673 61.1211 55.3316Z" fill="white"/>
<path d="M57.7157 59.432L57.6953 59.4497C57.6178 59.5136 57.5416 59.5734 57.4641 59.636C57.3866 59.6986 57.2682 59.7883 57.1676 59.8631L57.0126 59.9774L56.935 60.0331C56.8117 60.1238 56.6866 60.2108 56.5597 60.2942L56.2945 60.471L56.1829 60.5431C56.0782 60.6098 55.9722 60.6791 55.8647 60.7403C55.7573 60.8015 55.6526 60.8682 55.5451 60.9294C55.503 60.9538 55.4608 60.9783 55.4186 61.0001C55.3343 61.0504 55.2486 61.0966 55.1616 61.1429C54.876 61.2988 54.5845 61.4475 54.2871 61.589C54.1865 61.6379 54.0858 61.6855 53.9838 61.725C53.836 61.7939 53.6851 61.8605 53.531 61.9249C53.4058 61.9793 53.2794 62.031 53.1515 62.0813L53.074 62.1126C52.9516 62.1629 52.8278 62.2091 52.7041 62.2567C52.6062 62.2921 52.5082 62.3288 52.409 62.3628C52.3097 62.3968 52.2281 62.4281 52.137 62.4594L51.865 62.5505L51.8269 62.5627C51.6909 62.6062 51.563 62.6484 51.4298 62.6892L51.3944 62.7001L50.9864 62.8211L50.9102 62.8429L50.5199 62.9503C50.3839 62.9884 50.2384 63.0238 50.097 63.0591L50.0684 63.0659H50.0562C49.9134 63.1026 49.7692 63.1353 49.625 63.1693H49.6128L49.1939 63.2618L49.1069 63.2808C48.9709 63.3094 48.8349 63.3379 48.6866 63.3638C48.5384 63.3896 48.3752 63.4236 48.2174 63.4508C48.0379 63.4821 47.8584 63.5106 47.6734 63.5392L47.2654 63.6004H47.2532C46.9486 63.6439 46.6426 63.6834 46.3325 63.7187L46.2386 63.7282L45.8306 63.7704H45.7735L45.3084 63.8112H45.3016C45.1398 63.8248 44.9752 63.837 44.812 63.8479H44.797C44.6447 63.8588 44.4924 63.8683 44.3387 63.8751C43.977 63.8969 43.6138 63.9105 43.2507 63.9186L42.7938 63.9268C42.6251 63.9268 42.4551 63.9268 42.2851 63.9268H41.7792H41.5181L41.1101 63.9159C40.9659 63.9159 40.8218 63.9078 40.6776 63.901C40.4419 63.8928 40.2052 63.8819 39.9677 63.8683L39.7596 63.8561L39.4495 63.837L39.2238 63.8207H39.1898L38.9572 63.803C38.8606 63.7962 38.7627 63.7881 38.6662 63.7786C38.0959 63.7305 37.5247 63.6716 36.9526 63.6018C36.754 63.5786 36.5554 63.5514 36.3555 63.5242C36.1842 63.5011 36.0114 63.478 35.8387 63.4508C35.666 63.4236 35.5137 63.4046 35.3518 63.3787C35.1682 63.3502 34.9846 63.3202 34.8078 63.289L34.4325 63.225L34.0938 63.1652L33.8341 63.1162C33.6981 63.0918 33.5702 63.0673 33.4397 63.0401L33.3309 63.0183L32.8698 62.9258L32.7148 62.8918C32.6046 62.8701 32.4945 62.8456 32.3857 62.8211L32.0851 62.7558L31.3018 62.5736C30.8842 62.473 30.4667 62.3655 30.0506 62.254C29.8166 62.1928 29.5841 62.1275 29.3502 62.0622C29.1706 62.0106 28.9911 61.9602 28.813 61.9072L28.3166 61.759L28.2431 61.7372C28.0881 61.6882 27.9317 61.6406 27.7766 61.5903L27.7168 61.5726L27.2639 61.4258L27.1538 61.389C27.0178 61.3469 26.8926 61.3034 26.7634 61.253C26.4162 61.1343 26.0712 61.0128 25.7285 60.8886L25.1926 60.69C25.0362 60.6302 24.8785 60.5703 24.7207 60.5078C23.8381 60.1664 22.9718 59.7978 22.1286 59.4102L57.7157 59.432Z" fill="#999999"/>
<path d="M15.043 55.2677H61.1143" stroke="black" stroke-width="0.5" stroke-miterlimit="10"/>
<path d="M15.043 59.4062H61.1143" stroke="black" stroke-width="0.5" stroke-miterlimit="10"/>
<path d="M51.1537 27.5971H46.9853V31.7655H51.1537V27.5971Z" stroke="#263238" stroke-width="0.5" stroke-linecap="round" stroke-linejoin="round"/>
<path d="M50.7294 28.0228H47.411V31.3412H50.7294V28.0228Z" fill="white" stroke="#263238" stroke-width="0.5" stroke-miterlimit="10"/>
<path d="M49.0702 28.0228V31.3412" stroke="#263238" stroke-width="0.5" stroke-miterlimit="10"/>
<path d="M45.4811 4.18744H24.1686V37.453H45.4811V4.18744Z" fill="white" stroke="black" stroke-width="0.5" stroke-miterlimit="10"/>
<path d="M39.5148 32.2742H30.5606C29.9404 32.2738 29.3458 32.0272 28.9074 31.5885C28.469 31.1499 28.2227 30.5551 28.2227 29.935C28.2227 28.6443 29.2699 27.5971 31.0787 27.5971H40.033C40.8095 27.5971 41.8567 28.6443 41.8567 29.935C41.8567 30.2424 41.7961 30.5468 41.6784 30.8308C41.5607 31.1147 41.3881 31.3727 41.1706 31.59C40.9531 31.8072 40.6949 31.9795 40.4108 32.0969C40.1267 32.2143 39.8222 32.2745 39.5148 32.2742Z" fill="#92E3A9" stroke="black" stroke-width="0.5" stroke-miterlimit="10"/>
<path d="M41.1737 30.2665C41.3372 29.2635 40.6567 28.3178 39.6537 28.1543C38.6507 27.9907 37.705 28.6713 37.5415 29.6743C37.3779 30.6773 38.0585 31.6229 39.0615 31.7865C40.0645 31.95 41.0101 31.2695 41.1737 30.2665Z" fill="white"/>
<path d="M29.7514 29.784C29.7514 29.6086 29.837 29.497 30.0125 29.497C30.1879 29.497 30.275 29.6086 30.275 29.784V30.3742C30.2802 30.4111 30.2773 30.4486 30.2663 30.4841C30.2554 30.5197 30.2367 30.5523 30.2116 30.5798C30.1865 30.6072 30.1556 30.6288 30.1212 30.6428C30.0867 30.6569 30.0496 30.6632 30.0125 30.6612C29.837 30.6612 29.7514 30.547 29.7514 30.3742V29.784ZM29.8765 30.381C29.8765 30.4844 29.9214 30.5456 30.0125 30.5456C30.1036 30.5456 30.1485 30.4844 30.1485 30.381V29.784C30.1485 29.6806 30.1063 29.6194 30.0125 29.6194C29.9186 29.6194 29.8765 29.6806 29.8765 29.784V30.381Z" fill="black"/>
<path d="M30.5089 30.6503H30.3946V29.512H30.5551L30.8271 30.3375V29.512H30.9386V30.6544H30.8026L30.5116 29.731L30.5089 30.6503Z" fill="black"/>
<path d="M39.5148 14.1005H30.5606C29.9405 14.1005 29.3459 13.8542 28.9075 13.4157C28.469 12.9773 28.2227 12.3827 28.2227 11.7626C28.2227 10.4706 29.2699 9.42344 31.0787 9.42344H40.033C40.8095 9.42344 41.8567 10.4706 41.8567 11.7626C41.8565 12.0699 41.7958 12.3742 41.678 12.658C41.5602 12.9418 41.3876 13.1997 41.1701 13.4168C40.9527 13.6339 40.6945 13.806 40.4105 13.9233C40.1265 14.0406 39.8221 14.1008 39.5148 14.1005Z" fill="white" stroke="black" stroke-width="0.5" stroke-miterlimit="10"/>
<path d="M35.0377 14.1005H30.5606C29.9405 14.1005 29.3459 13.8542 28.9075 13.4157C28.469 12.9773 28.2227 12.3827 28.2227 11.7626C28.2227 10.4706 29.2699 9.42344 31.0787 9.42344H35.0404L35.0377 14.1005Z" fill="#263238"/>
<path d="M35.0037 14.1005C36.2948 14.1005 37.3415 13.0538 37.3415 11.7626C37.3415 10.4715 36.2948 9.4248 35.0037 9.4248C33.7125 9.4248 32.6658 10.4715 32.6658 11.7626C32.6658 13.0538 33.7125 14.1005 35.0037 14.1005Z" fill="white" stroke="#263238" stroke-width="0.5" stroke-miterlimit="10"/>
<path d="M29.7514 11.56C29.7514 11.3846 29.837 11.273 30.0125 11.273C30.1879 11.273 30.275 11.3846 30.275 11.56V12.1502C30.2802 12.1871 30.2773 12.2246 30.2663 12.2601C30.2554 12.2957 30.2367 12.3283 30.2116 12.3558C30.1865 12.3832 30.1556 12.4048 30.1212 12.4188C30.0867 12.4329 30.0496 12.4392 30.0125 12.4372C29.837 12.4372 29.7514 12.323 29.7514 12.1502V11.56ZM29.8765 12.157C29.8765 12.2604 29.9214 12.3216 30.0125 12.3216C30.1036 12.3216 30.1485 12.2604 30.1485 12.157V11.5505C30.1485 11.4471 30.1063 11.3859 30.0125 11.3859C29.9186 11.3859 29.8765 11.4471 29.8765 11.5505V12.157Z" fill="white"/>
<path d="M30.5089 12.4236H30.3946V11.288H30.5551L30.8271 12.1135V11.288H30.9386V12.4304H30.8026L30.5116 11.507L30.5089 12.4236Z" fill="white"/>
<path d="M39.1395 11.56C39.1395 11.3846 39.2251 11.273 39.4006 11.273C39.576 11.273 39.6631 11.3846 39.6631 11.56V12.1502C39.6683 12.1871 39.6654 12.2246 39.6544 12.2601C39.6435 12.2957 39.6248 12.3283 39.5996 12.3558C39.5745 12.3832 39.5437 12.4048 39.5092 12.4188C39.4748 12.4329 39.4377 12.4392 39.4006 12.4372C39.2251 12.4372 39.1395 12.323 39.1395 12.1502V11.56ZM39.2646 12.157C39.2646 12.2604 39.3081 12.3216 39.4006 12.3216C39.493 12.3216 39.5366 12.2604 39.5366 12.157V11.5505C39.5366 11.4471 39.4944 11.3859 39.4006 11.3859C39.3067 11.3859 39.2646 11.4471 39.2646 11.5505V12.157Z" fill="black"/>
<path d="M40.1731 11.813V11.9286H39.9106V12.4236H39.7841V11.288H40.237V11.4036H39.9106V11.8198L40.1731 11.813Z" fill="black"/>
<path d="M40.7279 11.813V11.9286H40.4654V12.4236H40.339V11.288H40.7918V11.4036H40.4654V11.8198L40.7279 11.813Z" fill="black"/>
<path d="M39.5148 23.3267H30.5606C29.9405 23.3267 29.3459 23.0804 28.9075 22.642C28.469 22.2035 28.2227 21.6089 28.2227 20.9889C28.2227 20.3687 28.469 19.7739 28.9074 19.3353C29.3458 18.8966 29.9404 18.65 30.5606 18.6497H39.5148C40.1352 18.6497 40.7302 18.8961 41.1689 19.3348C41.6075 19.7735 41.854 20.3685 41.854 20.9889C41.8536 21.609 41.607 22.2037 41.1684 22.6421C40.7297 23.0805 40.135 23.3267 39.5148 23.3267Z" fill="#999999" stroke="#263238" stroke-width="0.5" stroke-linecap="round" stroke-linejoin="round"/>
<path d="M30.4708 22.8004C31.487 22.8004 32.3109 21.9766 32.3109 20.9603C32.3109 19.9441 31.487 19.1202 30.4708 19.1202C29.4546 19.1202 28.6307 19.9441 28.6307 20.9603C28.6307 21.9766 29.4546 22.8004 30.4708 22.8004Z" fill="white"/>
<path d="M39.1517 20.7318C39.1517 20.5578 39.2374 20.4449 39.4114 20.4449C39.4488 20.4424 39.4862 20.4484 39.5209 20.4623C39.5556 20.4762 39.5867 20.4977 39.612 20.5252C39.6374 20.5527 39.6562 20.5856 39.6671 20.6213C39.6781 20.6571 39.6809 20.6949 39.6753 20.7318V21.3221C39.6806 21.359 39.6776 21.3967 39.6666 21.4323C39.6555 21.468 39.6367 21.5007 39.6115 21.5282C39.5862 21.5556 39.5552 21.5771 39.5206 21.5911C39.486 21.6051 39.4487 21.6112 39.4114 21.609C39.2374 21.609 39.1517 21.4948 39.1517 21.3221V20.7318ZM39.2768 21.3289C39.2768 21.4336 39.3203 21.4934 39.4128 21.4934C39.5053 21.4934 39.5488 21.4336 39.5488 21.3289V20.725C39.5488 20.623 39.5066 20.5605 39.4128 20.5605C39.319 20.5605 39.2768 20.623 39.2768 20.725V21.3289Z" fill="white"/>
<path d="M40.1853 20.9875V21.1045H39.9228V21.5982H39.7963V20.4558H40.256V20.5727H39.9296V20.9807L40.1853 20.9875Z" fill="white"/>
<path d="M40.7402 20.9875V21.1045H40.4777V21.5982H40.3512V20.4558H40.8V20.5727H40.4736V20.9807L40.7402 20.9875Z" fill="white"/>
<path d="M50.1541 63.0578H50.1418C49.999 63.0931 49.8549 63.1271 49.7107 63.1598H49.6985C49.5625 63.1924 49.4265 63.2237 49.281 63.2536L49.1926 63.2713L48.7737 63.3556C48.6173 63.3855 48.4609 63.4141 48.3031 63.4413C48.125 63.4726 47.9441 63.5025 47.7591 63.531C47.6231 63.5528 47.4871 63.5718 47.3511 63.5922H47.3402C47.0342 63.6358 46.7282 63.6752 46.4182 63.7092L46.3257 63.7201L45.9177 63.7622H45.8606L45.3954 63.803L44.9045 63.8411H44.8895C44.7372 63.852 44.5849 63.8602 44.4312 63.8683C44.0694 63.8887 43.7063 63.9023 43.3432 63.9118C43.1922 63.9118 43.0399 63.9186 42.8862 63.92C42.7326 63.9214 42.5476 63.92 42.3776 63.92C42.2076 63.92 42.039 63.92 41.8703 63.92H41.6908H41.616L41.208 63.9105C41.0638 63.9105 40.921 63.9023 40.7769 63.8955C40.5416 63.8874 40.3036 63.8751 40.0656 63.8615L39.8575 63.8493C39.7542 63.8493 39.6522 63.8384 39.5488 63.8316C39.4726 63.8316 39.3978 63.8194 39.3217 63.8153H39.2877C39.1041 63.3665 38.9327 62.9762 38.7886 62.7001C38.4295 62.0133 37.0328 60.1474 37.0328 60.1474C37.0328 60.1474 35.598 60.1637 33.7307 58.4161C31.8634 56.6685 29.6793 54.317 29.7119 52.4987C29.7364 51.1958 29.4957 50.3717 29.3814 49.6223C29.332 49.3327 29.3142 49.0386 29.3284 48.7451C29.3542 48.3548 29.4549 47.9291 29.4508 47.4749C29.4508 46.7038 29.3597 45.8959 29.7038 45.4879C30.2478 44.8378 31.8702 45.4226 32.1953 46.7459C32.5203 48.0692 32.6754 50.8477 33.2194 50.8259C33.7634 50.8042 33.7865 48.7642 34.5127 46.6344L34.8582 44.3224L34.9942 39.863L35.0037 38.9735C35.0037 38.9735 34.6093 36.7336 35.2485 35.5803C35.2485 35.5803 35.8945 34.4746 36.6479 35.4171C37.3279 36.2698 37.3089 36.55 37.8026 39.6331C38.2962 42.7162 37.8502 44.559 38.367 44.6107C38.8838 44.6624 39.0266 44.2231 39.0238 43.4574C39.0211 42.6918 39.0429 41.2461 40.1989 41.2597C41.3549 41.2733 42.0906 41.7139 42.0349 42.791C41.9791 43.8682 41.975 44.7304 42.1559 44.7943C42.1559 44.7943 41.9506 43.603 42.2049 42.9012C42.3164 42.5938 42.5231 42.228 43.4833 42.602C44.4434 42.976 44.54 43.6193 44.6447 44.3197C44.7494 45.0201 44.8922 45.6062 44.8922 45.6062C44.8922 45.6062 46.0605 45.5437 46.4875 46.3352C46.9146 47.1267 47.3375 49.383 47.4871 50.1854C47.8815 52.2866 47.3266 54.5931 47.0057 55.6689C46.8795 56.0832 46.906 56.5291 47.0805 56.9255C47.5211 57.9183 48.9777 60.588 50.1541 63.0578Z" fill="white"/>
<path opacity="0.5" d="M37.5197 58.412C37.449 57.6545 36.1597 58.7955 33.1282 56.1381C29.7636 53.1896 30.6258 48.1358 30.0315 48.3861C29.4372 48.6363 29.3842 49.6264 29.3842 49.6264C29.4984 50.3758 29.7391 51.1999 29.7146 52.5028C29.682 54.3211 31.8662 56.6739 33.7334 58.4202C35.6007 60.1664 37.0355 60.1514 37.0355 60.1514C37.0355 60.1514 38.4322 62.0174 38.7913 62.7042C38.9354 62.9762 39.1068 63.3706 39.2904 63.8194H39.3244C39.4006 63.8194 39.4754 63.8302 39.5515 63.8357C39.6549 63.8357 39.7569 63.8493 39.8602 63.8534L40.0683 63.8656C40.3063 63.8792 40.5443 63.8914 40.7796 63.8996C40.46 63.1353 40.1921 62.5233 40.0466 62.2526C39.4672 61.1755 37.6081 59.3558 37.5197 58.412Z" fill="#92E3A9"/>
<path opacity="0.5" d="M40.2438 46.0034C40.2095 46.1142 40.1989 46.2309 40.2125 46.3461C40.2541 46.8511 40.3796 47.3457 40.5838 47.8094C40.5924 47.8294 40.6079 47.8455 40.6274 47.8548C40.647 47.8642 40.6693 47.8662 40.6902 47.8604C40.7111 47.8545 40.7292 47.8414 40.7411 47.8233C40.753 47.8052 40.758 47.7833 40.7551 47.7618C40.6399 47.0733 40.5735 46.3776 40.5566 45.6797C40.5566 45.56 40.2846 45.8959 40.2438 46.0034Z" fill="#92E3A9"/>
<path opacity="0.5" d="M43.6247 47.3756C43.5359 46.9206 43.4719 46.4612 43.433 45.9993C43.433 45.9775 43.4221 45.9721 43.4058 45.9789C43.2879 46.077 43.1948 46.2014 43.1338 46.342C43.1066 46.4548 43.1038 46.5721 43.1256 46.6861C43.1595 46.9483 43.2205 47.2063 43.3078 47.4558C43.3137 47.4754 43.3235 47.4936 43.3365 47.5094C43.3495 47.5252 43.3655 47.5382 43.3836 47.5477C43.4017 47.5572 43.4216 47.563 43.442 47.5647C43.4623 47.5665 43.4829 47.5641 43.5023 47.5578C43.5227 47.5546 43.5422 47.5473 43.5595 47.5362C43.5769 47.5251 43.5918 47.5106 43.6033 47.4935C43.6148 47.4763 43.6226 47.457 43.6263 47.4368C43.63 47.4165 43.6295 47.3957 43.6247 47.3756Z" fill="#92E3A9"/>
<path opacity="0.5" d="M35.0091 38.9762L34.9996 39.8643L34.8636 44.3224L34.5182 46.6344C33.9347 48.3453 33.8055 49.995 33.4954 50.5906L33.4886 50.6586C33.475 50.7946 33.4886 50.9864 33.6165 51.0095C33.7117 51.0272 33.7974 50.9293 33.8599 50.8409C35.0173 49.1885 35.9067 46.3284 35.3886 42.787C35.2798 42.0376 35.3886 40.3716 35.9067 39.833C35.6891 38.1847 35.394 37.3252 35.1669 35.7694C34.6555 36.9621 35.0091 38.9762 35.0091 38.9762Z" fill="#92E3A9"/>
<path opacity="0.5" d="M36.3963 46.2495C36.3578 46.4288 36.3578 46.6142 36.3963 46.7935C36.5025 47.4674 36.7102 48.1213 37.0124 48.7329C37.032 48.7719 37.0652 48.8024 37.1057 48.8188C37.1462 48.8351 37.1913 48.8361 37.2325 48.8216C37.2736 48.8071 37.3081 48.7781 37.3295 48.7399C37.3508 48.7018 37.3575 48.6573 37.3483 48.6146C37.1178 47.6567 36.9519 46.6843 36.8519 45.7042C36.8315 45.5206 36.448 46.0754 36.3963 46.2495Z" fill="#92E3A9"/>
<path opacity="0.5" d="M37.725 40.4518C37.7214 40.3327 37.6812 40.2175 37.6099 40.1219C37.5386 40.0263 37.4397 39.9549 37.3266 39.9174C37.0546 39.8154 36.6166 39.8045 36.6683 40.0275C36.8278 40.0566 36.9822 40.1088 37.1266 40.1826C37.5714 40.509 37.2994 40.8082 37.2994 40.8082C37.5102 40.9183 37.7128 40.6885 37.725 40.4518Z" fill="#92E3A9"/>
<path opacity="0.5" d="M45.541 46.5678C45.5342 46.478 45.341 46.7486 45.3152 46.8398C45.2953 46.9293 45.2953 47.0222 45.3152 47.1118C45.34 47.3136 45.3856 47.5123 45.4512 47.7047C45.4621 47.7332 45.4831 47.7567 45.5103 47.7707C45.5374 47.7846 45.5688 47.788 45.5983 47.7803C45.6278 47.7725 45.6534 47.7541 45.6702 47.7286C45.687 47.7031 45.6937 47.6723 45.6892 47.6422C45.6202 47.287 45.5707 46.9283 45.541 46.5678Z" fill="#92E3A9"/>
<path d="M39.2907 63.821C39.0976 63.345 38.9425 62.9955 38.7916 62.7058C38.4325 62.019 37.0358 60.1517 37.0358 60.1517C37.0358 60.1517 35.6024 60.1694 33.7337 58.4218C31.8651 56.6742 29.6823 54.3227 29.7149 52.5044C29.7476 50.6861 29.2661 49.798 29.3314 48.7508C29.3559 48.3605 29.4579 47.9348 29.4524 47.4806C29.4524 46.7081 29.3627 45.9016 29.7054 45.4936C30.2494 44.8435 31.8719 45.4283 32.1969 46.7516C32.522 48.0749 32.6784 50.8534 33.2224 50.8316C33.7664 50.8099 33.7895 48.7699 34.5157 46.6401L34.8612 44.3281L34.9972 39.87L35.0067 38.9819C35.0067 38.9819 34.6123 36.7407 35.2515 35.5819C35.2515 35.5819 35.8975 34.4763 36.6509 35.4187C37.3309 36.2715 37.3119 36.5516 37.8056 39.6347C38.2992 42.7179 37.8532 44.562 38.37 44.6151C38.8868 44.6681 39.0296 44.2261 39.0255 43.4604C39.0214 42.6947 39.0459 41.2491 40.2032 41.264C41.3606 41.279 42.0923 41.7183 42.0392 42.794C41.9862 43.8698 41.978 44.7334 42.1589 44.7987C42.1589 44.7987 41.9536 43.6059 42.2065 42.9042C42.318 42.5968 42.5261 42.231 43.4863 42.6036C44.4464 42.9763 44.543 43.6223 44.6464 44.3227C44.7497 45.0231 44.8952 45.6092 44.8952 45.6092C44.8952 45.6092 46.0635 45.5467 46.4905 46.3382C46.9176 47.1297 47.3405 49.3873 47.4915 50.1897C47.8832 52.2895 47.3296 54.5961 47.0073 55.6719C46.8823 56.0865 46.9093 56.5321 47.0835 56.9285C47.5187 57.9227 48.9766 60.5923 50.1516 63.0621" stroke="#263238" stroke-width="0.5" stroke-miterlimit="10" stroke-linecap="round"/>
<path d="M29.7255 47.0397C29.8638 46.8878 30.035 46.7697 30.226 46.6942C30.8693 46.4046 31.091 46.3583 31.0094 45.6647" stroke="#263238" stroke-width="0.5" stroke-linecap="round" stroke-linejoin="round"/>
<path d="M30.6762 47.7795C30.7686 47.736 30.8652 47.6952 30.9686 47.6585" stroke="#263238" stroke-width="0.5" stroke-linecap="round" stroke-linejoin="round"/>
<path d="M29.6208 48.586C29.8572 48.3045 30.1429 48.0686 30.464 47.8897" stroke="#263238" stroke-width="0.5" stroke-linecap="round" stroke-linejoin="round"/>
<path d="M35.3858 35.904C35.3856 35.947 35.3941 35.9896 35.4108 36.0293C35.4274 36.069 35.4519 36.1048 35.4828 36.1348C35.5136 36.1648 35.5502 36.1882 35.5903 36.2037C35.6305 36.2192 35.6733 36.2264 35.7163 36.225C36.0482 36.2331 36.9199 36.4154 36.8166 36.021" stroke="#263238" stroke-width="0.5" stroke-linecap="round" stroke-linejoin="round"/>
<path d="M36.531 39.6712C36.8504 39.616 37.1776 39.6243 37.4938 39.6957" stroke="#263238" stroke-width="0.5" stroke-linecap="round" stroke-linejoin="round"/>
<path d="M35.904 39.8344C35.904 39.8344 35.9978 39.7963 36.1515 39.7528" stroke="#263238" stroke-width="0.5" stroke-linecap="round" stroke-linejoin="round"/>
<path d="M44.729 44.797C44.7753 45.1602 45.0255 46.0278 45.0255 46.0278" stroke="#263238" stroke-width="0.5" stroke-linecap="round" stroke-linejoin="round"/>
<path d="M38.2051 50.8341C38.8933 52.5708 39.4291 54.2341 40.2533 56.0374" stroke="#263238" stroke-width="0.5" stroke-linecap="round" stroke-linejoin="round"/>
<path d="M37.5074 49.1885C37.6434 49.489 37.7794 49.7869 37.8978 50.0806" stroke="#263238" stroke-width="0.5" stroke-linecap="round" stroke-linejoin="round"/>
<path d="M45.7504 49.8426L45.783 51.5372" stroke="#263238" stroke-width="0.5" stroke-linecap="round" stroke-linejoin="round"/>
<path d="M45.7354 49.0375L45.7436 49.4877" stroke="#263238" stroke-width="0.5" stroke-linecap="round" stroke-linejoin="round"/>
<path d="M40.3254 45.1819C40.3104 45.6049 40.2995 45.934 40.2886 46.2794C40.275 46.6874 40.5606 47.2314 40.717 47.6177C40.989 48.2977 41.1182 49.1327 41.3018 49.8426" stroke="#263238" stroke-width="0.5" stroke-linecap="round" stroke-linejoin="round"/>
<path d="M41.4134 50.505L41.7969 52.1166" stroke="#263238" stroke-width="0.5" stroke-linecap="round" stroke-linejoin="round"/>
<path d="M43.6478 45.9068L43.5662 46.6548C43.5351 46.9672 43.5941 47.282 43.7362 47.5619L43.8505 49.2238" stroke="#263238" stroke-width="0.5" stroke-linecap="round" stroke-linejoin="round"/>
<path d="M29.8234 53.3011C30.354 54.5629 31.2711 55.6238 32.4428 56.3312" stroke="#263238" stroke-width="0.5" stroke-linecap="round" stroke-linejoin="round"/>
<path d="M35.4878 58.193L36.5024 58.6378C36.6506 59.1981 36.3406 59.5326 37.8978 61.3401" stroke="#263238" stroke-width="0.5" stroke-linecap="round" stroke-linejoin="round"/>
<path d="M51.8323 9.50504V7.67448" stroke="#263238" stroke-width="0.5" stroke-linecap="round" stroke-linejoin="round"/>
<path d="M51.8323 14.2392C52.7487 14.2392 53.4915 13.4963 53.4915 12.58C53.4915 11.6636 52.7487 10.9208 51.8323 10.9208C50.916 10.9208 50.1731 11.6636 50.1731 12.58C50.1731 13.4963 50.916 14.2392 51.8323 14.2392Z" fill="white"/>
<path d="M47.8026 13.26C47.7928 12.7245 47.8898 12.1924 48.0879 11.6948C48.286 11.1972 48.5813 10.7441 48.9566 10.3619C49.3318 9.97969 49.7794 9.67612 50.2733 9.46888C50.7672 9.26165 51.2974 9.15491 51.833 9.15491C52.3686 9.15491 52.8988 9.26165 53.3927 9.46888C53.8866 9.67612 54.3342 9.97969 54.7094 10.3619C55.0847 10.7441 55.38 11.1972 55.5781 11.6948C55.7762 12.1924 55.8732 12.7245 55.8634 13.26H47.8026Z" fill="#92E3A9" stroke="#263238" stroke-width="0.5" stroke-linecap="round" stroke-linejoin="round"/>
<path d="M52.579 9.29967C52.4557 9.27617 52.3313 9.25893 52.2063 9.24799C51.207 9.34149 50.2785 9.80458 49.6026 10.5466C48.9267 11.2887 48.552 12.2563 48.552 13.26H49.2986C49.2987 12.3212 49.6264 11.4118 50.2253 10.6888C50.8241 9.96582 51.6566 9.47451 52.579 9.29967Z" fill="#263238" stroke="#263238" stroke-width="0.5" stroke-linecap="round" stroke-linejoin="round"/>
<path d="M51.7045 17.5603V15.9242" stroke="#263238" stroke-width="0.5" stroke-miterlimit="10"/>
<path d="M51.7045 18.613V18.0866" stroke="#263238" stroke-width="0.5" stroke-miterlimit="10"/>
<path d="M48.5493 13.7673H46.8588" stroke="#263238" stroke-width="0.5" stroke-miterlimit="10"/>
<path d="M49.4904 13.7673H49.0198" stroke="#263238" stroke-width="0.5" stroke-miterlimit="10"/>
<path d="M48.7397 16.7321L48.2773 17.1931" stroke="#263238" stroke-width="0.5" stroke-miterlimit="10"/>
<path d="M50.1568 15.3136L49.0198 16.4506" stroke="#263238" stroke-width="0.5" stroke-miterlimit="10"/>
<path d="M16.3662 49.4809C16.2357 48.977 16.2084 48.452 16.286 47.9373C16.1007 48.2653 15.934 48.6036 15.7869 48.9505C15.5448 49.5135 15.0566 49.7393 14.907 49.4618C14.8145 49.2905 14.8607 49.0797 14.907 48.8893L15.3027 47.3511C15.0117 46.8833 14.8104 48.5561 14.1032 49.4238C14.0398 49.4974 13.9546 49.5489 13.8599 49.5707C13.7652 49.5924 13.6661 49.5834 13.5769 49.5448C13.2029 49.3571 13.4409 48.8648 13.6041 48.5207C13.887 47.9468 13.9631 47.4096 13.6952 46.8289C13.3824 47.5524 12.803 48.023 12.1598 48.4813C11.9762 48.6173 11.7518 48.737 11.5287 48.6336C11.4244 48.5802 11.3417 48.4925 11.2947 48.3852C11.2476 48.2779 11.239 48.1576 11.2703 48.0447C11.375 47.6027 11.7708 47.3892 12.0863 47.1172C12.3461 46.8955 12.5773 46.5623 12.4848 46.2332C11.9988 46.9492 11.2672 47.4621 10.4285 47.6748C10.358 47.6923 10.2837 47.6861 10.2171 47.6571C10.1505 47.6282 10.0953 47.5781 10.0601 47.5147C10.0248 47.4512 10.0114 47.3779 10.0219 47.306C10.0324 47.2342 10.0664 47.1678 10.1184 47.1172L11.0541 46.2033C10.2851 46.4794 9.49126 46.6807 8.6836 46.8044C8.60524 46.8178 8.52469 46.802 8.45708 46.7602C8.38948 46.7184 8.33945 46.6534 8.3164 46.5773C8.27152 46.4086 8.40888 46.3053 8.534 46.2196C9.85321 45.3742 11.4443 45.0617 12.9853 45.3451C15.0498 45.7341 17.3373 47.279 16.8273 49.4714C16.8143 49.522 16.7851 49.567 16.7441 49.5995C16.7031 49.6319 16.6526 49.6501 16.6004 49.6512C16.5481 49.6522 16.4969 49.6362 16.4546 49.6054C16.4124 49.5747 16.3813 49.5309 16.3662 49.4809Z" fill="#92E3A9"/>
<path opacity="0.1" d="M16.3662 49.4809C16.2357 48.977 16.2084 48.452 16.286 47.9373C16.1007 48.2653 15.934 48.6036 15.7869 48.9505C15.5448 49.5135 15.0566 49.7393 14.907 49.4618C14.8145 49.2905 14.8607 49.0797 14.907 48.8893L15.3027 47.3511C15.0117 46.8833 14.8104 48.5561 14.1032 49.4238C14.0398 49.4974 13.9546 49.5489 13.8599 49.5707C13.7652 49.5924 13.6661 49.5834 13.5769 49.5448C13.2029 49.3571 13.4409 48.8648 13.6041 48.5207C13.887 47.9468 13.9631 47.4096 13.6952 46.8289C13.3824 47.5524 12.803 48.023 12.1598 48.4813C11.9762 48.6173 11.7518 48.737 11.5287 48.6336C11.4244 48.5802 11.3417 48.4925 11.2947 48.3852C11.2476 48.2779 11.239 48.1576 11.2703 48.0447C11.375 47.6027 11.7708 47.3892 12.0863 47.1172C12.3461 46.8955 12.5773 46.5623 12.4848 46.2332C11.9988 46.9492 11.2672 47.4621 10.4285 47.6748C10.358 47.6923 10.2837 47.6861 10.2171 47.6571C10.1505 47.6282 10.0953 47.5781 10.0601 47.5147C10.0248 47.4512 10.0114 47.3779 10.0219 47.306C10.0324 47.2342 10.0664 47.1678 10.1184 47.1172L11.0541 46.2033C10.2851 46.4794 9.49126 46.6807 8.6836 46.8044C8.60524 46.8178 8.52469 46.802 8.45708 46.7602C8.38948 46.7184 8.33945 46.6534 8.3164 46.5773C8.27152 46.4086 8.40888 46.3053 8.534 46.2196C9.85321 45.3742 11.4443 45.0617 12.9853 45.3451C15.0498 45.7341 17.3373 47.279 16.8273 49.4714C16.8143 49.522 16.7851 49.567 16.7441 49.5995C16.7031 49.6319 16.6526 49.6501 16.6004 49.6512C16.5481 49.6522 16.4969 49.6362 16.4546 49.6054C16.4124 49.5747 16.3813 49.5309 16.3662 49.4809Z" fill="black"/>
<path d="M10.7603 45.6878C13.3783 45.4158 15.4414 46.4712 16.6491 47.8829C16.6858 47.9264 16.7226 47.9699 16.7579 48.0189C17.6514 49.1069 18.2879 50.3581 18.8102 51.6718" stroke="#263238" stroke-width="0.5" stroke-linecap="round" stroke-linejoin="round"/>
<path d="M8.99911 46.0591C9.35622 45.9475 9.71949 45.8567 10.0871 45.7871" stroke="#263238" stroke-width="0.5" stroke-linecap="round" stroke-linejoin="round"/>
<path d="M18.3233 44.0395C18.3394 43.9687 18.329 43.8945 18.294 43.8308C18.259 43.7672 18.2019 43.7186 18.1335 43.6943C18.0651 43.67 17.9901 43.6716 17.9228 43.6989C17.8555 43.7262 17.8006 43.7772 17.7684 43.8423C17.659 44.0615 17.5829 44.2957 17.5426 44.5373C17.7567 44.0767 17.8456 43.5678 17.8005 43.0619C17.7554 42.556 17.5778 42.0709 17.2856 41.6554C17.2514 41.6079 17.204 41.5716 17.1492 41.551C17.0944 41.5304 17.0348 41.5264 16.9778 41.5397C16.9208 41.5529 16.869 41.5827 16.8289 41.6253C16.7888 41.668 16.7622 41.7215 16.7525 41.7792C16.6717 42.2982 16.6958 42.8282 16.8232 43.3378C16.6736 42.3026 16.3387 41.3029 15.8345 40.3866C15.7352 40.207 15.6074 40.0126 15.3884 39.999C15.2845 39.9968 15.1831 40.0312 15.1018 40.096C15.0206 40.1609 14.9646 40.2521 14.9437 40.3539C14.8539 40.732 15.0797 41.0462 15.2742 41.344C15.436 41.5888 15.5924 41.8703 15.5462 42.16C14.8778 41.2866 14.1101 40.4938 13.2586 39.7977C13.0302 39.6127 12.7418 39.421 12.4576 39.5896C12.3731 39.6442 12.3064 39.7224 12.2658 39.8145C12.2252 39.9066 12.2125 40.0085 12.2291 40.1078C12.2876 40.5266 12.6371 40.766 12.9554 40.9836C12.6133 40.6388 12.1914 40.3839 11.727 40.2415C11.2627 40.0992 10.7704 40.0738 10.2938 40.1676C10.2333 40.1806 10.1783 40.2122 10.1367 40.258C10.095 40.3038 10.0687 40.3615 10.0615 40.423C10.0543 40.4845 10.0665 40.5467 10.0965 40.6009C10.1265 40.6551 10.1726 40.6986 10.2286 40.7252L11.2377 41.208C10.9808 41.1769 10.7203 41.1981 10.4719 41.2703C10.2234 41.3425 9.99215 41.4643 9.792 41.6282C9.74667 41.6669 9.71411 41.7184 9.69858 41.7759C9.68306 41.8334 9.6853 41.8943 9.70502 41.9505C9.72474 42.0067 9.76101 42.0556 9.80906 42.0908C9.85711 42.126 9.91469 42.1459 9.97424 42.1478L11.4702 42.2062L10.7399 42.8862C10.6948 42.9273 10.6636 42.9814 10.6505 43.041C10.6374 43.1006 10.6431 43.1628 10.6668 43.219C10.6905 43.2753 10.7311 43.3228 10.7829 43.355C10.8347 43.3872 10.8952 43.4026 10.9562 43.399L13.2682 43.2793C12.9374 43.2542 12.6076 43.3388 12.3298 43.52C12.2819 43.5533 12.2449 43.5999 12.2234 43.6541C12.2019 43.7083 12.1969 43.7676 12.2089 43.8247C12.221 43.8817 12.2496 43.9339 12.2911 43.9748C12.3327 44.0157 12.3854 44.0434 12.4426 44.0545C13.1896 44.2078 13.9571 44.233 14.7125 44.1293C14.3831 44.2225 14.0762 44.3822 13.8108 44.5985C13.771 44.6322 13.7408 44.6759 13.7233 44.7251C13.7058 44.7743 13.7017 44.8272 13.7114 44.8785C13.7211 44.9298 13.7442 44.9776 13.7784 45.017C13.8126 45.0565 13.8566 45.0862 13.906 45.103C14.722 45.3846 15.587 45.7531 16.3771 45.9952C16.1582 46.0251 15.7869 45.9367 15.4428 45.8918C15.3803 45.8833 15.3167 45.8949 15.2613 45.9251C15.2059 45.9553 15.1617 46.0025 15.1351 46.0597C15.1085 46.1169 15.1009 46.1811 15.1134 46.2429C15.126 46.3047 15.158 46.3609 15.2048 46.4032C16.0698 47.192 17.0979 48.2664 17.8758 47.1852C18.1805 46.7622 18.0254 45.6987 18.103 45.1778C18.1601 44.7979 18.2335 44.4185 18.3233 44.0395Z" fill="#92E3A9"/>
<path opacity="0.1" d="M18.3233 44.0395C18.3394 43.9687 18.329 43.8945 18.294 43.8308C18.259 43.7672 18.2019 43.7186 18.1335 43.6943C18.0651 43.67 17.9901 43.6716 17.9228 43.6989C17.8555 43.7262 17.8006 43.7772 17.7684 43.8423C17.659 44.0615 17.5829 44.2957 17.5426 44.5373C17.7567 44.0767 17.8456 43.5678 17.8005 43.0619C17.7554 42.556 17.5778 42.0709 17.2856 41.6554C17.2514 41.6079 17.204 41.5716 17.1492 41.551C17.0944 41.5304 17.0348 41.5264 16.9778 41.5397C16.9208 41.5529 16.869 41.5827 16.8289 41.6253C16.7888 41.668 16.7622 41.7215 16.7525 41.7792C16.6717 42.2982 16.6958 42.8282 16.8232 43.3378C16.6736 42.3026 16.3387 41.3029 15.8345 40.3866C15.7352 40.207 15.6074 40.0126 15.3884 39.999C15.2845 39.9968 15.1831 40.0312 15.1018 40.096C15.0206 40.1609 14.9646 40.2521 14.9437 40.3539C14.8539 40.732 15.0797 41.0462 15.2742 41.344C15.436 41.5888 15.5924 41.8703 15.5462 42.16C14.8778 41.2866 14.1101 40.4938 13.2586 39.7977C13.0302 39.6127 12.7418 39.421 12.4576 39.5896C12.3731 39.6442 12.3064 39.7224 12.2658 39.8145C12.2252 39.9066 12.2125 40.0085 12.2291 40.1078C12.2876 40.5266 12.6371 40.766 12.9554 40.9836C12.6133 40.6388 12.1914 40.3839 11.727 40.2415C11.2627 40.0992 10.7704 40.0738 10.2938 40.1676C10.2333 40.1806 10.1783 40.2122 10.1367 40.258C10.095 40.3038 10.0687 40.3615 10.0615 40.423C10.0543 40.4845 10.0665 40.5467 10.0965 40.6009C10.1265 40.6551 10.1726 40.6986 10.2286 40.7252L11.2377 41.208C10.9808 41.1769 10.7203 41.1981 10.4719 41.2703C10.2234 41.3425 9.99215 41.4643 9.792 41.6282C9.74667 41.6669 9.71411 41.7184 9.69858 41.7759C9.68306 41.8334 9.6853 41.8943 9.70502 41.9505C9.72474 42.0067 9.76101 42.0556 9.80906 42.0908C9.85711 42.126 9.91469 42.1459 9.97424 42.1478L11.4702 42.2062L10.7399 42.8862C10.6948 42.9273 10.6636 42.9814 10.6505 43.041C10.6374 43.1006 10.6431 43.1628 10.6668 43.219C10.6905 43.2753 10.7311 43.3228 10.7829 43.355C10.8347 43.3872 10.8952 43.4026 10.9562 43.399L13.2682 43.2793C12.9374 43.2542 12.6076 43.3388 12.3298 43.52C12.2819 43.5533 12.2449 43.5999 12.2234 43.6541C12.2019 43.7083 12.1969 43.7676 12.2089 43.8247C12.221 43.8817 12.2496 43.9339 12.2911 43.9748C12.3327 44.0157 12.3854 44.0434 12.4426 44.0545C13.1896 44.2078 13.9571 44.233 14.7125 44.1293C14.3831 44.2225 14.0762 44.3822 13.8108 44.5985C13.771 44.6322 13.7408 44.6759 13.7233 44.7251C13.7058 44.7743 13.7017 44.8272 13.7114 44.8785C13.7211 44.9298 13.7442 44.9776 13.7784 45.017C13.8126 45.0565 13.8566 45.0862 13.906 45.103C14.722 45.3846 15.587 45.7531 16.3771 45.9952C16.1582 46.0251 15.7869 45.9367 15.4428 45.8918C15.3803 45.8833 15.3167 45.8949 15.2613 45.9251C15.2059 45.9553 15.1617 46.0025 15.1351 46.0597C15.1085 46.1169 15.1009 46.1811 15.1134 46.2429C15.126 46.3047 15.158 46.3609 15.2048 46.4032C16.0698 47.192 17.0979 48.2664 17.8758 47.1852C18.1805 46.7622 18.0254 45.6987 18.103 45.1778C18.1601 44.7979 18.2335 44.4185 18.3233 44.0395Z" fill="white"/>
<path d="M17.3142 46.036C17.5071 46.4388 17.6716 46.8546 17.8065 47.2804C18.2015 48.5365 18.3403 49.8592 18.2145 51.17" stroke="#263238" stroke-width="0.5" stroke-linecap="round" stroke-linejoin="round"/>
<path d="M12.1339 41.2325C14.0667 42.0003 15.7049 43.3636 16.811 45.1248" stroke="#263238" stroke-width="0.5" stroke-linecap="round" stroke-linejoin="round"/>
<path d="M20.026 49.7842C20.8053 49.4292 21.4431 48.6554 21.7437 47.6762C21.5356 48.8077 21.8688 49.4238 22.1707 49.5475C22.4726 49.6713 22.848 49.504 23.0153 49.232C23.0937 49.0876 23.1418 48.9286 23.1566 48.7649C23.1713 48.6011 23.1524 48.4361 23.101 48.28C22.9418 47.7156 22.6141 46.8452 22.6141 46.8452C22.9138 47.1753 23.2995 47.4154 23.7279 47.5388C23.9311 47.6071 24.1523 47.5984 24.3494 47.5143C24.9424 47.2423 24.8037 46.444 24.363 46.085C23.9823 45.7925 23.5241 45.6185 23.0452 45.5845C22.9187 45.4485 23.781 45.2078 24.1998 45.1833C25.1926 45.1248 25.6673 43.777 24.1441 43.8233C23.8014 43.8342 22.9718 43.8464 22.9718 43.8464C23.8666 43.7947 24.6813 42.8509 24.6296 42.2144C24.5956 41.7996 24.0856 41.5521 23.6953 41.6826C23.241 41.8336 22.8902 42.0702 22.523 42.1138C23.324 41.8866 24.087 39.561 23.3308 39.2292C22.6726 38.9422 22.3652 40.4532 22.2224 41.1468C22.1734 40.8054 22.1775 39.9976 21.5927 38.9042C21.4216 38.5821 21.1505 38.3244 20.8202 38.1698C20.4122 37.9821 20.1402 38.5016 20.1702 38.896C20.1949 39.1389 20.278 39.3721 20.4122 39.576C21.2316 40.8702 21.6399 42.3823 21.5832 43.913C21.4486 47.124 20.536 49.149 20.026 49.7842Z" fill="#92E3A9"/>
<path opacity="0.1" d="M20.026 49.7842C20.8053 49.4292 21.4431 48.6554 21.7437 47.6762C21.5356 48.8077 21.8688 49.4238 22.1707 49.5475C22.4726 49.6713 22.848 49.504 23.0153 49.232C23.0937 49.0876 23.1418 48.9286 23.1566 48.7649C23.1713 48.6011 23.1524 48.4361 23.101 48.28C22.9418 47.7156 22.6141 46.8452 22.6141 46.8452C22.9138 47.1753 23.2995 47.4154 23.7279 47.5388C23.9311 47.6071 24.1523 47.5984 24.3494 47.5143C24.9424 47.2423 24.8037 46.444 24.363 46.085C23.9823 45.7925 23.5241 45.6185 23.0452 45.5845C22.9187 45.4485 23.781 45.2078 24.1998 45.1833C25.1926 45.1248 25.6673 43.777 24.1441 43.8233C23.8014 43.8342 22.9718 43.8464 22.9718 43.8464C23.8666 43.7947 24.6813 42.8509 24.6296 42.2144C24.5956 41.7996 24.0856 41.5521 23.6953 41.6826C23.241 41.8336 22.8902 42.0702 22.523 42.1138C23.324 41.8866 24.087 39.561 23.3308 39.2292C22.6726 38.9422 22.3652 40.4532 22.2224 41.1468C22.1734 40.8054 22.1775 39.9976 21.5927 38.9042C21.4216 38.5821 21.1505 38.3244 20.8202 38.1698C20.4122 37.9821 20.1402 38.5016 20.1702 38.896C20.1949 39.1389 20.278 39.3721 20.4122 39.576C21.2316 40.8702 21.6399 42.3823 21.5832 43.913C21.4486 47.124 20.536 49.149 20.026 49.7842Z" fill="white"/>
<path d="M20.9331 39.4985C21.6825 40.8394 21.9681 42.3545 21.8987 43.8872C21.7369 47.4069 19.8954 50.2547 18.2485 52.1315" stroke="#263238" stroke-width="0.5" stroke-linecap="round" stroke-linejoin="round"/>
<path d="M17.5916 37.8488C17.6364 37.3968 17.7617 36.9565 17.9615 36.5486C18.0472 36.3732 18.1655 36.1869 18.3954 36.1923C18.4832 36.1975 18.5671 36.23 18.6354 36.2854C18.7038 36.3408 18.753 36.4162 18.7762 36.501C18.8822 36.8587 18.6755 37.1674 18.4783 37.4449C18.4117 37.2354 18.6973 36.9553 18.9149 36.9893C19.1325 37.0233 19.2046 37.279 19.1366 37.4694C19.0498 37.6521 18.9119 37.8056 18.7394 37.9114C18.8156 37.7835 19.1338 37.7658 19.2834 37.808C19.3543 37.8309 19.416 37.8758 19.4596 37.9363C19.5031 37.9967 19.5262 38.0694 19.5255 38.1439C19.5119 38.5519 18.8455 38.6675 18.7979 39.0714C18.9916 38.9189 19.2121 38.8041 19.448 38.7328C19.5365 38.7044 19.6322 38.7089 19.7176 38.7454C19.803 38.7818 19.8724 38.8479 19.9131 38.9314C19.9402 39.0525 19.9203 39.1793 19.8574 39.2863C19.6831 39.6525 19.3943 39.9518 19.0346 40.139C19.195 40.0547 19.3664 39.9527 19.5391 39.848C19.6321 39.7907 19.7407 39.764 19.8496 39.7717C19.9585 39.7794 20.0622 39.8212 20.1461 39.8911C20.23 39.961 20.2898 40.0555 20.3171 40.1613C20.3443 40.267 20.3377 40.3787 20.298 40.4804V40.4899C20.2242 40.6597 20.1158 40.8122 19.9798 40.9377C19.8437 41.0632 19.683 41.159 19.5078 41.2189C19.7415 41.0236 20.0108 40.8753 20.3007 40.7823C20.4671 40.7238 20.6484 40.7238 20.8148 40.7823C21.3194 40.9768 21.265 41.5793 20.9685 41.907C20.7305 42.1709 20.3837 42.3001 20.0491 42.4211C20.2082 42.2171 20.8338 42.311 21.0256 42.485C21.117 42.5771 21.1801 42.6933 21.2076 42.8201C21.2351 42.9468 21.2257 43.0788 21.1806 43.2004C21.0846 43.4433 20.9066 43.6449 20.6774 43.7702C20.4492 43.8934 20.2073 43.9893 19.9566 44.0558C20.2028 43.9348 20.6094 43.8994 20.8284 44.064C20.9372 44.1474 21.0214 44.2587 21.0719 44.3861C21.1225 44.5135 21.1375 44.6522 21.1154 44.7875C21.0501 45.1629 20.721 45.4226 20.4639 45.7042C20.1171 46.0822 19.5446 47.4218 19.5391 47.4722C19.1706 46.935 18.7558 46.3039 18.2226 45.9286C17.6392 45.5206 17.0544 45.0228 16.8871 44.3115C16.8697 44.2432 16.8723 44.1713 16.8948 44.1045C16.9172 44.0377 16.9585 43.9787 17.0136 43.9348C17.2285 43.773 17.491 43.977 17.661 44.1646C17.7045 43.7376 17.0258 43.5907 17.0218 43.1732C17.0237 43.1051 17.0426 43.0386 17.0768 42.9796C17.111 42.9207 17.1594 42.8713 17.2176 42.8359C17.3921 42.7428 17.5885 42.6986 17.7861 42.7081C17.8543 42.6987 17.9237 42.7076 17.9874 42.7339C18.0187 42.7475 18.0439 42.7724 18.0577 42.8036C18.0716 42.8349 18.0732 42.8702 18.0622 42.9026C18.0322 42.9651 17.918 42.961 17.9098 42.893C17.8867 42.723 17.5508 42.3817 17.4257 42.2634C17.3006 42.145 17.185 41.9805 17.2271 41.8132C17.2531 41.7388 17.3011 41.6741 17.3647 41.6277C17.4284 41.5813 17.5047 41.5554 17.5834 41.5534C17.7412 41.5426 18.1587 41.7343 18.307 41.7874C18.2893 41.8173 18.0078 41.7071 17.9901 41.7357C17.7752 41.6269 17.6474 41.412 17.4461 41.2801C17.2709 41.1808 17.1221 41.0409 17.0122 40.8721C16.9593 40.7862 16.9341 40.6861 16.94 40.5854C16.9458 40.4847 16.9824 40.3882 17.0449 40.309C17.1809 40.1622 17.7249 40.2506 17.7929 40.445C17.5508 40.2723 17.2489 40.037 17.0054 39.8602C16.8661 39.774 16.7447 39.6618 16.6478 39.5298C16.6006 39.4628 16.5733 39.3839 16.5689 39.3021C16.5646 39.2203 16.5834 39.1389 16.6233 39.0674C16.6621 39.011 16.7176 38.9683 16.7821 38.9453C16.8466 38.9223 16.9166 38.9203 16.9823 38.9395C17.1183 38.9817 17.4053 39.0592 17.4026 39.1952C17.208 38.9048 16.9837 38.6355 16.7334 38.3914C16.7035 38.3634 16.6825 38.3271 16.6732 38.2871C16.664 38.2471 16.6668 38.2053 16.6814 38.1669C16.696 38.1286 16.7216 38.0954 16.7551 38.0717C16.7886 38.048 16.8284 38.0348 16.8694 38.0338C16.9642 38.0287 17.0584 38.0504 17.1414 38.0963C16.7783 37.8651 16.4914 37.5374 16.1894 37.2273C16.1594 37.1978 16.1389 37.16 16.1307 37.1188C16.1225 37.0776 16.1268 37.0348 16.1432 36.9961C16.1962 36.8859 16.3146 36.9009 16.4152 36.9267C16.9058 37.082 17.3237 37.4095 17.5916 37.8488Z" fill="#92E3A9"/>
<g opacity="0.1">
<path d="M17.5916 37.8488C17.6364 37.3968 17.7617 36.9565 17.9615 36.5486C18.0472 36.3732 18.1655 36.1869 18.3954 36.1923C18.4832 36.1975 18.5671 36.23 18.6354 36.2854C18.7038 36.3408 18.753 36.4162 18.7762 36.501C18.8822 36.8587 18.6755 37.1674 18.4783 37.4449C18.4117 37.2354 18.6973 36.9553 18.9149 36.9893C19.1325 37.0233 19.2046 37.279 19.1366 37.4694C19.0498 37.6521 18.9119 37.8056 18.7394 37.9114C18.8156 37.7835 19.1338 37.7658 19.2834 37.808C19.3543 37.8309 19.416 37.8758 19.4596 37.9363C19.5031 37.9967 19.5262 38.0694 19.5255 38.1439C19.5119 38.5519 18.8455 38.6675 18.7979 39.0714C18.9916 38.9189 19.2121 38.8041 19.448 38.7328C19.5365 38.7044 19.6322 38.7089 19.7176 38.7454C19.803 38.7818 19.8724 38.8479 19.9131 38.9314C19.9402 39.0525 19.9203 39.1793 19.8574 39.2863C19.6831 39.6525 19.3943 39.9518 19.0346 40.139C19.195 40.0547 19.3664 39.9527 19.5391 39.848C19.6321 39.7907 19.7407 39.764 19.8496 39.7717C19.9585 39.7794 20.0622 39.8212 20.1461 39.8911C20.23 39.961 20.2898 40.0555 20.3171 40.1613C20.3443 40.267 20.3377 40.3787 20.298 40.4804V40.4899C20.2242 40.6597 20.1158 40.8122 19.9798 40.9377C19.8437 41.0632 19.683 41.159 19.5078 41.2189C19.7415 41.0236 20.0108 40.8753 20.3007 40.7823C20.4671 40.7238 20.6484 40.7238 20.8148 40.7823C21.3194 40.9768 21.265 41.5793 20.9685 41.907C20.7305 42.1709 20.3837 42.3001 20.0491 42.4211C20.2082 42.2171 20.8338 42.311 21.0256 42.485C21.117 42.5771 21.1801 42.6933 21.2076 42.8201C21.2351 42.9468 21.2257 43.0788 21.1806 43.2004C21.0846 43.4433 20.9066 43.6449 20.6774 43.7702C20.4492 43.8934 20.2073 43.9893 19.9566 44.0558C20.2028 43.9348 20.6094 43.8994 20.8284 44.064C20.9372 44.1474 21.0214 44.2587 21.0719 44.3861C21.1225 44.5135 21.1375 44.6522 21.1154 44.7875C21.0501 45.1629 20.721 45.4226 20.4639 45.7042C20.1171 46.0822 19.5446 47.4218 19.5391 47.4722C19.1706 46.935 18.7558 46.3039 18.2226 45.9286C17.6392 45.5206 17.0544 45.0228 16.8871 44.3115C16.8697 44.2432 16.8723 44.1713 16.8948 44.1045C16.9172 44.0377 16.9585 43.9787 17.0136 43.9348C17.2285 43.773 17.491 43.977 17.661 44.1646C17.7045 43.7376 17.0258 43.5907 17.0218 43.1732C17.0237 43.1051 17.0426 43.0386 17.0768 42.9796C17.111 42.9207 17.1594 42.8713 17.2176 42.8359C17.3921 42.7428 17.5885 42.6986 17.7861 42.7081C17.8543 42.6987 17.9237 42.7076 17.9874 42.7339C18.0187 42.7475 18.0439 42.7724 18.0577 42.8036C18.0716 42.8349 18.0732 42.8702 18.0622 42.9026C18.0322 42.9651 17.918 42.961 17.9098 42.893C17.8867 42.723 17.5508 42.3817 17.4257 42.2634C17.3006 42.145 17.185 41.9805 17.2271 41.8132C17.2531 41.7388 17.3011 41.6741 17.3647 41.6277C17.4284 41.5813 17.5047 41.5554 17.5834 41.5534C17.7412 41.5426 18.1587 41.7343 18.307 41.7874C18.2893 41.8173 18.0078 41.7071 17.9901 41.7357C17.7752 41.6269 17.6474 41.412 17.4461 41.2801C17.2709 41.1808 17.1221 41.0409 17.0122 40.8721C16.9593 40.7862 16.9341 40.6861 16.94 40.5854C16.9458 40.4847 16.9824 40.3882 17.0449 40.309C17.1809 40.1622 17.7249 40.2506 17.7929 40.445C17.5508 40.2723 17.2489 40.037 17.0054 39.8602C16.8661 39.774 16.7447 39.6618 16.6478 39.5298C16.6006 39.4628 16.5733 39.3839 16.5689 39.3021C16.5646 39.2203 16.5834 39.1389 16.6233 39.0674C16.6621 39.011 16.7176 38.9683 16.7821 38.9453C16.8466 38.9223 16.9166 38.9203 16.9823 38.9395C17.1183 38.9817 17.4053 39.0592 17.4026 39.1952C17.208 38.9048 16.9837 38.6355 16.7334 38.3914C16.7035 38.3634 16.6825 38.3271 16.6732 38.2871C16.664 38.2471 16.6668 38.2053 16.6814 38.1669C16.696 38.1286 16.7216 38.0954 16.7551 38.0717C16.7886 38.048 16.8284 38.0348 16.8694 38.0338C16.9642 38.0287 17.0584 38.0504 17.1414 38.0963C16.7783 37.8651 16.4914 37.5374 16.1894 37.2273C16.1594 37.1978 16.1389 37.16 16.1307 37.1188C16.1225 37.0776 16.1268 37.0348 16.1432 36.9961C16.1962 36.8859 16.3146 36.9009 16.4152 36.9267C16.9058 37.082 17.3237 37.4095 17.5916 37.8488Z" fill="black"/>
</g>
<path d="M18.7979 41.1876C20.3837 47.0356 19.1882 50.6981 17.9642 52.9543" stroke="#263238" stroke-width="0.5" stroke-linecap="round" stroke-linejoin="round"/>
<path d="M18.0431 38.8226C18.1859 39.217 18.3151 39.6018 18.4389 39.9786" stroke="#263238" stroke-width="0.5" stroke-linecap="round" stroke-linejoin="round"/>
<path d="M14.469 50.8096L15.4782 57.5579H21.5234V57.5566L22.5325 50.8096H14.469Z" fill="white" stroke="black" stroke-width="0.5" stroke-miterlimit="10"/>
<path d="M15.489 57.5797L15.7787 59.3137H16.2289L16.403 58.7384H20.6081L20.7835 59.3137H21.2337L21.5234 57.5579H21.4241H16.5349L15.489 57.5797Z" stroke="black" stroke-width="0.5" stroke-miterlimit="10"/>
<path d="M21.4241 57.5579H21.5234V57.5566L21.4241 57.5579Z" stroke="black" stroke-width="0.5" stroke-miterlimit="10"/>
<path d="M16.456 57.5579H16.5349L16.5158 57.5566L16.456 57.5579Z" stroke="black" stroke-width="0.5" stroke-miterlimit="10"/>
</svg>
