<svg width="62" height="62" viewBox="0 0 62 62" fill="none" xmlns="http://www.w3.org/2000/svg">
<path d="M55.3722 14.0318C54.9779 13.807 54.5869 13.5776 54.1992 13.3436C50.0216 10.819 30.4953 -0.629917 22.7156 1.08128C13.981 3.00328 -2.73916 33.2791 2.62508 41.54C7.98932 49.8009 32.8724 63.0528 39.0278 60.2305C45.1831 57.4083 60.3062 29.9993 60.9336 23.4844C61.4705 17.9217 56.7598 14.8192 55.3722 14.0318Z" fill="#92E3A9"/>
<path opacity="0.7" d="M55.3722 14.0318C54.9779 13.807 54.5869 13.5776 54.1992 13.3436C50.0216 10.819 30.4953 -0.629917 22.7156 1.08128C13.981 3.00328 -2.73916 33.2791 2.62508 41.54C7.98932 49.8009 32.8724 63.0528 39.0278 60.2305C45.1831 57.4083 60.3062 29.9993 60.9336 23.4844C61.4705 17.9217 56.7598 14.8192 55.3722 14.0318Z" fill="white"/>
<path opacity="0.3" d="M38.6587 8.62319C38.6587 8.62319 37.7994 4.42455 34.9387 4.71099C33.6367 4.84119 32.765 5.49343 32.0111 6.50651C31.0426 7.80727 30.6954 7.05087 29.3079 7.47867C28.0679 7.86059 28.2588 8.90963 27.495 9.10059C26.7312 9.29155 26.1583 8.43223 25.1068 8.62319C24.0552 8.81415 23.4848 9.86319 23.4848 9.86319H42.5722C42.5224 9.50604 42.3693 9.1712 42.1319 8.89981C41.8944 8.62842 41.5828 8.43229 41.2354 8.33551C39.9954 7.95483 39.4263 8.90963 38.6587 8.62319Z" stroke="black" stroke-width="0.5" stroke-miterlimit="10"/>
<path opacity="0.3" d="M16.7214 22.1824C16.7214 22.1824 16.2638 19.9504 14.7374 20.0967C14.043 20.1661 13.5792 20.5146 13.1775 21.054C12.6616 21.7471 12.4769 21.3441 11.7378 21.5723C11.0757 21.7756 11.1774 22.3349 10.7706 22.4403C10.3639 22.5457 10.0589 22.0844 9.49964 22.1861C8.9404 22.2878 8.63164 22.847 8.63164 22.847H18.7996C18.7724 22.6571 18.6906 22.4792 18.5643 22.3348C18.4379 22.1905 18.2725 22.0858 18.0879 22.0336C17.4332 21.824 17.1281 22.3349 16.7214 22.1824Z" stroke="black" stroke-width="0.5" stroke-miterlimit="10"/>
<g opacity="0.3">
<path d="M7.16906 24.5797L5.85407 27.5043L10.9173 29.7808L12.2323 26.8562L7.16906 24.5797Z" stroke="black" stroke-width="0.5" stroke-miterlimit="10"/>
<path d="M7.76364 25.1894C7.72165 25.2829 7.64427 25.3559 7.54848 25.3924C7.45269 25.4289 7.34634 25.4259 7.25276 25.384L7.2106 25.3605L6.45544 27.0394C6.47072 27.0441 6.48564 27.0499 6.50008 27.0568C6.5466 27.0773 6.5886 27.1069 6.62365 27.1437C6.65871 27.1806 6.68613 27.224 6.70434 27.2715C6.72255 27.319 6.73119 27.3696 6.72976 27.4204C6.72833 27.4712 6.71686 27.5213 6.696 27.5677L6.68484 27.5888L10.3019 29.2156C10.3054 29.2084 10.3083 29.201 10.3106 29.1933C10.3315 29.147 10.3613 29.1052 10.3984 29.0704C10.4355 29.0356 10.479 29.0084 10.5266 28.9905C10.5741 28.9725 10.6248 28.9641 10.6756 28.9657C10.7264 28.9673 10.7764 28.9789 10.8227 28.9999C10.8374 29.0061 10.8515 29.0135 10.8649 29.0222L11.62 27.3432C11.6044 27.3385 11.589 27.3327 11.5742 27.3259C11.5279 27.3051 11.4861 27.2754 11.4513 27.2384C11.4165 27.2015 11.3894 27.1581 11.3714 27.1106C11.3534 27.0631 11.345 27.0126 11.3466 26.9619C11.3482 26.9111 11.3598 26.8612 11.3807 26.815C11.3869 26.8003 11.3944 26.7862 11.403 26.7728L7.78224 25.1447C7.77714 25.16 7.77092 25.175 7.76364 25.1894V25.1894ZM9.62364 27.44C9.57264 27.5543 9.48892 27.6509 9.38305 27.7177C9.27718 27.7845 9.1539 27.8184 9.02877 27.8152C8.90363 27.812 8.78225 27.7718 8.67994 27.6997C8.57763 27.6276 8.49896 27.5268 8.45388 27.41C8.40879 27.2932 8.3993 27.1657 8.42661 27.0436C8.45391 26.9214 8.51679 26.8101 8.6073 26.7236C8.69781 26.6371 8.81191 26.5794 8.93519 26.5577C9.05847 26.536 9.18541 26.5513 9.3 26.6017C9.37612 26.6357 9.44479 26.6843 9.50208 26.7448C9.55937 26.8054 9.60416 26.8766 9.63387 26.9545C9.66359 27.0323 9.67766 27.1153 9.67526 27.1986C9.67287 27.2819 9.65406 27.3639 9.61992 27.44H9.62364Z" stroke="black" stroke-width="0.5" stroke-miterlimit="10"/>
</g>
<g opacity="0.3">
<path d="M11.2945 9.54747L9.97954 12.4721L15.0428 14.7486L16.3577 11.824L11.2945 9.54747Z" stroke="black" stroke-width="0.5" stroke-miterlimit="10"/>
<path d="M11.8904 10.1568C11.8484 10.2503 11.771 10.3234 11.6752 10.3599C11.5794 10.3964 11.4731 10.3934 11.3795 10.3515L11.3373 10.328L10.5822 12.0069C10.5974 12.0116 10.6124 12.0174 10.6268 12.0243C10.7203 12.0663 10.7933 12.1437 10.8298 12.2394C10.8663 12.3352 10.8633 12.4416 10.8215 12.5352L10.8103 12.5562L14.4274 14.1831L14.4361 14.1608C14.457 14.1145 14.4868 14.0727 14.5239 14.0379C14.5609 14.0031 14.6045 13.9759 14.652 13.9579C14.6996 13.94 14.7502 13.9316 14.8011 13.9332C14.8519 13.9348 14.9019 13.9464 14.9482 13.9674C14.9629 13.9736 14.977 13.981 14.9904 13.9897L15.748 12.3107C15.7322 12.3062 15.7169 12.3004 15.7021 12.2934C15.6553 12.2728 15.613 12.2432 15.5778 12.2062C15.5425 12.1691 15.5149 12.1255 15.4967 12.0777C15.4785 12.0299 15.4699 11.979 15.4716 11.9279C15.4732 11.8768 15.485 11.8265 15.5062 11.78C15.5124 11.7653 15.5199 11.7512 15.5285 11.7378L11.904 10.1122C11.9005 10.1274 11.896 10.1423 11.8904 10.1568V10.1568ZM13.7504 12.4074C13.699 12.5217 13.6148 12.6181 13.5086 12.6846C13.4024 12.751 13.2789 12.7845 13.1537 12.7808C13.0284 12.777 12.9071 12.7363 12.8051 12.6636C12.703 12.591 12.6248 12.4897 12.5802 12.3726C12.5357 12.2555 12.5269 12.1278 12.5549 12.0057C12.583 11.8836 12.6465 11.7725 12.7377 11.6866C12.8288 11.6006 12.9434 11.5435 13.0669 11.5226C13.1904 11.5018 13.3174 11.518 13.4317 11.5692C13.5845 11.6387 13.7035 11.766 13.7626 11.9232C13.8216 12.0803 13.8159 12.2545 13.7466 12.4074H13.7504Z" stroke="black" stroke-width="0.5" stroke-miterlimit="10"/>
</g>
<g opacity="0.3">
<path d="M21.1612 2.17379L19.8462 5.0984L24.9094 7.37497L26.2244 4.45036L21.1612 2.17379Z" stroke="black" stroke-width="0.5" stroke-miterlimit="10"/>
<path d="M21.757 2.7838C21.7146 2.87687 21.637 2.94933 21.5413 2.98535C21.4455 3.02137 21.3394 3.01801 21.2462 2.976L21.204 2.95368L20.4488 4.63264C20.4641 4.63691 20.479 4.6423 20.4935 4.64876C20.587 4.69075 20.66 4.76814 20.6965 4.86392C20.733 4.95971 20.73 5.06607 20.6882 5.15964L20.677 5.18196L24.2941 6.8076C24.2975 6.80038 24.3004 6.79292 24.3028 6.78528C24.3237 6.73893 24.3535 6.69716 24.3906 6.66235C24.4276 6.62754 24.4712 6.60038 24.5187 6.58241C24.5663 6.56445 24.6169 6.55603 24.6677 6.55765C24.7186 6.55927 24.7686 6.57088 24.8149 6.59184C24.8296 6.59804 24.8437 6.60551 24.857 6.61416L25.6122 4.9352L25.5663 4.91908C25.52 4.89818 25.4782 4.86834 25.4434 4.83129C25.4086 4.79423 25.3814 4.75067 25.3635 4.70311C25.3455 4.65555 25.3371 4.60491 25.3387 4.5541C25.3403 4.50328 25.3519 4.45328 25.3729 4.40696C25.3791 4.39228 25.3866 4.37818 25.3952 4.3648L21.7744 2.73916C21.7697 2.75444 21.7639 2.76936 21.757 2.7838ZM23.617 5.03564C23.5656 5.15029 23.4813 5.2471 23.3748 5.31381C23.2683 5.38052 23.1444 5.41412 23.0188 5.41037C22.8932 5.40662 22.7716 5.36569 22.6692 5.29274C22.5669 5.2198 22.4886 5.11814 22.444 5.00062C22.3995 4.88311 22.3909 4.75503 22.4193 4.63261C22.4476 4.51018 22.5116 4.39893 22.6032 4.31292C22.6948 4.22691 22.8099 4.17002 22.9339 4.14946C23.0578 4.12889 23.1851 4.14558 23.2996 4.1974C23.4522 4.26711 23.571 4.39451 23.6298 4.55166C23.6886 4.7088 23.6827 4.88285 23.6133 5.03564H23.617Z" stroke="black" stroke-width="0.5" stroke-miterlimit="10"/>
</g>
<g opacity="0.3">
<path d="M35.3374 46.5174L37.827 48.5385L41.3259 44.2284L38.8363 42.2074L35.3374 46.5174Z" stroke="black" stroke-width="0.5" stroke-miterlimit="10"/>
<path d="M36.084 46.097C36.1235 46.129 36.1563 46.1684 36.1806 46.2131C36.2048 46.2578 36.22 46.3068 36.2253 46.3574C36.2306 46.4079 36.2259 46.459 36.2114 46.5077C36.197 46.5565 36.1731 46.6019 36.141 46.6414C36.131 46.6539 36.1202 46.6659 36.1088 46.6773L37.5373 47.8367C37.5457 47.8234 37.5548 47.8106 37.5646 47.7983C37.5965 47.7588 37.636 47.726 37.6807 47.7017C37.7254 47.6775 37.7744 47.6623 37.8249 47.657C37.8755 47.6517 37.9266 47.6564 37.9753 47.6708C38.024 47.6853 38.0694 47.7092 38.1089 47.7412L38.1275 47.7574L40.6274 44.6784L40.6075 44.6636C40.5681 44.6317 40.5353 44.5923 40.511 44.5478C40.4868 44.5032 40.4716 44.4543 40.4663 44.4038C40.461 44.3534 40.4657 44.3024 40.4802 44.2538C40.4946 44.2051 40.5185 44.1598 40.5505 44.1204C40.561 44.1079 40.5722 44.0959 40.584 44.0845L39.1542 42.9251C39.146 42.9385 39.1369 42.9513 39.127 42.9635C39.0622 43.043 38.9685 43.0936 38.8665 43.1043C38.7645 43.115 38.6625 43.0849 38.5826 43.0206C38.5704 43.01 38.5588 42.9989 38.5479 42.9871L36.0456 46.0697L36.084 46.097ZM38.7364 44.8806C38.8337 44.9595 38.9053 45.0656 38.9424 45.1853C38.9794 45.305 38.9801 45.433 38.9444 45.5531C38.9087 45.6732 38.8382 45.78 38.7418 45.8601C38.6454 45.9401 38.5274 45.9898 38.4028 46.0028C38.2782 46.0158 38.1525 45.9915 38.0416 45.9331C37.9308 45.8747 37.8397 45.7847 37.78 45.6745C37.7203 45.5644 37.6946 45.439 37.7061 45.3142C37.7176 45.1895 37.7659 45.0709 37.8448 44.9736C37.9508 44.8443 38.1034 44.7621 38.2696 44.7447C38.4358 44.7273 38.6022 44.7761 38.7326 44.8806H38.7364Z" stroke="black" stroke-width="0.5" stroke-miterlimit="10"/>
</g>
<g opacity="0.3">
<path d="M14.0909 50.3403L16.5805 52.3614L20.0794 48.0514L17.5898 46.0303L14.0909 50.3403Z" stroke="black" stroke-width="0.5" stroke-miterlimit="10"/>
<path d="M14.8341 49.9218C14.8735 49.9538 14.9062 49.9934 14.9303 50.0381C14.9545 50.0828 14.9696 50.1318 14.9747 50.1824C14.9799 50.2329 14.9751 50.284 14.9605 50.3327C14.946 50.3814 14.922 50.4267 14.8899 50.4661C14.8798 50.4783 14.869 50.4899 14.8576 50.5008L16.2861 51.6615C16.2945 51.6475 16.304 51.6342 16.3146 51.6218C16.3465 51.5823 16.3859 51.5495 16.4305 51.5253C16.4751 51.501 16.5241 51.4859 16.5746 51.4807C16.6251 51.4755 16.6761 51.4804 16.7247 51.495C16.7733 51.5097 16.8185 51.5338 16.8578 51.566L16.8764 51.5821L19.3762 48.502L19.3564 48.4883C19.3169 48.4562 19.2842 48.4167 19.2601 48.372C19.236 48.3273 19.2209 48.2782 19.2157 48.2277C19.2105 48.1771 19.2153 48.1261 19.2299 48.0774C19.2445 48.0287 19.2685 47.9834 19.3006 47.944C19.3107 47.9318 19.3214 47.9202 19.3328 47.9092L17.9031 46.7486C17.8951 46.7626 17.886 46.7759 17.8758 46.7883C17.8438 46.8278 17.8043 46.8607 17.7596 46.8849C17.7149 46.9091 17.6658 46.9243 17.6152 46.9294C17.5646 46.9346 17.5135 46.9298 17.4648 46.9151C17.4161 46.9005 17.3708 46.8763 17.3314 46.8441C17.3193 46.834 17.3077 46.8232 17.2967 46.8118L14.7944 49.8945L14.8341 49.9218ZM17.4852 48.7053C17.5825 48.7843 17.6542 48.8903 17.6912 49.01C17.7283 49.1297 17.729 49.2577 17.6933 49.3778C17.6576 49.498 17.5871 49.6048 17.4906 49.6848C17.3942 49.7649 17.2763 49.8145 17.1516 49.8275C17.027 49.8405 16.9013 49.8163 16.7905 49.7579C16.6796 49.6994 16.5886 49.6095 16.5289 49.4993C16.4691 49.3891 16.4434 49.2638 16.4549 49.139C16.4665 49.0142 16.5147 48.8957 16.5936 48.7983C16.6461 48.7336 16.7107 48.6799 16.7839 48.6403C16.8571 48.6006 16.9374 48.5757 17.0202 48.5671C17.1029 48.5584 17.1866 48.5662 17.2664 48.5899C17.3462 48.6136 17.4206 48.6529 17.4852 48.7053V48.7053Z" stroke="black" stroke-width="0.5" stroke-miterlimit="10"/>
</g>
<g opacity="0.3">
<path d="M11.4772 41.3016L13.9667 43.3227L17.4657 39.0126L14.9761 36.9916L11.4772 41.3016Z" stroke="black" stroke-width="0.5" stroke-miterlimit="10"/>
<path d="M12.2202 40.8816C12.2596 40.9136 12.2923 40.9532 12.3165 40.9979C12.3406 41.0426 12.3557 41.0916 12.3609 41.1422C12.3661 41.1927 12.3612 41.2438 12.3467 41.2925C12.3321 41.3412 12.3081 41.3865 12.276 41.4259C12.2662 41.4384 12.2554 41.45 12.2438 41.4606L13.6735 42.6213C13.6814 42.6077 13.6906 42.5948 13.7008 42.5828C13.7328 42.5433 13.7722 42.5105 13.8169 42.4863C13.8616 42.462 13.9106 42.4468 13.9611 42.4415C14.0117 42.4362 14.0628 42.4409 14.1115 42.4554C14.1602 42.4699 14.2056 42.4938 14.2451 42.5258L14.2625 42.5419L16.7623 39.463L16.7425 39.4481C16.7031 39.416 16.6704 39.3765 16.6462 39.3318C16.6221 39.2871 16.607 39.2381 16.6018 39.1875C16.5966 39.1369 16.6015 39.0859 16.616 39.0372C16.6306 38.9885 16.6546 38.9432 16.6867 38.9038C16.6968 38.8916 16.7075 38.88 16.7189 38.869L15.2904 37.7084C15.2821 37.7224 15.2725 37.7357 15.2619 37.7481C15.2301 37.7875 15.1907 37.8203 15.1461 37.8446C15.1016 37.8688 15.0527 37.884 15.0022 37.8893C14.9518 37.8946 14.9007 37.8899 14.8521 37.8754C14.8035 37.861 14.7582 37.8371 14.7188 37.8051L14.6828 37.7716L12.1805 40.8543C12.1942 40.8627 12.2075 40.8718 12.2202 40.8816V40.8816ZM14.8713 39.6651C14.9686 39.7441 15.0403 39.8501 15.0773 39.9698C15.1144 40.0895 15.1151 40.2175 15.0794 40.3376C15.0437 40.4578 14.9732 40.5646 14.8768 40.6446C14.7804 40.7247 14.6624 40.7743 14.5378 40.7873C14.4131 40.8003 14.2874 40.7761 14.1766 40.7177C14.0657 40.6592 13.9747 40.5693 13.915 40.4591C13.8553 40.349 13.8295 40.2236 13.8411 40.0988C13.8526 39.974 13.9009 39.8555 13.9798 39.7581C14.0322 39.6935 14.0968 39.6397 14.17 39.6001C14.2432 39.5604 14.3235 39.5355 14.4063 39.5269C14.4891 39.5182 14.5728 39.526 14.6526 39.5497C14.7324 39.5734 14.8067 39.6127 14.8713 39.6651V39.6651Z" stroke="black" stroke-width="0.5" stroke-miterlimit="10"/>
</g>
<g opacity="0.3">
<path d="M52.6293 27.2936L49.8923 28.9643L52.7847 33.7027L55.5217 32.032L52.6293 27.2936Z" stroke="black" stroke-width="0.5" stroke-miterlimit="10"/>
<path d="M52.7769 28.1306C52.7338 28.1575 52.6859 28.1756 52.6358 28.1839C52.5858 28.1922 52.5346 28.1906 52.4852 28.179C52.4357 28.1675 52.3891 28.1464 52.3479 28.1168C52.3066 28.0872 52.2717 28.0498 52.2449 28.0066C52.2363 27.9933 52.2288 27.9792 52.2226 27.9645L50.6515 28.9242C50.6613 28.9365 50.6704 28.9494 50.6788 28.9627C50.7057 29.0057 50.7238 29.0537 50.7321 29.1037C50.7404 29.1538 50.7387 29.205 50.7272 29.2544C50.7157 29.3038 50.6945 29.3505 50.6649 29.3917C50.6354 29.4329 50.5979 29.4679 50.5548 29.4946L50.5337 29.5058L52.6008 32.891L52.6206 32.8774C52.7078 32.8238 52.8125 32.8067 52.9121 32.8299C53.0117 32.8532 53.0982 32.9148 53.1526 33.0014C53.1608 33.0154 53.1682 33.0299 53.1749 33.0448L54.746 32.085C54.7355 32.0725 54.726 32.0592 54.7175 32.0453C54.6639 31.9584 54.6469 31.8538 54.6702 31.7544C54.6934 31.655 54.755 31.5688 54.8415 31.5146C54.855 31.5062 54.8691 31.4987 54.8836 31.4923L52.8153 28.1034L52.7769 28.1306ZM53.036 31.0372C52.9291 31.1028 52.805 31.1352 52.6796 31.1303C52.5542 31.1253 52.4331 31.0832 52.3317 31.0094C52.2302 30.9355 52.153 30.8332 52.1098 30.7153C52.0666 30.5975 52.0593 30.4695 52.0889 30.3476C52.1185 30.2256 52.1837 30.1152 52.2761 30.0304C52.3686 29.9455 52.4841 29.89 52.6082 29.8709C52.7322 29.8518 52.8591 29.8699 52.9728 29.923C53.0865 29.9761 53.1819 30.0618 53.2468 30.1692C53.3338 30.3123 53.3604 30.4841 53.3209 30.6468C53.2814 30.8095 53.1789 30.9499 53.036 31.0372V31.0372Z" stroke="black" stroke-width="0.5" stroke-miterlimit="10"/>
</g>
<g opacity="0.3">
<path d="M29.3717 17.3877L26.6346 19.0584L29.527 23.7968L32.264 22.1261L29.3717 17.3877Z" stroke="black" stroke-width="0.5" stroke-miterlimit="10"/>
<path d="M29.5207 18.228C29.4336 18.2816 29.3288 18.2986 29.2292 18.2754C29.1296 18.2522 29.0432 18.1906 28.9887 18.104C28.9803 18.0905 28.9729 18.0764 28.9664 18.0618L27.3953 19.0204C27.4054 19.0329 27.4145 19.0461 27.4226 19.06C27.4494 19.103 27.4675 19.1508 27.4758 19.2008C27.4841 19.2507 27.4824 19.3019 27.4709 19.3512C27.4594 19.4005 27.4382 19.447 27.4087 19.4882C27.3791 19.5293 27.3417 19.5641 27.2986 19.5908C27.292 19.5956 27.2849 19.5997 27.2775 19.6032L29.3446 22.9884L29.3644 22.9747C29.4515 22.9208 29.5563 22.9036 29.656 22.9268C29.7558 22.95 29.8422 23.0119 29.8964 23.0987C29.9046 23.1124 29.912 23.1264 29.9187 23.1409L31.4898 22.1811C31.4796 22.1688 31.4701 22.156 31.4613 22.1427C31.4077 22.0556 31.3906 21.9508 31.4139 21.8512C31.4371 21.7516 31.4987 21.6652 31.5853 21.6107C31.5991 21.6021 31.6136 21.5946 31.6287 21.5884L29.5591 18.1995C29.5468 18.2097 29.534 18.2192 29.5207 18.228V18.228ZM29.7798 21.1333C29.6728 21.1988 29.5487 21.2309 29.4233 21.2258C29.298 21.2206 29.1769 21.1784 29.0756 21.1044C28.9743 21.0304 28.8972 20.9279 28.8542 20.8101C28.8111 20.6922 28.804 20.5642 28.8338 20.4423C28.8636 20.3204 28.9289 20.2101 29.0214 20.1254C29.114 20.0406 29.2296 19.9853 29.3536 19.9663C29.4777 19.9474 29.6045 19.9657 29.7182 20.0189C29.8318 20.0721 29.9271 20.1579 29.9919 20.2653C30.0783 20.4085 30.1045 20.58 30.0648 20.7425C30.0251 20.9049 29.9226 21.045 29.7798 21.1321V21.1333Z" stroke="black" stroke-width="0.5" stroke-miterlimit="10"/>
</g>
<path d="M1.9468 3.13844L18.4388 1.31936L24.8012 12.0875L33.134 9.6782L49.7786 44.3126L54.9146 41.9145L53.0373 55.8756L41.049 48.4257L46.0561 46.1069L30.3143 15.6959L21.8587 17.67L16.1324 8.06372L1.88108 11.2282L1.9468 3.13844Z" fill="#263238" stroke="#263238" stroke-width="0.5" stroke-linejoin="round"/>
<path d="M18.4847 28.6886V28.0885" stroke="#263238" stroke-width="0.5" stroke-linejoin="round"/>
<path d="M18.4847 32.3838V29.4736" stroke="#263238" stroke-width="0.5" stroke-linejoin="round"/>
<path d="M24.2556 31.6324V30.2014" stroke="#263238" stroke-width="0.5" stroke-linejoin="round"/>
<path d="M25.7523 21.24V17.6799" stroke="#263238" stroke-width="0.5" stroke-linejoin="round"/>
<path d="M32.1433 14.0281V10.5648" stroke="white" stroke-width="0.5" stroke-linejoin="round"/>
<path d="M32.1433 24.8496V20.7588" stroke="#263238" stroke-width="0.5" stroke-linejoin="round"/>
<path d="M44.2531 23.3008V21.1184" stroke="#263238" stroke-width="0.5" stroke-linejoin="round"/>
<path d="M47.4213 18.5839V15.2743" stroke="#263238" stroke-width="0.5" stroke-linejoin="round"/>
<path d="M20.9399 57.4988C20.8755 57.8199 20.7927 58.1371 20.6919 58.4486C20.5803 58.7363 20.713 58.8913 20.868 58.7586C21.023 58.626 21.2214 57.7666 21.2214 57.7666L20.9399 57.4988Z" fill="white" stroke="#263238" stroke-width="0.2" stroke-linejoin="round"/>
<path d="M20.7626 57.3661C20.7626 57.3661 20.5852 57.8968 20.4092 58.1176C20.2331 58.3383 19.9442 58.559 20.1215 58.6036C20.2988 58.6483 20.7849 58.2502 20.9176 58.0283C20.9838 57.9047 21.094 57.8105 21.2263 57.7642L20.7626 57.3661Z" fill="white" stroke="#263238" stroke-width="0.2" stroke-linejoin="round"/>
<path d="M22.2667 53.6064C22.2667 53.6064 21.9567 54.8464 21.9344 54.9109C21.912 54.9754 21.0502 56.6581 21.0502 56.6581L20.7626 57.3661C20.7626 57.3661 21.2052 58.5813 21.3379 58.6061C21.4706 58.6309 21.4706 58.5615 21.4917 58.3184C21.5128 58.0754 21.359 57.257 21.359 57.257L21.426 56.859C21.426 56.859 21.6244 57.8324 21.6913 58.0531C21.7583 58.2738 21.979 58.3011 22.0224 58.1858C22.0658 58.0704 21.8897 56.4832 21.8897 56.4832L23.0615 55.4007H23.5922C23.5922 55.4007 23.5488 55.9525 23.6592 56.2179C23.7696 56.4832 24.0796 57.0586 24.1899 56.9036C24.3003 56.7486 24.123 56.5316 24.1019 55.9972C24.0808 55.4627 24.3883 55.1564 24.278 54.8477C24.1676 54.5389 23.3938 52.9678 23.3938 52.9678L22.2667 53.6064Z" fill="white" stroke="#263238" stroke-width="0.2" stroke-linejoin="round"/>
<path d="M21.824 55.5966C21.824 55.5966 21.3813 56.3481 21.3813 56.5254C21.3822 56.6372 21.3972 56.7484 21.426 56.8565" fill="white"/>
<path d="M21.824 55.5966C21.824 55.5966 21.3813 56.3481 21.3813 56.5254C21.3822 56.6372 21.3972 56.7484 21.426 56.8565" stroke="#263238" stroke-width="0.2" stroke-linejoin="round"/>
<path d="M21.8463 52.8996L22.0224 53.9388L23.5712 53.098L23.3715 52.2362L21.8463 52.8996Z" fill="white" stroke="#263238" stroke-width="0.2" stroke-linejoin="round"/>
<path d="M22.3535 35.712C22.3535 35.712 24.2135 35.7405 25.2489 35.4256C26.2843 35.1106 28.8895 33.9053 29.8369 33.6474C30.7842 33.3895 31.4414 33.2456 31.5282 33.5618C31.615 33.878 31.987 34.4497 30.4122 35.712C28.8374 36.9743 25.6531 38.5504 24.0758 38.7798C22.4986 39.0092 21.8376 36.7114 22.3535 35.712Z" fill="white" stroke="#263238" stroke-width="0.2" stroke-linejoin="round"/>
<path d="M28.5312 28.8424C28.5312 28.8424 26.4566 30.287 26.3302 30.3713C26.2037 30.4556 24.2556 31.6324 24.2556 31.6324C24.2556 31.6324 23.5265 31.9548 23.4695 32.1098C23.4124 32.2648 22.7404 34.9283 22.7404 34.9283L22.7242 36.0443C23.4368 36.0949 24.152 36.0949 24.8645 36.0443C25.8453 35.955 28.608 34.2017 28.608 34.2017H27.182L26.288 33.4267C26.288 33.4267 28.1306 31.0794 28.458 30.3949C28.7854 29.7104 28.7519 28.6862 28.5312 28.8424Z" fill="#92E3A9" stroke="#263238" stroke-width="0.2" stroke-linejoin="round"/>
<path d="M25.0728 36.6271L25.7511 36.0852C25.7511 36.0852 26.7431 35.2954 26.939 35.1825C27.1349 35.0697 26.598 33.6114 26.195 32.1879C25.792 30.7644 27.4834 30.3589 27.7537 28.3253C28.024 26.2917 27.2118 25.6482 27.0097 24.6661C26.8737 23.8934 26.7945 23.1117 26.7728 22.3274L25.3158 21.3119L24.7727 22.8706C24.7727 22.8706 25.451 24.7678 26.0946 25.5465C26.7381 26.3252 26.9415 28.2918 26.7381 29.0036C26.5348 29.7154 25.0778 31.5344 25.2142 32.0813C25.3506 32.6281 26.4678 34.8316 26.0264 35.2718C25.7803 35.5133 25.5539 35.7741 25.3493 36.0518L24.5904 35.9997L24.2656 36.4585L25.0728 36.6271Z" fill="#263238" stroke="#263238" stroke-width="0.2" stroke-linejoin="round"/>
<path d="M24.6326 37.7791L25.0728 36.6271L24.2606 36.4572L24.9042 35.6103L22.9177 35.1962L23.6778 38.3991L24.6326 37.7791Z" fill="white" stroke="#263238" stroke-width="0.2" stroke-linejoin="round"/>
<path d="M23.152 35.7021C23.456 35.8586 23.7463 36.0403 24.02 36.2452C24.2594 36.4585 24.144 36.6432 24.0014 37.0053C23.925 37.2053 23.8215 37.3939 23.6939 37.5658L23.152 35.7021Z" fill="white" stroke="#263238" stroke-width="0.2" stroke-linejoin="round"/>
<path d="M26.939 35.1825L30.2064 34.0157C30.2064 34.0157 33.0584 33.0299 33.1824 32.9257C33.3064 32.8216 33.4936 30.4879 33.5197 30.0477C33.5457 29.6075 33.5718 29.0879 33.5718 29.0879C33.5718 29.0879 31.8854 30.2548 30.9516 30.9293C30.0179 31.6039 28.489 33.0299 28.0476 33.5482C27.6061 34.0665 26.939 35.1825 26.939 35.1825Z" fill="#263238" stroke="#263238" stroke-width="0.2" stroke-linejoin="round"/>
<path d="M45.6878 23.3951C45.6878 23.3951 46.3586 22.9102 46.5459 22.7974C46.7331 22.6846 47.1076 20.9622 47.182 20.2876C47.2564 19.6131 47.3692 19.313 47.6693 19.3886C47.9694 19.4643 48.4939 21.9728 48.5311 22.4229C48.5683 22.873 48.3439 23.5092 48.4183 23.7708C48.4927 24.0324 48.6812 24.3338 48.4939 24.5954C48.3067 24.857 45.8899 24.7343 45.8899 24.7343L45.6878 23.3951Z" fill="#263238" stroke="#263238" stroke-width="0.2" stroke-linejoin="round"/>
<path d="M48.5311 22.4229C48.4939 21.9728 47.9694 19.463 47.6693 19.3886C47.6067 19.3697 47.5393 19.3741 47.4796 19.401C47.7908 20.2306 48.3104 21.7099 48.231 22.16C48.1194 22.7974 47.9694 24.1081 48.0438 24.4082C48.0661 24.4962 48.0922 24.6053 48.1194 24.7144C48.3141 24.6884 48.4542 24.6512 48.4914 24.5904C48.6787 24.3288 48.4914 24.0287 48.4158 23.7658C48.3402 23.503 48.5683 22.8718 48.5311 22.4229Z" fill="#263238" stroke="#263238" stroke-width="0.2" stroke-linejoin="round"/>
<path d="M35.6612 29.6434C35.6612 29.6434 35.9588 26.102 36.1671 25.7746C36.3754 25.4473 38.068 25.2687 39.556 24.9426C41.044 24.6165 45.6853 23.3951 45.6853 23.3951L45.8924 24.7343C45.8924 24.7343 43.989 25.6556 42.8284 26.1913C41.6677 26.727 40.419 27.3519 39.8238 27.471C39.2286 27.59 38.7822 27.6495 38.7822 27.6495C38.7822 27.6495 39.675 32.9456 39.8536 34.4038C40.0322 35.862 39.675 36.8726 39.4667 37.1702C39.2584 37.4678 38.0382 35.2656 36.7288 32.6182C35.4194 29.9708 35.6612 29.6434 35.6612 29.6434Z" fill="#92E3A9" stroke="#263238" stroke-width="0.2" stroke-linejoin="round"/>
<path d="M39.4692 37.1702C39.6775 36.8726 40.0346 35.8608 39.8561 34.4038C39.8214 34.1211 39.7594 33.6933 39.6837 33.1898C38.7074 30.8988 37.4584 28.7338 35.9637 26.7418C35.8038 27.895 35.6574 29.6422 35.6574 29.6422C35.6574 29.6422 35.4194 29.9683 36.7276 32.6182C38.0358 35.2681 39.2609 37.4678 39.4692 37.1702Z" fill="#263238" stroke="#263238" stroke-width="0.2" stroke-linejoin="round"/>
<path d="M39.5399 21.8612C39.5399 21.8612 39.6155 21.2238 39.6527 20.9238C39.6899 20.6237 39.3154 18.7513 39.0166 18.2268C38.7178 17.7022 38.9782 17.4406 39.1654 17.4406C39.3526 17.4406 41.1494 18.8269 41.4507 19.2758C41.752 19.7247 42.4626 21.1866 42.6498 21.4867C42.837 21.7868 40.3273 23.064 40.3273 23.064L39.5399 21.8612Z" fill="#263238" stroke="#263238" stroke-width="0.2" stroke-linejoin="round"/>
<path d="M42.656 21.4867C42.4688 21.1866 41.757 19.7259 41.4569 19.2758C41.1568 18.8257 39.3588 17.4406 39.1716 17.4406C39.1202 17.4415 39.0704 17.4584 39.029 17.489C39.5882 17.9515 41.1804 19.2882 41.4569 19.6887C41.7049 20.0384 42.2133 21.1631 42.4824 21.767C42.6151 21.6467 42.687 21.5462 42.656 21.4867Z" fill="#263238" stroke="#263238" stroke-width="0.2" stroke-linejoin="round"/>
<path d="M33.852 33.6896C33.852 33.6896 30.4904 26.5186 30.6094 26.221C30.7284 25.9234 38.1957 22.6511 38.5826 22.413C38.8991 22.1915 39.1902 21.9358 39.4506 21.6504L40.6695 23.0975C40.6695 23.0975 38.4673 24.4962 37.009 25.5663C35.5508 26.6364 34.4212 27.2924 34.4212 27.2924C34.4212 27.2924 34.8973 28.2447 36.7114 29.9993C38.5256 31.7539 40.2231 34.849 39.866 36.6953C39.5089 38.5417 37.448 39.1046 36.8206 39.3712C36.4311 39.5355 36.021 39.6456 35.6016 39.6986C35.6016 39.6986 34.6196 34.7894 33.852 33.6896Z" fill="#92E3A9" stroke="#263238" stroke-width="0.2" stroke-linejoin="round"/>
<path d="M23.7113 37.8696C23.7113 37.8696 24.6214 37.3996 24.7306 37.3736C24.8397 37.3476 25.3419 36.7772 25.3419 36.7772L25.6717 37.3736L26.0946 36.73C26.1268 36.6829 26.5025 35.9154 26.5025 35.9154C26.5025 35.9154 27.5528 35.8992 27.8194 35.8521C28.086 35.805 29.388 35.1255 29.388 35.1255C29.388 35.1255 31.7242 32.6331 32.116 32.1309C32.393 31.7885 32.697 31.4688 33.0249 31.1748C33.299 32.2231 33.6882 33.2378 34.1856 34.2004C34.9692 35.6748 35.6116 38.466 35.6116 39.3588C35.6116 40.2516 35.7356 40.3942 35.7356 40.3942C35.7356 40.3942 34.436 40.672 32.984 40.8332C31.532 40.9944 29.5504 41.3974 29.5504 41.3974L23.6964 43.0751C23.6964 43.0751 23.2426 48.9676 23.2736 49.2974C23.3046 49.6273 23.5873 52.4954 23.5873 52.4954C23.5873 52.4954 22.537 52.9034 22.2704 53.0757C22.0038 53.2481 21.7992 53.3894 21.7992 53.3894C21.7992 53.3894 21.1879 52.1197 21.0316 50.8028C20.8754 49.4859 20.3571 43.2946 20.3571 43.2946C20.3571 43.2946 20.1996 42.4638 19.9962 42.134C19.7929 41.8041 19.964 41.3503 20.0905 40.8803C20.217 40.4104 20.6857 37.6811 20.6857 37.6811C20.6857 37.6811 21.8017 38.011 22.599 38.011C23.3963 38.011 23.7113 37.8696 23.7113 37.8696Z" fill="#92E3A9" stroke="#263238" stroke-width="0.2" stroke-linejoin="round"/>
<path d="M23.6964 43.0751L24.8707 41.0614L25.0554 42.6052L23.6964 43.0751Z" fill="#263238" stroke="#263238" stroke-width="0.2" stroke-linejoin="round"/>
<path d="M28.6874 35.9451C28.9354 35.6971 29.0991 35.5198 29.0991 35.5198" stroke="#263238" stroke-width="0.2" stroke-linejoin="round"/>
<path d="M23.8799 38.3495C23.8799 38.3495 25.4919 38.1945 26.4008 37.8188C26.8968 37.6154 27.6408 36.9582 28.2261 36.399" stroke="#263238" stroke-width="0.2" stroke-linejoin="round"/>
<path d="M22.2741 42.3522C22.4088 42.4091 22.5393 42.4754 22.6647 42.5506" stroke="#263238" stroke-width="0.2" stroke-linejoin="round"/>
<path d="M20.3868 42.0645C20.7835 42.0355 21.1823 42.0605 21.5723 42.1389" stroke="#263238" stroke-width="0.2" stroke-linejoin="round"/>
<path d="M30.3453 36.7164L30.6292 38.6136L31.0087 38.5814L30.6615 36.6209" fill="#92E3A9"/>
<path d="M30.3453 36.7164L30.6292 38.6136L31.0087 38.5814L30.6615 36.6209" stroke="#263238" stroke-width="0.2" stroke-linejoin="round"/>
<path d="M18.9187 36.5589C18.9187 36.5589 19.3353 37.0549 19.7148 37.4269C20.0942 37.7989 20.806 38.1945 21.4222 38.4127C22.0385 38.631 22.7776 38.9534 23.09 38.9149C23.4025 38.8765 23.586 38.5739 23.6778 38.3941C23.7696 38.2143 23.839 37.6501 23.6877 36.8478C23.5641 36.2945 23.3629 35.7614 23.09 35.2644C23.1774 35.2 23.248 35.1156 23.2959 35.0183C23.3438 34.921 23.3676 34.8136 23.3653 34.7051C23.3554 34.3331 22.9375 34.0616 22.697 34.0231C22.617 34.0125 22.5357 34.0235 22.4615 34.0552C22.3873 34.0868 22.323 34.1378 22.2754 34.2029C21.9279 34.229 21.5788 34.2227 21.2325 34.1843C21.137 34.1459 20.7861 33.5866 20.5877 33.5966C20.4996 33.6056 20.416 33.64 20.347 33.6954C20.2779 33.7508 20.2263 33.825 20.1984 33.909C20.0735 34.2273 19.9112 34.5295 19.7148 34.8093C19.6292 34.8862 19.0948 35.3412 19.0948 35.3412C19.0948 35.3412 18.6198 35.3313 18.5442 35.7579C18.4686 36.1844 18.9187 36.5589 18.9187 36.5589Z" fill="white" stroke="#263238" stroke-width="0.2" stroke-linejoin="round"/>
<path d="M20.6286 36.7474L21.5128 37.6315L21.7211 37.386" stroke="#263238" stroke-width="0.2" stroke-linejoin="round"/>
<path d="M22.072 37.9874C22.072 37.9874 22.1452 37.5088 22.4031 37.2992C22.661 37.0896 23.214 36.9433 23.214 36.9433L22.8086 37.9018C22.8214 37.7587 22.8214 37.6147 22.8086 37.4716C22.7776 37.3612 22.1638 37.7047 22.072 37.9874Z" fill="#263238" stroke="#263238" stroke-width="0.2" stroke-linejoin="round"/>
<path d="M20.052 36.3667C20.052 36.3667 19.7197 36.3295 19.6218 36.4771C19.5655 36.5962 19.5567 36.7323 19.597 36.8578" stroke="#263238" stroke-width="0.2" stroke-linejoin="round"/>
<path d="M20.6286 35.836C20.6703 35.6707 20.7653 35.5238 20.899 35.4181C21.0713 35.3362 21.2599 35.2938 21.4508 35.2941" stroke="#263238" stroke-width="0.2" stroke-linejoin="round"/>
<path d="M20.3769 36.9954C20.4563 37.0834 20.4749 37.1975 20.4178 37.2434C20.3608 37.2893 20.248 37.2682 20.1698 37.1802C20.0917 37.0921 20.0719 36.978 20.1289 36.926C20.186 36.8739 20.2976 36.9086 20.3769 36.9954Z" fill="#263238"/>
<path d="M21.421 36.2229C21.5004 36.3097 21.519 36.4238 21.4607 36.4709C21.4024 36.518 21.292 36.4957 21.2127 36.4076C21.1333 36.3196 21.1147 36.2055 21.173 36.1596C21.2313 36.1138 21.3404 36.1348 21.421 36.2229Z" fill="#263238"/>
<path d="M18.8083 35.7393L19.3527 35.836C19.3527 35.836 19.2361 35.6426 19.4692 35.3896C19.7024 35.1366 20.4414 34.787 20.4798 34.4757C20.5038 34.2886 20.517 34.1002 20.5195 33.9115L21.1023 34.6121C21.1023 34.6121 21.4743 34.4956 21.6851 34.4174C21.8959 34.3393 22.346 34.7671 22.4043 34.8056C22.4626 34.844 22.7937 34.8056 22.7354 34.689C22.6532 34.5484 22.5878 34.3985 22.5407 34.2426C22.5407 34.1645 22.697 34.0281 22.697 34.0281C22.697 34.0281 22.8321 33.795 22.5804 33.3486C22.3287 32.9022 22.0162 32.6876 21.6467 32.4148C21.4602 32.2871 21.2903 32.1367 21.1408 31.9672L20.9858 32.2016C20.8174 32.1736 20.6578 32.107 20.5195 32.0069C20.3248 31.8506 20.1475 31.6758 20.1475 31.6758C20.1475 31.6758 19.9528 32.1433 19.7755 32.2784C19.5982 32.4136 18.6 32.86 18.476 33.1725C18.398 33.389 18.3334 33.6102 18.2826 33.8346L17.8932 33.5618C17.8932 33.5618 17.8734 34.0678 17.8734 34.3393C17.8734 34.6109 17.2534 35.5793 17.6985 36.0307C18.1437 36.482 19.0625 36.6507 19.0625 36.6507C19.0625 36.6507 18.6521 36.456 18.8083 35.7393Z" fill="#263238" stroke="#263238" stroke-width="0.2" stroke-linejoin="round"/>
<path d="M26.6104 31.9275C26.6104 31.9275 25.2365 31.997 25.2092 32.0813C25.1811 32.1538 25.148 32.2242 25.11 32.2921C25.11 32.2921 24.4652 32.2499 24.4516 32.3057C24.4379 32.3615 24.3958 32.741 24.3958 32.741C24.3958 32.741 23.8068 33.2729 23.834 33.3436C23.8613 33.4143 24.0312 33.7776 24.0312 33.7776C24.0312 33.7776 23.7832 34.2265 23.8204 34.353C23.8576 34.4794 24.1292 34.6754 24.1292 34.6754C24.1292 34.6754 23.8204 35.0114 24.0163 35.0957C24.1308 35.1462 24.2579 35.1609 24.3809 35.1379C24.3809 35.1379 24.5917 35.3623 24.7318 35.278C24.775 35.2471 24.811 35.2073 24.8375 35.1613C24.8641 35.1154 24.8804 35.0642 24.8856 35.0114C24.8856 35.0114 25.4609 34.8291 25.7275 34.7634C25.9941 34.6977 26.2322 34.2451 26.2607 34.0764C26.3118 33.9221 26.3926 33.7792 26.4988 33.6561C26.4988 33.6561 26.9948 33.4453 27.1014 33.2915C27.2081 33.1378 27.9422 32.772 27.9422 32.772C27.9422 32.772 27.6768 32.4074 27.3817 32.085C27.2224 31.9021 27.0269 31.7544 26.8076 31.651L26.6104 31.9275Z" fill="white" stroke="#263238" stroke-width="0.2" stroke-linejoin="round"/>
<path d="M25.11 32.2921C25.0576 32.5655 25.0203 32.8416 24.9984 33.1192C25.012 33.2432 25.0269 33.3014 25.3344 33.3572C25.642 33.413 26.0214 33.568 26.1057 33.4701C26.19 33.3721 26.2037 33.2878 26.0784 33.175C25.9622 33.088 25.8345 33.0175 25.699 32.9654C25.699 32.9654 25.7697 32.7831 25.8118 32.6281" fill="white"/>
<path d="M25.11 32.2921C25.0576 32.5655 25.0203 32.8416 24.9984 33.1192C25.012 33.2432 25.0269 33.3014 25.3344 33.3572C25.642 33.413 26.0214 33.568 26.1057 33.4701C26.19 33.3721 26.2037 33.2878 26.0784 33.175C25.9622 33.088 25.8345 33.0175 25.699 32.9654C25.699 32.9654 25.7697 32.7831 25.8118 32.6281" stroke="#263238" stroke-width="0.2" stroke-linejoin="round"/>
<path d="M24.3958 32.736C24.3958 32.736 24.3251 33.2965 24.3809 33.423C24.4367 33.5494 25.012 34.043 25.1249 34.1521C25.1919 34.208 25.2725 34.2452 25.3585 34.26C25.4444 34.2748 25.5328 34.2667 25.6147 34.2364C25.6398 34.2256 25.6615 34.2084 25.6778 34.1864C25.694 34.1645 25.704 34.1386 25.707 34.1114C25.7099 34.0843 25.7055 34.0569 25.6943 34.032C25.6831 34.0071 25.6654 33.9856 25.6432 33.9698C25.5768 33.9175 25.5063 33.8706 25.4324 33.8297L25.0678 33.3337" fill="white"/>
<path d="M24.3958 32.736C24.3958 32.736 24.3251 33.2965 24.3809 33.423C24.4367 33.5494 25.012 34.043 25.1249 34.1521C25.1919 34.208 25.2725 34.2452 25.3585 34.26C25.4444 34.2748 25.5328 34.2667 25.6147 34.2364C25.6398 34.2256 25.6615 34.2084 25.6778 34.1864C25.694 34.1645 25.704 34.1386 25.707 34.1114C25.7099 34.0843 25.7055 34.0569 25.6943 34.032C25.6831 34.0071 25.6654 33.9856 25.6432 33.9698C25.5768 33.9175 25.5063 33.8706 25.4324 33.8297L25.0678 33.3337" stroke="#263238" stroke-width="0.2" stroke-linejoin="round"/>
<path d="M24.0312 33.7776C24.0312 33.7776 24.3536 34.4236 24.423 34.4646C24.4925 34.5055 24.9277 34.8862 25.0827 34.8018C25.2377 34.7175 25.1249 34.5352 25.0542 34.4509C24.9835 34.3666 24.9004 34.255 24.9004 34.255L24.676 33.852" fill="white"/>
<path d="M24.0312 33.7776C24.0312 33.7776 24.3536 34.4236 24.423 34.4646C24.4925 34.5055 24.9277 34.8862 25.0827 34.8018C25.2377 34.7175 25.1249 34.5352 25.0542 34.4509C24.9835 34.3666 24.9004 34.255 24.9004 34.255L24.676 33.852" stroke="#263238" stroke-width="0.2" stroke-linejoin="round"/>
<path d="M24.1292 34.6754L24.3809 35.1379" stroke="#263238" stroke-width="0.2" stroke-linejoin="round"/>
<path d="M24.8856 35.0114L24.6338 34.6754" stroke="#263238" stroke-width="0.2" stroke-linejoin="round"/>
<path d="M27.0878 31.3385L26.8076 31.6473L27.9992 32.9505L28.3489 32.488C28.2427 32.2459 28.0793 32.0331 27.8727 31.868C27.628 31.6676 27.3653 31.4904 27.0878 31.3385Z" fill="white" stroke="#263238" stroke-width="0.2" stroke-linejoin="round"/>
<path d="M26.8906 31.3807L28.4059 32.8811C28.4059 32.8811 30.4519 30.5387 30.7619 30.1184C31.0719 29.698 31.2666 29.3198 31.0285 28.8709C30.7904 28.422 30.1878 27.9595 29.6261 28.0575C29.1885 28.146 28.7906 28.3719 28.4902 28.7023C28.3489 28.8709 26.8906 31.3807 26.8906 31.3807Z" fill="#92E3A9" stroke="#263238" stroke-width="0.2" stroke-linejoin="round"/>
</svg>
