<svg width="96" height="65" viewBox="0 0 96 65" fill="none" xmlns="http://www.w3.org/2000/svg">
<path d="M83.2422 52.1976C87.4662 48.7565 89.8982 43.5344 89.9737 38.0354C90.0211 34.5696 89.7766 30.2146 88.6298 26.4888C84.8486 14.1986 74.1645 7.54 66.3488 6.11C58.5331 4.68 50.4845 7.2956 44.416 11.44C38.3475 15.5844 38.9325 14.8759 28.5504 13.3354C18.1683 11.7949 9.65504 16.3007 6.85568 24.5934C4.05632 32.8861 12.5709 37.5869 13.504 41.9302C14.4371 46.2735 12.8 53.976 29.0202 55.8714C45.2403 57.7668 50.1402 48.5264 58.1837 51.1329C64.6605 53.2298 74.3091 59.4698 83.2422 52.1976Z" fill="#92E3A9"/>
<path opacity="0.7" d="M83.2422 52.1976C87.4662 48.7565 89.8982 43.5344 89.9737 38.0354C90.0211 34.5696 89.7766 30.2146 88.6298 26.4888C84.8486 14.1986 74.1645 7.54 66.3488 6.11C58.5331 4.68 50.4845 7.2956 44.416 11.44C38.3475 15.5844 38.9325 14.8759 28.5504 13.3354C18.1683 11.7949 9.65504 16.3007 6.85568 24.5934C4.05632 32.8861 12.5709 37.5869 13.504 41.9302C14.4371 46.2735 12.8 53.976 29.0202 55.8714C45.2403 57.7668 50.1402 48.5264 58.1837 51.1329C64.6605 53.2298 74.3091 59.4698 83.2422 52.1976Z" fill="white"/>
<path opacity="0.3" d="M50.7533 38.4514V37.7143C50.7533 36.2609 49.7997 35.7461 48.8269 35.7461C48.5726 35.7413 48.3201 35.7893 48.0847 35.8869C47.8493 35.9846 47.636 36.13 47.4577 36.3141C47.2795 36.4983 47.1401 36.7175 47.048 36.9582C46.956 37.1989 46.9132 37.4562 46.9222 37.7143V38.4514H46.6509V42.5308H51.0029V38.4514H50.7533ZM48.9549 40.69V41.4284H48.5427V40.69C48.4243 40.6414 48.3261 40.5525 48.2651 40.4385C48.2042 40.3245 48.1841 40.1924 48.2085 40.0651C48.2329 39.9377 48.3001 39.8229 48.3987 39.7403C48.4973 39.6578 48.621 39.6127 48.7488 39.6127C48.8766 39.6127 49.0003 39.6578 49.0989 39.7403C49.1975 39.8229 49.2647 39.9377 49.2891 40.0651C49.3135 40.1924 49.2934 40.3245 49.2325 40.4385C49.1715 40.5525 49.0733 40.6414 48.9549 40.69V40.69ZM50.1504 38.4475H47.5034V37.7104C47.504 37.3542 47.6437 37.0129 47.8918 36.7611C48.1399 36.5094 48.4762 36.3678 48.8269 36.3675C49.5565 36.3675 50.1504 36.8745 50.1504 37.7104V38.4475Z" stroke="black" stroke-width="0.5" stroke-miterlimit="10"/>
<path opacity="0.3" d="M88.228 25.7765C89.3082 24.6794 89.3082 22.9007 88.228 21.8036C87.1478 20.7065 85.3964 20.7065 84.3162 21.8036C83.2359 22.9007 83.2359 24.6794 84.3162 25.7765C85.3964 26.8736 87.1478 26.8736 88.228 25.7765Z" stroke="black" stroke-width="0.5" stroke-miterlimit="10"/>
<g opacity="0.3">
<path d="M86.5574 25.5723V25.844H86.0928V25.571C85.6909 25.4865 85.4861 25.1706 85.4886 24.674V24.5583H86.025V24.7104C86.025 24.9704 86.1274 25.0718 86.3079 25.0718C86.4883 25.0718 86.592 24.9743 86.592 24.7117C86.592 23.959 85.4874 23.9174 85.4912 22.8709C85.4912 22.373 85.7062 22.0545 86.1082 21.9726V21.71H86.5715V21.9778C86.9773 22.0623 87.1821 22.3834 87.1808 22.88V23.1309H86.6432V22.8423C86.6432 22.5823 86.5318 22.4861 86.3514 22.4861C86.1709 22.4861 86.057 22.5784 86.0557 22.8397C86.0557 23.5937 87.1616 23.6353 87.1565 24.6818C87.1565 25.1719 86.9542 25.48 86.5574 25.5723Z" stroke="black" stroke-width="0.5" stroke-miterlimit="10"/>
</g>
<path opacity="0.3" d="M49.9421 50.6618C50.6364 49.9567 50.6364 48.8134 49.9421 48.1082C49.2478 47.403 48.1221 47.403 47.4277 48.1082C46.7334 48.8134 46.7334 49.9567 47.4277 50.6618C48.1221 51.367 49.2478 51.367 49.9421 50.6618Z" stroke="black" stroke-width="0.5" stroke-miterlimit="10"/>
<g opacity="0.3">
<path d="M48.8678 50.5297V50.7H48.5696V50.5245C48.3136 50.4699 48.1856 50.2645 48.1856 49.9486V49.8745H48.5299V49.972C48.5299 50.1397 48.5952 50.2047 48.7104 50.2047C48.8256 50.2047 48.8934 50.141 48.8934 49.9733C48.8934 49.4897 48.1843 49.4624 48.1869 48.7903C48.1869 48.4705 48.3238 48.2703 48.5824 48.2131V48.0415H48.8806V48.2131C49.1366 48.2677 49.2736 48.4731 49.2723 48.7929V48.9541H48.928V48.7695C48.928 48.6018 48.8563 48.5407 48.7411 48.5407C48.6259 48.5407 48.5517 48.6005 48.5504 48.7682C48.5504 49.2518 49.2608 49.2791 49.2582 49.9512C49.2531 50.2723 49.1226 50.4738 48.8678 50.5297Z" stroke="black" stroke-width="0.5" stroke-miterlimit="10"/>
</g>
<path d="M3.84 56.42H91.136" stroke="#263238" stroke-width="0.5" stroke-linecap="round" stroke-linejoin="round"/>
<path d="M60.3053 13.9797L49.7335 12.764L47.665 31.3174L58.2368 32.5331L60.3053 13.9797Z" fill="white" stroke="#B2B2B2" stroke-width="0.5" stroke-linecap="round" stroke-linejoin="round"/>
<path d="M50.3219 14.4001L48.64 29.5178C48.7178 29.5267 48.7931 29.5511 48.8615 29.5895C48.93 29.628 48.9904 29.6798 49.0391 29.742C49.0879 29.8042 49.1241 29.8755 49.1456 29.9519C49.1672 30.0283 49.1737 30.1083 49.1648 30.1873C49.1509 30.31 49.0999 30.4254 49.0189 30.5175L57.0995 31.447C57.0474 31.3499 57.0226 31.2402 57.0277 31.1297C57.0329 31.0193 57.0678 30.9124 57.1287 30.8208C57.1896 30.7292 57.2741 30.6563 57.373 30.6101C57.472 30.564 57.5815 30.5463 57.6896 30.5591L59.3754 15.4414C59.2976 15.4325 59.2223 15.4081 59.1538 15.3697C59.0853 15.3312 59.025 15.2794 58.9762 15.2172C58.9275 15.155 58.8913 15.0837 58.8697 15.0073C58.8482 14.9309 58.8417 14.8509 58.8506 14.7719L50.985 13.8619C50.9767 13.9416 50.9529 14.0189 50.915 14.0893C50.8771 14.1596 50.8258 14.2216 50.7642 14.2717C50.7025 14.3218 50.6316 14.3589 50.5557 14.3809C50.4798 14.403 50.4003 14.4095 50.3219 14.4001Z" fill="white" stroke="#B2B2B2" stroke-width="0.5" stroke-linecap="round" stroke-linejoin="round"/>
<path d="M56.7425 22.9165C56.8857 21.3718 55.7689 20.0017 54.248 19.8562C52.727 19.7107 51.378 20.845 51.2347 22.3897C51.0915 23.9344 52.2083 25.3046 53.7293 25.45C55.2502 25.5955 56.5993 24.4612 56.7425 22.9165Z" fill="white" stroke="#B2B2B2" stroke-width="0.5" stroke-linecap="round" stroke-linejoin="round"/>
<path d="M55.7594 22.5836L56.0256 22.6187L55.9667 23.0854L55.7005 23.0503C55.5725 23.4403 55.2346 23.6132 54.7494 23.5495L54.6368 23.5352L54.7059 22.9957L54.8531 23.0139C55.1091 23.0477 55.2192 22.9567 55.2371 22.7747C55.255 22.5927 55.1757 22.477 54.921 22.4432C54.185 22.347 54.0083 23.4585 52.9856 23.3259C52.5005 23.2622 52.2176 23.0087 52.1843 22.594L51.9283 22.5602L51.9872 22.0922L52.2432 22.126C52.3712 21.7269 52.7142 21.5605 53.2006 21.6229L53.4451 21.6554L53.3773 22.1949L53.097 22.1585C52.841 22.1247 52.7347 22.2274 52.713 22.4094C52.6912 22.5914 52.768 22.7175 53.0227 22.75C53.7587 22.8462 53.9354 21.7347 54.9581 21.8673C55.4419 21.9297 55.7235 22.1728 55.7594 22.5836Z" fill="white" stroke="#B2B2B2" stroke-width="0.5" stroke-linecap="round" stroke-linejoin="round"/>
<path d="M52.82 12.7294L42.1845 13.0217L42.6818 31.6868L53.3172 31.3945L52.82 12.7294Z" fill="white" stroke="#B2B2B2" stroke-width="0.5" stroke-linecap="round" stroke-linejoin="round"/>
<path d="M42.9914 14.5522L43.3984 29.7622C43.5564 29.758 43.7096 29.8177 43.8243 29.9281C43.939 30.0385 44.0059 30.1906 44.0102 30.3511C44.0126 30.4747 43.9783 30.5961 43.9117 30.6995L52.0397 30.4759C51.9665 30.3766 51.9258 30.2566 51.9232 30.1327C51.921 30.0533 51.9342 29.9743 51.9621 29.9C51.99 29.8258 52.032 29.7579 52.0857 29.7002C52.1394 29.6425 52.2038 29.5961 52.2752 29.5637C52.3466 29.5313 52.4236 29.5135 52.5018 29.5113L52.096 14.3C52.0178 14.3023 51.94 14.2888 51.8669 14.2605C51.7939 14.2322 51.727 14.1895 51.6702 14.135C51.6134 14.0804 51.5677 14.015 51.5358 13.9425C51.5039 13.87 51.4863 13.7918 51.4842 13.7124L43.5712 13.9295C43.5734 14.0091 43.5602 14.0883 43.5322 14.1627C43.5043 14.237 43.4622 14.3051 43.4083 14.3629C43.3545 14.4207 43.2899 14.4672 43.2184 14.4997C43.1468 14.5322 43.0697 14.55 42.9914 14.5522Z" fill="white" stroke="#B2B2B2" stroke-width="0.5" stroke-linecap="round" stroke-linejoin="round"/>
<path d="M49.7949 24.1022C50.8254 22.9569 50.7465 21.1799 49.6188 20.1333C48.491 19.0867 46.7414 19.1668 45.7109 20.3122C44.6804 21.4575 44.7592 23.2345 45.887 24.2811C47.0147 25.3277 48.7644 25.2476 49.7949 24.1022Z" fill="white" stroke="#B2B2B2" stroke-width="0.5" stroke-linecap="round" stroke-linejoin="round"/>
<path d="M49.5066 21.84L49.7741 21.8322L49.7869 22.3028L49.5194 22.3119C49.449 22.7214 49.1456 22.9398 48.6566 22.9541H48.5427L48.5274 22.4094H48.6771C48.9331 22.4016 49.0291 22.2937 49.024 22.1117C49.0189 21.9297 48.9178 21.827 48.6605 21.8335C47.9181 21.8556 47.9142 22.9814 46.8838 23.0126C46.3949 23.0269 46.0749 22.8215 45.9802 22.4159L45.7178 22.4237L45.705 21.9531L45.9674 21.9453C46.0378 21.5293 46.3514 21.3109 46.8352 21.2953L47.0822 21.2875L47.104 21.84L46.8211 21.8478C46.5651 21.8556 46.4742 21.9778 46.4794 22.1559C46.4845 22.334 46.5805 22.4523 46.8378 22.4445C47.5802 22.4224 47.584 21.2966 48.6144 21.2667C49.0918 21.2511 49.408 21.45 49.5066 21.84Z" fill="white" stroke="#B2B2B2" stroke-width="0.5" stroke-linecap="round" stroke-linejoin="round"/>
<path d="M47.6294 11.9691L37.5398 15.3977L43.3734 33.1047L53.4629 29.6761L47.6294 11.9691Z" fill="white" stroke="#B2B2B2" stroke-width="0.5" stroke-linecap="round" stroke-linejoin="round"/>
<path d="M38.7533 16.627L43.5059 31.057C43.58 31.0317 43.6584 31.0215 43.7364 31.0269C43.8144 31.0324 43.8906 31.0534 43.9606 31.0888C44.0306 31.1242 44.0931 31.1732 44.1444 31.2331C44.1958 31.293 44.235 31.3626 44.2598 31.4379C44.299 31.5552 44.3012 31.682 44.2662 31.8006L51.977 29.1811C51.8788 29.1076 51.8054 29.0049 51.767 28.8873C51.7171 28.7352 51.7285 28.5693 51.7988 28.4258C51.8691 28.2822 51.9925 28.1729 52.1421 28.1216L47.3894 13.6916C47.2396 13.7423 47.076 13.7305 46.9347 13.6588C46.7933 13.5872 46.6857 13.4615 46.6355 13.3094L39.1283 15.86C39.1534 15.9354 39.1636 16.015 39.1584 16.0944C39.1531 16.1738 39.1324 16.2513 39.0976 16.3226C39.0627 16.3938 39.0144 16.4574 38.9553 16.5097C38.8962 16.5619 38.8276 16.6018 38.7533 16.627Z" fill="white" stroke="#B2B2B2" stroke-width="0.5" stroke-linecap="round" stroke-linejoin="round"/>
<path d="M47.9658 23.8128C48.6591 22.4303 48.1176 20.7387 46.7564 20.0345C45.3951 19.3304 43.7295 19.8804 43.0362 21.2629C42.3429 22.6455 42.8844 24.3371 44.2457 25.0412C45.607 25.7453 47.2725 25.1954 47.9658 23.8128Z" fill="white" stroke="#B2B2B2" stroke-width="0.5" stroke-linecap="round" stroke-linejoin="round"/>
<path d="M46.976 21.502L47.2192 21.3863L47.415 21.814L47.1731 21.9284C47.2678 22.334 47.0746 22.6564 46.6317 22.867L46.5293 22.9151L46.3027 22.4224L46.4371 22.3574C46.6714 22.2469 46.7162 22.1104 46.6394 21.944C46.5626 21.7776 46.4307 21.7256 46.1978 21.8361C45.5258 22.1546 45.961 23.1907 45.0278 23.6327C44.5837 23.8433 44.2099 23.7835 43.9642 23.4494L43.7261 23.5625L43.5341 23.14L43.7722 23.0269C43.6749 22.6161 43.872 22.2911 44.3162 22.0818L44.544 21.97L44.7706 22.4627L44.5146 22.5849C44.2803 22.6954 44.2445 22.8449 44.3213 23.0061C44.3981 23.1673 44.5286 23.2362 44.7629 23.1257C45.4349 22.8072 44.9984 21.7711 45.9328 21.3291C46.368 21.1224 46.7328 21.1744 46.976 21.502Z" fill="white" stroke="#B2B2B2" stroke-width="0.5" stroke-linecap="round" stroke-linejoin="round"/>
<path d="M41.9556 12.8364L33.4042 19.2654L44.3424 34.273L52.8938 27.844L41.9556 12.8364Z" fill="white" stroke="#B2B2B2" stroke-width="0.5" stroke-linecap="round" stroke-linejoin="round"/>
<path d="M34.9312 20.0551L43.8426 32.2842C43.9302 32.2187 44.0339 32.1788 44.1423 32.1688C44.2507 32.1588 44.3598 32.1792 44.4576 32.2277C44.5555 32.2762 44.6384 32.3509 44.6974 32.4438C44.7564 32.5367 44.7892 32.6443 44.7923 32.7548L51.328 27.8408C51.2247 27.806 51.1327 27.743 51.0623 27.6586C50.9918 27.5743 50.9455 27.472 50.9285 27.3627C50.9114 27.2535 50.9243 27.1416 50.9656 27.0393C51.007 26.937 51.0752 26.8482 51.1629 26.7826L42.2515 14.56C42.124 14.6549 41.9646 14.6945 41.8084 14.6701C41.6521 14.6458 41.5118 14.5594 41.4182 14.43L35.0554 19.2127C35.1483 19.3413 35.1874 19.5021 35.1642 19.6599C35.1409 19.8177 35.0572 19.9598 34.9312 20.0551Z" fill="white" stroke="#B2B2B2" stroke-width="0.5" stroke-linecap="round" stroke-linejoin="round"/>
<path d="M44.5438 25.9852C45.8629 25.2027 46.3076 23.4822 45.5371 22.1425C44.7665 20.8028 43.0726 20.3511 41.7535 21.1337C40.4343 21.9162 39.9896 23.6367 40.7601 24.9764C41.5307 26.3161 43.2246 26.7678 44.5438 25.9852Z" fill="white" stroke="#B2B2B2" stroke-width="0.5" stroke-linecap="round" stroke-linejoin="round"/>
<path d="M44.1139 22.0142L44.2931 21.8114L44.6387 22.126L44.4595 22.3288C44.7027 22.6642 44.6502 23.0373 44.3238 23.4078L44.2483 23.4936L43.849 23.1296L43.9488 23.0165C44.1203 22.8228 44.1088 22.6785 43.9744 22.5563C43.84 22.4341 43.6992 22.438 43.5264 22.633C43.031 23.1933 43.831 23.972 43.1424 24.752C42.8147 25.1212 42.4486 25.2161 42.0941 25.0055L41.9187 25.2044L41.5731 24.8898L41.7485 24.6909C41.5002 24.3529 41.5565 23.9746 41.8842 23.6054L42.0493 23.4182L42.4486 23.7822L42.2592 23.9954C42.0864 24.1904 42.1094 24.3373 42.2438 24.4595C42.3782 24.5817 42.5242 24.5895 42.6957 24.3945C43.191 23.8329 42.391 23.0542 43.0797 22.2755C43.4035 21.9089 43.7606 21.8114 44.1139 22.0142Z" fill="white" stroke="#B2B2B2" stroke-width="0.5" stroke-linecap="round" stroke-linejoin="round"/>
<path d="M37.8802 15.9246L29.4496 22.5161L40.6644 37.3117L49.095 30.7202L37.8802 15.9246Z" fill="white" stroke="#B2B2B2" stroke-width="0.5" stroke-linecap="round" stroke-linejoin="round"/>
<path d="M30.9914 23.27L40.1293 35.3262C40.2154 35.2584 40.3182 35.2159 40.4265 35.2034C40.5348 35.191 40.6444 35.209 40.7433 35.2556C40.8421 35.3022 40.9265 35.3755 40.9871 35.4675C41.0476 35.5595 41.0821 35.6667 41.0867 35.7773L47.5302 30.7385C47.4261 30.7057 47.3329 30.6444 47.2608 30.5614C47.1887 30.4783 47.1405 30.3767 47.1215 30.2677C47.1024 30.1587 47.1133 30.0465 47.1529 29.9433C47.1925 29.8402 47.2593 29.7501 47.3459 29.6829L38.208 17.6293C38.146 17.6779 38.0752 17.7136 37.9996 17.7343C37.924 17.7551 37.8451 17.7605 37.7675 17.7502C37.6899 17.7399 37.615 17.7142 37.5471 17.6745C37.4793 17.6348 37.4198 17.5819 37.3722 17.5188L31.1002 22.4224C31.1957 22.5497 31.2379 22.7102 31.2175 22.8689C31.1971 23.0277 31.1159 23.1718 30.9914 23.27Z" fill="white" stroke="#B2B2B2" stroke-width="0.5" stroke-linecap="round" stroke-linejoin="round"/>
<path d="M42.0163 26.9804C42.2142 25.4419 41.1465 24.0319 39.6317 23.831C38.1169 23.6301 36.7286 24.7144 36.5308 26.2528C36.3329 27.7913 37.4006 29.2013 38.9154 29.4023C40.4302 29.6032 41.8185 28.5188 42.0163 26.9804Z" fill="white" stroke="#B2B2B2" stroke-width="0.5" stroke-linecap="round" stroke-linejoin="round"/>
<path d="M40.256 25.09L40.4378 24.8898L40.7782 25.2083L40.5978 25.4085C40.8371 25.7478 40.7795 26.1196 40.448 26.4862L40.3712 26.5707L39.977 26.2015L40.0781 26.0897C40.2522 25.8973 40.2432 25.753 40.1101 25.6295C39.977 25.506 39.8349 25.5073 39.6608 25.6997C39.1578 26.2548 39.9488 27.0439 39.2512 27.8135C38.9197 28.1801 38.551 28.2698 38.199 28.054L38.016 28.2464L37.6755 27.9279L37.8534 27.7316C37.609 27.3897 37.6704 27.0127 38.0019 26.6474L38.1696 26.4628L38.5638 26.8307L38.3718 27.0426C38.1978 27.235 38.2182 27.3832 38.3514 27.5067C38.4845 27.6302 38.6291 27.6367 38.8045 27.4469C39.3062 26.8931 38.5165 26.104 39.2141 25.3331C39.552 24.9717 39.9053 24.8781 40.256 25.09Z" fill="white" stroke="#B2B2B2" stroke-width="0.5" stroke-linecap="round" stroke-linejoin="round"/>
<path d="M32.0034 21.4206L26.3229 30.5572L41.8679 40.5263L47.5483 31.3897L32.0034 21.4206Z" fill="white" stroke="#B2B2B2" stroke-width="0.5" stroke-linecap="round" stroke-linejoin="round"/>
<path d="M28.032 30.7307L40.704 38.8531C40.7621 38.7596 40.8443 38.6841 40.9417 38.6347C41.0391 38.5853 41.148 38.5641 41.2565 38.5732C41.365 38.5823 41.4689 38.6215 41.557 38.6864C41.6451 38.7513 41.714 38.8396 41.7562 38.9415L46.0979 31.9592C45.9891 31.9644 45.881 31.9392 45.7854 31.8864C45.6897 31.8335 45.6102 31.7551 45.5554 31.6595C45.5006 31.5639 45.4727 31.4549 45.4747 31.3443C45.4767 31.2337 45.5085 31.1258 45.5667 31.0323L32.8947 22.9086C32.8531 22.9759 32.7988 23.0343 32.735 23.0803C32.6711 23.1263 32.5989 23.159 32.5226 23.1766C32.4463 23.1943 32.3673 23.1964 32.2901 23.183C32.213 23.1696 32.1392 23.1408 32.073 23.0984L27.849 29.8948C27.9151 29.9374 27.9724 29.9928 28.0174 30.0579C28.0624 30.123 28.0943 30.1965 28.1113 30.2742C28.1283 30.3518 28.1301 30.4321 28.1165 30.5105C28.1029 30.5888 28.0742 30.6637 28.032 30.7307Z" fill="white" stroke="#B2B2B2" stroke-width="0.5" stroke-linecap="round" stroke-linejoin="round"/>
<path d="M36.9357 33.7831C38.4633 33.7831 39.7018 32.5253 39.7018 30.9738C39.7018 29.4223 38.4633 28.1645 36.9357 28.1645C35.408 28.1645 34.1696 29.4223 34.1696 30.9738C34.1696 32.5253 35.408 33.7831 36.9357 33.7831Z" fill="white" stroke="#B2B2B2" stroke-width="0.5" stroke-linecap="round" stroke-linejoin="round"/>
<path d="M37.6397 29.315L37.7843 29.0862L38.1747 29.3462L38.0301 29.575C38.3232 29.8662 38.3296 30.2432 38.0646 30.6618L38.0045 30.758L37.5526 30.4642L37.6333 30.3342C37.7728 30.1132 37.7395 29.9728 37.5872 29.874C37.4349 29.7752 37.2966 29.8025 37.1571 30.0222C36.7552 30.6566 37.6691 31.2962 37.111 32.1763C36.8461 32.5949 36.4992 32.747 36.1165 32.5975L35.9744 32.8211L35.584 32.5611L35.7261 32.3375C35.4278 32.0437 35.424 31.6615 35.689 31.2429L35.8234 31.031L36.2739 31.3261L36.1203 31.5679C35.9808 31.7876 36.0269 31.9293 36.1779 32.0294C36.329 32.1295 36.4749 32.1113 36.6144 31.8903C37.0163 31.2572 36.1024 30.6176 36.6605 29.7375C36.9229 29.3254 37.2582 29.172 37.6397 29.315Z" fill="white" stroke="#B2B2B2" stroke-width="0.5" stroke-linecap="round" stroke-linejoin="round"/>
<path d="M28.0973 26.6035L25.0649 36.9609L42.687 42.2827L45.7194 31.9253L28.0973 26.6035Z" fill="white" stroke="#B2B2B2" stroke-width="0.5" stroke-linecap="round" stroke-linejoin="round"/>
<path d="M26.752 36.66L41.111 40.9955C41.1416 40.8891 41.2004 40.7934 41.2811 40.7187C41.3617 40.6441 41.461 40.5934 41.5682 40.5723C41.6753 40.5512 41.786 40.5605 41.8883 40.5992C41.9906 40.6378 42.0804 40.7043 42.1478 40.7914L44.4646 32.8744C44.3485 32.9122 44.2236 32.9122 44.1075 32.8744C44.0325 32.8519 43.9627 32.8146 43.9019 32.7646C43.8411 32.7147 43.7906 32.6531 43.7533 32.5833C43.716 32.5135 43.6925 32.4369 43.6844 32.358C43.6762 32.279 43.6834 32.1991 43.7056 32.123L29.3453 27.7901C29.3231 27.8663 29.2864 27.9372 29.2372 27.999C29.188 28.0607 29.1273 28.112 29.0586 28.1499C28.9899 28.1878 28.9145 28.2116 28.8368 28.2199C28.759 28.2282 28.6804 28.2209 28.6054 28.1983L26.3488 35.9047C26.4243 35.9271 26.4947 35.9644 26.556 36.0146C26.6172 36.0647 26.668 36.1267 26.7055 36.1969C26.743 36.2672 26.7664 36.3443 26.7744 36.4237C26.7824 36.5032 26.7748 36.5835 26.752 36.66Z" fill="white" stroke="#B2B2B2" stroke-width="0.5" stroke-linecap="round" stroke-linejoin="round"/>
<path d="M38.114 34.9235C38.3777 33.3952 37.3716 31.9392 35.8669 31.6714C34.3622 31.4036 32.9286 32.4254 32.6649 33.9536C32.4012 35.4818 33.4072 36.9378 34.912 37.2057C36.4167 37.4735 37.8503 36.4517 38.114 34.9235Z" fill="white" stroke="#B2B2B2" stroke-width="0.5" stroke-linecap="round" stroke-linejoin="round"/>
<path d="M35.6493 32.656L35.7312 32.396L36.1728 32.5403L36.0909 32.8003C36.4493 33.0057 36.5504 33.3684 36.4006 33.8403L36.3661 33.9495L35.8541 33.7831L35.9002 33.6388C35.9795 33.3905 35.9104 33.2631 35.7389 33.2072C35.5674 33.1513 35.4394 33.2137 35.3549 33.4672C35.1283 34.1848 36.1728 34.5631 35.8579 35.5602C35.7082 36.0334 35.4112 36.2726 35.0029 36.2271L34.9222 36.4806L34.4806 36.3376L34.5613 36.0776C34.199 35.8722 34.0979 35.5043 34.2477 35.0298L34.3232 34.7906L34.8352 34.957L34.7482 35.2313C34.6701 35.4809 34.7482 35.6057 34.921 35.6616C35.0938 35.7175 35.2294 35.6616 35.305 35.4133C35.5328 34.6957 34.4883 34.3174 34.8032 33.3203C34.9594 32.8536 35.2448 32.617 35.6493 32.656Z" fill="white" stroke="#B2B2B2" stroke-width="0.5" stroke-linecap="round" stroke-linejoin="round"/>
<path d="M43.6128 45.0104L43.6555 34.2049L25.271 34.1299L25.2283 44.9355L43.6128 45.0104Z" fill="white" stroke="#B2B2B2" stroke-width="0.5" stroke-linecap="round" stroke-linejoin="round"/>
<path d="M42.121 34.9778L27.145 34.9167C27.1449 35.0274 27.1149 35.136 27.0582 35.2306C27.0014 35.3251 26.9202 35.402 26.8233 35.4527C26.7264 35.5035 26.6176 35.5262 26.5088 35.5183C26.4001 35.5104 26.2956 35.4723 26.2067 35.4081L26.1734 43.667C26.2735 43.5957 26.393 43.5579 26.5152 43.5591C26.5934 43.5594 26.6707 43.5754 26.7428 43.6061C26.8149 43.6368 26.8803 43.6816 26.9353 43.738C26.9904 43.7944 27.0339 43.8612 27.0635 43.9347C27.0931 44.0081 27.1082 44.0868 27.1078 44.1662L42.0838 44.2273C42.0842 44.1477 42.0999 44.069 42.1302 43.9957C42.1605 43.9223 42.2047 43.8557 42.2604 43.7997C42.316 43.7437 42.3819 43.6994 42.4544 43.6692C42.5269 43.6391 42.6045 43.6238 42.6829 43.6241L42.7149 35.5849C42.6366 35.5847 42.5591 35.5689 42.4869 35.5383C42.4147 35.5077 42.3491 35.4629 42.2939 35.4065C42.2388 35.3501 42.1951 35.2832 42.1654 35.2096C42.1357 35.1361 42.1206 35.0573 42.121 34.9778Z" fill="white" stroke="#B2B2B2" stroke-width="0.5" stroke-linecap="round" stroke-linejoin="round"/>
<path d="M37.0624 40.4703C37.5509 39.0002 36.7735 37.4063 35.3261 36.9101C33.8786 36.414 32.3092 37.2035 31.8207 38.6735C31.3322 40.1436 32.1095 41.7375 33.557 42.2337C35.0044 42.7298 36.5738 41.9403 37.0624 40.4703Z" fill="white" stroke="#B2B2B2" stroke-width="0.5" stroke-linecap="round" stroke-linejoin="round"/>
<path d="M34.7277 41.353V41.6247H34.263V41.353C33.8624 41.2672 33.6563 40.9526 33.6589 40.4547V40.3403H34.1952V40.4924C34.1952 40.7524 34.2963 40.8538 34.4768 40.8551C34.6573 40.8564 34.761 40.7563 34.761 40.495C34.761 39.741 33.6563 39.6994 33.6614 38.6529C33.6614 38.1563 33.8752 37.8378 34.2771 37.7559V37.4881H34.7418V37.7546C35.1488 37.8404 35.3536 38.1602 35.351 38.6568V38.909H34.816V38.6217C34.816 38.3617 34.7046 38.2642 34.5242 38.2642C34.3437 38.2642 34.2298 38.3578 34.2285 38.6191C34.2285 39.3731 35.3344 39.4134 35.3293 40.4599C35.328 40.95 35.1245 41.2659 34.7277 41.353Z" fill="white" stroke="#B2B2B2" stroke-width="0.5" stroke-linecap="round" stroke-linejoin="round"/>
<path d="M55.9488 13.039C55.9486 12.616 56.0305 12.1971 56.1898 11.8063C56.349 11.4155 56.5826 11.0604 56.877 10.7612C57.1714 10.4621 57.521 10.2247 57.9057 10.0628C58.2905 9.90093 58.7029 9.8176 59.1194 9.8176H76.16C76.5766 9.81743 76.9891 9.90063 77.374 10.0625C77.7589 10.2243 78.1086 10.4616 78.4032 10.7607C78.6978 11.0599 78.9314 11.4151 79.0907 11.806C79.2501 12.1969 79.332 12.6159 79.3318 13.039V53.1986C79.332 53.6217 79.2501 54.0407 79.0907 54.4316C78.9314 54.8225 78.6978 55.1777 78.4032 55.4768C78.1086 55.776 77.7589 56.0133 77.374 56.1751C76.9891 56.337 76.5766 56.4202 76.16 56.42H59.1194C58.7029 56.42 58.2905 56.3367 57.9057 56.1748C57.521 56.0128 57.1714 55.7755 56.877 55.4764C56.5826 55.1772 56.349 54.8221 56.1898 54.4313C56.0305 54.0404 55.9486 53.6216 55.9488 53.1986V13.039ZM57.7024 50.8976C57.7024 52.6773 58.3654 54.119 60.1165 54.119H75.159C75.576 54.1197 75.989 54.0369 76.3744 53.8753C76.7598 53.7137 77.1101 53.4765 77.4052 53.1773C77.7003 52.8781 77.9343 52.5228 78.0941 52.1316C78.2538 51.7404 78.336 51.3211 78.336 50.8976V13.78C78.3357 12.9257 78.0014 12.1066 77.4066 11.5025C76.8119 10.8984 76.0053 10.5589 75.1642 10.5586H68.864V10.582C68.6771 11.2632 68.2483 11.7039 67.7747 11.7039H67.5008C67.0272 11.7039 66.5984 11.2632 66.4115 10.582L66.4051 10.5586H60.1165C58.368 10.5534 57.7024 11.9964 57.7024 13.78V50.8976Z" fill="#707070" stroke="#263238" stroke-linecap="round" stroke-linejoin="round"/>
<path d="M76.5978 10.5534H70.3091V10.5768C70.1235 11.258 69.6947 11.6987 69.2198 11.6987H68.9408C68.4659 11.6987 68.0371 11.258 67.8515 10.5768L67.8451 10.5534H61.5565C61.1395 10.5534 60.7266 10.6369 60.3415 10.7991C59.9563 10.9613 59.6064 11.1991 59.3118 11.4988C59.0172 11.7984 58.7837 12.1542 58.6246 12.5456C58.4655 12.9371 58.384 13.3565 58.3846 13.78V52.7202C58.3846 53.2105 58.5764 53.6807 58.9178 54.0274C59.2591 54.374 59.7221 54.5688 60.2048 54.5688H77.952C78.4347 54.5688 78.8977 54.374 79.239 54.0274C79.5804 53.6807 79.7722 53.2105 79.7722 52.7202V13.78C79.7728 13.3563 79.6912 12.9366 79.5319 12.545C79.3727 12.1534 79.1389 11.7976 78.8441 11.4978C78.5492 11.1981 78.199 10.9604 77.8135 10.7984C77.4281 10.6363 77.0149 10.5531 76.5978 10.5534Z" fill="white" stroke="#263238" stroke-linecap="round" stroke-linejoin="round"/>
<path d="M64.0563 14.3325L58.2144 21.1094V33.9547L59.9501 35.4991L72.0614 21.45L64.0563 14.3325Z" fill="white" stroke="#B2B2B2" stroke-width="0.5" stroke-linecap="round" stroke-linejoin="round"/>
<path d="M70.4192 21.2537L64.4634 15.9588C64.4119 16.0186 64.3494 16.0675 64.2793 16.1027C64.2092 16.1379 64.133 16.1586 64.0549 16.1638C63.9769 16.169 63.8987 16.1585 63.8247 16.1329C63.7507 16.1073 63.6824 16.0672 63.6237 16.0147L58.2144 22.2898V32.6898L59.6224 33.943C59.634 33.8329 59.6752 33.7282 59.7414 33.6402C59.8076 33.5523 59.8963 33.4845 59.9979 33.4443C60.0994 33.404 60.2099 33.3929 60.3173 33.4121C60.4247 33.4312 60.5248 33.48 60.6067 33.553L70.4742 22.1052C70.356 21.9995 70.2838 21.8506 70.2735 21.691C70.2632 21.5314 70.3156 21.3742 70.4192 21.2537Z" fill="white" stroke="#B2B2B2" stroke-width="0.5" stroke-linecap="round" stroke-linejoin="round"/>
<path d="M64.8125 24.975C64.8431 23.4235 63.6294 22.1405 62.1018 22.1095C60.5741 22.0785 59.3109 23.3111 59.2804 24.8626C59.2498 26.4142 60.4635 27.6971 61.9911 27.7281C63.5188 27.7591 64.782 26.5265 64.8125 24.975Z" fill="white" stroke="#B2B2B2" stroke-width="0.5" stroke-linecap="round" stroke-linejoin="round"/>
<path d="M63.447 25.9649L63.6365 26.1573L63.3088 26.4901L63.1194 26.2977C62.7763 26.5265 62.4115 26.4511 62.0659 26.1001L61.9866 26.0182L62.3706 25.6282L62.4768 25.7361C62.6586 25.922 62.8006 25.9181 62.9286 25.7881C63.0566 25.6581 63.0566 25.5151 62.8774 25.3292C62.3539 24.7962 61.5437 25.5645 60.8166 24.8222C60.471 24.4699 60.3981 24.0929 60.6246 23.7458L60.439 23.556L60.768 23.2232L60.9536 23.413C61.3005 23.1803 61.6678 23.2583 62.0134 23.6106L62.1888 23.7887L61.8048 24.1787L61.6051 23.9746C61.4234 23.7887 61.2774 23.803 61.1494 23.933C61.0214 24.063 61.0074 24.2099 61.1891 24.3958C61.7126 24.9288 62.5229 24.1605 63.2499 24.9028C63.5904 25.2512 63.6672 25.6178 63.447 25.9649Z" fill="white" stroke="#B2B2B2" stroke-width="0.5" stroke-linecap="round" stroke-linejoin="round"/>
<path d="M71.1565 18.9501L58.2144 26.7189V33.4074L60.7437 37.752L76.5709 28.2516L71.1565 18.9501Z" fill="white" stroke="#B2B2B2" stroke-width="0.5" stroke-linecap="round" stroke-linejoin="round"/>
<path d="M75.072 27.5457L71.04 20.6245C70.9039 20.7061 70.7414 20.7295 70.5882 20.6896C70.4351 20.6496 70.3039 20.5495 70.2234 20.4113L58.2144 27.6224V31.538L60.9114 36.1725C60.9562 36.0717 61.0274 35.9854 61.1173 35.9229C61.2072 35.8605 61.3122 35.8243 61.4209 35.8184C61.5297 35.8125 61.6379 35.8371 61.7338 35.8894C61.8298 35.9418 61.9097 36.0199 61.9648 36.1153L74.8621 28.3738C74.8221 28.3055 74.7959 28.2298 74.7848 28.1512C74.7737 28.0725 74.7781 27.9924 74.7976 27.9154C74.8171 27.8385 74.8514 27.7662 74.8985 27.7028C74.9456 27.6393 75.0045 27.5859 75.072 27.5457Z" fill="white" stroke="#B2B2B2" stroke-width="0.5" stroke-linecap="round" stroke-linejoin="round"/>
<path d="M68.6355 29.0229C69.0005 27.5163 68.0937 25.9945 66.6103 25.6239C65.1268 25.2532 63.6284 26.1742 63.2635 27.6808C62.8986 29.1874 63.8054 30.7092 65.2888 31.0798C66.7722 31.4504 68.2706 30.5295 68.6355 29.0229Z" fill="white" stroke="#B2B2B2" stroke-width="0.5" stroke-linecap="round" stroke-linejoin="round"/>
<path d="M66.944 29.8519L67.0554 30.1002L66.633 30.2952L66.5216 30.0469C66.1222 30.1392 65.8061 29.9403 65.6038 29.4879L65.5565 29.3826L66.0442 29.1577L66.1069 29.2955C66.2131 29.5347 66.3475 29.5815 66.5114 29.5061C66.6752 29.4307 66.729 29.2955 66.6227 29.0576C66.3155 28.3712 65.2915 28.7976 64.8653 27.8512C64.663 27.3988 64.7245 27.0192 65.0573 26.7735L64.9485 26.5304L65.3696 26.3354L65.4784 26.5785C65.8842 26.4836 66.2016 26.6877 66.4038 27.1401L66.5062 27.3689L66.0186 27.5951L65.9008 27.3351C65.7946 27.0972 65.6525 27.0582 65.4886 27.1349C65.3248 27.2116 65.2595 27.3442 65.3606 27.5821C65.6678 28.2685 66.6918 27.8356 67.1181 28.7885C67.328 29.2344 67.2717 29.6049 66.944 29.8519Z" fill="white" stroke="#B2B2B2" stroke-linecap="round" stroke-linejoin="round"/>
<path d="M76.1062 23.9252L58.2144 27.1375V28.3959L59.8541 37.8157L77.9571 34.5657L76.1062 23.9252Z" fill="white" stroke="#B2B2B2" stroke-width="0.5" stroke-linecap="round" stroke-linejoin="round"/>
<path d="M74.7302 24.96L59.9795 27.6107C60.0067 27.7688 59.971 27.9313 59.8803 28.0627C59.7896 28.194 59.6513 28.2835 59.4957 28.3114C59.3759 28.3327 59.2525 28.3159 59.1424 28.2633L60.5568 36.4C60.6338 36.3217 60.7304 36.2664 60.8362 36.24C60.9421 36.2137 61.0529 36.2173 61.1569 36.2506C61.2608 36.2838 61.3537 36.3454 61.4255 36.4286C61.4973 36.5118 61.5453 36.6134 61.5642 36.7224L76.3162 34.0743C76.3025 33.9961 76.3042 33.9159 76.3211 33.8384C76.3379 33.7609 76.3697 33.6875 76.4145 33.6224C76.4593 33.5573 76.5163 33.5019 76.5822 33.4592C76.6482 33.4165 76.7217 33.3874 76.7987 33.3736L75.4214 25.4566C75.3439 25.4704 75.2645 25.4685 75.1877 25.4509C75.1109 25.4334 75.0383 25.4006 74.974 25.3544C74.9098 25.3083 74.8552 25.2497 74.8133 25.182C74.7715 25.1143 74.7432 25.0388 74.7302 24.96Z" fill="white" stroke="#B2B2B2" stroke-width="0.5" stroke-linecap="round" stroke-linejoin="round"/>
<path d="M70.2347 32.5062C71.1212 31.2426 70.8312 29.4884 69.5871 28.5881C68.3429 27.6878 66.6157 27.9823 65.7292 29.2459C64.8428 30.5095 65.1327 32.2637 66.3769 33.164C67.6211 34.0643 69.3483 33.7698 70.2347 32.5062Z" fill="white" stroke="#B2B2B2" stroke-linecap="round" stroke-linejoin="round"/>
<path d="M68.5594 32.5897L68.6016 32.8588L68.1446 32.9342L68.1011 32.6651C67.6915 32.6482 67.4381 32.3713 67.36 31.8851L67.3421 31.7707L67.8707 31.6836L67.895 31.8331C67.936 32.0931 68.0538 32.1737 68.2317 32.1438C68.4096 32.1139 68.4954 31.9995 68.4544 31.7408C68.3354 30.9972 67.2358 31.1415 67.0707 30.108C66.9914 29.6179 67.1501 29.2682 67.5341 29.12L67.4918 28.86L67.9488 28.7846L67.991 29.0446C68.4058 29.0602 68.6605 29.3423 68.7386 29.8337L68.7782 30.0807L68.2496 30.1691L68.2035 29.8844C68.1626 29.6244 68.0358 29.5516 67.8579 29.5802C67.68 29.6088 67.5827 29.7219 67.6237 29.9806C67.7427 30.7242 68.8422 30.5799 69.0074 31.6134C69.0854 32.0944 68.937 32.4376 68.5594 32.5897Z" fill="white" stroke="#B2B2B2" stroke-linecap="round" stroke-linejoin="round"/>
<path d="M78.534 37.9866L78.5266 27.181L60.142 27.1941L60.1494 37.9996L78.534 37.9866Z" fill="#92E3A9" stroke="#263238" stroke-width="0.5" stroke-linecap="round" stroke-linejoin="round"/>
<path d="M76.9907 27.9591L62.0147 27.9682C62.015 28.079 61.9854 28.1877 61.929 28.2825C61.8726 28.3773 61.7916 28.4546 61.6949 28.5058C61.5982 28.557 61.4895 28.5803 61.3807 28.5731C61.2718 28.5659 61.1671 28.5284 61.0778 28.4648V36.7237C61.1668 36.6597 61.2714 36.6219 61.3802 36.6143C61.4889 36.6067 61.5977 36.6297 61.6944 36.6807C61.7912 36.7318 61.8723 36.8089 61.9288 36.9036C61.9853 36.9983 62.015 37.107 62.0147 37.2177L76.9907 37.2086C76.9907 37.0482 77.0534 36.8943 77.165 36.7807C77.2766 36.6671 77.4279 36.6031 77.5859 36.6028V28.5636C77.4282 28.5633 77.277 28.4995 77.1654 28.3862C77.0539 28.2729 76.9911 28.1193 76.9907 27.9591Z" fill="white" stroke="#263238" stroke-width="0.5" stroke-miterlimit="10"/>
<path d="M69.8739 35.3407C71.3721 35.0375 72.3446 33.5581 72.046 32.0365C71.7475 30.5149 70.2909 29.5272 68.7927 29.8304C67.2945 30.1336 66.322 31.613 66.6205 33.1346C66.9191 34.6562 68.3757 35.6439 69.8739 35.3407Z" fill="#263238"/>
<path d="M69.632 34.3694V34.6411H69.1686V34.3694C68.7667 34.2862 68.5606 33.9716 68.5594 33.475V33.3593H69.0957V33.5114C69.0957 33.7714 69.1994 33.8728 69.3798 33.8715C69.5603 33.8702 69.6627 33.7727 69.6627 33.5114C69.6627 32.7574 68.5542 32.721 68.5542 31.6745C68.5542 31.1766 68.7642 30.8581 69.1661 30.7736V30.5071H69.6294V30.7736C70.0365 30.8568 70.2426 31.1766 70.2426 31.6732V31.9241H69.7075V31.6355C69.7075 31.3755 69.5949 31.2793 69.4144 31.2806C69.2339 31.2819 69.12 31.3742 69.12 31.6355C69.12 32.3895 70.2285 32.4259 70.2298 33.4724C70.2234 33.9651 70.0224 34.2797 69.632 34.3694Z" fill="white"/>
<path d="M68.9024 45.76C70.3162 45.76 71.4624 44.5959 71.4624 43.16C71.4624 41.7241 70.3162 40.56 68.9024 40.56C67.4885 40.56 66.3424 41.7241 66.3424 43.16C66.3424 44.5959 67.4885 45.76 68.9024 45.76Z" fill="#263238" stroke="#263238" stroke-width="0.1" stroke-miterlimit="10"/>
<path d="M69.1584 44.46L67.6992 42.484C67.6689 42.443 67.6469 42.3964 67.6344 42.3468C67.6219 42.2972 67.6191 42.2456 67.6263 42.1949C67.6334 42.1442 67.6503 42.0954 67.676 42.0513C67.7017 42.0072 67.7357 41.9687 67.776 41.938C67.8163 41.9073 67.8623 41.8849 67.9111 41.8722C67.96 41.8595 68.0108 41.8567 68.0607 41.8639C68.1106 41.8712 68.1587 41.8883 68.202 41.9144C68.2454 41.9405 68.2833 41.975 68.3136 42.016L69.1584 43.16L71.1552 40.456C71.2163 40.3733 71.3073 40.3186 71.4081 40.3039C71.5089 40.2893 71.6113 40.3159 71.6928 40.378C71.7743 40.4401 71.8281 40.5325 71.8425 40.6349C71.8569 40.7372 71.8307 40.8413 71.7696 40.924L69.1584 44.46Z" fill="#92E3A9" stroke="#263238" stroke-width="0.1" stroke-linecap="round" stroke-linejoin="round"/>
<path d="M79.7696 15.08V13.78C79.7696 12.9256 79.4354 12.1063 78.8406 11.5021C78.2457 10.898 77.439 10.5586 76.5978 10.5586H70.3091V10.582C70.1235 11.2632 69.6947 11.7039 69.2198 11.7039H68.9408C68.4659 11.7039 68.0371 11.2632 67.8515 10.582L67.8451 10.5586H61.5565C60.7153 10.5586 59.9085 10.898 59.3137 11.5021C58.7188 12.1063 58.3846 12.9256 58.3846 13.78V15.08H79.7696Z" fill="#92E3A9" stroke="#263238" stroke-linecap="round" stroke-linejoin="round"/>
<path d="M58.3846 51.87V52.7202C58.3846 53.2105 58.5764 53.6807 58.9178 54.0274C59.2591 54.374 59.7221 54.5688 60.2048 54.5688H77.952C78.4347 54.5688 78.8977 54.374 79.239 54.0274C79.5804 53.6807 79.7722 53.2105 79.7722 52.7202V51.87H58.3846Z" fill="#92E3A9" stroke="#263238" stroke-linecap="round" stroke-linejoin="round"/>
<path d="M80.768 13.039C80.7682 12.6159 80.6862 12.1969 80.5269 11.806C80.3676 11.4151 80.1339 11.0599 79.8394 10.7607C79.5448 10.4616 79.1951 10.2243 78.8102 10.0625C78.4253 9.90063 78.0127 9.81743 77.5962 9.8176H60.5594C59.7181 9.8176 58.9114 10.157 58.3165 10.7611C57.7217 11.3653 57.3875 12.1846 57.3875 13.039V53.1986C57.3875 54.053 57.7217 54.8723 58.3165 55.4765C58.9114 56.0806 59.7181 56.42 60.5594 56.42H77.5949C78.0116 56.4203 78.4242 56.3373 78.8093 56.1755C79.1943 56.0138 79.5442 55.7765 79.8389 55.4773C80.1336 55.1781 80.3674 54.8229 80.5268 54.4319C80.6862 54.0409 80.7682 53.6218 80.768 53.1986V13.039ZM79.7696 50.8976C79.7698 51.3207 79.6878 51.7397 79.5285 52.1306C79.3692 52.5215 79.1355 52.8767 78.841 53.1759C78.5464 53.475 78.1967 53.7123 77.8118 53.8741C77.4269 54.036 77.0143 54.1192 76.5978 54.119H61.5565C61.1399 54.1192 60.7274 54.036 60.3425 53.8741C59.9576 53.7123 59.6078 53.475 59.3133 53.1759C59.0187 52.8767 58.7851 52.5215 58.6257 52.1306C58.4664 51.7397 58.3845 51.3207 58.3846 50.8976V13.78C58.3846 12.9256 58.7188 12.1063 59.3137 11.5021C59.9085 10.898 60.7153 10.5586 61.5565 10.5586H67.84L67.8464 10.582C68.032 11.2632 68.4608 11.7039 68.9357 11.7039H69.2083C69.6832 11.7039 70.112 11.2632 70.2976 10.582V10.5586H76.5862C77.0037 10.5571 77.4174 10.6392 77.8036 10.8004C78.1897 10.9616 78.5408 11.1987 78.8365 11.498C79.1323 11.7973 79.3669 12.1529 79.5271 12.5445C79.6872 12.9361 79.7696 13.356 79.7696 13.78V50.8976Z" fill="#707070" stroke="#263238" stroke-linecap="round" stroke-linejoin="round"/>
<path d="M77.0394 10.2609H61.1149C60.2238 10.2609 59.3691 10.6204 58.739 11.2604C58.1089 11.9004 57.7549 12.7683 57.7549 13.6734V52.5642C57.7549 53.0123 57.8418 53.4561 58.0106 53.8701C58.1795 54.2841 58.427 54.6603 58.739 54.9772C59.051 55.2941 59.4214 55.5454 59.8291 55.7169C60.2367 55.8884 60.6736 55.9767 61.1149 55.9767H77.0394C77.4806 55.9767 77.9175 55.8884 78.3252 55.7169C78.7328 55.5454 79.1032 55.2941 79.4152 54.9772C79.7272 54.6603 79.9747 54.2841 80.1436 53.8701C80.3124 53.4561 80.3994 53.0123 80.3994 52.5642V13.6734C80.3994 12.7683 80.0454 11.9004 79.4152 11.2604C78.7851 10.6204 77.9305 10.2609 77.0394 10.2609ZM79.7696 50.8976C79.7698 51.3207 79.6878 51.7397 79.5285 52.1306C79.3692 52.5215 79.1355 52.8767 78.841 53.1759C78.5464 53.475 78.1967 53.7123 77.8118 53.8741C77.4269 54.036 77.0143 54.1192 76.5978 54.119H61.5565C61.1399 54.1192 60.7274 54.036 60.3425 53.8741C59.9576 53.7123 59.6078 53.475 59.3133 53.1759C59.0187 52.8767 58.7851 52.5215 58.6257 52.1306C58.4664 51.7397 58.3845 51.3207 58.3846 50.8976V13.78C58.3846 12.9256 58.7188 12.1063 59.3137 11.5021C59.9085 10.898 60.7153 10.5586 61.5565 10.5586H67.84L67.8464 10.582C68.032 11.2632 68.4608 11.7039 68.9357 11.7039H69.2083C69.6832 11.7039 70.112 11.2632 70.2976 10.582V10.5586H76.5862C77.0037 10.5571 77.4174 10.6392 77.8036 10.8004C78.1897 10.9616 78.5408 11.1987 78.8365 11.498C79.1323 11.7973 79.3669 12.1529 79.5271 12.5445C79.6872 12.9361 79.7696 13.356 79.7696 13.78V50.8976Z" fill="#263238" stroke="#263238" stroke-linecap="round" stroke-linejoin="round"/>
<path d="M69.3094 10.7081C69.3094 10.6481 69.2919 10.5895 69.2591 10.5397C69.2263 10.4898 69.1796 10.451 69.125 10.4281C69.0705 10.4052 69.0104 10.3993 68.9525 10.4111C68.8947 10.4229 68.8415 10.4519 68.7999 10.4944C68.7582 10.5369 68.7299 10.591 68.7185 10.6498C68.7072 10.7086 68.7133 10.7696 68.736 10.8249C68.7588 10.8802 68.7972 10.9275 68.8464 10.9606C68.8956 10.9937 68.9534 11.0113 69.0125 11.011C69.0516 11.011 69.0903 11.0032 69.1264 10.9879C69.1625 10.9727 69.1953 10.9503 69.2229 10.9222C69.2505 10.8941 69.2724 10.8607 69.2872 10.8239C69.302 10.7872 69.3096 10.7478 69.3094 10.7081Z" fill="#707070"/>
<path d="M60.288 11.8664C60.288 12.1732 59.9488 12.2824 59.9475 12.5164V12.532H60.2765V12.6347H59.8374V12.5489C59.8374 12.2213 60.1766 12.1589 60.1766 11.8716C60.1766 11.7663 60.1421 11.7117 60.0589 11.7117C59.9757 11.7117 59.9424 11.7715 59.9424 11.8612V11.9509H59.8374V11.8677C59.8374 11.713 59.9078 11.6077 60.0627 11.6077C60.2176 11.6077 60.288 11.7117 60.288 11.8664Z" fill="#263238"/>
<path d="M60.832 11.8651V11.8911C60.8371 11.9347 60.828 11.9788 60.806 12.0166C60.7841 12.0544 60.7505 12.0839 60.7104 12.1004C60.7506 12.1171 60.7842 12.1468 60.8062 12.1849C60.8281 12.2229 60.8372 12.2672 60.832 12.311V12.389C60.832 12.5437 60.7603 12.649 60.6067 12.649C60.4531 12.649 60.3827 12.5476 60.3827 12.389V12.3188H60.4864V12.3955C60.4864 12.4878 60.5235 12.5424 60.6042 12.5424C60.6848 12.5424 60.7206 12.4891 60.7206 12.3864V12.3071C60.7206 12.207 60.6797 12.1602 60.5926 12.1563H60.5325V12.0549H60.5978C60.6151 12.0551 60.6322 12.0514 60.648 12.0443C60.6638 12.0371 60.6779 12.0266 60.6893 12.0134C60.7007 12.0001 60.7092 11.9846 60.7142 11.9678C60.7191 11.9509 60.7205 11.9332 60.7181 11.9158V11.8703C60.7181 11.765 60.6822 11.7117 60.6016 11.7117C60.521 11.7117 60.4838 11.7689 60.4838 11.8599V11.9119H60.3802V11.8651C60.3802 11.7104 60.4506 11.6051 60.6042 11.6051C60.7578 11.6051 60.832 11.7104 60.832 11.8651Z" fill="#263238"/>
<path d="M61.0483 11.9418V12.09H60.9408V11.9418H61.0483ZM61.0483 12.4943V12.6347H60.9408V12.4943H61.0483Z" fill="#263238"/>
<path d="M61.2736 12.0341C61.2879 12.0071 61.3095 11.9849 61.3357 11.9699C61.362 11.955 61.392 11.9479 61.4221 11.9496C61.5501 11.9496 61.6077 12.0458 61.6077 12.1901V12.389C61.6077 12.5437 61.5347 12.649 61.3824 12.649C61.2301 12.649 61.1571 12.5476 61.1571 12.389V12.3201H61.2621V12.3955C61.2621 12.4878 61.2992 12.5424 61.3786 12.5424C61.4579 12.5424 61.4963 12.4878 61.4963 12.3955V12.1992C61.4963 12.1082 61.4592 12.0523 61.3786 12.0523C61.364 12.0516 61.3495 12.0539 61.3358 12.0591C61.3222 12.0642 61.3097 12.0722 61.2992 12.0824C61.2887 12.0926 61.2803 12.1049 61.2746 12.1185C61.2688 12.1321 61.2659 12.1467 61.2659 12.1615V12.1849H61.1622L61.1891 11.6207H61.5834V11.7221H61.289L61.2736 12.0341Z" fill="#263238"/>
<path d="M62.1632 11.8638V11.8833H62.0582V11.8573C62.0582 11.765 62.0211 11.7117 61.9405 11.7117C61.8598 11.7117 61.8125 11.7663 61.8125 11.8755V12.103C61.8243 12.0697 61.8464 12.0413 61.8755 12.0218C61.9045 12.0024 61.939 11.993 61.9738 11.9951C62.1018 11.9951 62.1594 12.0887 62.1594 12.2356V12.389C62.1594 12.5437 62.0838 12.649 61.9315 12.649C61.7792 12.649 61.7011 12.5476 61.7011 12.389V11.869C61.7011 11.7078 61.7728 11.609 61.9315 11.609C62.0902 11.609 62.1632 11.7091 62.1632 11.8638ZM61.824 12.2434V12.3955C61.824 12.4878 61.8611 12.5424 61.943 12.5424C62.025 12.5424 62.0608 12.4878 62.0608 12.3955V12.2434C62.0608 12.1524 62.0224 12.0978 61.943 12.0978C61.8637 12.0978 61.824 12.1524 61.824 12.2434Z" fill="#263238"/>
<path d="M73.0714 11.908H72.7898V12.6243H73.0714V11.908Z" fill="#263238"/>
<path d="M73.4477 11.765H73.1661V12.6243H73.4477V11.765Z" fill="#263238"/>
<path d="M73.824 11.6636H73.5424V12.6256H73.824V11.6636Z" fill="#263238"/>
<path d="M74.2003 11.4855H73.9187V12.6243H74.2003V11.4855Z" fill="#263238"/>
<path d="M77.696 12.61H76V11.5544H77.696V12.61ZM76.0973 12.5151H77.6026V11.6506H76.0934L76.0973 12.5151Z" fill="#263238"/>
<path d="M77.129 11.7546H76.2355V12.4059H77.129V11.7546Z" fill="#263238"/>
<path d="M77.847 11.9561H77.6346V12.2031H77.847V11.9561Z" fill="#263238"/>
<path d="M75.3792 12.3773C75.368 12.3769 75.357 12.3738 75.3472 12.3682C75.0016 12.1602 74.775 12.3526 74.7648 12.3604C74.7591 12.3664 74.7522 12.3712 74.7446 12.3745C74.737 12.3777 74.7289 12.3794 74.7206 12.3794C74.7124 12.3794 74.7042 12.3777 74.6967 12.3745C74.6891 12.3712 74.6822 12.3664 74.6765 12.3604C74.6648 12.3485 74.6583 12.3323 74.6583 12.3155C74.6583 12.2987 74.6648 12.2826 74.6765 12.2707C74.6893 12.2603 74.9798 12.0107 75.4061 12.2707C75.4175 12.2782 75.4263 12.2891 75.4312 12.302C75.4361 12.3149 75.4368 12.3291 75.4332 12.3424C75.4296 12.3557 75.422 12.3676 75.4114 12.3762C75.4007 12.3848 75.3877 12.3897 75.3741 12.3903L75.3792 12.3773Z" fill="#263238"/>
<path d="M75.5059 12.1615C75.4947 12.1609 75.4838 12.1578 75.4739 12.1524C74.976 11.8508 74.6406 12.142 74.6381 12.1446C74.6261 12.1565 74.61 12.1632 74.5933 12.1632C74.5765 12.1632 74.5604 12.1565 74.5485 12.1446C74.5429 12.1382 74.5387 12.1308 74.536 12.1228C74.5333 12.1147 74.5322 12.1062 74.5328 12.0977C74.5334 12.0892 74.5356 12.081 74.5394 12.0734C74.5432 12.0658 74.5485 12.0591 74.5549 12.0536C74.5549 12.0536 74.9619 11.6987 75.5392 12.0471C75.5534 12.0557 75.5637 12.0698 75.5678 12.0861C75.5719 12.1024 75.5694 12.1197 75.561 12.1342C75.5548 12.1431 75.5465 12.1502 75.5369 12.155C75.5273 12.1597 75.5166 12.162 75.5059 12.1615Z" fill="#263238"/>
<path d="M75.6224 11.9106C75.6111 11.911 75.5999 11.9078 75.5904 11.9015C74.9594 11.5206 74.5395 11.8794 74.5216 11.9015C74.5159 11.9075 74.509 11.9123 74.5014 11.9156C74.4938 11.9188 74.4857 11.9205 74.4774 11.9205C74.4692 11.9205 74.461 11.9188 74.4535 11.9156C74.4459 11.9123 74.439 11.9075 74.4333 11.9015C74.4216 11.8896 74.4151 11.8734 74.4151 11.8566C74.4151 11.8398 74.4216 11.8237 74.4333 11.8118C74.4333 11.8118 74.9363 11.3737 75.6493 11.804C75.6565 11.8083 75.6628 11.814 75.6678 11.8208C75.6728 11.8276 75.6765 11.8353 75.6785 11.8435C75.6805 11.8518 75.6809 11.8603 75.6796 11.8687C75.6783 11.8771 75.6754 11.8852 75.671 11.8924C75.6648 11.8989 75.6572 11.9039 75.6488 11.9071C75.6403 11.9102 75.6313 11.9114 75.6224 11.9106Z" fill="#263238"/>
<path d="M75.1885 12.48C75.1885 12.5227 75.1718 12.5637 75.142 12.594C75.1122 12.6242 75.0719 12.6412 75.0298 12.6412C74.9877 12.6412 74.9473 12.6242 74.9175 12.594C74.8878 12.5637 74.871 12.5227 74.871 12.48C74.871 12.4372 74.8878 12.3962 74.9175 12.366C74.9473 12.3358 74.9877 12.3188 75.0298 12.3188C75.0719 12.3188 75.1122 12.3358 75.142 12.366C75.1718 12.3962 75.1885 12.4372 75.1885 12.48Z" fill="#263238"/>
<path d="M56.8538 17.9621H56.1882V20.6284H56.8538V17.9621Z" fill="#263238" stroke="#263238" stroke-linecap="round" stroke-linejoin="round"/>
<path d="M41.472 13.039C41.472 12.1846 41.1378 11.3653 40.543 10.7611C39.9482 10.157 39.1414 9.8176 38.3002 9.8176H21.2672C20.8506 9.81743 20.4381 9.90063 20.0532 10.0625C19.6683 10.2243 19.3186 10.4616 19.024 10.7607C18.7294 11.0599 18.4958 11.4151 18.3365 11.806C18.1771 12.1969 18.0952 12.6159 18.0954 13.039V53.1986C18.0952 53.6217 18.1771 54.0407 18.3365 54.4316C18.4958 54.8225 18.7294 55.1777 19.024 55.4768C19.3186 55.776 19.6683 56.0133 20.0532 56.1751C20.4381 56.337 20.8506 56.4202 21.2672 56.42H38.3027C39.1435 56.4193 39.9496 56.0796 40.5439 55.4756C41.1382 54.8715 41.472 54.0525 41.472 53.1986V13.039ZM39.7197 50.8976C39.7197 52.6773 39.0579 54.119 37.3056 54.119H22.2643C21.8477 54.1192 21.4352 54.036 21.0503 53.8741C20.6654 53.7123 20.3157 53.475 20.0211 53.1759C19.7265 52.8767 19.4929 52.5215 19.3336 52.1306C19.1742 51.7397 19.0923 51.3207 19.0925 50.8976V13.78C19.0925 12.9256 19.4267 12.1063 20.0215 11.5021C20.6163 10.898 21.4231 10.5586 22.2643 10.5586H28.553L28.5594 10.582C28.745 11.2632 29.1738 11.7039 29.6486 11.7039H29.9213C30.3962 11.7039 30.825 11.2632 31.0106 10.582V10.5586H37.2992C39.0515 10.5586 39.7133 12.0016 39.7133 13.78L39.7197 50.8976Z" fill="#707070" stroke="#263238" stroke-width="0.5" stroke-linecap="round" stroke-linejoin="round"/>
<path d="M36.096 10.5534H29.8099V10.5768C29.6179 11.258 29.184 11.7 28.7142 11.7H28.4416C27.9667 11.7 27.5379 11.2593 27.3523 10.5781L27.3459 10.5547H21.0573C20.6404 10.5547 20.2277 10.6382 19.8426 10.8003C19.4575 10.9624 19.1077 11.2001 18.8131 11.4996C18.5185 11.7992 18.285 12.1547 18.1258 12.546C17.9666 12.9373 17.8849 13.3566 17.8854 13.78V52.7202C17.8854 52.9635 17.9327 53.2044 18.0246 53.4291C18.1165 53.6538 18.2511 53.8579 18.4208 54.0297C18.5905 54.2014 18.7919 54.3374 19.0135 54.43C19.2351 54.5225 19.4724 54.5697 19.712 54.5688H37.4502C37.933 54.5688 38.3959 54.374 38.7373 54.0274C39.0786 53.6807 39.2704 53.2105 39.2704 52.7202V13.78C39.2711 13.3563 39.1894 12.9366 39.0302 12.545C38.8709 12.1534 38.6372 11.7976 38.3423 11.4978C38.0474 11.1981 37.6972 10.9604 37.3118 10.7984C36.9263 10.6363 36.5132 10.5531 36.096 10.5534Z" fill="white" stroke="#263238" stroke-width="0.5" stroke-linecap="round" stroke-linejoin="round"/>
<g opacity="0.2">
<path d="M22.2323 15.0813V21.7789L20.6374 23.4V32.3674" stroke="black" stroke-width="0.5" stroke-miterlimit="10"/>
<path d="M24.128 15.1775V18.9605L22.3014 20.9586" stroke="black" stroke-width="0.5" stroke-miterlimit="10"/>
<path d="M23.2845 19.8874V24.8833" stroke="black" stroke-width="0.5" stroke-miterlimit="10"/>
<path d="M25.6742 15.106V22.529" stroke="black" stroke-width="0.5" stroke-miterlimit="10"/>
<path d="M20.6374 32.9706C20.7873 32.9706 20.9088 32.8472 20.9088 32.695C20.9088 32.5428 20.7873 32.4194 20.6374 32.4194C20.4876 32.4194 20.3661 32.5428 20.3661 32.695C20.3661 32.8472 20.4876 32.9706 20.6374 32.9706Z" stroke="black" stroke-width="0.5" stroke-miterlimit="10"/>
<path d="M23.552 25.09C23.552 25.0355 23.5361 24.9822 23.5063 24.9369C23.4764 24.8916 23.4341 24.8562 23.3845 24.8354C23.3349 24.8145 23.2803 24.8091 23.2277 24.8197C23.1751 24.8303 23.1267 24.8566 23.0888 24.8951C23.0508 24.9337 23.025 24.9828 23.0145 25.0362C23.004 25.0897 23.0094 25.1451 23.0299 25.1955C23.0505 25.2458 23.0853 25.2889 23.1299 25.3192C23.1745 25.3494 23.227 25.3656 23.2806 25.3656C23.3526 25.3656 23.4216 25.3366 23.4725 25.2849C23.5234 25.2332 23.552 25.1631 23.552 25.09V25.09Z" stroke="black" stroke-width="0.5" stroke-miterlimit="10"/>
<path d="M25.9264 22.8553C25.9264 22.8008 25.9105 22.7475 25.8807 22.7022C25.8508 22.6569 25.8085 22.6215 25.7589 22.6007C25.7093 22.5798 25.6547 22.5744 25.6021 22.585C25.5495 22.5956 25.5011 22.6219 25.4632 22.6604C25.4252 22.699 25.3994 22.7481 25.3889 22.8015C25.3784 22.855 25.3838 22.9104 25.4043 22.9608C25.4249 23.0111 25.4597 23.0542 25.5043 23.0845C25.5489 23.1147 25.6014 23.1309 25.655 23.1309C25.727 23.1309 25.796 23.1019 25.8469 23.0502C25.8978 22.9985 25.9264 22.9284 25.9264 22.8553V22.8553Z" stroke="black" stroke-width="0.5" stroke-miterlimit="10"/>
</g>
<g opacity="0.2">
<path d="M34.281 15.0813V21.7789L35.8771 23.4V32.3674" stroke="black" stroke-width="0.5" stroke-miterlimit="10"/>
<path d="M32.3853 15.1775V18.9605L34.2131 20.9586" stroke="black" stroke-width="0.5" stroke-miterlimit="10"/>
<path d="M33.2288 19.8874V24.8833" stroke="black" stroke-width="0.5" stroke-miterlimit="10"/>
<path d="M30.8403 15.106V22.529" stroke="black" stroke-width="0.5" stroke-miterlimit="10"/>
<path d="M35.6058 32.695C35.6058 32.6405 35.6217 32.5872 35.6515 32.5419C35.6813 32.4966 35.7237 32.4612 35.7733 32.4404C35.8229 32.4195 35.8774 32.4141 35.9301 32.4247C35.9827 32.4353 36.031 32.4616 36.069 32.5001C36.1069 32.5387 36.1328 32.5878 36.1433 32.6412C36.1537 32.6947 36.1484 32.7501 36.1278 32.8005C36.1073 32.8508 36.0725 32.8939 36.0279 32.9242C35.9833 32.9544 35.9308 32.9706 35.8771 32.9706C35.8414 32.9708 35.8061 32.9638 35.7731 32.95C35.7401 32.9362 35.7101 32.9159 35.6849 32.8903C35.6596 32.8646 35.6396 32.8342 35.6261 32.8007C35.6125 32.7672 35.6056 32.7312 35.6058 32.695V32.695Z" stroke="black" stroke-width="0.5" stroke-miterlimit="10"/>
<path d="M33.2365 25.3591C33.3863 25.3591 33.5078 25.2357 33.5078 25.0835C33.5078 24.9313 33.3863 24.8079 33.2365 24.8079C33.0866 24.8079 32.9651 24.9313 32.9651 25.0835C32.9651 25.2357 33.0866 25.3591 33.2365 25.3591Z" stroke="black" stroke-width="0.5" stroke-miterlimit="10"/>
<path d="M30.592 22.8553C30.592 22.8008 30.6079 22.7475 30.6377 22.7022C30.6675 22.6569 30.7099 22.6215 30.7595 22.6007C30.8091 22.5798 30.8637 22.5744 30.9163 22.585C30.9689 22.5956 31.0173 22.6219 31.0552 22.6604C31.0932 22.699 31.119 22.7481 31.1295 22.8015C31.14 22.855 31.1346 22.9104 31.1141 22.9608C31.0935 23.0111 31.0587 23.0542 31.0141 23.0845C30.9695 23.1147 30.917 23.1309 30.8634 23.1309C30.7914 23.1309 30.7224 23.1019 30.6715 23.0502C30.6206 22.9985 30.592 22.9284 30.592 22.8553V22.8553Z" stroke="black" stroke-width="0.5" stroke-miterlimit="10"/>
</g>
<path d="M39.2704 15.08V13.78C39.2711 13.3563 39.1894 12.9366 39.0302 12.545C38.8709 12.1534 38.6372 11.7976 38.3423 11.4978C38.0474 11.1981 37.6972 10.9604 37.3118 10.7984C36.9263 10.6363 36.5132 10.5531 36.096 10.5534H29.8099V10.5768C29.6179 11.258 29.184 11.7 28.7142 11.7H28.4416C27.9667 11.7 27.5379 11.2593 27.3523 10.5781L27.3459 10.5547H21.0573C20.6404 10.5547 20.2277 10.6382 19.8426 10.8003C19.4575 10.9624 19.1077 11.2001 18.8131 11.4996C18.5185 11.7992 18.285 12.1547 18.1258 12.546C17.9666 12.9373 17.8849 13.3566 17.8854 13.78V15.08H39.2704Z" fill="#92E3A9" stroke="#263238" stroke-width="0.5" stroke-linecap="round" stroke-linejoin="round"/>
<path d="M17.8854 51.87V52.7202C17.8854 52.9635 17.9327 53.2044 18.0246 53.4291C18.1165 53.6538 18.2511 53.8579 18.4208 54.0297C18.5905 54.2014 18.7919 54.3374 19.0135 54.43C19.2351 54.5225 19.4724 54.5697 19.712 54.5688H37.4502C37.933 54.5688 38.3959 54.374 38.7373 54.0274C39.0786 53.6807 39.2704 53.2105 39.2704 52.7202V51.87H17.8854Z" fill="#92E3A9" stroke="#263238" stroke-width="0.5" stroke-linecap="round" stroke-linejoin="round"/>
<path d="M40.2675 13.039C40.2677 12.6159 40.1858 12.1969 40.0264 11.806C39.8671 11.4151 39.6335 11.0599 39.3389 10.7607C39.0443 10.4616 38.6946 10.2243 38.3097 10.0625C37.9248 9.90063 37.5123 9.81743 37.0957 9.8176H20.0602C19.2189 9.8176 18.4122 10.157 17.8173 10.7611C17.2225 11.3653 16.8883 12.1846 16.8883 13.039V53.1986C16.8883 54.053 17.2225 54.8723 17.8173 55.4765C18.4122 56.0806 19.2189 56.42 20.0602 56.42H37.0957C37.5123 56.4202 37.9248 56.337 38.3097 56.1751C38.6946 56.0133 39.0443 55.776 39.3389 55.4768C39.6335 55.1777 39.8671 54.8225 40.0264 54.4316C40.1858 54.0407 40.2677 53.6217 40.2675 53.1986V13.039ZM39.2704 50.8976C39.2706 51.3209 39.1886 51.7401 39.0291 52.1312C38.8696 52.5223 38.6357 52.8776 38.3409 53.1768C38.046 53.476 37.696 53.7132 37.3108 53.8749C36.9256 54.0366 36.5128 54.1195 36.096 54.119H21.0573C20.6407 54.1192 20.2282 54.036 19.8433 53.8741C19.4584 53.7123 19.1086 53.475 18.8141 53.1759C18.5195 52.8767 18.2859 52.5215 18.1265 52.1306C17.9672 51.7397 17.8853 51.3207 17.8854 50.8976V13.78C17.8854 12.9256 18.2196 12.1063 18.8145 11.5021C19.4093 10.898 20.2161 10.5586 21.0573 10.5586H27.3459L27.3523 10.582C27.5379 11.2632 27.9667 11.7039 28.4416 11.7039H28.7142C29.1891 11.7039 29.6179 11.2632 29.8035 10.582V10.5586H36.096C36.5128 10.5583 36.9255 10.6413 37.3106 10.8031C37.6957 10.9648 38.0457 11.202 38.3405 11.5012C38.6353 11.8004 38.8692 12.1556 39.0287 12.5466C39.1883 12.9376 39.2704 13.3567 39.2704 13.78V50.8976Z" fill="#707070" stroke="#263238" stroke-width="0.5" stroke-linecap="round" stroke-linejoin="round"/>
<path d="M36.5402 10.2609H20.6157C19.7246 10.2609 18.8699 10.6204 18.2398 11.2604C17.6097 11.9004 17.2557 12.7683 17.2557 13.6734V52.5642C17.2557 53.0123 17.3426 53.4561 17.5114 53.8701C17.6803 54.2841 17.9278 54.6603 18.2398 54.9772C18.5518 55.2941 18.9222 55.5454 19.3299 55.7169C19.7375 55.8884 20.1744 55.9767 20.6157 55.9767H36.5402C36.9814 55.9767 37.4183 55.8884 37.826 55.7169C38.2336 55.5454 38.604 55.2941 38.916 54.9772C39.228 54.6603 39.4755 54.2841 39.6444 53.8701C39.8132 53.4561 39.9002 53.0123 39.9002 52.5642V13.6734C39.9002 12.7683 39.5462 11.9004 38.916 11.2604C38.2859 10.6204 37.4313 10.2609 36.5402 10.2609ZM39.2704 50.8976C39.2706 51.3209 39.1886 51.7401 39.0291 52.1312C38.8696 52.5223 38.6357 52.8776 38.3409 53.1768C38.046 53.476 37.696 53.7132 37.3108 53.8749C36.9256 54.0366 36.5128 54.1195 36.096 54.119H21.0573C20.6407 54.1192 20.2282 54.036 19.8433 53.8741C19.4584 53.7123 19.1086 53.475 18.8141 53.1759C18.5195 52.8767 18.2859 52.5215 18.1265 52.1306C17.9672 51.7397 17.8853 51.3207 17.8854 50.8976V13.78C17.8854 12.9256 18.2196 12.1063 18.8145 11.5021C19.4093 10.898 20.2161 10.5586 21.0573 10.5586H27.3459L27.3523 10.582C27.5379 11.2632 27.9667 11.7039 28.4416 11.7039H28.7142C29.1891 11.7039 29.6179 11.2632 29.8035 10.582V10.5586H36.096C36.5127 10.5583 36.9255 10.6413 37.3106 10.8031C37.6957 10.9648 38.0457 11.202 38.3405 11.5012C38.6353 11.8004 38.8692 12.1556 39.0287 12.5466C39.1883 12.9376 39.2704 13.3567 39.2704 13.78V50.8976Z" fill="#263238" stroke="#263238" stroke-width="0.5" stroke-linecap="round" stroke-linejoin="round"/>
<path d="M28.8102 10.7081C28.8102 10.6481 28.7927 10.5895 28.7599 10.5397C28.7271 10.4898 28.6804 10.451 28.6258 10.4281C28.5713 10.4052 28.5112 10.3993 28.4533 10.4111C28.3955 10.4229 28.3423 10.4519 28.3007 10.4944C28.259 10.5369 28.2307 10.591 28.2193 10.6498C28.208 10.7086 28.2141 10.7696 28.2368 10.8249C28.2596 10.8802 28.298 10.9275 28.3472 10.9606C28.3965 10.9937 28.4542 11.0113 28.5133 11.011C28.5524 11.011 28.5911 11.0032 28.6272 10.9879C28.6633 10.9727 28.6961 10.9503 28.7237 10.9222C28.7513 10.8941 28.7732 10.8607 28.788 10.8239C28.8029 10.7872 28.8104 10.7478 28.8102 10.7081Z" fill="#707070"/>
<path d="M19.7862 11.8664C19.7862 12.1732 19.447 12.2824 19.4458 12.5164V12.532H19.7747V12.6347H19.3357V12.5489C19.3357 12.2213 19.6749 12.1589 19.6749 11.8716C19.6749 11.7663 19.6403 11.7117 19.5571 11.7117C19.4739 11.7117 19.4406 11.7715 19.4406 11.8612V11.9509H19.3357V11.8677C19.3357 11.713 19.4061 11.6077 19.5597 11.6077C19.7133 11.6077 19.7862 11.7117 19.7862 11.8664Z" fill="#263238"/>
<path d="M20.3328 11.8651V11.8911C20.3379 11.9347 20.3288 11.9788 20.3068 12.0166C20.2849 12.0544 20.2513 12.0839 20.2112 12.1004C20.2514 12.1171 20.285 12.1468 20.307 12.1849C20.3289 12.2229 20.338 12.2672 20.3328 12.311V12.389C20.3328 12.5437 20.2611 12.649 20.1075 12.649C19.9539 12.649 19.8835 12.5476 19.8835 12.389V12.3188H19.9872V12.3955C19.9872 12.4878 20.0243 12.5424 20.1037 12.5424C20.183 12.5424 20.2214 12.4891 20.2214 12.3864V12.3071C20.2214 12.207 20.1805 12.1602 20.0934 12.1563H20.0333V12.0549H20.096C20.1133 12.0551 20.1304 12.0514 20.1462 12.0443C20.162 12.0371 20.1761 12.0266 20.1876 12.0134C20.199 12.0001 20.2075 11.9846 20.2124 11.9678C20.2174 11.9509 20.2187 11.9332 20.2163 11.9158V11.8703C20.2163 11.765 20.1805 11.7117 20.0986 11.7117C20.0166 11.7117 19.9821 11.7689 19.9821 11.8599V11.9119H19.8784V11.8651C19.8784 11.7104 19.9488 11.6051 20.1024 11.6051C20.256 11.6051 20.3328 11.7104 20.3328 11.8651Z" fill="#263238"/>
<path d="M20.5478 11.9418V12.09H20.4416V11.9418H20.5478ZM20.5478 12.4943V12.6347H20.4416V12.4943H20.5478Z" fill="#263238"/>
<path d="M20.7744 12.0341C20.7887 12.0071 20.8103 11.9849 20.8365 11.9699C20.8628 11.955 20.8928 11.9479 20.9229 11.9496C21.0509 11.9496 21.1085 12.0458 21.1085 12.1901V12.389C21.1085 12.5437 21.0355 12.649 20.8832 12.649C20.7309 12.649 20.6579 12.5476 20.6579 12.389V12.3201H20.7629V12.3955C20.7629 12.4878 20.8 12.5424 20.8794 12.5424C20.9587 12.5424 20.9971 12.4878 20.9971 12.3955V12.1992C20.9971 12.1082 20.96 12.0523 20.8794 12.0523C20.8648 12.0516 20.8503 12.0539 20.8366 12.0591C20.823 12.0642 20.8105 12.0722 20.8 12.0824C20.7895 12.0926 20.7811 12.1049 20.7754 12.1185C20.7696 12.1321 20.7667 12.1467 20.7667 12.1615V12.1849H20.663L20.6899 11.6207H21.0842V11.7221H20.7898L20.7744 12.0341Z" fill="#263238"/>
<path d="M21.664 11.8638V11.8833H21.559V11.8573C21.559 11.765 21.5219 11.7117 21.4413 11.7117C21.3606 11.7117 21.3197 11.7663 21.3197 11.8755V12.103C21.3313 12.0696 21.3534 12.041 21.3825 12.0216C21.4116 12.0021 21.4462 11.9928 21.481 11.9951C21.609 11.9951 21.6666 12.0887 21.6666 12.2356V12.389C21.6666 12.5437 21.591 12.649 21.4374 12.649C21.2838 12.649 21.2083 12.5476 21.2083 12.389V11.869C21.2083 11.7078 21.28 11.609 21.4374 11.609C21.5949 11.609 21.664 11.7091 21.664 11.8638ZM21.3197 12.2434V12.3955C21.3197 12.4878 21.3568 12.5424 21.4374 12.5424C21.5181 12.5424 21.5565 12.4878 21.5565 12.3955V12.2434C21.5565 12.1524 21.5181 12.0978 21.4374 12.0978C21.3568 12.0978 21.3197 12.1524 21.3197 12.2434Z" fill="#263238"/>
<path d="M32.5722 11.908H32.2906V12.6243H32.5722V11.908Z" fill="#263238"/>
<path d="M32.9485 11.765H32.6669V12.6243H32.9485V11.765Z" fill="#263238"/>
<path d="M33.3248 11.6636H33.0432V12.6256H33.3248V11.6636Z" fill="#263238"/>
<path d="M33.7011 11.4855H33.4195V12.6243H33.7011V11.4855Z" fill="#263238"/>
<path d="M37.193 12.61H35.5008V11.5544H37.193V12.61ZM35.5942 12.5151H37.0995V11.6506H35.5942V12.5151Z" fill="#263238"/>
<path d="M36.6285 11.7546H35.735V12.4059H36.6285V11.7546Z" fill="#263238"/>
<path d="M37.3466 11.9561H37.1341V12.2031H37.3466V11.9561Z" fill="#263238"/>
<path d="M34.88 12.3773C34.8687 12.3771 34.8577 12.3739 34.848 12.3682C34.5024 12.1602 34.2746 12.3526 34.2656 12.3604C34.2598 12.3664 34.2528 12.3713 34.2451 12.3745C34.2374 12.3778 34.2291 12.3795 34.2208 12.3795C34.2125 12.3795 34.2042 12.3778 34.1965 12.3745C34.1888 12.3713 34.1818 12.3664 34.176 12.3604C34.1655 12.3475 34.1603 12.331 34.1615 12.3142C34.1627 12.2975 34.1702 12.2819 34.1824 12.2707C34.1952 12.2603 34.4858 12.0107 34.912 12.2707C34.9234 12.2782 34.9322 12.2891 34.9371 12.302C34.942 12.3149 34.9427 12.3291 34.9391 12.3424C34.9356 12.3557 34.9279 12.3676 34.9173 12.3762C34.9066 12.3848 34.8936 12.3897 34.88 12.3903V12.3773Z" fill="#263238"/>
<path d="M35.0067 12.1615C34.9955 12.1609 34.9846 12.1578 34.9747 12.1524C34.4768 11.8508 34.1414 12.142 34.1389 12.1446C34.1329 12.1516 34.1256 12.1572 34.1173 12.1611C34.109 12.165 34.1001 12.167 34.091 12.1671C34.0819 12.1672 34.0728 12.1653 34.0645 12.1615C34.0562 12.1578 34.0487 12.1523 34.0427 12.1454C34.0366 12.1385 34.0321 12.1303 34.0294 12.1215C34.0266 12.1127 34.0258 12.1034 34.0269 12.0942C34.028 12.085 34.0311 12.0762 34.0358 12.0683C34.0405 12.0604 34.0469 12.0536 34.0544 12.0484C34.0544 12.0484 34.4627 11.6935 35.04 12.0419C35.0542 12.0505 35.0645 12.0646 35.0686 12.0809C35.0727 12.0972 35.0702 12.1145 35.0618 12.129C35.0562 12.1388 35.0482 12.147 35.0385 12.1527C35.0288 12.1584 35.0179 12.1614 35.0067 12.1615Z" fill="#263238"/>
<path d="M35.1232 11.9106C35.1115 11.9109 35.0999 11.9077 35.0899 11.9015C34.4602 11.5206 34.0403 11.8794 34.0224 11.9015C34.0167 11.9075 34.0098 11.9123 34.0022 11.9156C33.9946 11.9188 33.9865 11.9205 33.9782 11.9205C33.97 11.9205 33.9618 11.9188 33.9543 11.9156C33.9467 11.9123 33.9398 11.9075 33.9341 11.9015C33.9224 11.8896 33.9159 11.8734 33.9159 11.8566C33.9159 11.8398 33.9224 11.8237 33.9341 11.8118C33.9341 11.8118 34.4371 11.3737 35.1501 11.804C35.1644 11.8129 35.1747 11.8271 35.1788 11.8437C35.1828 11.8602 35.1803 11.8777 35.1718 11.8924C35.1656 11.8989 35.158 11.9039 35.1495 11.9071C35.1411 11.9102 35.1321 11.9114 35.1232 11.9106Z" fill="#263238"/>
<path d="M34.688 12.48C34.688 12.5227 34.6713 12.5637 34.6415 12.594C34.6117 12.6242 34.5714 12.6412 34.5293 12.6412C34.4872 12.6412 34.4468 12.6242 34.417 12.594C34.3873 12.5637 34.3706 12.5227 34.3706 12.48C34.3706 12.4372 34.3873 12.3962 34.417 12.366C34.4468 12.3358 34.4872 12.3188 34.5293 12.3188C34.5714 12.3188 34.6117 12.3358 34.6415 12.366C34.6713 12.3962 34.688 12.4372 34.688 12.48Z" fill="#263238"/>
<path d="M41.2224 17.9621H40.5568V20.6284H41.2224V17.9621Z" fill="#263238" stroke="#263238" stroke-width="0.5" stroke-linecap="round" stroke-linejoin="round"/>
<path d="M41.2224 23.7328H40.5568V26.3991H41.2224V23.7328Z" fill="#263238" stroke="#263238" stroke-width="0.5" stroke-linecap="round" stroke-linejoin="round"/>
<path d="M41.2224 26.6786H40.5568V29.3449H41.2224V26.6786Z" fill="#263238" stroke="#263238" stroke-width="0.5" stroke-linecap="round" stroke-linejoin="round"/>
<path d="M22.807 28.4986V28.5441H22.6304V28.4882C22.6304 28.3348 22.5728 28.2451 22.4384 28.2451C22.304 28.2451 22.2464 28.3348 22.2464 28.4856C22.2464 28.8678 22.8096 28.9055 22.8096 29.3839C22.8096 29.6439 22.688 29.8103 22.432 29.8103C22.176 29.8103 22.0557 29.6426 22.0557 29.3839V29.2877H22.2298V29.3943C22.2298 29.5477 22.2925 29.6374 22.4269 29.6374C22.5613 29.6374 22.6227 29.5477 22.6227 29.3943C22.6227 29.0147 22.0621 28.9783 22.0621 28.4986C22.0621 28.2386 22.1824 28.0722 22.4333 28.0722C22.6842 28.0722 22.807 28.2399 22.807 28.4986Z" fill="#263238"/>
<path d="M23.5699 28.8444V29.0147H23.1603V29.6205H23.6634V29.7934H22.9734V28.0891H23.6634V28.262H23.1603V28.8444H23.5699Z" fill="#263238"/>
<path d="M24.576 28.5012V28.6546H24.3981V28.4908C24.3981 28.3374 24.3379 28.2451 24.2022 28.2451C24.0666 28.2451 24.0051 28.3374 24.0051 28.4908V29.3917C24.0051 29.5451 24.0678 29.6374 24.2022 29.6374C24.3366 29.6374 24.3981 29.5451 24.3981 29.3917V29.1707H24.576V29.38C24.576 29.64 24.4557 29.8077 24.192 29.8077C23.9283 29.8077 23.8157 29.6374 23.8157 29.38V28.4986C23.8157 28.2386 23.9347 28.0696 24.192 28.0696C24.4493 28.0696 24.576 28.2425 24.576 28.5012Z" fill="#263238"/>
<path d="M24.9242 29.3917C24.9242 29.5451 24.9843 29.6374 25.1213 29.6374C25.2582 29.6374 25.3146 29.5451 25.3146 29.3917V28.0917H25.4899V29.3917C25.4899 29.6517 25.3722 29.822 25.1136 29.822C24.855 29.822 24.7398 29.6491 24.7398 29.3917V28.0917H24.9242V29.3917Z" fill="#263238"/>
<path d="M26.0493 28.0891C26.313 28.0891 26.423 28.2256 26.423 28.4791V28.6182C26.423 28.8054 26.3578 28.9224 26.2144 28.9679C26.368 29.0147 26.4256 29.1408 26.4256 29.3241V29.5841C26.4196 29.6539 26.431 29.7241 26.4589 29.7882H26.2694C26.2432 29.7227 26.2327 29.6519 26.2387 29.5815V29.3137C26.2387 29.1213 26.1491 29.0602 25.9942 29.0602H25.8662V29.7882H25.6794V28.0891H26.0493ZM26.0006 28.8925C26.1491 28.8925 26.2387 28.8444 26.2387 28.6585V28.496C26.2387 28.3426 26.1837 28.262 26.0442 28.262H25.8624V28.8925H26.0006Z" fill="#263238"/>
<path d="M27.2166 28.8444V29.0147H26.807V29.6205H27.3101V29.7934H26.624V28.0891H27.3139V28.262H26.8109V28.8444H27.2166Z" fill="#263238"/>
<path d="M28.2202 28.0891C28.4838 28.0891 28.5965 28.2477 28.5965 28.5051V28.7105C28.5965 28.9809 28.4685 29.1213 28.2125 29.1213H28.0474V29.7934H27.8605V28.0891H28.2202ZM28.2061 28.951C28.3456 28.951 28.4122 28.886 28.4122 28.7222V28.496C28.4122 28.34 28.3571 28.262 28.2202 28.262H28.041V28.951H28.2061Z" fill="#263238"/>
<path d="M28.9011 29.4502L28.8371 29.7934H28.6643L28.9856 28.0891H29.257L29.577 29.7934H29.3901L29.3261 29.4502H28.9011ZM28.9254 29.2877H29.2992L29.1098 28.3036L28.9254 29.2877Z" fill="#263238"/>
<path d="M29.9034 29.1824L29.5488 28.0891H29.7434L29.9994 28.9263L30.263 28.0891H30.4397L30.0826 29.1824V29.7934H29.8982L29.9034 29.1824Z" fill="#263238"/>
<path d="M31.1987 29.7908H31.0182L30.7405 28.4349V29.7934H30.5779V28.0891H30.8339L31.1091 29.4502L31.3754 28.0891H31.6314V29.7934H31.4534V28.4232L31.1987 29.7908Z" fill="#263238"/>
<path d="M32.4301 28.8444V29.0147H32.0205V29.6205H32.5235V29.7934H31.8336V28.0891H32.5235V28.262H32.0205V28.8444H32.4301Z" fill="#263238"/>
<path d="M32.8614 29.7934H32.6938V28.0891H32.9318L33.3158 29.3215V28.0891H33.481V29.7934H33.2877L32.8576 28.4154L32.8614 29.7934Z" fill="#263238"/>
<path d="M33.92 29.7934V28.262H33.6115V28.0891H34.4141V28.262H34.1056V29.7934H33.92Z" fill="#263238"/>
<path d="M29.7562 22.4731V21.9089C29.7562 20.7935 29.0266 20.3983 28.279 20.3983C28.084 20.3948 27.8903 20.4317 27.7098 20.5068C27.5293 20.5818 27.3657 20.6934 27.2291 20.8347C27.0924 20.9761 26.9855 21.1442 26.9149 21.3289C26.8444 21.5136 26.8116 21.7109 26.8186 21.9089V22.4731H26.6112V25.6022H29.952V22.4731H29.7562ZM28.3776 24.193V24.7598H28.0627V24.193C27.972 24.1559 27.8969 24.0879 27.8502 24.0006C27.8035 23.9134 27.7881 23.8124 27.8067 23.7149C27.8254 23.6174 27.8768 23.5295 27.9522 23.4663C28.0277 23.4032 28.1224 23.3686 28.2202 23.3686C28.3179 23.3686 28.4127 23.4032 28.4881 23.4663C28.5635 23.5295 28.615 23.6174 28.6336 23.7149C28.6522 23.8124 28.6368 23.9134 28.5901 24.0006C28.5434 24.0879 28.4683 24.1559 28.3776 24.193ZM29.2941 22.4731H27.264V21.9089C27.264 21.6357 27.3708 21.3737 27.5608 21.1804C27.7509 20.9871 28.0088 20.8783 28.2778 20.878C28.4127 20.8717 28.5475 20.8941 28.6734 20.9436C28.7994 20.9932 28.9137 21.0689 29.0093 21.166C29.1048 21.263 29.1793 21.3791 29.2282 21.5071C29.277 21.635 29.299 21.7718 29.2928 21.9089L29.2941 22.4731Z" fill="#263238" stroke="#263238" stroke-width="0.1" stroke-miterlimit="10"/>
<path d="M33.2493 31.7343H23.095C22.6709 31.7343 22.327 32.0835 22.327 32.5143V38.6672C22.327 39.098 22.6709 39.4472 23.095 39.4472H33.2493C33.6734 39.4472 34.0173 39.098 34.0173 38.6672V32.5143C34.0173 32.0835 33.6734 31.7343 33.2493 31.7343Z" fill="#92E3A9" stroke="#263238" stroke-width="0.5" stroke-linecap="round" stroke-linejoin="round"/>
<path d="M34.0173 32.9485H22.327V35.1156H34.0173V32.9485Z" fill="#263238" stroke="#263238" stroke-width="0.5" stroke-miterlimit="10"/>
<path d="M32.7334 36.4104H31.7581C31.5382 36.4104 31.36 36.5914 31.36 36.8147V37.8053C31.36 38.0286 31.5382 38.2096 31.7581 38.2096H32.7334C32.9533 38.2096 33.1315 38.0286 33.1315 37.8053V36.8147C33.1315 36.5914 32.9533 36.4104 32.7334 36.4104Z" fill="white" stroke="#263238" stroke-width="0.5" stroke-linecap="round" stroke-linejoin="round"/>
<path d="M27.639 37.7611H23.4304V38.2564H27.639V37.7611Z" fill="white" stroke="#263238" stroke-width="0.5" stroke-linecap="round" stroke-linejoin="round"/>
</svg>
